*
*
G04 PADS VX.2.11 Build Number: 20124196 generated Gerber (RS-274-X) file*
G04 PC Version=2.1*
*
%IN "test6.pcb"*%
*
%MOIN*%
*
%FSLAX35Y35*%
*
*
*
*
G04 PC Standard Apertures*
*
*
G04 Thermal Relief Aperture macro.*
%AMTER*
1,1,$1,0,0*
1,0,$1-$2,0,0*
21,0,$3,$4,0,0,45*
21,0,$3,$4,0,0,135*
%
*
*
G04 Annular Aperture macro.*
%AMANN*
1,1,$1,0,0*
1,0,$2,0,0*
%
*
*
G04 Odd Aperture macro.*
%AMODD*
1,1,$1,0,0*
1,0,$1-0.005,0,0*
%
*
*
G04 PC Custom Aperture Macros*
*
*
*
*
*
*
G04 PC Aperture Table*
*
%ADD010C,0.001*%
%ADD011R,0.063X0.024*%
%ADD012R,0.12X0.095*%
%ADD013R,0.06X0.06*%
%ADD014ANN,0.07087X0.03937*%
%ADD015C,0.01*%
%ADD024C,0.006*%
%ADD025C,0.005*%
*
*
*
*
G04 PC Circuitry*
G04 Layer Name test6.pcb - circuitry*
%LPD*%
*
*
G04 PC Custom Flashes*
G04 Layer Name test6.pcb - flashes*
%LPD*%
*
*
G04 PC Circuitry*
G04 Layer Name test6.pcb - circuitry*
%LPD*%
*
G54D10*
G54D11*
G01X261279Y193381D03*
Y198381D03*
Y203381D03*
Y208381D03*
X240019D03*
Y203381D03*
Y198381D03*
Y193381D03*
X261279Y143381D03*
Y148381D03*
Y153381D03*
Y158381D03*
X240019D03*
Y153381D03*
Y148381D03*
Y143381D03*
X191279Y193381D03*
Y198381D03*
Y203381D03*
Y208381D03*
X170019D03*
Y203381D03*
Y198381D03*
Y193381D03*
X191279Y143381D03*
Y148381D03*
Y153381D03*
Y158381D03*
X170019D03*
Y153381D03*
Y148381D03*
Y143381D03*
G54D12*
X317119Y115798D03*
X287619D03*
X219616Y251724D03*
X190116D03*
G54D13*
X108643Y197198D03*
Y210698D03*
X123899Y210861D03*
X137399D03*
X303899D03*
X317399D03*
X123992Y189582D03*
X137492D03*
G54D14*
X315531Y175586D03*
Y185822D03*
G54D15*
X293619Y124248D02*
X277869D01*
Y107348*
X293619*
X311119Y124248D02*
X323619D01*
X326869Y121048*
Y110548*
X323619Y107348*
X311119*
X103643Y200198D02*
Y192148D01*
X113643*
Y200198*
X103643Y207698D02*
Y215748D01*
X113643*
Y207698*
X126899Y215861D02*
X118849D01*
Y205861*
X126899*
X134399Y215861D02*
X142449D01*
Y205861*
X134399*
X306899Y215861D02*
X298849D01*
Y205861*
X306899*
X314399Y215861D02*
X322449D01*
Y205861*
X314399*
X196116Y260174D02*
X180366D01*
Y243274*
X196116*
X213616Y260174D02*
X226116D01*
X229366Y256974*
Y246474*
X226116Y243274*
X213616*
X126992Y194582D02*
X118942D01*
Y184582*
X126992*
X134492Y194582D02*
X142542D01*
Y184582*
X134492*
X298542Y141261D02*
Y136261D01*
X298314Y135323*
X298087Y135011*
X297633Y134698*
X297178*
X296724Y135011*
X296496Y135323*
X296269Y136261*
Y136886*
X300587Y140011D02*
X301042Y140323D01*
X301724Y141261*
Y134698*
X106147Y134788D02*
Y128226D01*
Y134788D02*
X107738D01*
X108419Y134476*
X108874Y133851*
X109101Y133226*
X109328Y132288*
Y130726*
X109101Y129788*
X108874Y129163*
X108419Y128538*
X107738Y128226*
X106147*
X111374Y130726D02*
X114101D01*
Y131351*
X113874Y131976*
X113647Y132288*
X113192Y132601*
X112510*
X112056Y132288*
X111601Y131663*
X111374Y130726*
Y130101*
X111601Y129163*
X112056Y128538*
X112510Y128226*
X113192*
X113647Y128538*
X114101Y129163*
X118647Y131663D02*
X118419Y132288D01*
X117738Y132601*
X117056*
X116374Y132288*
X116147Y131663*
X116374Y131038*
X116828Y130726*
X117965Y130413*
X118419Y130101*
X118647Y129476*
Y129163*
X118419Y128538*
X117738Y128226*
X117056*
X116374Y128538*
X116147Y129163*
X120692Y134788D02*
X120919Y134476D01*
X121147Y134788*
X120919Y135101*
X120692Y134788*
X120919Y132601D02*
Y128226D01*
X125919Y132601D02*
Y127601D01*
X125692Y126663*
X125465Y126351*
X125010Y126038*
X124328*
X123874Y126351*
X125919Y131663D02*
X125465Y132288D01*
X125010Y132601*
X124328*
X123874Y132288*
X123419Y131663*
X123192Y130726*
Y130101*
X123419Y129163*
X123874Y128538*
X124328Y128226*
X125010*
X125465Y128538*
X125919Y129163*
X127965Y132601D02*
Y128226D01*
Y131351D02*
X128647Y132288D01*
X129101Y132601*
X129783*
X130238Y132288*
X130465Y131351*
Y128226*
X132510Y130726D02*
X135238D01*
Y131351*
X135010Y131976*
X134783Y132288*
X134328Y132601*
X133647*
X133192Y132288*
X132738Y131663*
X132510Y130726*
Y130101*
X132738Y129163*
X133192Y128538*
X133647Y128226*
X134328*
X134783Y128538*
X135238Y129163*
X140010Y134788D02*
Y128226D01*
Y131663D02*
X139556Y132288D01*
X139101Y132601*
X138419*
X137965Y132288*
X137510Y131663*
X137283Y130726*
Y130101*
X137510Y129163*
X137965Y128538*
X138419Y128226*
X139101*
X139556Y128538*
X140010Y129163*
X147283Y134788D02*
Y128226D01*
Y131663D02*
X147738Y132288D01*
X148192Y132601*
X148874*
X149328Y132288*
X149783Y131663*
X150010Y130726*
Y130101*
X149783Y129163*
X149328Y128538*
X148874Y128226*
X148192*
X147738Y128538*
X147283Y129163*
X152283Y132601D02*
X153647Y128226D01*
X155010Y132601D02*
X153647Y128226D01*
X153192Y126976*
X152738Y126351*
X152283Y126038*
X152056*
X157283Y132601D02*
X157056Y132288D01*
X157283Y131976*
X157510Y132288*
X157283Y132601*
Y128851D02*
X157056Y128538D01*
X157283Y128226*
X157510Y128538*
X157283Y128851*
X107232Y121181D02*
X105414Y114619D01*
X107232Y121181D02*
X109050Y114619D01*
X106096Y116806D02*
X108368D01*
X111096Y121181D02*
Y114619D01*
X115868Y121181D02*
Y114619D01*
Y118056D02*
X115414Y118681D01*
X114959Y118994*
X114278*
X113823Y118681*
X113368Y118056*
X113141Y117119*
Y116494*
X113368Y115556*
X113823Y114931*
X114278Y114619*
X114959*
X115414Y114931*
X115868Y115556*
X117914Y118994D02*
Y115869D01*
X118141Y114931*
X118596Y114619*
X119278*
X119732Y114931*
X120414Y115869*
Y118994D02*
Y114619D01*
X122459Y121181D02*
Y114619D01*
X127232Y118994D02*
Y114619D01*
Y118056D02*
X126778Y118681D01*
X126323Y118994*
X125641*
X125187Y118681*
X124732Y118056*
X124505Y117119*
Y116494*
X124732Y115556*
X125187Y114931*
X125641Y114619*
X126323*
X126778Y114931*
X127232Y115556*
X129278Y121181D02*
X129505Y120869D01*
X129732Y121181*
X129505Y121494*
X129278Y121181*
X129505Y118994D02*
Y114619D01*
X131778Y118994D02*
Y114619D01*
Y117744D02*
X132459Y118681D01*
X132914Y118994*
X133596*
X134050Y118681*
X134278Y117744*
Y114619*
Y117744D02*
X134959Y118681D01*
X135414Y118994*
X136096*
X136550Y118681*
X136778Y117744*
Y114619*
X138823Y121181D02*
X139050Y120869D01*
X139278Y121181*
X139050Y121494*
X138823Y121181*
X139050Y118994D02*
Y114619D01*
X148368Y121181D02*
X146550Y114619D01*
X148368Y121181D02*
X150187Y114619D01*
X147232Y116806D02*
X149505D01*
X152232Y121181D02*
Y114619D01*
X154278Y121181D02*
X154505Y120869D01*
X154732Y121181*
X154505Y121494*
X154278Y121181*
X154505Y118994D02*
Y114619D01*
X99890Y264909D02*
X348598D01*
Y99791*
X99890*
Y264909*
G54D24*
X242775Y191019D02*
Y210704D01*
X258523*
Y191019*
X242775*
X257274Y193381D02*
G75*
G03X257274I-1113J0D01*
G01X242775Y141019D02*
Y160704D01*
X258523*
Y141019*
X242775*
X257274Y143381D02*
G03X257274I-1113J0D01*
G01X172775Y191019D02*
Y210704D01*
X188523*
Y191019*
X172775*
X187274Y193381D02*
G03X187274I-1113J0D01*
G01X172775Y141019D02*
Y160704D01*
X188523*
Y141019*
X172775*
X187274Y143381D02*
G03X187274I-1113J0D01*
G54D25*
G01X321785Y174143D02*
Y171643D01*
X321672Y171174*
X321558Y171018*
X321331Y170861*
X321104*
X320876Y171018*
X320763Y171174*
X320649Y171643*
Y171955*
X323944Y174143D02*
X322808Y171955D01*
X324513*
X323944Y174143D02*
Y170861D01*
G74*
X0Y0D02*
M02*
