*
*
G04 PADS VX.2.11 Build Number: 20124196 generated Gerber (RS-274-X) file*
G04 PC Version=2.1*
*
%IN "test6.pcb"*%
*
%MOIN*%
*
%FSLAX35Y35*%
*
*
*
*
G04 PC Standard Apertures*
*
*
G04 Thermal Relief Aperture macro.*
%AMTER*
1,1,$1,0,0*
1,0,$1-$2,0,0*
21,0,$3,$4,0,0,45*
21,0,$3,$4,0,0,135*
%
*
*
G04 Annular Aperture macro.*
%AMANN*
1,1,$1,0,0*
1,0,$2,0,0*
%
*
*
G04 Odd Aperture macro.*
%AMODD*
1,1,$1,0,0*
1,0,$1-0.005,0,0*
%
*
*
G04 PC Custom Aperture Macros*
*
*
*
*
*
*
G04 PC Aperture Table*
*
%ADD010C,0.001*%
%ADD011R,0.063X0.024*%
%ADD012R,0.12X0.095*%
%ADD013R,0.06X0.06*%
%ADD014ANN,0.07087X0.03937*%
%ADD015C,0.01*%
%ADD016C,0.03*%
%ADD017C,0.055*%
*
*
*
*
G04 PC Circuitry*
G04 Layer Name test6.pcb - circuitry*
%LPD*%
*
*
G04 PC Custom Flashes*
G04 Layer Name test6.pcb - flashes*
%LPD*%
*
*
G04 PC Circuitry*
G04 Layer Name test6.pcb - circuitry*
%LPD*%
*
G54D10*
G54D11*
G01X261279Y193381D03*
Y198381D03*
Y203381D03*
Y208381D03*
X240019D03*
Y203381D03*
Y198381D03*
Y193381D03*
X261279Y143381D03*
Y148381D03*
Y153381D03*
Y158381D03*
X240019D03*
Y153381D03*
Y148381D03*
Y143381D03*
X191279Y193381D03*
Y198381D03*
Y203381D03*
Y208381D03*
X170019D03*
Y203381D03*
Y198381D03*
Y193381D03*
X191279Y143381D03*
Y148381D03*
Y153381D03*
Y158381D03*
X170019D03*
Y153381D03*
Y148381D03*
Y143381D03*
G54D12*
X317119Y115798D03*
X287619D03*
X219616Y251724D03*
X190116D03*
G54D13*
X108643Y197198D03*
Y210698D03*
X123899Y210861D03*
X137399D03*
X303899D03*
X317399D03*
X123992Y189582D03*
X137492D03*
G54D14*
X315531Y175586D03*
Y185822D03*
G54D15*
X106147Y134788D02*
Y128226D01*
Y134788D02*
X107738D01*
X108419Y134476*
X108874Y133851*
X109101Y133226*
X109328Y132288*
Y130726*
X109101Y129788*
X108874Y129163*
X108419Y128538*
X107738Y128226*
X106147*
X111374Y130726D02*
X114101D01*
Y131351*
X113874Y131976*
X113647Y132288*
X113192Y132601*
X112510*
X112056Y132288*
X111601Y131663*
X111374Y130726*
Y130101*
X111601Y129163*
X112056Y128538*
X112510Y128226*
X113192*
X113647Y128538*
X114101Y129163*
X118647Y131663D02*
X118419Y132288D01*
X117738Y132601*
X117056*
X116374Y132288*
X116147Y131663*
X116374Y131038*
X116828Y130726*
X117965Y130413*
X118419Y130101*
X118647Y129476*
Y129163*
X118419Y128538*
X117738Y128226*
X117056*
X116374Y128538*
X116147Y129163*
X120692Y134788D02*
X120919Y134476D01*
X121147Y134788*
X120919Y135101*
X120692Y134788*
X120919Y132601D02*
Y128226D01*
X125919Y132601D02*
Y127601D01*
X125692Y126663*
X125465Y126351*
X125010Y126038*
X124328*
X123874Y126351*
X125919Y131663D02*
X125465Y132288D01*
X125010Y132601*
X124328*
X123874Y132288*
X123419Y131663*
X123192Y130726*
Y130101*
X123419Y129163*
X123874Y128538*
X124328Y128226*
X125010*
X125465Y128538*
X125919Y129163*
X127965Y132601D02*
Y128226D01*
Y131351D02*
X128647Y132288D01*
X129101Y132601*
X129783*
X130238Y132288*
X130465Y131351*
Y128226*
X132510Y130726D02*
X135238D01*
Y131351*
X135010Y131976*
X134783Y132288*
X134328Y132601*
X133647*
X133192Y132288*
X132738Y131663*
X132510Y130726*
Y130101*
X132738Y129163*
X133192Y128538*
X133647Y128226*
X134328*
X134783Y128538*
X135238Y129163*
X140010Y134788D02*
Y128226D01*
Y131663D02*
X139556Y132288D01*
X139101Y132601*
X138419*
X137965Y132288*
X137510Y131663*
X137283Y130726*
Y130101*
X137510Y129163*
X137965Y128538*
X138419Y128226*
X139101*
X139556Y128538*
X140010Y129163*
X147283Y134788D02*
Y128226D01*
Y131663D02*
X147738Y132288D01*
X148192Y132601*
X148874*
X149328Y132288*
X149783Y131663*
X150010Y130726*
Y130101*
X149783Y129163*
X149328Y128538*
X148874Y128226*
X148192*
X147738Y128538*
X147283Y129163*
X152283Y132601D02*
X153647Y128226D01*
X155010Y132601D02*
X153647Y128226D01*
X153192Y126976*
X152738Y126351*
X152283Y126038*
X152056*
X157283Y132601D02*
X157056Y132288D01*
X157283Y131976*
X157510Y132288*
X157283Y132601*
Y128851D02*
X157056Y128538D01*
X157283Y128226*
X157510Y128538*
X157283Y128851*
X107232Y121181D02*
X105414Y114619D01*
X107232Y121181D02*
X109050Y114619D01*
X106096Y116806D02*
X108368D01*
X111096Y121181D02*
Y114619D01*
X115868Y121181D02*
Y114619D01*
Y118056D02*
X115414Y118681D01*
X114959Y118994*
X114278*
X113823Y118681*
X113368Y118056*
X113141Y117119*
Y116494*
X113368Y115556*
X113823Y114931*
X114278Y114619*
X114959*
X115414Y114931*
X115868Y115556*
X117914Y118994D02*
Y115869D01*
X118141Y114931*
X118596Y114619*
X119278*
X119732Y114931*
X120414Y115869*
Y118994D02*
Y114619D01*
X122459Y121181D02*
Y114619D01*
X127232Y118994D02*
Y114619D01*
Y118056D02*
X126778Y118681D01*
X126323Y118994*
X125641*
X125187Y118681*
X124732Y118056*
X124505Y117119*
Y116494*
X124732Y115556*
X125187Y114931*
X125641Y114619*
X126323*
X126778Y114931*
X127232Y115556*
X129278Y121181D02*
X129505Y120869D01*
X129732Y121181*
X129505Y121494*
X129278Y121181*
X129505Y118994D02*
Y114619D01*
X131778Y118994D02*
Y114619D01*
Y117744D02*
X132459Y118681D01*
X132914Y118994*
X133596*
X134050Y118681*
X134278Y117744*
Y114619*
Y117744D02*
X134959Y118681D01*
X135414Y118994*
X136096*
X136550Y118681*
X136778Y117744*
Y114619*
X138823Y121181D02*
X139050Y120869D01*
X139278Y121181*
X139050Y121494*
X138823Y121181*
X139050Y118994D02*
Y114619D01*
X148368Y121181D02*
X146550Y114619D01*
X148368Y121181D02*
X150187Y114619D01*
X147232Y116806D02*
X149505D01*
X152232Y121181D02*
Y114619D01*
X154278Y121181D02*
X154505Y120869D01*
X154732Y121181*
X154505Y121494*
X154278Y121181*
X154505Y118994D02*
Y114619D01*
X132540Y216536D02*
G75*
G03X133266Y216090I500J-0D01*
G01X134399Y216361D02*
G03X133266Y216090I-0J-2500D01*
G01X134399Y216361D02*
X140399D01*
X142780Y214625D02*
G03X140399Y216361I-2381J-764D01*
G01X142780Y214625D02*
G03X143646Y214464I476J152D01*
G01X143682Y214505D02*
G03X143646Y214464I354J-353D01*
G01X143682Y214505D02*
X145901Y216724D01*
X146254Y216870D02*
G03X145901Y216724I0J-500D01*
G01X146254Y216870D02*
X196128D01*
X196628Y216370D02*
G03X196128Y216870I-500J-0D01*
G01X196628Y216370D02*
Y210891D01*
G03X196678Y210673I500J-0*
G01X196929Y209581D02*
G03X196678Y210673I-2500J0D01*
G01X196929Y209581D02*
Y207181D01*
X196682Y206098D02*
G03X196929Y207181I-2253J1083D01*
G01X196682Y206098D02*
G03Y205664I451J-217D01*
G01X196929Y204581D02*
G03X196682Y205664I-2500J0D01*
G01X196929Y204581D02*
Y202881D01*
G03X197429Y202381I500J0*
G01X203730*
X204962Y202187D02*
G03X203730Y202381I-1232J-3806D01*
G01X204962Y202187D02*
G03X205116Y202163I154J476D01*
G01X210424*
X210778Y202016D02*
G03X210424Y202163I-354J-353D01*
G01X210778Y202016D02*
X212339Y200455D01*
X212486Y200101D02*
G03X212339Y200455I-500J0D01*
G01X212486Y200101D02*
Y191638D01*
X212339Y191285D02*
G03X212486Y191638I-353J353D01*
G01X212339Y191285D02*
X209422Y188368D01*
X209069Y188222D02*
G03X209422Y188368I-0J500D01*
G01X209069Y188222D02*
X201222D01*
X200869Y188368D02*
G03X201222Y188222I353J354D01*
G01X200869Y188368D02*
X197634Y191603D01*
G03X196805Y191404I-354J-354*
G01X194429Y189681D02*
G03X196805Y191404I-0J2500D01*
G01X194429Y189681D02*
X188129D01*
X185629Y192181D02*
G03X188129Y189681I2500J0D01*
G01X185629Y192181D02*
Y193288D01*
G03X185129Y193788I-500J0*
G01X184639*
G03X184139Y193288I-0J-500*
G01Y179492*
G03X184639Y178992I500J0*
G01X211489*
G03X211843Y179139I0J500*
G01X217994Y185290*
G03X218141Y185644I-353J354*
G01Y215959*
X218641Y216459D02*
G03X218141Y215959I-0J-500D01*
G01X218641Y216459D02*
X271555D01*
X271908Y216313D02*
G03X271555Y216459I-353J-354D01*
G01X271908Y216313D02*
X274045Y214176D01*
X274191Y213823D02*
G03X274045Y214176I-500J-0D01*
G01X274191Y213823D02*
Y208893D01*
X274045Y208539D02*
G03X274191Y208893I-354J354D01*
G01X274045Y208539D02*
X272237Y206732D01*
X271883Y206585D02*
G03X272237Y206732I0J500D01*
G01X271883Y206585D02*
X267954D01*
G03X267454Y206085I-0J-500*
G01Y202881*
G03X267954Y202381I500J0*
G01X273225*
X274456Y202187D02*
G03X273225Y202381I-1231J-3806D01*
G01X274456Y202187D02*
G03X274610Y202163I154J476D01*
G01X282401*
X282754Y202016D02*
G03X282401Y202163I-353J-353D01*
G01X282754Y202016D02*
X283822Y200948D01*
X283969Y200594D02*
G03X283822Y200948I-500J0D01*
G01X283969Y200594D02*
Y187530D01*
X283469Y187030D02*
G03X283969Y187530I-0J500D01*
G01X283469Y187030D02*
X255629D01*
G03X255129Y186530I-0J-500*
G01Y176041*
G03X255629Y175541I500J0*
G01X282479*
G03X282833Y175688I0J500*
G01X287341Y180196*
G03X287488Y180550I-353J354*
G01Y234021*
G03X286988Y234521I-500J0*
G01X136398*
G03X136044Y234375I-0J-500*
G01X132686Y231017*
G03X132540Y230663I354J-354*
G01Y216536*
X162612Y152871D02*
G03X163112Y152371I500J-0D01*
G01X163869*
G03X164369Y152871I0J500*
G01Y154581*
X164616Y155664D02*
G03X164369Y154581I2253J-1083D01*
G01X164616Y155664D02*
G03Y156098I-451J217D01*
G01X164369Y157181D02*
G03X164616Y156098I2500J0D01*
G01X164369Y157181D02*
Y159581D01*
X166869Y162081D02*
G03X164369Y159581I0J-2500D01*
G01X166869Y162081D02*
X173169D01*
X175669Y159581D02*
G03X173169Y162081I-2500J0D01*
G01X175669Y159581D02*
Y157181D01*
X175422Y156098D02*
G03X175669Y157181I-2253J1083D01*
G01X175422Y156098D02*
G03Y155664I451J-217D01*
G01X175669Y154581D02*
G03X175422Y155664I-2500J0D01*
G01X175669Y154581D02*
Y152871D01*
G03X176169Y152371I500J-0*
G01X176887*
G03X177387Y152871I0J500*
G01Y198498*
G03X176887Y198998I-500J0*
G01X176169*
G03X175669Y198498I0J-500*
G01Y197181*
X175422Y196098D02*
G03X175669Y197181I-2253J1083D01*
G01X175422Y196098D02*
G03Y195664I451J-217D01*
G01X175669Y194581D02*
G03X175422Y195664I-2500J0D01*
G01X175669Y194581D02*
Y192181D01*
X173169Y189681D02*
G03X175669Y192181I0J2500D01*
G01X173169Y189681D02*
X166869D01*
X164369Y192181D02*
G03X166869Y189681I2500J0D01*
G01X164369Y192181D02*
Y194581D01*
X164616Y195664D02*
G03X164369Y194581I2253J-1083D01*
G01X164616Y195664D02*
G03Y196098I-451J217D01*
G01X164369Y197181D02*
G03X164616Y196098I2500J0D01*
G01X164369Y197181D02*
Y198498D01*
G03X163869Y198998I-500J0*
G01X163112*
G03X162612Y198498I-0J-500*
G01Y152871*
X221688Y147848D02*
G03X221834Y147495I500J0D01*
G01X226959Y142370*
G03X227313Y142224I354J354*
G01X233869*
G03X234369Y142724I0J500*
G01Y144581*
X234616Y145664D02*
G03X234369Y144581I2253J-1083D01*
G01X234616Y145664D02*
G03Y146098I-451J217D01*
G01X234369Y147181D02*
G03X234616Y146098I2500J0D01*
G01X234369Y147181D02*
Y148735D01*
G03X233869Y149235I-500J-0*
G01X227350*
X226850Y149735D02*
G03X227350Y149235I500J-0D01*
G01X226850Y149735D02*
Y202649D01*
X227350Y203149D02*
G03X226850Y202649I0J-500D01*
G01X227350Y203149D02*
X233869D01*
G03X234369Y203649I0J500*
G01Y204581*
X234616Y205664D02*
G03X234369Y204581I2253J-1083D01*
G01X234616Y205664D02*
G03Y206098I-451J217D01*
G01X234369Y207181D02*
G03X234616Y206098I2500J0D01*
G01X234369Y207181D02*
Y209581D01*
X234604Y210639D02*
G03X234369Y209581I2265J-1058D01*
G01X234604Y210639D02*
G03X234151Y211351I-453J212D01*
G01X222188*
G03X221688Y210851I0J-500*
G01Y147848*
X230480Y152871D02*
G03X230980Y152371I500J-0D01*
G01X233869*
G03X234369Y152871I0J500*
G01Y154581*
X234616Y155664D02*
G03X234369Y154581I2253J-1083D01*
G01X234616Y155664D02*
G03Y156098I-451J217D01*
G01X234369Y157181D02*
G03X234616Y156098I2500J0D01*
G01X234369Y157181D02*
Y159581D01*
X236869Y162081D02*
G03X234369Y159581I0J-2500D01*
G01X236869Y162081D02*
X243169D01*
X245586Y160219D02*
G03X243169Y162081I-2417J-638D01*
G01X245586Y160219D02*
G03X246570Y160346I484J127D01*
G01Y191416*
G03X245586Y191543I-500J-0*
G01X243169Y189681D02*
G03X245586Y191543I0J2500D01*
G01X243169Y189681D02*
X236869D01*
X234369Y192181D02*
G03X236869Y189681I2500J0D01*
G01X234369Y192181D02*
Y194581D01*
X234616Y195664D02*
G03X234369Y194581I2253J-1083D01*
G01X234616Y195664D02*
G03Y196098I-451J217D01*
G01X234369Y197181D02*
G03X234616Y196098I2500J0D01*
G01X234369Y197181D02*
Y198691D01*
G03X233869Y199191I-500J-0*
G01X230980*
G03X230480Y198691I-0J-500*
G01Y152871*
X187425Y127071D02*
G03X187925Y126571I500J0D01*
G01X275742*
G03X276095Y126718I-0J500*
G01X306486Y157108*
G03X306632Y157461I-354J353*
G01Y198705*
X307132Y199205D02*
G03X306632Y198705I0J-500D01*
G01X307132Y199205D02*
X332671D01*
G03X333171Y199705I0J500*
G01Y234843*
G03X332671Y235343I-500J-0*
G01X292439*
G03X291939Y234843I-0J-500*
G01Y177342*
X291792Y176988D02*
G03X291939Y177342I-353J354D01*
G01X291792Y176988D02*
X267354Y152550D01*
G03X267207Y152196I353J-354*
G01Y144476*
X267068Y144130D02*
G03X267207Y144476I-361J346D01*
G01X267068Y144130D02*
G03X266929Y143784I361J-346D01*
G01Y142181*
X264429Y139681D02*
G03X266929Y142181I-0J2500D01*
G01X264429Y139681D02*
X258129D01*
X255909Y141032D02*
G03X258129Y139681I2220J1149D01*
G01X255909Y141032D02*
G03X254965Y140802I-444J-230D01*
G01Y138560*
X254465Y138060D02*
G03X254965Y138560I-0J500D01*
G01X254465Y138060D02*
X226364D01*
X226011Y138207D02*
G03X226364Y138060I353J353D01*
G01X226011Y138207D02*
X209953Y154265D01*
G03X209599Y154411I-354J-354*
G01X197429*
G03X196929Y153911I-0J-500*
G01Y152181*
X196682Y151098D02*
G03X196929Y152181I-2253J1083D01*
G01X196682Y151098D02*
G03Y150664I451J-217D01*
G01X196929Y149581D02*
G03X196682Y150664I-2500J0D01*
G01X196929Y149581D02*
Y147181D01*
X196682Y146098D02*
G03X196929Y147181I-2253J1083D01*
G01X196682Y146098D02*
G03Y145664I451J-217D01*
G01X196929Y144581D02*
G03X196682Y145664I-2500J0D01*
G01X196929Y144581D02*
Y142181D01*
X194429Y139681D02*
G03X196929Y142181I-0J2500D01*
G01X194429Y139681D02*
X188129D01*
X187959Y139687D02*
G03X188129Y139681I170J2494D01*
G01X187959Y139687D02*
G03X187425Y139188I-34J-499D01*
G01Y127071*
X104002Y105693D02*
G03X104502Y105193I500J0D01*
G01X343986*
G03X344486Y105693I0J500*
G01Y259523*
G03X343986Y260023I-500J-0*
G01X104502*
G03X104002Y259523I-0J-500*
G01Y236654*
G03X104502Y236154I500J-0*
G01X127416*
X130311Y233942D02*
G03X127416Y236154I-2895J-788D01*
G01X130311Y233942D02*
G03X131147Y233720I482J132D01*
G01X134069Y236643*
X136191Y237521D02*
G03X134069Y236643I-0J-3000D01*
G01X136191Y237521D02*
X287488D01*
X288980Y237124D02*
G03X287488Y237521I-1492J-2603D01*
G01X288980Y237124D02*
G03X289616Y237241I248J434D01*
G01X291939Y238343D02*
G03X289616Y237241I-0J-3000D01*
G01X291939Y238343D02*
X333171D01*
X336171Y235343D02*
G03X333171Y238343I-3000J-0D01*
G01X336171Y235343D02*
Y199205D01*
X333171Y196205D02*
G03X336171Y199205I0J3000D01*
G01X333171Y196205D02*
X310132D01*
G03X309632Y195705I0J-500*
G01Y189519*
G03X310545Y189236I500J-0*
G01X319296Y181095D02*
G03X310545Y189236I-3765J4727D01*
G01X319296Y181095D02*
G03Y180313I312J-391D01*
G01X310545Y172171D02*
G03X319296Y180313I4986J3415D01*
G01X310545Y172171D02*
G03X309632Y171889I-413J-282D01*
G01Y157254*
X308753Y155133D02*
G03X309632Y157254I-2121J2121D01*
G01X308753Y155133D02*
X278070Y124450D01*
X275949Y123571D02*
G03X278070Y124450I-0J3000D01*
G01X275949Y123571D02*
X187425D01*
X184425Y126571D02*
G03X187425Y123571I3000J0D01*
G01X184425Y126571D02*
Y143976D01*
X184429Y144130D02*
G03X184425Y143976I2996J-154D01*
G01X184429Y144130D02*
G03X184430Y144156I-499J26D01*
X184102Y144625I-500J-0*
G01X182650Y145553D02*
G03X184102Y144625I2829J2828D01*
G01X182650Y145553D02*
X181077Y147126D01*
G03X180223Y146773I-354J-353*
G01Y138074*
X177223Y135074D02*
G03X180223Y138074I0J3000D01*
G01X177223Y135074D02*
X163963D01*
G03X163463Y134574I0J-500*
G01Y125696*
X160963Y123196D02*
G03X163463Y125696I0J2500D01*
G01X160963Y123196D02*
X160767D01*
G03X160267Y122696I0J-500*
X160280Y122586I500J0*
G01X160341Y122036D02*
G03X160280Y122586I-2500J-0D01*
G01X160341Y122036D02*
Y111036D01*
X157841Y108536D02*
G03X160341Y111036I0J2500D01*
G01X157841Y108536D02*
X106614D01*
X104854Y109260D02*
G03X106614Y108536I1760J1776D01*
G01X104854Y109260D02*
G03X104002Y108905I-352J-355D01*
G01Y105693*
X104505Y182250D02*
G03X105005Y181750I500J-0D01*
G01X127602*
G03X128102Y182250I0J500*
G01Y183645*
G03X127501Y184135I-500J0*
G01X126992Y184082D02*
G03X127501Y184135I0J2500D01*
G01X126992Y184082D02*
X120992D01*
X118492Y186582D02*
G03X120992Y184082I2500J0D01*
G01X118492Y186582D02*
Y192582D01*
X120992Y195082D02*
G03X118492Y192582I0J-2500D01*
G01X120992Y195082D02*
X126992D01*
X127501Y195030D02*
G03X126992Y195082I-509J-2448D01*
G01X127501Y195030D02*
G03X128102Y195520I101J490D01*
G01Y204945*
G03X127485Y205431I-500J0*
G01X126899Y205361D02*
G03X127485Y205431I-0J2500D01*
G01X126899Y205361D02*
X120899D01*
X118399Y207861D02*
G03X120899Y205361I2500J0D01*
G01X118399Y207861D02*
Y213861D01*
X120899Y216361D02*
G03X118399Y213861I-0J-2500D01*
G01X120899Y216361D02*
X126899D01*
X127485Y216292D02*
G03X126899Y216361I-586J-2431D01*
G01X127485Y216292D02*
G03X128102Y216778I117J486D01*
G01Y227874*
G03X127602Y228374I-500J-0*
G01X105005*
G03X104505Y227874I0J-500*
G01Y216630*
G03X105112Y216141I500J-0*
G01X105643Y216198D02*
G03X105112Y216141I-0J-2500D01*
G01X105643Y216198D02*
X111643D01*
X114143Y213698D02*
G03X111643Y216198I-2500J0D01*
G01X114143Y213698D02*
Y207698D01*
X111643Y205198D02*
G03X114143Y207698I-0J2500D01*
G01X111643Y205198D02*
X105643D01*
X105112Y205256D02*
G03X105643Y205198I531J2442D01*
G01X105112Y205255D02*
G03X104505Y204767I-107J-488D01*
G01Y203130*
G03X105112Y202641I500J-0*
G01X105643Y202698D02*
G03X105112Y202641I-0J-2500D01*
G01X105643Y202698D02*
X111643D01*
X114143Y200198D02*
G03X111643Y202698I-2500J0D01*
G01X114143Y200198D02*
Y194198D01*
X111643Y191698D02*
G03X114143Y194198I-0J2500D01*
G01X111643Y191698D02*
X105643D01*
X105112Y191756D02*
G03X105643Y191698I531J2442D01*
G01X105112Y191755D02*
G03X104505Y191267I-107J-488D01*
G01Y182250*
X148101Y142430D02*
G03X148601Y141930I500J0D01*
G01X163869*
G03X164369Y142430I0J500*
G01Y144581*
X164616Y145664D02*
G03X164369Y144581I2253J-1083D01*
G01X164616Y145664D02*
G03Y146098I-451J217D01*
G01X164369Y147181D02*
G03X164616Y146098I2500J0D01*
G01X164369Y147181D02*
Y148594D01*
G03X163869Y149094I-500J0*
G01X157021*
X156521Y149594D02*
G03X157021Y149094I500J0D01*
G01X156521Y149594D02*
Y201719D01*
X157021Y202219D02*
G03X156521Y201719I0J-500D01*
G01X157021Y202219D02*
X163309D01*
G03X163442Y202237I0J500*
G01X163940Y202341D02*
G03X163442Y202237I566J-3960D01*
G01X163940Y202341D02*
G03X164369Y202836I-71J495D01*
G01Y204581*
X164616Y205664D02*
G03X164369Y204581I2253J-1083D01*
G01X164616Y205664D02*
G03Y206098I-451J217D01*
G01X164369Y207181D02*
G03X164616Y206098I2500J0D01*
G01X164369Y207181D02*
Y209581D01*
X164377Y209785D02*
G03X164369Y209581I2492J-204D01*
G01X164377Y209785D02*
G03X163879Y210325I-498J40D01*
G01X148601*
G03X148101Y209825I0J-500*
G01Y142430*
X132540Y195207D02*
G03X133282Y194770I500J0D01*
G01X134492Y195082D02*
G03X133282Y194770I0J-2500D01*
G01X134492Y195082D02*
X140492D01*
X142612Y193908D02*
G03X140492Y195082I-2120J-1326D01*
G01X142612Y193908D02*
G03X143536Y194173I424J265D01*
G01Y206430*
G03X142596Y206669I-500J0*
G01X140399Y205361D02*
G03X142596Y206669I-0J2500D01*
G01X140399Y205361D02*
X134399D01*
X133266Y205633D02*
G03X134399Y205361I1133J2228D01*
G01X133266Y205633D02*
G03X132540Y205187I-226J-446D01*
G01Y195207*
X311899Y207861D02*
Y213861D01*
X314399Y216361D02*
G03X311899Y213861I-0J-2500D01*
G01X314399Y216361D02*
X320399D01*
X322899Y213861D02*
G03X320399Y216361I-2500J0D01*
G01X322899Y213861D02*
Y207861D01*
X320399Y205361D02*
G03X322899Y207861I-0J2500D01*
G01X320399Y205361D02*
X314399D01*
X311899Y207861D02*
G03X314399Y205361I2500J0D01*
G01X298399Y207861D02*
Y213861D01*
X300899Y216361D02*
G03X298399Y213861I-0J-2500D01*
G01X300899Y216361D02*
X306899D01*
X309399Y213861D02*
G03X306899Y216361I-2500J0D01*
G01X309399Y213861D02*
Y207861D01*
X306899Y205361D02*
G03X309399Y207861I-0J2500D01*
G01X306899Y205361D02*
X300899D01*
X298399Y207861D02*
G03X300899Y205361I2500J0D01*
G01X308619Y111048D02*
Y120548D01*
X311119Y123048D02*
G03X308619Y120548I-0J-2500D01*
G01X311119Y123048D02*
X323119D01*
X325619Y120548D02*
G03X323119Y123048I-2500J0D01*
G01X325619Y120548D02*
Y111048D01*
X323119Y108548D02*
G03X325619Y111048I-0J2500D01*
G01X323119Y108548D02*
X311119D01*
X308619Y111048D02*
G03X311119Y108548I2500J0D01*
G01X279119Y111048D02*
Y120548D01*
X281619Y123048D02*
G03X279119Y120548I-0J-2500D01*
G01X281619Y123048D02*
X293619D01*
X296119Y120548D02*
G03X293619Y123048I-2500J0D01*
G01X296119Y120548D02*
Y111048D01*
X293619Y108548D02*
G03X296119Y111048I-0J2500D01*
G01X293619Y108548D02*
X281619D01*
X279119Y111048D02*
G03X281619Y108548I2500J0D01*
G01X211116Y246974D02*
Y256474D01*
X213616Y258974D02*
G03X211116Y256474I-0J-2500D01*
G01X213616Y258974D02*
X225616D01*
X228116Y256474D02*
G03X225616Y258974I-2500J-0D01*
G01X228116Y256474D02*
Y246974D01*
X225616Y244474D02*
G03X228116Y246974I-0J2500D01*
G01X225616Y244474D02*
X213616D01*
X211116Y246974D02*
G03X213616Y244474I2500J-0D01*
G01X181616Y246974D02*
Y256474D01*
X184116Y258974D02*
G03X181616Y256474I-0J-2500D01*
G01X184116Y258974D02*
X196116D01*
X198616Y256474D02*
G03X196116Y258974I-2500J-0D01*
G01X198616Y256474D02*
Y246974D01*
X196116Y244474D02*
G03X198616Y246974I-0J2500D01*
G01X196116Y244474D02*
X184116D01*
X181616Y246974D02*
G03X184116Y244474I2500J-0D01*
G01X134809Y233140D02*
X287488D01*
X133909Y232240D02*
X287488D01*
X133009Y231340D02*
X287488D01*
X132540Y230440D02*
X287488D01*
X132540Y229540D02*
X287488D01*
X132540Y228640D02*
X287488D01*
X132540Y227740D02*
X287488D01*
X132540Y226840D02*
X287488D01*
X132540Y225940D02*
X287488D01*
X132540Y225040D02*
X287488D01*
X132540Y224140D02*
X287488D01*
X132540Y223240D02*
X287488D01*
X132540Y222340D02*
X287488D01*
X132540Y221440D02*
X287488D01*
X132540Y220540D02*
X287488D01*
X132540Y219640D02*
X287488D01*
X132540Y218740D02*
X287488D01*
X132540Y217840D02*
X287488D01*
X132540Y216940D02*
X287488D01*
X272181Y216040D02*
X287488D01*
X273081Y215140D02*
X287488D01*
X273981Y214240D02*
X287488D01*
X274191Y213340D02*
X287488D01*
X274191Y212440D02*
X287488D01*
X274191Y211540D02*
X287488D01*
X274191Y210640D02*
X287488D01*
X274191Y209740D02*
X287488D01*
X274188Y208840D02*
X287488D01*
X273445Y207940D02*
X287488D01*
X272545Y207040D02*
X287488D01*
X267457Y206140D02*
X287488D01*
X267454Y205240D02*
X287488D01*
X267454Y204340D02*
X287488D01*
X267454Y203440D02*
X287488D01*
X267588Y202540D02*
X287488D01*
X283130Y201640D02*
X287488D01*
X283947Y200740D02*
X287488D01*
X283969Y199840D02*
X287488D01*
X283969Y198940D02*
X287488D01*
X283969Y198040D02*
X287488D01*
X283969Y197140D02*
X287488D01*
X283969Y196240D02*
X287488D01*
X283969Y195340D02*
X287488D01*
X283969Y194440D02*
X287488D01*
X283969Y193540D02*
X287488D01*
X283969Y192640D02*
X287488D01*
X283969Y191740D02*
X287488D01*
X283969Y190840D02*
X287488D01*
X283969Y189940D02*
X287488D01*
X283969Y189040D02*
X287488D01*
X283969Y188140D02*
X287488D01*
X283876Y187240D02*
X287488D01*
X255129Y186340D02*
X287488D01*
X255129Y185440D02*
X287488D01*
X255129Y184540D02*
X287488D01*
X255129Y183640D02*
X287488D01*
X255129Y182740D02*
X287488D01*
X255129Y181840D02*
X287488D01*
X255129Y180940D02*
X287488D01*
X135709Y234040D02*
X287487D01*
X255129Y180040D02*
X287185D01*
X255129Y179140D02*
X286285D01*
X255129Y178240D02*
X285385D01*
X255129Y177340D02*
X284485D01*
X255129Y176440D02*
X283585D01*
X196628Y216040D02*
X218147D01*
X196628Y215140D02*
X218141D01*
X196628Y214240D02*
X218141D01*
X196628Y213340D02*
X218141D01*
X196628Y212440D02*
X218141D01*
X196628Y211540D02*
X218141D01*
X196694Y210640D02*
X218141D01*
X196924Y209740D02*
X218141D01*
X196929Y208840D02*
X218141D01*
X196929Y207940D02*
X218141D01*
X196925Y207040D02*
X218141D01*
X196702Y206140D02*
X218141D01*
X196841Y205240D02*
X218141D01*
X196929Y204340D02*
X218141D01*
X196929Y203440D02*
X218141D01*
X197063Y202540D02*
X218141D01*
X211154Y201640D02*
X218141D01*
X212054Y200740D02*
X218141D01*
X212486Y199840D02*
X218141D01*
X212486Y198940D02*
X218141D01*
X212486Y198040D02*
X218141D01*
X212486Y197140D02*
X218141D01*
X212486Y196240D02*
X218141D01*
X212486Y195340D02*
X218141D01*
X212486Y194440D02*
X218141D01*
X212486Y193540D02*
X218141D01*
X212486Y192640D02*
X218141D01*
X212486Y191740D02*
X218141D01*
X211894Y190840D02*
X218141D01*
X210994Y189940D02*
X218141D01*
X210094Y189040D02*
X218141D01*
X184139Y188140D02*
X218141D01*
X184139Y187240D02*
X218141D01*
X184139Y186340D02*
X218141D01*
X184139Y185440D02*
X218097D01*
X184139Y184540D02*
X217244D01*
X184139Y183640D02*
X216344D01*
X184139Y182740D02*
X215444D01*
X184139Y181840D02*
X214544D01*
X184139Y180940D02*
X213644D01*
X184139Y180040D02*
X212744D01*
X184284Y179140D02*
X211844D01*
X184139Y189040D02*
X200197D01*
X195537Y189940D02*
X199297D01*
X196539Y190840D02*
X198397D01*
X197186Y191740D02*
X197375D01*
X184139Y189940D02*
X187021D01*
X184139Y190840D02*
X186019D01*
X184139Y191740D02*
X185668D01*
X184139Y192640D02*
X185629D01*
X184207Y193540D02*
X185561D01*
X141625Y216040D02*
X145217D01*
X142547Y215140D02*
X144317D01*
X132975Y216040D02*
X133104D01*
X175669Y198270D02*
X177387D01*
X175669Y197370D02*
X177387D01*
X175566Y196470D02*
X177387D01*
X175465Y195570D02*
X177387D01*
X175667Y194670D02*
X177387D01*
X175669Y193770D02*
X177387D01*
X175669Y192870D02*
X177387D01*
X175660Y191970D02*
X177387D01*
X175408Y191070D02*
X177387D01*
X174654Y190170D02*
X177387D01*
X162612Y189270D02*
X177387D01*
X162612Y188370D02*
X177387D01*
X162612Y187470D02*
X177387D01*
X162612Y186570D02*
X177387D01*
X162612Y185670D02*
X177387D01*
X162612Y184770D02*
X177387D01*
X162612Y183870D02*
X177387D01*
X162612Y182970D02*
X177387D01*
X162612Y182070D02*
X177387D01*
X162612Y181170D02*
X177387D01*
X162612Y180270D02*
X177387D01*
X162612Y179370D02*
X177387D01*
X162612Y178470D02*
X177387D01*
X162612Y177570D02*
X177387D01*
X162612Y176670D02*
X177387D01*
X162612Y175770D02*
X177387D01*
X162612Y174870D02*
X177387D01*
X162612Y173970D02*
X177387D01*
X162612Y173070D02*
X177387D01*
X162612Y172170D02*
X177387D01*
X162612Y171270D02*
X177387D01*
X162612Y170370D02*
X177387D01*
X162612Y169470D02*
X177387D01*
X162612Y168570D02*
X177387D01*
X162612Y167670D02*
X177387D01*
X162612Y166770D02*
X177387D01*
X162612Y165870D02*
X177387D01*
X162612Y164970D02*
X177387D01*
X162612Y164070D02*
X177387D01*
X162612Y163170D02*
X177387D01*
X162612Y162270D02*
X177387D01*
X174916Y161370D02*
X177387D01*
X175506Y160470D02*
X177387D01*
X175669Y159570D02*
X177387D01*
X175669Y158670D02*
X177387D01*
X175669Y157770D02*
X177387D01*
X175650Y156870D02*
X177387D01*
X175381Y155970D02*
X177387D01*
X175621Y155070D02*
X177387D01*
X175669Y154170D02*
X177387D01*
X175669Y153270D02*
X177387D01*
X162612Y190170D02*
X165384D01*
X162612Y161370D02*
X165122D01*
X162612Y155970D02*
X164657D01*
X162612Y191070D02*
X164630D01*
X162612Y195570D02*
X164573D01*
X162612Y160470D02*
X164532D01*
X162612Y196470D02*
X164472D01*
X162612Y155070D02*
X164417D01*
X162612Y156870D02*
X164389D01*
X162612Y191970D02*
X164378D01*
X162612Y194670D02*
X164371D01*
X162612Y198270D02*
X164369D01*
X162612Y197370D02*
X164369D01*
X162612Y193770D02*
X164369D01*
X162612Y192870D02*
X164369D01*
X162612Y159570D02*
X164369D01*
X162612Y158670D02*
X164369D01*
X162612Y157770D02*
X164369D01*
X162612Y154170D02*
X164369D01*
X162612Y153270D02*
X164369D01*
X223507Y145822D02*
X234662D01*
X221688Y206122D02*
X234604D01*
X221688Y210622D02*
X234596D01*
X221688Y205222D02*
X234453D01*
X222607Y146722D02*
X234412D01*
X224407Y144922D02*
X234392D01*
X221688Y207022D02*
X234374D01*
X221688Y209722D02*
X234373D01*
X221688Y208822D02*
X234369D01*
X221688Y207922D02*
X234369D01*
X221688Y204322D02*
X234369D01*
X221688Y148522D02*
X234369D01*
X221742Y147622D02*
X234369D01*
X225307Y144022D02*
X234369D01*
X226207Y143122D02*
X234369D01*
X221688Y203422D02*
X234315D01*
X221688Y149422D02*
X226960D01*
X221688Y202522D02*
X226850D01*
X221688Y201622D02*
X226850D01*
X221688Y200722D02*
X226850D01*
X221688Y199822D02*
X226850D01*
X221688Y198922D02*
X226850D01*
X221688Y198022D02*
X226850D01*
X221688Y197122D02*
X226850D01*
X221688Y196222D02*
X226850D01*
X221688Y195322D02*
X226850D01*
X221688Y194422D02*
X226850D01*
X221688Y193522D02*
X226850D01*
X221688Y192622D02*
X226850D01*
X221688Y191722D02*
X226850D01*
X221688Y190822D02*
X226850D01*
X221688Y189922D02*
X226850D01*
X221688Y189022D02*
X226850D01*
X221688Y188122D02*
X226850D01*
X221688Y187222D02*
X226850D01*
X221688Y186322D02*
X226850D01*
X221688Y185422D02*
X226850D01*
X221688Y184522D02*
X226850D01*
X221688Y183622D02*
X226850D01*
X221688Y182722D02*
X226850D01*
X221688Y181822D02*
X226850D01*
X221688Y180922D02*
X226850D01*
X221688Y180022D02*
X226850D01*
X221688Y179122D02*
X226850D01*
X221688Y178222D02*
X226850D01*
X221688Y177322D02*
X226850D01*
X221688Y176422D02*
X226850D01*
X221688Y175522D02*
X226850D01*
X221688Y174622D02*
X226850D01*
X221688Y173722D02*
X226850D01*
X221688Y172822D02*
X226850D01*
X221688Y171922D02*
X226850D01*
X221688Y171022D02*
X226850D01*
X221688Y170122D02*
X226850D01*
X221688Y169222D02*
X226850D01*
X221688Y168322D02*
X226850D01*
X221688Y167422D02*
X226850D01*
X221688Y166522D02*
X226850D01*
X221688Y165622D02*
X226850D01*
X221688Y164722D02*
X226850D01*
X221688Y163822D02*
X226850D01*
X221688Y162922D02*
X226850D01*
X221688Y162022D02*
X226850D01*
X221688Y161122D02*
X226850D01*
X221688Y160222D02*
X226850D01*
X221688Y159322D02*
X226850D01*
X221688Y158422D02*
X226850D01*
X221688Y157522D02*
X226850D01*
X221688Y156622D02*
X226850D01*
X221688Y155722D02*
X226850D01*
X221688Y154822D02*
X226850D01*
X221688Y153922D02*
X226850D01*
X221688Y153022D02*
X226850D01*
X221688Y152122D02*
X226850D01*
X221688Y151222D02*
X226850D01*
X221688Y150322D02*
X226850D01*
X245408Y191070D02*
X246570D01*
X244654Y190170D02*
X246570D01*
X230480Y189270D02*
X246570D01*
X230480Y188370D02*
X246570D01*
X230480Y187470D02*
X246570D01*
X230480Y186570D02*
X246570D01*
X230480Y185670D02*
X246570D01*
X230480Y184770D02*
X246570D01*
X230480Y183870D02*
X246570D01*
X230480Y182970D02*
X246570D01*
X230480Y182070D02*
X246570D01*
X230480Y181170D02*
X246570D01*
X230480Y180270D02*
X246570D01*
X230480Y179370D02*
X246570D01*
X230480Y178470D02*
X246570D01*
X230480Y177570D02*
X246570D01*
X230480Y176670D02*
X246570D01*
X230480Y175770D02*
X246570D01*
X230480Y174870D02*
X246570D01*
X230480Y173970D02*
X246570D01*
X230480Y173070D02*
X246570D01*
X230480Y172170D02*
X246570D01*
X230480Y171270D02*
X246570D01*
X230480Y170370D02*
X246570D01*
X230480Y169470D02*
X246570D01*
X230480Y168570D02*
X246570D01*
X230480Y167670D02*
X246570D01*
X230480Y166770D02*
X246570D01*
X230480Y165870D02*
X246570D01*
X230480Y164970D02*
X246570D01*
X230480Y164070D02*
X246570D01*
X230480Y163170D02*
X246570D01*
X230480Y162270D02*
X246570D01*
X244916Y161370D02*
X246570D01*
X245506Y160470D02*
X246570D01*
X230480Y190170D02*
X235384D01*
X230480Y161370D02*
X235122D01*
X230480Y155970D02*
X234657D01*
X230480Y191070D02*
X234630D01*
X230480Y195570D02*
X234573D01*
X230480Y160470D02*
X234532D01*
X230480Y196470D02*
X234472D01*
X230480Y155070D02*
X234417D01*
X230480Y156870D02*
X234389D01*
X230480Y191970D02*
X234378D01*
X230480Y194670D02*
X234371D01*
X230480Y198270D02*
X234369D01*
X230480Y197370D02*
X234369D01*
X230480Y193770D02*
X234369D01*
X230480Y192870D02*
X234369D01*
X230480Y159570D02*
X234369D01*
X230480Y158670D02*
X234369D01*
X230480Y157770D02*
X234369D01*
X230480Y154170D02*
X234369D01*
X230480Y153270D02*
X234369D01*
X230836Y199170D02*
X234012D01*
X291939Y234570D02*
X333171D01*
X291939Y233670D02*
X333171D01*
X291939Y232770D02*
X333171D01*
X291939Y231870D02*
X333171D01*
X291939Y230970D02*
X333171D01*
X291939Y230070D02*
X333171D01*
X291939Y229170D02*
X333171D01*
X291939Y228270D02*
X333171D01*
X291939Y227370D02*
X333171D01*
X291939Y226470D02*
X333171D01*
X291939Y225570D02*
X333171D01*
X291939Y224670D02*
X333171D01*
X291939Y223770D02*
X333171D01*
X291939Y222870D02*
X333171D01*
X291939Y221970D02*
X333171D01*
X291939Y221070D02*
X333171D01*
X291939Y220170D02*
X333171D01*
X291939Y219270D02*
X333171D01*
X291939Y218370D02*
X333171D01*
X291939Y217470D02*
X333171D01*
X291939Y216570D02*
X333171D01*
X322125Y215670D02*
X333171D01*
X322728Y214770D02*
X333171D01*
X322899Y213870D02*
X333171D01*
X322899Y212970D02*
X333171D01*
X322899Y212070D02*
X333171D01*
X322899Y211170D02*
X333171D01*
X322899Y210270D02*
X333171D01*
X322899Y209370D02*
X333171D01*
X322899Y208470D02*
X333171D01*
X322882Y207570D02*
X333171D01*
X322597Y206670D02*
X333171D01*
X321769Y205770D02*
X333171D01*
X291939Y204870D02*
X333171D01*
X291939Y203970D02*
X333171D01*
X291939Y203070D02*
X333171D01*
X291939Y202170D02*
X333171D01*
X291939Y201270D02*
X333171D01*
X291939Y200370D02*
X333171D01*
X291939Y199470D02*
X333113D01*
X308269Y205770D02*
X313029D01*
X308625Y215670D02*
X312673D01*
X309097Y206670D02*
X312201D01*
X309228Y214770D02*
X312070D01*
X309382Y207570D02*
X311916D01*
X309399Y213870D02*
X311899D01*
X309399Y212970D02*
X311899D01*
X309399Y212070D02*
X311899D01*
X309399Y211170D02*
X311899D01*
X309399Y210270D02*
X311899D01*
X309399Y209370D02*
X311899D01*
X309399Y208470D02*
X311899D01*
X291939Y198570D02*
X306632D01*
X291939Y197670D02*
X306632D01*
X291939Y196770D02*
X306632D01*
X291939Y195870D02*
X306632D01*
X291939Y194970D02*
X306632D01*
X291939Y194070D02*
X306632D01*
X291939Y193170D02*
X306632D01*
X291939Y192270D02*
X306632D01*
X291939Y191370D02*
X306632D01*
X291939Y190470D02*
X306632D01*
X291939Y189570D02*
X306632D01*
X291939Y188670D02*
X306632D01*
X291939Y187770D02*
X306632D01*
X291939Y186870D02*
X306632D01*
X291939Y185970D02*
X306632D01*
X291939Y185070D02*
X306632D01*
X291939Y184170D02*
X306632D01*
X291939Y183270D02*
X306632D01*
X291939Y182370D02*
X306632D01*
X291939Y181470D02*
X306632D01*
X291939Y180570D02*
X306632D01*
X291939Y179670D02*
X306632D01*
X291939Y178770D02*
X306632D01*
X291939Y177870D02*
X306632D01*
X291774Y176970D02*
X306632D01*
X290874Y176070D02*
X306632D01*
X289974Y175170D02*
X306632D01*
X289074Y174270D02*
X306632D01*
X288174Y173370D02*
X306632D01*
X287274Y172470D02*
X306632D01*
X286374Y171570D02*
X306632D01*
X285474Y170670D02*
X306632D01*
X284574Y169770D02*
X306632D01*
X283674Y168870D02*
X306632D01*
X282774Y167970D02*
X306632D01*
X281874Y167070D02*
X306632D01*
X280974Y166170D02*
X306632D01*
X280074Y165270D02*
X306632D01*
X279174Y164370D02*
X306632D01*
X278274Y163470D02*
X306632D01*
X277374Y162570D02*
X306632D01*
X276474Y161670D02*
X306632D01*
X275574Y160770D02*
X306632D01*
X274674Y159870D02*
X306632D01*
X273774Y158970D02*
X306632D01*
X272874Y158070D02*
X306632D01*
X271974Y157170D02*
X306538D01*
X271074Y156270D02*
X305648D01*
X270174Y155370D02*
X304748D01*
X269274Y154470D02*
X303848D01*
X268374Y153570D02*
X302948D01*
X267474Y152670D02*
X302048D01*
X267207Y151770D02*
X301148D01*
X267207Y150870D02*
X300248D01*
X291939Y205770D02*
X299529D01*
X267207Y149970D02*
X299348D01*
X291939Y215670D02*
X299173D01*
X291939Y206670D02*
X298701D01*
X291939Y214770D02*
X298570D01*
X267207Y149070D02*
X298448D01*
X291939Y207570D02*
X298416D01*
X291939Y213870D02*
X298399D01*
X291939Y212970D02*
X298399D01*
X291939Y212070D02*
X298399D01*
X291939Y211170D02*
X298399D01*
X291939Y210270D02*
X298399D01*
X291939Y209370D02*
X298399D01*
X291939Y208470D02*
X298399D01*
X267207Y148170D02*
X297548D01*
X267207Y147270D02*
X296648D01*
X267207Y146370D02*
X295748D01*
X267207Y145470D02*
X294848D01*
X267207Y144570D02*
X293948D01*
X266929Y143670D02*
X293048D01*
X266929Y142770D02*
X292148D01*
X266909Y141870D02*
X291248D01*
X266616Y140970D02*
X290348D01*
X265768Y140070D02*
X289448D01*
X254965Y139170D02*
X288548D01*
X254872Y138270D02*
X287648D01*
X187425Y137370D02*
X286748D01*
X187425Y136470D02*
X285848D01*
X187425Y135570D02*
X284948D01*
X187425Y134670D02*
X284048D01*
X187425Y133770D02*
X283148D01*
X187425Y132870D02*
X282248D01*
X187425Y131970D02*
X281348D01*
X187425Y131070D02*
X280448D01*
X187425Y130170D02*
X279548D01*
X187425Y129270D02*
X278648D01*
X187425Y128370D02*
X277748D01*
X187425Y127470D02*
X276848D01*
X254965Y140070D02*
X256790D01*
X254994Y140970D02*
X255942D01*
X187425Y138270D02*
X225948D01*
X187425Y139170D02*
X225048D01*
X195768Y140070D02*
X224148D01*
X196616Y140970D02*
X223248D01*
X196909Y141870D02*
X222348D01*
X196929Y142770D02*
X221448D01*
X196929Y143670D02*
X220548D01*
X196929Y144570D02*
X219648D01*
X196766Y145470D02*
X218748D01*
X196794Y146370D02*
X217848D01*
X196929Y147270D02*
X216948D01*
X196929Y148170D02*
X216048D01*
X196929Y149070D02*
X215148D01*
X196898Y149970D02*
X214248D01*
X196633Y150870D02*
X213348D01*
X196895Y151770D02*
X212448D01*
X196929Y152670D02*
X211548D01*
X196929Y153570D02*
X210648D01*
X104002Y259092D02*
X344486D01*
X227432Y258192D02*
X344486D01*
X227978Y257292D02*
X344486D01*
X228116Y256392D02*
X344486D01*
X228116Y255492D02*
X344486D01*
X228116Y254592D02*
X344486D01*
X228116Y253692D02*
X344486D01*
X228116Y252792D02*
X344486D01*
X228116Y251892D02*
X344486D01*
X228116Y250992D02*
X344486D01*
X228116Y250092D02*
X344486D01*
X228116Y249192D02*
X344486D01*
X228116Y248292D02*
X344486D01*
X228116Y247392D02*
X344486D01*
X228069Y246492D02*
X344486D01*
X227699Y245592D02*
X344486D01*
X226637Y244692D02*
X344486D01*
X104002Y243792D02*
X344486D01*
X104002Y242892D02*
X344486D01*
X104002Y241992D02*
X344486D01*
X104002Y241092D02*
X344486D01*
X104002Y240192D02*
X344486D01*
X104002Y239292D02*
X344486D01*
X104002Y238392D02*
X344486D01*
X335264Y237492D02*
X344486D01*
X335899Y236592D02*
X344486D01*
X336151Y235692D02*
X344486D01*
X336171Y234792D02*
X344486D01*
X336171Y233892D02*
X344486D01*
X336171Y232992D02*
X344486D01*
X336171Y232092D02*
X344486D01*
X336171Y231192D02*
X344486D01*
X336171Y230292D02*
X344486D01*
X336171Y229392D02*
X344486D01*
X336171Y228492D02*
X344486D01*
X336171Y227592D02*
X344486D01*
X336171Y226692D02*
X344486D01*
X336171Y225792D02*
X344486D01*
X336171Y224892D02*
X344486D01*
X336171Y223992D02*
X344486D01*
X336171Y223092D02*
X344486D01*
X336171Y222192D02*
X344486D01*
X336171Y221292D02*
X344486D01*
X336171Y220392D02*
X344486D01*
X336171Y219492D02*
X344486D01*
X336171Y218592D02*
X344486D01*
X336171Y217692D02*
X344486D01*
X336171Y216792D02*
X344486D01*
X336171Y215892D02*
X344486D01*
X336171Y214992D02*
X344486D01*
X336171Y214092D02*
X344486D01*
X336171Y213192D02*
X344486D01*
X336171Y212292D02*
X344486D01*
X336171Y211392D02*
X344486D01*
X336171Y210492D02*
X344486D01*
X336171Y209592D02*
X344486D01*
X336171Y208692D02*
X344486D01*
X336171Y207792D02*
X344486D01*
X336171Y206892D02*
X344486D01*
X336171Y205992D02*
X344486D01*
X336171Y205092D02*
X344486D01*
X336171Y204192D02*
X344486D01*
X336171Y203292D02*
X344486D01*
X336171Y202392D02*
X344486D01*
X336171Y201492D02*
X344486D01*
X336171Y200592D02*
X344486D01*
X336171Y199692D02*
X344486D01*
X336143Y198792D02*
X344486D01*
X335869Y197892D02*
X344486D01*
X335197Y196992D02*
X344486D01*
X309816Y196092D02*
X344486D01*
X309632Y195192D02*
X344486D01*
X309632Y194292D02*
X344486D01*
X309632Y193392D02*
X344486D01*
X309632Y192492D02*
X344486D01*
X317328Y191592D02*
X344486D01*
X319109Y190692D02*
X344486D01*
X320087Y189792D02*
X344486D01*
X320736Y188892D02*
X344486D01*
X321171Y187992D02*
X344486D01*
X321439Y187092D02*
X344486D01*
X321563Y186192D02*
X344486D01*
X321551Y185292D02*
X344486D01*
X321403Y184392D02*
X344486D01*
X321107Y183492D02*
X344486D01*
X320638Y182592D02*
X344486D01*
X319943Y181692D02*
X344486D01*
X319115Y180792D02*
X344486D01*
X319771Y179892D02*
X344486D01*
X320523Y178992D02*
X344486D01*
X321030Y178092D02*
X344486D01*
X321357Y177192D02*
X344486D01*
X321533Y176292D02*
X344486D01*
X321571Y175392D02*
X344486D01*
X321474Y174492D02*
X344486D01*
X321236Y173592D02*
X344486D01*
X320836Y172692D02*
X344486D01*
X320235Y171792D02*
X344486D01*
X319337Y170892D02*
X344486D01*
X317818Y169992D02*
X344486D01*
X309632Y169092D02*
X344486D01*
X309632Y168192D02*
X344486D01*
X309632Y167292D02*
X344486D01*
X309632Y166392D02*
X344486D01*
X309632Y165492D02*
X344486D01*
X309632Y164592D02*
X344486D01*
X309632Y163692D02*
X344486D01*
X309632Y162792D02*
X344486D01*
X309632Y161892D02*
X344486D01*
X309632Y160992D02*
X344486D01*
X309632Y160092D02*
X344486D01*
X309632Y159192D02*
X344486D01*
X309632Y158292D02*
X344486D01*
X309632Y157392D02*
X344486D01*
X309533Y156492D02*
X344486D01*
X309129Y155592D02*
X344486D01*
X308312Y154692D02*
X344486D01*
X307412Y153792D02*
X344486D01*
X306512Y152892D02*
X344486D01*
X305612Y151992D02*
X344486D01*
X304712Y151092D02*
X344486D01*
X303812Y150192D02*
X344486D01*
X302912Y149292D02*
X344486D01*
X302012Y148392D02*
X344486D01*
X301112Y147492D02*
X344486D01*
X300212Y146592D02*
X344486D01*
X299312Y145692D02*
X344486D01*
X298412Y144792D02*
X344486D01*
X297512Y143892D02*
X344486D01*
X296612Y142992D02*
X344486D01*
X295712Y142092D02*
X344486D01*
X294812Y141192D02*
X344486D01*
X293912Y140292D02*
X344486D01*
X293012Y139392D02*
X344486D01*
X292112Y138492D02*
X344486D01*
X291212Y137592D02*
X344486D01*
X290312Y136692D02*
X344486D01*
X289412Y135792D02*
X344486D01*
X288512Y134892D02*
X344486D01*
X287612Y133992D02*
X344486D01*
X286712Y133092D02*
X344486D01*
X285812Y132192D02*
X344486D01*
X284912Y131292D02*
X344486D01*
X284012Y130392D02*
X344486D01*
X283112Y129492D02*
X344486D01*
X282212Y128592D02*
X344486D01*
X281312Y127692D02*
X344486D01*
X280412Y126792D02*
X344486D01*
X279512Y125892D02*
X344486D01*
X278612Y124992D02*
X344486D01*
X277638Y124092D02*
X344486D01*
X160701Y123192D02*
X344486D01*
X324910Y122292D02*
X344486D01*
X325472Y121392D02*
X344486D01*
X325619Y120492D02*
X344486D01*
X325619Y119592D02*
X344486D01*
X325619Y118692D02*
X344486D01*
X325619Y117792D02*
X344486D01*
X325619Y116892D02*
X344486D01*
X325619Y115992D02*
X344486D01*
X325619Y115092D02*
X344486D01*
X325619Y114192D02*
X344486D01*
X325619Y113292D02*
X344486D01*
X325619Y112392D02*
X344486D01*
X325619Y111492D02*
X344486D01*
X325577Y110592D02*
X344486D01*
X325219Y109692D02*
X344486D01*
X324196Y108792D02*
X344486D01*
X104002Y107892D02*
X344486D01*
X104002Y106992D02*
X344486D01*
X104002Y106092D02*
X344486D01*
X104328Y259992D02*
X344160D01*
X309632Y191592D02*
X313734D01*
X309632Y169992D02*
X313244D01*
X309632Y190692D02*
X311952D01*
X309632Y170892D02*
X311724D01*
X309632Y189792D02*
X310974D01*
X309632Y171792D02*
X310827D01*
X294696Y108792D02*
X310042D01*
X295410Y122292D02*
X309327D01*
X295719Y109692D02*
X309019D01*
X295972Y121392D02*
X308766D01*
X296077Y110592D02*
X308661D01*
X296119Y120492D02*
X308619D01*
X296119Y119592D02*
X308619D01*
X296119Y118692D02*
X308619D01*
X296119Y117792D02*
X308619D01*
X296119Y116892D02*
X308619D01*
X296119Y115992D02*
X308619D01*
X296119Y115092D02*
X308619D01*
X296119Y114192D02*
X308619D01*
X296119Y113292D02*
X308619D01*
X296119Y112392D02*
X308619D01*
X296119Y111492D02*
X308619D01*
X287907Y237492D02*
X289845D01*
X158944Y108792D02*
X280542D01*
X160328Y122292D02*
X279827D01*
X159949Y109692D02*
X279519D01*
X160341Y121392D02*
X279266D01*
X160301Y110592D02*
X279161D01*
X160341Y120492D02*
X279119D01*
X160341Y119592D02*
X279119D01*
X160341Y118692D02*
X279119D01*
X160341Y117792D02*
X279119D01*
X160341Y116892D02*
X279119D01*
X160341Y115992D02*
X279119D01*
X160341Y115092D02*
X279119D01*
X160341Y114192D02*
X279119D01*
X160341Y113292D02*
X279119D01*
X160341Y112392D02*
X279119D01*
X160341Y111492D02*
X279119D01*
X197137Y244692D02*
X212594D01*
X197932Y258192D02*
X211800D01*
X198199Y245592D02*
X211532D01*
X198478Y257292D02*
X211253D01*
X198569Y246492D02*
X211163D01*
X198616Y256392D02*
X211116D01*
X198616Y255492D02*
X211116D01*
X198616Y254592D02*
X211116D01*
X198616Y253692D02*
X211116D01*
X198616Y252792D02*
X211116D01*
X198616Y251892D02*
X211116D01*
X198616Y250992D02*
X211116D01*
X198616Y250092D02*
X211116D01*
X198616Y249192D02*
X211116D01*
X198616Y248292D02*
X211116D01*
X198616Y247392D02*
X211116D01*
X162881Y124092D02*
X185736D01*
X163362Y124992D02*
X184875D01*
X163463Y125892D02*
X184503D01*
X180223Y143892D02*
X184425D01*
X180223Y142992D02*
X184425D01*
X180223Y142092D02*
X184425D01*
X180223Y141192D02*
X184425D01*
X180223Y140292D02*
X184425D01*
X180223Y139392D02*
X184425D01*
X180223Y138492D02*
X184425D01*
X180184Y137592D02*
X184425D01*
X179886Y136692D02*
X184425D01*
X179170Y135792D02*
X184425D01*
X163577Y134892D02*
X184425D01*
X163463Y133992D02*
X184425D01*
X163463Y133092D02*
X184425D01*
X163463Y132192D02*
X184425D01*
X163463Y131292D02*
X184425D01*
X163463Y130392D02*
X184425D01*
X163463Y129492D02*
X184425D01*
X163463Y128592D02*
X184425D01*
X163463Y127692D02*
X184425D01*
X163463Y126792D02*
X184425D01*
X180223Y144792D02*
X183713D01*
X104002Y244692D02*
X183094D01*
X180223Y145692D02*
X182511D01*
X104002Y258192D02*
X182300D01*
X104002Y245592D02*
X182032D01*
X104002Y257292D02*
X181753D01*
X104002Y246492D02*
X181663D01*
X104002Y256392D02*
X181616D01*
X104002Y255492D02*
X181616D01*
X104002Y254592D02*
X181616D01*
X104002Y253692D02*
X181616D01*
X104002Y252792D02*
X181616D01*
X104002Y251892D02*
X181616D01*
X104002Y250992D02*
X181616D01*
X104002Y250092D02*
X181616D01*
X104002Y249192D02*
X181616D01*
X104002Y248292D02*
X181616D01*
X104002Y247392D02*
X181616D01*
X180223Y146592D02*
X181611D01*
X104002Y237492D02*
X135772D01*
X104006Y236592D02*
X134019D01*
X129015Y235692D02*
X133119D01*
X129929Y234792D02*
X132219D01*
X130327Y233892D02*
X131319D01*
X104002Y108792D02*
X105511D01*
X104505Y227648D02*
X128102D01*
X104505Y226748D02*
X128102D01*
X104505Y225848D02*
X128102D01*
X104505Y224948D02*
X128102D01*
X104505Y224048D02*
X128102D01*
X104505Y223148D02*
X128102D01*
X104505Y222248D02*
X128102D01*
X104505Y221348D02*
X128102D01*
X104505Y220448D02*
X128102D01*
X104505Y219548D02*
X128102D01*
X104505Y218648D02*
X128102D01*
X104505Y217748D02*
X128102D01*
X104505Y216848D02*
X128102D01*
X104505Y204248D02*
X128102D01*
X104505Y203348D02*
X128102D01*
X112733Y202448D02*
X128102D01*
X113747Y201548D02*
X128102D01*
X114102Y200648D02*
X128102D01*
X114143Y199748D02*
X128102D01*
X114143Y198848D02*
X128102D01*
X114143Y197948D02*
X128102D01*
X114143Y197048D02*
X128102D01*
X114143Y196148D02*
X128102D01*
X104505Y183548D02*
X128102D01*
X104505Y182648D02*
X128102D01*
X104682Y205148D02*
X128059D01*
X114143Y195248D02*
X128022D01*
X104505Y184448D02*
X119690D01*
X112733Y215948D02*
X119522D01*
X114143Y194348D02*
X119223D01*
X113521Y206048D02*
X119178D01*
X104505Y185348D02*
X118818D01*
X113747Y215048D02*
X118699D01*
X114028Y193448D02*
X118647D01*
X114028Y206948D02*
X118572D01*
X104505Y186248D02*
X118515D01*
X113521Y192548D02*
X118492D01*
X104682Y191648D02*
X118492D01*
X104505Y190748D02*
X118492D01*
X104505Y189848D02*
X118492D01*
X104505Y188948D02*
X118492D01*
X104505Y188048D02*
X118492D01*
X104505Y187148D02*
X118492D01*
X114102Y214148D02*
X118415D01*
X114143Y207848D02*
X118399D01*
X114143Y213248D02*
X118399D01*
X114143Y212348D02*
X118399D01*
X114143Y211448D02*
X118399D01*
X114143Y210548D02*
X118399D01*
X114143Y209648D02*
X118399D01*
X114143Y208748D02*
X118399D01*
X148101Y205829D02*
X164663D01*
X148101Y145529D02*
X164556D01*
X148101Y146429D02*
X164485D01*
X148101Y206729D02*
X164410D01*
X148101Y204929D02*
X164393D01*
X148101Y144629D02*
X164370D01*
X148101Y209429D02*
X164369D01*
X148101Y208529D02*
X164369D01*
X148101Y207629D02*
X164369D01*
X148101Y204029D02*
X164369D01*
X148101Y203129D02*
X164369D01*
X148101Y148229D02*
X164369D01*
X148101Y147329D02*
X164369D01*
X148101Y143729D02*
X164369D01*
X148101Y142829D02*
X164369D01*
X148101Y202229D02*
X163408D01*
X148101Y149129D02*
X156838D01*
X148101Y201329D02*
X156521D01*
X148101Y200429D02*
X156521D01*
X148101Y199529D02*
X156521D01*
X148101Y198629D02*
X156521D01*
X148101Y197729D02*
X156521D01*
X148101Y196829D02*
X156521D01*
X148101Y195929D02*
X156521D01*
X148101Y195029D02*
X156521D01*
X148101Y194129D02*
X156521D01*
X148101Y193229D02*
X156521D01*
X148101Y192329D02*
X156521D01*
X148101Y191429D02*
X156521D01*
X148101Y190529D02*
X156521D01*
X148101Y189629D02*
X156521D01*
X148101Y188729D02*
X156521D01*
X148101Y187829D02*
X156521D01*
X148101Y186929D02*
X156521D01*
X148101Y186029D02*
X156521D01*
X148101Y185129D02*
X156521D01*
X148101Y184229D02*
X156521D01*
X148101Y183329D02*
X156521D01*
X148101Y182429D02*
X156521D01*
X148101Y181529D02*
X156521D01*
X148101Y180629D02*
X156521D01*
X148101Y179729D02*
X156521D01*
X148101Y178829D02*
X156521D01*
X148101Y177929D02*
X156521D01*
X148101Y177029D02*
X156521D01*
X148101Y176129D02*
X156521D01*
X148101Y175229D02*
X156521D01*
X148101Y174329D02*
X156521D01*
X148101Y173429D02*
X156521D01*
X148101Y172529D02*
X156521D01*
X148101Y171629D02*
X156521D01*
X148101Y170729D02*
X156521D01*
X148101Y169829D02*
X156521D01*
X148101Y168929D02*
X156521D01*
X148101Y168029D02*
X156521D01*
X148101Y167129D02*
X156521D01*
X148101Y166229D02*
X156521D01*
X148101Y165329D02*
X156521D01*
X148101Y164429D02*
X156521D01*
X148101Y163529D02*
X156521D01*
X148101Y162629D02*
X156521D01*
X148101Y161729D02*
X156521D01*
X148101Y160829D02*
X156521D01*
X148101Y159929D02*
X156521D01*
X148101Y159029D02*
X156521D01*
X148101Y158129D02*
X156521D01*
X148101Y157229D02*
X156521D01*
X148101Y156329D02*
X156521D01*
X148101Y155429D02*
X156521D01*
X148101Y154529D02*
X156521D01*
X148101Y153629D02*
X156521D01*
X148101Y152729D02*
X156521D01*
X148101Y151829D02*
X156521D01*
X148101Y150929D02*
X156521D01*
X148101Y150029D02*
X156521D01*
X142212Y206140D02*
X143536D01*
X132542Y205240D02*
X143536D01*
X132540Y204340D02*
X143536D01*
X132540Y203440D02*
X143536D01*
X132540Y202540D02*
X143536D01*
X132540Y201640D02*
X143536D01*
X132540Y200740D02*
X143536D01*
X132540Y199840D02*
X143536D01*
X132540Y198940D02*
X143536D01*
X132540Y198040D02*
X143536D01*
X132540Y197140D02*
X143536D01*
X132540Y196240D02*
X143536D01*
X132540Y195340D02*
X143536D01*
X142165Y194440D02*
X143536D01*
X99890Y264909D02*
X348598D01*
Y99791*
X99890*
Y264909*
G54D16*
X183226Y150634D02*
X185479Y148381D01*
X191279*
X183226Y150634D02*
Y156906D01*
X185069Y158749*
X190911*
X191279Y158381*
X163174Y144761D02*
Y146899D01*
X164656Y148381*
X170019*
X163174Y144761D02*
Y143912D01*
X164947Y142140*
X168778*
X170019Y143381*
X149984Y147526D02*
Y198003D01*
X157971Y205989*
X163807*
X149984Y147526D02*
X152749Y144761D01*
X163174*
X163854Y155011D02*
X165484Y153381D01*
X170019*
X163854Y155011D02*
Y158085D01*
X164897Y159128*
X169272*
X170019Y158381*
X205342Y132435D02*
X273430D01*
X282981Y141987*
X233879Y154340D02*
X234839Y153381D01*
X240019*
X233879Y154340D02*
Y157338D01*
X234923Y158381*
X240019*
X253771Y156266D02*
Y150634D01*
X256024Y148381*
X261279*
X253771Y156266D02*
X256243Y158738D01*
X261135*
X261279Y158381*
X235786Y146281D02*
Y148381D01*
X240019*
X235786Y146281D02*
Y143381D01*
X240019*
X191279Y158381D02*
X201259Y168361D01*
X203149*
X191279Y153381D02*
X201963D01*
X205342Y150002*
Y132435*
X191279Y143381D02*
Y138886D01*
X197729Y132435*
X205342*
X261279Y158381D02*
Y158991D01*
X270649Y168361*
X261279Y153381D02*
X271587D01*
X281962Y143006*
X261279Y143381D02*
X281587D01*
X281962Y143006*
X282981Y141987D02*
X289198Y148203D01*
X296774Y155780*
Y203737*
X303899Y210861*
X281962Y143006D02*
X282981Y141987D01*
X287619Y115798D02*
X317119D01*
X342829*
Y239810*
X123899Y210861D02*
X108643Y210698D01*
Y197198*
X190116Y251724D02*
X219616D01*
X183431Y200325D02*
Y206738D01*
X186195Y209503*
X191279*
Y208381*
X183431Y200325D02*
X185376Y198379D01*
X190656*
X191279Y198381*
X164506Y193040D02*
Y198381D01*
X170019*
X164506Y193040D02*
X170019D01*
Y158381*
X163807Y205989D02*
Y208381D01*
X170019*
X163807Y205989D02*
Y203381D01*
X170019*
Y193381D02*
Y193040D01*
X137399Y210861D02*
X146521Y219984D01*
X198789*
X137399Y210861D02*
Y189676D01*
X137492Y189582*
X123899Y210861D02*
Y189676D01*
X123992Y189582*
X219616Y251724D02*
X331645Y250994D01*
X342829Y239810*
X206499Y212274D02*
X215683Y203090D01*
X253464Y209751D02*
Y200659D01*
X255756Y198367*
X260349*
X261279Y198381*
X253464Y209751D02*
X255424Y211711D01*
X259869*
X261242Y210339*
Y208418*
X261279Y208381*
X206499Y212274D02*
X198789Y219984D01*
X273430*
X277935Y215479*
Y212810*
X233358Y193716D02*
Y196359D01*
X235379Y198381*
X240019*
X233358Y193716D02*
X234858Y192216D01*
X238854*
X240019Y193381*
X231565Y206167D02*
X233438Y208040D01*
X239678*
X240019Y208381*
X231565Y206167D02*
X234351Y203381D01*
X240019*
X223623Y203084D02*
Y149411D01*
X226753Y146281*
X235786*
X223623Y203084D02*
X226492Y205953D01*
X231351*
X231565Y206167*
X191279Y203381D02*
X197606D01*
X206499Y212274*
X191279Y198381D02*
X203730D01*
X205649Y196463*
Y195861*
X191279Y193381D02*
X199597Y185062D01*
X210461*
X215683Y190284*
Y203090*
X240019Y193381D02*
Y158381D01*
X261279Y203381D02*
X275774D01*
X277935Y205542*
Y212810*
X261279Y198381D02*
X273225D01*
X275649Y195957*
Y195861*
X277347Y194163*
X278149Y193361*
X261279Y193381D02*
Y184653D01*
X264862Y181069*
X284283*
X286740Y183527*
Y210352*
X277935Y212810D02*
X284283D01*
X286740Y210352*
X303899Y210861D02*
X317399D01*
G54D17*
X203149Y168361D03*
X270649D03*
X205649Y195861D03*
X278149Y193361D03*
G74*
X0Y0D02*
M02*
