*
*
G04 PADS VX.2.11 Build Number: 20124196 generated Gerber (RS-274-X) file*
G04 PC Version=2.1*
*
%IN "test6.pcb"*%
*
%MOIN*%
*
%FSLAX35Y35*%
*
*
*
*
G04 PC Standard Apertures*
*
*
G04 Thermal Relief Aperture macro.*
%AMTER*
1,1,$1,0,0*
1,0,$1-$2,0,0*
21,0,$3,$4,0,0,45*
21,0,$3,$4,0,0,135*
%
*
*
G04 Annular Aperture macro.*
%AMANN*
1,1,$1,0,0*
1,0,$2,0,0*
%
*
*
G04 Odd Aperture macro.*
%AMODD*
1,1,$1,0,0*
1,0,$1-0.005,0,0*
%
*
*
G04 PC Custom Aperture Macros*
*
*
*
*
*
*
G04 PC Aperture Table*
*
%ADD010C,0.001*%
%ADD015C,0.01*%
*
*
*
*
G04 PC Circuitry*
G04 Layer Name test6.pcb - circuitry*
%LPD*%
*
*
G04 PC Custom Flashes*
G04 Layer Name test6.pcb - flashes*
%LPD*%
*
*
G04 PC Circuitry*
G04 Layer Name test6.pcb - circuitry*
%LPD*%
*
G54D10*
G54D15*
G01X106147Y134788D02*
Y128226D01*
Y134788D02*
X107738D01*
X108419Y134476*
X108874Y133851*
X109101Y133226*
X109328Y132288*
Y130726*
X109101Y129788*
X108874Y129163*
X108419Y128538*
X107738Y128226*
X106147*
X111374Y130726D02*
X114101D01*
Y131351*
X113874Y131976*
X113647Y132288*
X113192Y132601*
X112510*
X112056Y132288*
X111601Y131663*
X111374Y130726*
Y130101*
X111601Y129163*
X112056Y128538*
X112510Y128226*
X113192*
X113647Y128538*
X114101Y129163*
X118647Y131663D02*
X118419Y132288D01*
X117738Y132601*
X117056*
X116374Y132288*
X116147Y131663*
X116374Y131038*
X116828Y130726*
X117965Y130413*
X118419Y130101*
X118647Y129476*
Y129163*
X118419Y128538*
X117738Y128226*
X117056*
X116374Y128538*
X116147Y129163*
X120692Y134788D02*
X120919Y134476D01*
X121147Y134788*
X120919Y135101*
X120692Y134788*
X120919Y132601D02*
Y128226D01*
X125919Y132601D02*
Y127601D01*
X125692Y126663*
X125465Y126351*
X125010Y126038*
X124328*
X123874Y126351*
X125919Y131663D02*
X125465Y132288D01*
X125010Y132601*
X124328*
X123874Y132288*
X123419Y131663*
X123192Y130726*
Y130101*
X123419Y129163*
X123874Y128538*
X124328Y128226*
X125010*
X125465Y128538*
X125919Y129163*
X127965Y132601D02*
Y128226D01*
Y131351D02*
X128647Y132288D01*
X129101Y132601*
X129783*
X130238Y132288*
X130465Y131351*
Y128226*
X132510Y130726D02*
X135238D01*
Y131351*
X135010Y131976*
X134783Y132288*
X134328Y132601*
X133647*
X133192Y132288*
X132738Y131663*
X132510Y130726*
Y130101*
X132738Y129163*
X133192Y128538*
X133647Y128226*
X134328*
X134783Y128538*
X135238Y129163*
X140010Y134788D02*
Y128226D01*
Y131663D02*
X139556Y132288D01*
X139101Y132601*
X138419*
X137965Y132288*
X137510Y131663*
X137283Y130726*
Y130101*
X137510Y129163*
X137965Y128538*
X138419Y128226*
X139101*
X139556Y128538*
X140010Y129163*
X147283Y134788D02*
Y128226D01*
Y131663D02*
X147738Y132288D01*
X148192Y132601*
X148874*
X149328Y132288*
X149783Y131663*
X150010Y130726*
Y130101*
X149783Y129163*
X149328Y128538*
X148874Y128226*
X148192*
X147738Y128538*
X147283Y129163*
X152283Y132601D02*
X153647Y128226D01*
X155010Y132601D02*
X153647Y128226D01*
X153192Y126976*
X152738Y126351*
X152283Y126038*
X152056*
X157283Y132601D02*
X157056Y132288D01*
X157283Y131976*
X157510Y132288*
X157283Y132601*
Y128851D02*
X157056Y128538D01*
X157283Y128226*
X157510Y128538*
X157283Y128851*
X107232Y121181D02*
X105414Y114619D01*
X107232Y121181D02*
X109050Y114619D01*
X106096Y116806D02*
X108368D01*
X111096Y121181D02*
Y114619D01*
X115868Y121181D02*
Y114619D01*
Y118056D02*
X115414Y118681D01*
X114959Y118994*
X114278*
X113823Y118681*
X113368Y118056*
X113141Y117119*
Y116494*
X113368Y115556*
X113823Y114931*
X114278Y114619*
X114959*
X115414Y114931*
X115868Y115556*
X117914Y118994D02*
Y115869D01*
X118141Y114931*
X118596Y114619*
X119278*
X119732Y114931*
X120414Y115869*
Y118994D02*
Y114619D01*
X122459Y121181D02*
Y114619D01*
X127232Y118994D02*
Y114619D01*
Y118056D02*
X126778Y118681D01*
X126323Y118994*
X125641*
X125187Y118681*
X124732Y118056*
X124505Y117119*
Y116494*
X124732Y115556*
X125187Y114931*
X125641Y114619*
X126323*
X126778Y114931*
X127232Y115556*
X129278Y121181D02*
X129505Y120869D01*
X129732Y121181*
X129505Y121494*
X129278Y121181*
X129505Y118994D02*
Y114619D01*
X131778Y118994D02*
Y114619D01*
Y117744D02*
X132459Y118681D01*
X132914Y118994*
X133596*
X134050Y118681*
X134278Y117744*
Y114619*
Y117744D02*
X134959Y118681D01*
X135414Y118994*
X136096*
X136550Y118681*
X136778Y117744*
Y114619*
X138823Y121181D02*
X139050Y120869D01*
X139278Y121181*
X139050Y121494*
X138823Y121181*
X139050Y118994D02*
Y114619D01*
X148368Y121181D02*
X146550Y114619D01*
X148368Y121181D02*
X150187Y114619D01*
X147232Y116806D02*
X149505D01*
X152232Y121181D02*
Y114619D01*
X154278Y121181D02*
X154505Y120869D01*
X154732Y121181*
X154505Y121494*
X154278Y121181*
X154505Y118994D02*
Y114619D01*
X311531Y171586D02*
X319531Y179586D01*
X311531D02*
X319531Y171586D01*
X311531Y181822D02*
X319531Y189822D01*
X311531D02*
X319531Y181822D01*
X199149Y168361D02*
X207149D01*
X203149Y164361D02*
Y172361D01*
X266649Y168361D02*
X274649D01*
X270649Y164361D02*
Y172361D01*
X201649Y195861D02*
X209649D01*
X205649Y191861D02*
Y199861D01*
X274149Y193361D02*
X282149D01*
X278149Y189361D02*
Y197361D01*
X99890Y264909D02*
X348598D01*
Y99791*
X99890*
Y264909*
X388468Y171291D02*
X646468D01*
X388468Y147291D02*
X646468D01*
X388468Y123291D02*
X646468D01*
X388468Y99291D02*
X646468D01*
X388468Y171291D02*
Y99291D01*
X472468Y171291D02*
Y99291D01*
X508468Y171291D02*
Y99291D01*
X544468Y171291D02*
Y99291D01*
X598468Y171291D02*
Y99291D01*
X646468Y171291D02*
Y99291D01*
X423968Y160041D02*
X423423Y160791D01*
X422605Y161166*
X421514*
X420696Y160791*
X420150Y160041*
Y159291*
X420423Y158541*
X420696Y158166*
X421241Y157791*
X422878Y157041*
X423423Y156666*
X423696Y156291*
X423968Y155541*
Y154416*
X423423Y153666*
X422605Y153291*
X421514*
X420696Y153666*
X420150Y154416*
X426423Y161166D02*
Y153291D01*
X432696Y161166D02*
X428878Y153291D01*
Y161166D02*
X432696D01*
X428878Y153291D02*
X432696D01*
X435150Y161166D02*
Y153291D01*
Y161166D02*
X438696D01*
X435150Y157416D02*
X437332D01*
X435150Y153291D02*
X438696D01*
X482332Y161166D02*
X481787Y160791D01*
X481241Y160041*
X480968Y159291*
X480696Y158166*
Y156291*
X480968Y155166*
X481241Y154416*
X481787Y153666*
X482332Y153291*
X483423*
X483968Y153666*
X484514Y154416*
X484787Y155166*
X485059Y156291*
Y158166*
X484787Y159291*
X484514Y160041*
X483968Y160791*
X483423Y161166*
X482332*
X483150Y154791D02*
X484787Y152541D01*
X489423Y161166D02*
Y153291D01*
X487514Y161166D02*
X491332D01*
X493787D02*
X495968Y157416D01*
Y153291*
X498150Y161166D02*
X495968Y157416D01*
X520514Y160041D02*
X519968Y160791D01*
X519150Y161166*
X518059*
X517241Y160791*
X516696Y160041*
Y159291*
X516968Y158541*
X517241Y158166*
X517787Y157791*
X519423Y157041*
X519968Y156666*
X520241Y156291*
X520514Y155541*
Y154416*
X519968Y153666*
X519150Y153291*
X518059*
X517241Y153666*
X516696Y154416*
X522968Y161166D02*
X525150Y157416D01*
Y153291*
X527332Y161166D02*
X525150Y157416D01*
X529787Y161166D02*
Y153291D01*
Y161166D02*
X531968Y153291D01*
X534150Y161166D02*
X531968Y153291D01*
X534150Y161166D02*
Y153291D01*
X555968Y161166D02*
Y153291D01*
Y161166D02*
X558423D01*
X559241Y160791*
X559514Y160416*
X559787Y159666*
Y158541*
X559514Y157791*
X559241Y157416*
X558423Y157041*
X555968*
X562241Y161166D02*
Y153291D01*
X565514*
X570150Y161166D02*
X567968Y153291D01*
X570150Y161166D02*
X572332Y153291D01*
X568787Y155916D02*
X571514D01*
X576696Y161166D02*
Y153291D01*
X574787Y161166D02*
X578605D01*
X581059D02*
Y153291D01*
Y161166D02*
X584605D01*
X581059Y157416D02*
X583241D01*
X581059Y153291D02*
X584605D01*
X587059Y161166D02*
Y153291D01*
Y161166D02*
X588968D01*
X589787Y160791*
X590332Y160041*
X590605Y159291*
X590878Y158166*
Y156291*
X590605Y155166*
X590332Y154416*
X589787Y153666*
X588968Y153291*
X587059*
X615150Y161166D02*
Y153291D01*
X613241Y161166D02*
X617059D01*
X621150D02*
X620605Y160791D01*
X620059Y160041*
X619787Y159291*
X619514Y158166*
Y156291*
X619787Y155166*
X620059Y154416*
X620605Y153666*
X621150Y153291*
X622241*
X622787Y153666*
X623332Y154416*
X623605Y155166*
X623878Y156291*
Y158166*
X623605Y159291*
X623332Y160041*
X622787Y160791*
X622241Y161166*
X621150*
X626332D02*
Y153291D01*
X629605*
X395014Y137166D02*
X398014D01*
X396378Y134166*
X397196*
X397741Y133791*
X398014Y133416*
X398287Y132291*
Y131541*
X398014Y130416*
X397468Y129666*
X396650Y129291*
X395832*
X395014Y129666*
X394741Y130041*
X394468Y130791*
X404559Y137166D02*
X401832Y129291D01*
X400741Y137166D02*
X404559D01*
X490105D02*
X487378Y131916D01*
X491468*
X490105Y137166D02*
Y129291D01*
X520468Y135291D02*
X532468D01*
X526468Y129291D02*
Y141291D01*
X553105Y137166D02*
X555287Y133416D01*
Y129291*
X557468Y137166D02*
X555287Y133416D01*
X559923Y137166D02*
Y129291D01*
Y137166D02*
X563468D01*
X559923Y133416D02*
X562105D01*
X559923Y129291D02*
X563468D01*
X569741Y136041D02*
X569196Y136791D01*
X568378Y137166*
X567287*
X566468Y136791*
X565923Y136041*
Y135291*
X566196Y134541*
X566468Y134166*
X567014Y133791*
X568650Y133041*
X569196Y132666*
X569468Y132291*
X569741Y131541*
Y130416*
X569196Y129666*
X568378Y129291*
X567287*
X566468Y129666*
X565923Y130416*
X606287Y136041D02*
Y129291D01*
X603832Y132666D02*
X608741D01*
X616105Y138666D02*
X611196Y126666D01*
X618559Y132666D02*
X623468D01*
X627559Y137166D02*
X626741Y136791D01*
X626196Y135666*
X625923Y133791*
Y132666*
X626196Y130791*
X626741Y129666*
X627559Y129291*
X628105*
X628923Y129666*
X629468Y130791*
X629741Y132666*
Y133791*
X629468Y135666*
X628923Y136791*
X628105Y137166*
X627559*
X632468Y130041D02*
X632196Y129666D01*
X632468Y129291*
X632741Y129666*
X632468Y130041*
X636832Y137166D02*
X636014Y136791D01*
X635468Y135666*
X635196Y133791*
Y132666*
X635468Y130791*
X636014Y129666*
X636832Y129291*
X637378*
X638196Y129666*
X638741Y130791*
X639014Y132666*
Y133791*
X638741Y135666*
X638196Y136791*
X637378Y137166*
X636832*
X395014Y113166D02*
X398014D01*
X396378Y110166*
X397196*
X397741Y109791*
X398014Y109416*
X398287Y108291*
Y107541*
X398014Y106416*
X397468Y105666*
X396650Y105291*
X395832*
X395014Y105666*
X394741Y106041*
X394468Y106791*
X404287Y110541D02*
X404014Y109416D01*
X403468Y108666*
X402650Y108291*
X402378*
X401559Y108666*
X401014Y109416*
X400741Y110541*
Y110916*
X401014Y112041*
X401559Y112791*
X402378Y113166*
X402650*
X403468Y112791*
X404014Y112041*
X404287Y110541*
Y108666*
X404014Y106791*
X403468Y105666*
X402650Y105291*
X402105*
X401287Y105666*
X401014Y106416*
X407014Y106041D02*
X406741Y105666D01*
X407014Y105291*
X407287Y105666*
X407014Y106041*
X410287Y113166D02*
X413287D01*
X411650Y110166*
X412468*
X413014Y109791*
X413287Y109416*
X413559Y108291*
Y107541*
X413287Y106416*
X412741Y105666*
X411923Y105291*
X411105*
X410287Y105666*
X410014Y106041*
X409741Y106791*
X419832Y113166D02*
X417105Y105291D01*
X416014Y113166D02*
X419832D01*
X487787Y111291D02*
Y111666D01*
X488059Y112416*
X488332Y112791*
X488878Y113166*
X489968*
X490514Y112791*
X490787Y112416*
X491059Y111666*
Y110916*
X490787Y110166*
X490241Y109041*
X487514Y105291*
X491332*
X520468D02*
X532468Y117291D01*
X520468D02*
X532468Y105291D01*
X553105Y113166D02*
X555287Y109416D01*
Y105291*
X557468Y113166D02*
X555287Y109416D01*
X559923Y113166D02*
Y105291D01*
Y113166D02*
X563468D01*
X559923Y109416D02*
X562105D01*
X559923Y105291D02*
X563468D01*
X569741Y112041D02*
X569196Y112791D01*
X568378Y113166*
X567287*
X566468Y112791*
X565923Y112041*
Y111291*
X566196Y110541*
X566468Y110166*
X567014Y109791*
X568650Y109041*
X569196Y108666*
X569468Y108291*
X569741Y107541*
Y106416*
X569196Y105666*
X568378Y105291*
X567287*
X566468Y105666*
X565923Y106416*
X606287Y112041D02*
Y105291D01*
X603832Y108666D02*
X608741D01*
X616105Y114666D02*
X611196Y102666D01*
X618559Y108666D02*
X623468D01*
X627559Y113166D02*
X626741Y112791D01*
X626196Y111666*
X625923Y109791*
Y108666*
X626196Y106791*
X626741Y105666*
X627559Y105291*
X628105*
X628923Y105666*
X629468Y106791*
X629741Y108666*
Y109791*
X629468Y111666*
X628923Y112791*
X628105Y113166*
X627559*
X632468Y106041D02*
X632196Y105666D01*
X632468Y105291*
X632741Y105666*
X632468Y106041*
X636832Y113166D02*
X636014Y112791D01*
X635468Y111666*
X635196Y109791*
Y108666*
X635468Y106791*
X636014Y105666*
X636832Y105291*
X637378*
X638196Y105666*
X638741Y106791*
X639014Y108666*
Y109791*
X638741Y111666*
X638196Y112791*
X637378Y113166*
X636832*
X0Y0D02*
M02*
