*
*
G04 PADS VX.2.11 Build Number: 20124196 generated Gerber (RS-274-X) file*
G04 PC Version=2.1*
*
%IN "test6.pcb"*%
*
%MOIN*%
*
%FSLAX35Y35*%
*
*
*
*
G04 PC Standard Apertures*
*
*
G04 Thermal Relief Aperture macro.*
%AMTER*
1,1,$1,0,0*
1,0,$1-$2,0,0*
21,0,$3,$4,0,0,45*
21,0,$3,$4,0,0,135*
%
*
*
G04 Annular Aperture macro.*
%AMANN*
1,1,$1,0,0*
1,0,$2,0,0*
%
*
*
G04 Odd Aperture macro.*
%AMODD*
1,1,$1,0,0*
1,0,$1-0.005,0,0*
%
*
*
G04 PC Custom Aperture Macros*
*
*
*
*
*
*
G04 PC Aperture Table*
*
%ADD010C,0.001*%
%ADD015C,0.01*%
%ADD024C,0.006*%
%ADD025C,0.005*%
*
*
*
*
G04 PC Circuitry*
G04 Layer Name test6.pcb - circuitry*
%LPD*%
*
*
G04 PC Custom Flashes*
G04 Layer Name test6.pcb - flashes*
%LPD*%
*
*
G04 PC Circuitry*
G04 Layer Name test6.pcb - circuitry*
%LPD*%
*
G54D10*
G54D15*
G01X293619Y124248D02*
X277869D01*
Y107348*
X293619*
X311119Y124248D02*
X323619D01*
X326869Y121048*
Y110548*
X323619Y107348*
X311119*
X103643Y200198D02*
Y192148D01*
X113643*
Y200198*
X103643Y207698D02*
Y215748D01*
X113643*
Y207698*
X126899Y215861D02*
X118849D01*
Y205861*
X126899*
X134399Y215861D02*
X142449D01*
Y205861*
X134399*
X306899Y215861D02*
X298849D01*
Y205861*
X306899*
X314399Y215861D02*
X322449D01*
Y205861*
X314399*
X196116Y260174D02*
X180366D01*
Y243274*
X196116*
X213616Y260174D02*
X226116D01*
X229366Y256974*
Y246474*
X226116Y243274*
X213616*
X126992Y194582D02*
X118942D01*
Y184582*
X126992*
X134492Y194582D02*
X142542D01*
Y184582*
X134492*
X298542Y141261D02*
Y136261D01*
X298314Y135323*
X298087Y135011*
X297633Y134698*
X297178*
X296724Y135011*
X296496Y135323*
X296269Y136261*
Y136886*
X300587Y140011D02*
X301042Y140323D01*
X301724Y141261*
Y134698*
X99890Y264909D02*
X348598D01*
Y99791*
X99890*
Y264909*
G54D24*
X266397Y212672D02*
Y189050D01*
X235295*
Y212672*
X266397*
X269785Y193381D02*
G75*
G03X269785I-1419J0D01*
G01X266397Y162672D02*
Y139050D01*
X235295*
Y162672*
X266397*
X269785Y143381D02*
G03X269785I-1419J0D01*
G01X196397Y212672D02*
Y189050D01*
X165295*
Y212672*
X196397*
X199785Y193381D02*
G03X199785I-1419J0D01*
G01X196397Y162672D02*
Y139050D01*
X165295*
Y162672*
X196397*
X199785Y143381D02*
G03X199785I-1419J0D01*
G54D25*
G01X321785Y174143D02*
Y171643D01*
X321672Y171174*
X321558Y171018*
X321331Y170861*
X321104*
X320876Y171018*
X320763Y171174*
X320649Y171643*
Y171955*
X323944Y174143D02*
X322808Y171955D01*
X324513*
X323944Y174143D02*
Y170861D01*
G74*
X0Y0D02*
M02*
