*
*
G04 PADS VX.2.11 Build Number: 20124196 generated Gerber (RS-274-X) file*
G04 PC Version=2.1*
*
%IN "test5.pcb"*%
*
%MOIN*%
*
%FSLAX35Y35*%
*
*
*
*
G04 PC Standard Apertures*
*
*
G04 Thermal Relief Aperture macro.*
%AMTER*
1,1,$1,0,0*
1,0,$1-$2,0,0*
21,0,$3,$4,0,0,45*
21,0,$3,$4,0,0,135*
%
*
*
G04 Annular Aperture macro.*
%AMANN*
1,1,$1,0,0*
1,0,$2,0,0*
%
*
*
G04 Odd Aperture macro.*
%AMODD*
1,1,$1,0,0*
1,0,$1-0.005,0,0*
%
*
*
G04 PC Custom Aperture Macros*
*
*
*
*
*
*
G04 PC Aperture Table*
*
%ADD020C,0.002*%
%ADD021R,0.126X0.048*%
%ADD022R,0.24X0.19*%
%ADD023R,0.12X0.12*%
%ADD024ANN,0.14173X0.06299*%
%ADD025ANN,0.14173X0.07874*%
%ADD026C,0.02*%
%ADD027C,0.06*%
%ADD028C,0.11*%
*
*
*
*
G04 PC Circuitry*
G04 Layer Name test5.pcb - circuitry*
%LPD*%
*
*
G04 PC Custom Flashes*
G04 Layer Name test5.pcb - flashes*
%LPD*%
*
*
G04 PC Circuitry*
G04 Layer Name test5.pcb - circuitry*
%LPD*%
*
G54D20*
G54D21*
G01X2082688Y1623602D03*
Y1633602D03*
Y1643602D03*
Y1653602D03*
X2040168D03*
Y1643602D03*
Y1633602D03*
Y1623602D03*
X2082688Y1523602D03*
Y1533602D03*
Y1543602D03*
Y1553602D03*
X2040168D03*
Y1543602D03*
Y1533602D03*
Y1523602D03*
X1942688Y1623602D03*
Y1633602D03*
Y1643602D03*
Y1653602D03*
X1900168D03*
Y1643602D03*
Y1633602D03*
Y1623602D03*
X1942688Y1523602D03*
Y1533602D03*
Y1543602D03*
Y1553602D03*
X1900168D03*
Y1543602D03*
Y1533602D03*
Y1523602D03*
G54D22*
X1930046Y1749106D03*
X1871046D03*
X2270928Y1438562D03*
X2211928D03*
G54D23*
X1801715Y1675828D03*
X1828715D03*
G54D24*
X1804663Y1606064D03*
X1825136D03*
G54D25*
X2251192Y1568011D03*
Y1588484D03*
X2282686Y1689006D03*
X1739207Y1677955D03*
G54D26*
X2072485Y1780040D02*
Y1766915D01*
Y1780040D02*
X2075667D01*
X2077030Y1779415*
X2077939Y1778165*
X2078394Y1776915*
X2078848Y1775040*
Y1771915*
X2078394Y1770040*
X2077939Y1768790*
X2077030Y1767540*
X2075667Y1766915*
X2072485*
X2082939Y1771915D02*
X2088394D01*
Y1773165*
X2087939Y1774415*
X2087485Y1775040*
X2086576Y1775665*
X2085212*
X2084303Y1775040*
X2083394Y1773790*
X2082939Y1771915*
Y1770665*
X2083394Y1768790*
X2084303Y1767540*
X2085212Y1766915*
X2086576*
X2087485Y1767540*
X2088394Y1768790*
X2097485Y1773790D02*
X2097030Y1775040D01*
X2095667Y1775665*
X2094303*
X2092939Y1775040*
X2092485Y1773790*
X2092939Y1772540*
X2093848Y1771915*
X2096121Y1771290*
X2097030Y1770665*
X2097485Y1769415*
Y1768790*
X2097030Y1767540*
X2095667Y1766915*
X2094303*
X2092939Y1767540*
X2092485Y1768790*
X2101576Y1780040D02*
X2102030Y1779415D01*
X2102485Y1780040*
X2102030Y1780665*
X2101576Y1780040*
X2102030Y1775665D02*
Y1766915D01*
X2112030Y1775665D02*
Y1765665D01*
X2111576Y1763790*
X2111121Y1763165*
X2110212Y1762540*
X2108848*
X2107939Y1763165*
X2112030Y1773790D02*
X2111121Y1775040D01*
X2110212Y1775665*
X2108848*
X2107939Y1775040*
X2107030Y1773790*
X2106576Y1771915*
Y1770665*
X2107030Y1768790*
X2107939Y1767540*
X2108848Y1766915*
X2110212*
X2111121Y1767540*
X2112030Y1768790*
X2116121Y1775665D02*
Y1766915D01*
Y1773165D02*
X2117485Y1775040D01*
X2118394Y1775665*
X2119758*
X2120667Y1775040*
X2121121Y1773165*
Y1766915*
X2125212Y1771915D02*
X2130667D01*
Y1773165*
X2130212Y1774415*
X2129758Y1775040*
X2128848Y1775665*
X2127485*
X2126576Y1775040*
X2125667Y1773790*
X2125212Y1771915*
Y1770665*
X2125667Y1768790*
X2126576Y1767540*
X2127485Y1766915*
X2128848*
X2129758Y1767540*
X2130667Y1768790*
X2140212Y1780040D02*
Y1766915D01*
Y1773790D02*
X2139303Y1775040D01*
X2138394Y1775665*
X2137030*
X2136121Y1775040*
X2135212Y1773790*
X2134758Y1771915*
Y1770665*
X2135212Y1768790*
X2136121Y1767540*
X2137030Y1766915*
X2138394*
X2139303Y1767540*
X2140212Y1768790*
X2154758Y1780040D02*
Y1766915D01*
Y1773790D02*
X2155667Y1775040D01*
X2156576Y1775665*
X2157939*
X2158848Y1775040*
X2159758Y1773790*
X2160212Y1771915*
Y1770665*
X2159758Y1768790*
X2158848Y1767540*
X2157939Y1766915*
X2156576*
X2155667Y1767540*
X2154758Y1768790*
X2164758Y1775665D02*
X2167485Y1766915D01*
X2170212Y1775665D02*
X2167485Y1766915D01*
X2166576Y1764415*
X2165667Y1763165*
X2164758Y1762540*
X2164303*
X2174758Y1775665D02*
X2174303Y1775040D01*
X2174758Y1774415*
X2175212Y1775040*
X2174758Y1775665*
Y1768165D02*
X2174303Y1767540D01*
X2174758Y1766915*
X2175212Y1767540*
X2174758Y1768165*
X2075105Y1752597D02*
X2071468Y1739472D01*
X2075105Y1752597D02*
X2078741Y1739472D01*
X2072832Y1743847D02*
X2077378D01*
X2082832Y1752597D02*
Y1739472D01*
X2092378Y1752597D02*
Y1739472D01*
Y1746347D02*
X2091468Y1747597D01*
X2090559Y1748222*
X2089196*
X2088287Y1747597*
X2087378Y1746347*
X2086923Y1744472*
Y1743222*
X2087378Y1741347*
X2088287Y1740097*
X2089196Y1739472*
X2090559*
X2091468Y1740097*
X2092378Y1741347*
X2096468Y1748222D02*
Y1741972D01*
X2096923Y1740097*
X2097832Y1739472*
X2099196*
X2100105Y1740097*
X2101468Y1741972*
Y1748222D02*
Y1739472D01*
X2105559Y1752597D02*
Y1739472D01*
X2115105Y1748222D02*
Y1739472D01*
Y1746347D02*
X2114196Y1747597D01*
X2113287Y1748222*
X2111923*
X2111014Y1747597*
X2110105Y1746347*
X2109650Y1744472*
Y1743222*
X2110105Y1741347*
X2111014Y1740097*
X2111923Y1739472*
X2113287*
X2114196Y1740097*
X2115105Y1741347*
X2119196Y1752597D02*
X2119650Y1751972D01*
X2120105Y1752597*
X2119650Y1753222*
X2119196Y1752597*
X2119650Y1748222D02*
Y1739472D01*
X2124196Y1748222D02*
Y1739472D01*
Y1745722D02*
X2125559Y1747597D01*
X2126468Y1748222*
X2127832*
X2128741Y1747597*
X2129196Y1745722*
Y1739472*
Y1745722D02*
X2130559Y1747597D01*
X2131468Y1748222*
X2132832*
X2133741Y1747597*
X2134196Y1745722*
Y1739472*
X2138287Y1752597D02*
X2138741Y1751972D01*
X2139196Y1752597*
X2138741Y1753222*
X2138287Y1752597*
X2138741Y1748222D02*
Y1739472D01*
X2157378Y1752597D02*
X2153741Y1739472D01*
X2157378Y1752597D02*
X2161014Y1739472D01*
X2155105Y1743847D02*
X2159650D01*
X2165105Y1752597D02*
Y1739472D01*
X2169196Y1752597D02*
X2169650Y1751972D01*
X2170105Y1752597*
X2169650Y1753222*
X2169196Y1752597*
X2169650Y1748222D02*
Y1739472D01*
X2294772Y1689006D02*
G75*
G03X2294772I-12086J0D01*
G01X1889723Y1561111D02*
G03X1891247Y1560260I1000J0D01*
G01X1893868Y1561002D02*
G03X1891247Y1560260I0J-5000D01*
G01X1893868Y1561002D02*
X1905633D01*
G03X1906633Y1562002I0J1000*
G01Y1615202*
G03X1905633Y1616202I-1000J-0*
G01X1893868*
X1891247Y1616944D02*
G03X1893868Y1616202I2621J4258D01*
G01X1891247Y1616944D02*
G03X1889723Y1616092I-524J-852D01*
G01Y1561111*
X1856397Y1527502D02*
G03X1856690Y1526795I1000J0D01*
G01X1862628Y1520857*
G03X1863335Y1520564I707J707*
G01X1887868*
G03X1888868Y1521564I0J1000*
G01Y1526002*
X1889362Y1528168D02*
G03X1888868Y1526002I4506J-2166D01*
G01X1889362Y1528168D02*
G03Y1529035I-901J434D01*
G01X1888868Y1531202D02*
G03X1889362Y1529035I5000J-0D01*
G01X1888868Y1531202D02*
Y1532609D01*
G03X1888074Y1533588I-1000J0*
G01X1884471Y1535381D02*
G03X1888074Y1533588I5252J6035D01*
G01X1884471Y1535381D02*
G03X1883815Y1535627I-656J-754D01*
G01X1873714*
X1872714Y1536627D02*
G03X1873714Y1535627I1000J0D01*
G01X1872714Y1536627D02*
Y1635326D01*
X1873007Y1636033D02*
G03X1872714Y1635326I707J-707D01*
G01X1873007Y1636033D02*
X1878528Y1641553D01*
X1879235Y1641846D02*
G03X1878528Y1641553I-0J-1000D01*
G01X1879235Y1641846D02*
X1884851D01*
G03X1885392Y1642006I-0J1000*
G01X1888074Y1643108D02*
G03X1885392Y1642006I1649J-7829D01*
G01X1888074Y1643108D02*
G03X1888868Y1644086I-206J978D01*
G01Y1646002*
X1889362Y1648168D02*
G03X1888868Y1646002I4506J-2166D01*
G01X1889362Y1648168D02*
G03Y1649035I-901J434D01*
G01X1888868Y1651202D02*
G03X1889362Y1649035I5000J-0D01*
G01X1888868Y1651202D02*
Y1656002D01*
X1888888Y1656448D02*
G03X1888868Y1656002I4980J-446D01*
G01X1888888Y1656448D02*
G03X1887892Y1657537I-996J89D01*
G01X1862707*
G03X1862000Y1657244I0J-1000*
G01X1856690Y1651933*
G03X1856397Y1651226I707J-707*
G01Y1527502*
X1956884Y1472185D02*
G03X1957884Y1471185I1000J0D01*
G01X2191329*
G03X2192036Y1471478I-0J1000*
G01X2230037Y1509479*
G03X2230330Y1510187I-707J708*
G01Y1635948*
X2231328Y1636948D02*
G03X2230330Y1635948I2J-1000D01*
G01X2231328Y1636948D02*
G03X2232033Y1637240I-2J1000D01*
G01X2250621Y1655829*
X2251328Y1656122D02*
G03X2250621Y1655829I0J-1000D01*
G01X2251328Y1656122D02*
X2305201D01*
G03X2306201Y1657122I-0J1000*
G01Y1707345*
G03X2305201Y1708345I-1000J-0*
G01X2194982*
G03X2193982Y1707345I-0J-1000*
G01Y1538634*
X2193689Y1537927D02*
G03X2193982Y1538634I-707J707D01*
G01X2193689Y1537927D02*
X2160701Y1504940D01*
X2159994Y1504647D02*
G03X2160701Y1504940I0J1000D01*
G01X2159994Y1504647D02*
X2131130D01*
X2130130Y1505647D02*
G03X2131130Y1504647I1000J0D01*
G01X2130130Y1505647D02*
Y1539933D01*
G03X2129130Y1540933I-1000J0*
G01X2103441*
G03X2102441Y1539933I0J-1000*
G01Y1503585*
X2101441Y1502585D02*
G03X2102441Y1503585I0J1000D01*
G01X2101441Y1502585D02*
X1998356D01*
X1997648Y1502878D02*
G03X1998356Y1502585I708J707D01*
G01X1997648Y1502878D02*
X1980330Y1520197D01*
X1980037Y1520904D02*
G03X1980330Y1520197I1000J-0D01*
G01X1980037Y1520904D02*
Y1543167D01*
G03X1979744Y1543874I-1000J-0*
G01X1972669Y1550949*
G03X1971962Y1551242I-707J-707*
G01X1957884*
G03X1956884Y1550242I0J-1000*
G01Y1472185*
X2028744Y1560360D02*
G03X2030432Y1559633I1000J-0D01*
G01X2033868Y1561002D02*
G03X2030432Y1559633I0J-5000D01*
G01X2033868Y1561002D02*
X2046468D01*
X2049128Y1560236D02*
G03X2046468Y1561002I-2660J-4234D01*
G01X2049128Y1560236D02*
G03X2050660Y1561082I532J846D01*
G01Y1616121*
G03X2049128Y1616968I-1000J0*
G01X2046468Y1616202D02*
G03X2049128Y1616968I0J5000D01*
G01X2046468Y1616202D02*
X2033868D01*
X2030432Y1617570D02*
G03X2033868Y1616202I3436J3632D01*
G01X2030432Y1617570D02*
G03X2028744Y1616844I-688J-726D01*
G01Y1560360*
X2000911Y1530693D02*
G03X2001204Y1529986I1000J-0D01*
G01X2016835Y1514354*
G03X2017542Y1514061I707J707*
G01X2044300*
G03X2045300Y1515061I-0J1000*
G01Y1515202*
G03X2044300Y1516202I-1000J-0*
G01X2033868*
X2028868Y1521202D02*
G03X2033868Y1516202I5000J-0D01*
G01X2028868Y1521202D02*
Y1526002D01*
X2029362Y1528168D02*
G03X2028868Y1526002I4506J-2166D01*
G01X2029362Y1528168D02*
G03Y1529035I-901J434D01*
G01X2028868Y1531202D02*
G03X2029362Y1529035I5000J-0D01*
G01X2028868Y1531202D02*
Y1533453D01*
G03X2027966Y1534448I-1000J-0*
G01X2025782Y1534978D02*
G03X2027966Y1534448I2962J7432D01*
G01X2025782Y1534978D02*
G03X2025412Y1535049I-370J-929D01*
G01X2022796*
X2022089Y1535342D02*
G03X2022796Y1535049I707J707D01*
G01X2022089Y1535342D02*
X2016522Y1540909D01*
X2016229Y1541616D02*
G03X2016522Y1540909I1000J0D01*
G01X2016229Y1541616D02*
Y1635837D01*
X2016522Y1636544D02*
G03X2016229Y1635837I707J-707D01*
G01X2016522Y1636544D02*
X2022398Y1642420D01*
X2023105Y1642713D02*
G03X2022398Y1642420I0J-1000D01*
G01X2023105Y1642713D02*
X2027868D01*
G03X2028868Y1643713I0J1000*
G01Y1646002*
X2029362Y1648168D02*
G03X2028868Y1646002I4506J-2166D01*
G01X2029362Y1648168D02*
G03Y1649035I-901J434D01*
G01X2028868Y1651202D02*
G03X2029362Y1649035I5000J-0D01*
G01X2028868Y1651202D02*
Y1656002D01*
X2029317Y1658072D02*
G03X2028868Y1656002I4551J-2070D01*
G01X2029317Y1658072D02*
G03X2029407Y1658485I-911J413D01*
X2028407Y1659485I-1000J0*
G01X2006627*
G03X2005920Y1659193I-0J-1000*
G01X2001204Y1654477*
G03X2000911Y1653770I707J-707*
G01Y1530693*
X1823034Y1619104D02*
G03X1824118Y1618108I1000J0D01*
G01X1836083Y1611187D02*
G03X1824118Y1618108I-10947J-5123D01*
G01X1836083Y1611187D02*
G03X1837989Y1611610I906J423D01*
G01Y1660585*
X1838282Y1661292D02*
G03X1837989Y1660585I707J-707D01*
G01X1838282Y1661292D02*
X1845285Y1668295D01*
X1845992Y1668588D02*
G03X1845285Y1668295I0J-1000D01*
G01X1845992Y1668588D02*
X1959147D01*
X1960147Y1667588D02*
G03X1959147Y1668588I-1000J-0D01*
G01X1960147Y1667588D02*
Y1654041D01*
G03X1960440Y1653334I1000J0*
G01X1965350Y1648424*
G03X1966057Y1648131I707J707*
G01X1983473*
X1984180Y1647838D02*
G03X1983473Y1648131I-707J-707D01*
G01X1984180Y1647838D02*
X1991204Y1640815D01*
G03X1992911Y1641522I707J707*
G01Y1654184*
X1994772Y1659314D02*
G03X1992911Y1654184I6139J-5130D01*
G01X1994772Y1659314D02*
G03X1995005Y1659955I-767J641D01*
G01Y1668325*
X1996005Y1669325D02*
G03X1995005Y1668325I-0J-1000D01*
G01X1996005Y1669325D02*
X2096259D01*
X2096966Y1669032D02*
G03X2096259Y1669325I-707J-707D01*
G01X2096966Y1669032D02*
X2105075Y1660923D01*
X2105368Y1660216D02*
G03X2105075Y1660923I-1000J-0D01*
G01X2105368Y1660216D02*
Y1653001D01*
G03X2106368Y1652001I1000J0*
G01X2132749*
X2133749Y1651001D02*
G03X2132749Y1652001I-1000J0D01*
G01X2133749Y1651001D02*
Y1620409D01*
X2133456Y1619702D02*
G03X2133749Y1620409I-707J707D01*
G01X2133456Y1619702D02*
X2130876Y1617122D01*
X2130169Y1616829D02*
G03X2130876Y1617122I-0J1000D01*
G01X2130169Y1616829D02*
X2091659D01*
G03X2091214Y1616725I-0J-1000*
G01X2088988Y1616202D02*
G03X2091214Y1616725I0J5000D01*
G01X2088988Y1616202D02*
X2076388D01*
X2074162Y1616725D02*
G03X2076388Y1616202I2226J4477D01*
G01X2074162Y1616725D02*
G03X2073717Y1616829I-445J-896D01*
G01X2066561*
G03X2065561Y1615829I0J-1000*
G01Y1594028*
G03X2066561Y1593028I1000J0*
G01X2172767*
G03X2173767Y1594028I-0J1000*
G01Y1688808*
G03X2172767Y1689808I-1000J0*
G01X1824034*
G03X1823034Y1688808I0J-1000*
G01Y1687828*
G03X1824034Y1686828I1000J-0*
G01X1834715*
X1839715Y1681828D02*
G03X1834715Y1686828I-5000J-0D01*
G01X1839715Y1681828D02*
Y1669828D01*
X1834715Y1664828D02*
G03X1839715Y1669828I-0J5000D01*
G01X1834715Y1664828D02*
X1824034D01*
G03X1823034Y1663828I0J-1000*
G01Y1619104*
X1728000Y1595162D02*
G03X1729000Y1594162I1000J0D01*
G01X1797423*
G03X1797977Y1595995I0J1000*
G01X1792577Y1606064D02*
G03X1797977Y1595995I12086J-0D01*
G01X1806660Y1617984D02*
G03X1792577Y1606064I-1997J-11920D01*
G01X1806660Y1617984D02*
G03X1807825Y1618971I165J987D01*
G01Y1663828*
G03X1806825Y1664828I-1000J-0*
G01X1795715*
X1790715Y1669828D02*
G03X1795715Y1664828I5000J-0D01*
G01X1790715Y1669828D02*
Y1681828D01*
X1795715Y1686828D02*
G03X1790715Y1681828I-0J-5000D01*
G01X1795715Y1686828D02*
X1806825D01*
G03X1807825Y1687828I0J1000*
G01Y1688468*
G03X1806825Y1689468I-1000J0*
G01X1747001*
G03X1746001Y1688468I-0J-1000*
X1746405Y1687665I1000J0*
G01X1729780Y1670391D02*
G03X1746405Y1687665I9427J7564D01*
G01X1729780Y1670391D02*
G03X1728000Y1669765I-780J-626D01*
G01Y1595162*
X1671208Y1402581D02*
G03X1672208Y1401581I1000J-0D01*
G01X1672208D02*
X2330517D01*
X2330517D02*
G03X2331517Y1402581I0J1000D01*
G01X2331517D02*
Y1800145D01*
G03X2330517Y1801145I-1000J0*
G01X1672208*
G03X1671208Y1800145I0J-1000*
G01Y1402581*
X2294772Y1689006D02*
G03X2294772I-12086J0D01*
G01X2253928Y1429062D02*
Y1448062D01*
X2258928Y1453062D02*
G03X2253928Y1448062I0J-5000D01*
G01X2258928Y1453062D02*
X2282928D01*
X2287928Y1448062D02*
G03X2282928Y1453062I-5000J0D01*
G01X2287928Y1448062D02*
Y1429062D01*
X2282928Y1424062D02*
G03X2287928Y1429062I0J5000D01*
G01X2282928Y1424062D02*
X2258928D01*
X2253928Y1429062D02*
G03X2258928Y1424062I5000J0D01*
G01X2194928Y1429062D02*
Y1448062D01*
X2199928Y1453062D02*
G03X2194928Y1448062I0J-5000D01*
G01X2199928Y1453062D02*
X2223928D01*
X2228928Y1448062D02*
G03X2223928Y1453062I-5000J0D01*
G01X2228928Y1448062D02*
Y1429062D01*
X2223928Y1424062D02*
G03X2228928Y1429062I0J5000D01*
G01X2223928Y1424062D02*
X2199928D01*
X2194928Y1429062D02*
G03X2199928Y1424062I5000J0D01*
G01X2065468Y1734097D02*
Y1756097D01*
X2066531Y1759179D02*
G03X2065468Y1756097I3937J-3082D01*
G01X2066531Y1759179D02*
G03X2066744Y1759796I-787J617D01*
X2066701Y1760086I-1000J-0*
G01X2066485Y1761540D02*
G03X2066701Y1760086I5000J-0D01*
G01X2066485Y1761540D02*
Y1783540D01*
X2071485Y1788540D02*
G03X2066485Y1783540I-0J-5000D01*
G01X2071485Y1788540D02*
X2178030D01*
X2183030Y1783540D02*
G03X2178030Y1788540I-5000J-0D01*
G01X2183030Y1783540D02*
Y1761540D01*
X2178774Y1756595D02*
G03X2183030Y1761540I-744J4945D01*
G01X2178774Y1756595D02*
G03X2177923Y1755607I149J-988D01*
G01Y1734097*
X2172923Y1729097D02*
G03X2177923Y1734097I0J5000D01*
G01X2172923Y1729097D02*
X2070468D01*
X2065468Y1734097D02*
G03X2070468Y1729097I5000J0D01*
G01X1913046Y1739606D02*
Y1758606D01*
X1918046Y1763606D02*
G03X1913046Y1758606I-0J-5000D01*
G01X1918046Y1763606D02*
X1942046D01*
X1947046Y1758606D02*
G03X1942046Y1763606I-5000J0D01*
G01X1947046Y1758606D02*
Y1739606D01*
X1942046Y1734606D02*
G03X1947046Y1739606I-0J5000D01*
G01X1942046Y1734606D02*
X1918046D01*
X1913046Y1739606D02*
G03X1918046Y1734606I5000J0D01*
G01X1854046Y1739606D02*
Y1758606D01*
X1859046Y1763606D02*
G03X1854046Y1758606I-0J-5000D01*
G01X1859046Y1763606D02*
X1883046D01*
X1888046Y1758606D02*
G03X1883046Y1763606I-5000J0D01*
G01X1888046Y1758606D02*
Y1739606D01*
X1883046Y1734606D02*
G03X1888046Y1739606I-0J5000D01*
G01X1883046Y1734606D02*
X1859046D01*
X1854046Y1739606D02*
G03X1859046Y1734606I5000J0D01*
G01X1720000Y1594162D02*
Y1689468D01*
X1728000Y1697468D02*
G03X1720000Y1689468I0J-8000D01*
G01X1728000Y1697468D02*
X1807825D01*
X1814489Y1693894D02*
G03X1807825Y1697468I-6664J-4426D01*
G01X1814489Y1693894D02*
G03X1816179Y1693932I833J554D01*
G01X1823034Y1697808D02*
G03X1816179Y1693932I0J-8000D01*
G01X1823034Y1697808D02*
X2173767D01*
X2181767Y1689808D02*
G03X2173767Y1697808I-8000J0D01*
G01X2181767Y1689808D02*
Y1593028D01*
X2173767Y1585028D02*
G03X2181767Y1593028I-0J8000D01*
G01X2173767Y1585028D02*
X2065561D01*
X2060316Y1586988D02*
G03X2065561Y1585028I5245J6040D01*
G01X2060316Y1586988D02*
G03X2058660Y1586233I-656J-755D01*
G01Y1562323*
G03X2060367Y1561616I1000J-0*
G01X2064172Y1565420*
X2069829Y1567763D02*
G03X2064172Y1565420I-0J-8000D01*
G01X2069829Y1567763D02*
X2082688D01*
X2090280Y1562286D02*
G03X2082688Y1567763I-7592J-2523D01*
G01X2090280Y1562286D02*
G03X2091229Y1561602I949J316D01*
G01X2104319*
G03X2104937Y1561816I0J1000*
G01X2121928Y1553562D02*
G03X2104937Y1561816I-10500J0D01*
G01X2121928Y1553562D02*
X2121928D01*
X2121392Y1550249D02*
G03X2121928Y1553562I-9964J3313D01*
G01X2121392Y1550249D02*
G03X2121341Y1549933I949J-316D01*
G01X2121340D02*
G03X2122340Y1548933I1000J0D01*
G01X2130130*
X2138130Y1540933D02*
G03X2130130Y1548933I-8000J0D01*
G01X2138130Y1540933D02*
Y1513647D01*
G03X2139130Y1512647I1000J0*
G01X2156680*
G03X2157388Y1512940I0J1000*
G01X2185689Y1541241*
G03X2185982Y1541948I-707J707*
G01Y1708345*
X2193982Y1716345D02*
G03X2185982Y1708345I-0J-8000D01*
G01X2193982Y1716345D02*
X2306201D01*
X2314201Y1708345D02*
G03X2306201Y1716345I-8000J-0D01*
G01X2314201Y1708345D02*
Y1656122D01*
X2306201Y1648122D02*
G03X2314201Y1656122I-0J8000D01*
G01X2306201Y1648122D02*
X2254642D01*
G03X2253935Y1647829I-0J-1000*
G01X2238623Y1632516*
G03X2238330Y1631809I707J-707*
G01Y1594010*
G03X2240236Y1593588I1000J0*
G01X2263279Y1588484D02*
G03X2240236Y1593588I-12087J-0D01*
G01X2258722Y1579030D02*
G03X2263279Y1588484I-7530J9454D01*
G01X2258722Y1579030D02*
G03X2258345Y1578247I623J-783D01*
X2258722Y1577465I1000J0*
G01X2263279Y1568011D02*
G03X2258722Y1577465I-12087J0D01*
G01X2240236Y1562907D02*
G03X2263279Y1568011I10956J5104D01*
G01X2240236Y1562907D02*
G03X2238330Y1562485I-906J-422D01*
G01Y1509772*
X2235989Y1504118D02*
G03X2238330Y1509772I-5659J5654D01*
G01X2235989Y1504118D02*
X2197397Y1465526D01*
X2191743Y1463185D02*
G03X2197397Y1465526I-0J8001D01*
G01X2191743Y1463185D02*
X1956884D01*
X1948884Y1471186D02*
G03X1956884Y1463185I8000J-0D01*
G01X1948884Y1471186D02*
Y1514602D01*
G03X1947884Y1515602I-1000J-0*
G01X1942688*
X1939816Y1516135D02*
G03X1942688Y1515602I2872J7467D01*
G01X1939816Y1516135D02*
G03X1939457Y1516202I-359J-933D01*
G01X1936388*
X1931388Y1521202D02*
G03X1936388Y1516202I5000J-0D01*
G01X1931388Y1521202D02*
Y1524602D01*
G03X1930388Y1525602I-1000J-0*
G01X1929960*
X1924303Y1527945D02*
G03X1929960Y1525602I5657J5657D01*
G01X1924303Y1527945D02*
X1917212Y1535036D01*
X1915500Y1537579D02*
G03X1917212Y1535036I7369J3114D01*
G01X1915500Y1537579D02*
G03X1913696Y1537659I-921J-390D01*
G01X1913665Y1537602D02*
G03X1913696Y1537659I-7032J3814D01*
G01X1913665Y1537602D02*
G03X1913544Y1537125I879J-477D01*
X1913558Y1536958I1000J-0*
G01X1913670Y1535627D02*
G03X1913558Y1536958I-8000J0D01*
G01X1913670Y1535627D02*
Y1520564D01*
X1905670Y1512564D02*
G03X1913670Y1520564I-0J8000D01*
G01X1905670Y1512564D02*
X1862920D01*
X1857266Y1514905D02*
G03X1862920Y1512564I5655J5659D01*
G01X1857266Y1514905D02*
X1850737Y1521434D01*
X1848397Y1527088D02*
G03X1850737Y1521434I8000J-0D01*
G01X1848397Y1527088D02*
Y1651640D01*
X1850737Y1657295D02*
G03X1848397Y1651640I5660J-5655D01*
G01X1850737Y1657295D02*
X1852323Y1658881D01*
G03X1852616Y1659588I-707J707*
X1851616Y1660588I-1000J-0*
G01X1849306*
G03X1848599Y1660295I-0J-1000*
G01X1846282Y1657978*
G03X1845989Y1657271I707J-707*
G01Y1596714*
X1837989Y1588714D02*
G03X1845989Y1596714I-0J8000D01*
G01X1837989Y1588714D02*
X1823034D01*
X1816957Y1591511D02*
G03X1823034Y1588714I6077J5203D01*
G01X1816957Y1591511D02*
G03X1815268Y1591228I-759J-650D01*
G01X1807825Y1586162D02*
G03X1815268Y1591228I0J8000D01*
G01X1807825Y1586162D02*
X1728000D01*
X1720000Y1594162D02*
G03X1728000Y1586162I8000J0D01*
G01X1649312Y1821224D02*
X2350688D01*
Y1378776*
X1649312*
Y1821224*
G54D27*
X2211928Y1438562D02*
X2270928D01*
X1706194Y1469784D02*
Y1719626D01*
X1735674Y1749106*
X1871046*
X1706194Y1469784D02*
Y1469624D01*
X1738900Y1436917*
X2210283*
X2211928Y1438562*
X2112830Y1487044D02*
X2168496D01*
X2206020Y1524568*
Y1640848*
X2213183Y1648011*
X2276711Y1685482*
X1868100Y1532885D02*
Y1640024D01*
X1878409Y1650332*
X1900168*
X1868100Y1532885D02*
X1877383Y1523602D01*
X1900168*
Y1533602*
X1922869Y1540693D02*
X1929960Y1533602D01*
X1942688*
X1922869Y1540693D02*
Y1551225D01*
X1926546Y1554902*
X1941388*
X1942688Y1553602*
Y1523602D02*
X1976344D01*
Y1518795*
X2008095Y1487044*
X2112830*
X2040168Y1523602D02*
Y1533602D01*
X2082688Y1523602D02*
X2112830D01*
Y1487044*
X1900168Y1553602D02*
Y1543602D01*
X1942688Y1553602D02*
X1960348Y1571261D01*
Y1572482*
X1961428Y1573562*
X1942688Y1543602D02*
X1969747D01*
X1976344Y1537004*
Y1523602*
X2040168Y1543602D02*
Y1553602D01*
Y1623602*
X2065981Y1547022D02*
Y1539931D01*
X2072310Y1533602*
X2082688*
X2065981Y1547022D02*
Y1555916D01*
X2069829Y1559763*
X2082688*
Y1553602*
X2111389*
X2111428Y1553562*
X2082688Y1543602D02*
X2100047D01*
X2112830Y1530819*
Y1523602*
X1825136Y1606064D02*
X1828715Y1609643D01*
Y1675828*
X1900168Y1623602D02*
X1898591Y1625179D01*
Y1555179*
X1900168Y1553602*
Y1623602D02*
Y1633602D01*
X1925396Y1638350D02*
Y1646248D01*
X1932750Y1653602*
X1942688*
X1925396Y1638350D02*
X1930123Y1633623D01*
X1941111*
X1942688Y1633602*
X1968765*
X1973306Y1629061*
X1942688Y1623602D02*
X1955542Y1610747D01*
X1982530*
X1988954Y1617172*
Y1675983*
X2040168Y1623602D02*
Y1633602D01*
X2065290Y1637967D02*
Y1648612D01*
X2070280Y1653602*
X2082688*
X2065290Y1637967D02*
X2069492Y1633764D01*
X2082688Y1633602*
X2116389*
X2116428Y1633562*
X2082688Y1623602D02*
X2093808Y1612482D01*
X2148936*
X2155946Y1619492*
Y1641346*
X1900168Y1643602D02*
Y1650332D01*
Y1653602*
X1942688Y1643602D02*
X1958778D01*
X1969228Y1654052*
Y1676043*
X1970961*
X2009216Y1647034D02*
Y1536384D01*
X2021999Y1523602*
X2040168*
X2009216Y1647034D02*
X2017463Y1655280D01*
X2038490*
X2040168Y1653602*
Y1643602*
X2082688D02*
X2100061D01*
X2103990Y1647531*
X2128141*
X2149761*
X2155946Y1641346*
X1746144Y1677955D02*
X1799587D01*
X1801715Y1675828*
Y1609013*
X1804663Y1606064*
X1828715Y1675828D02*
X1970746D01*
X1970961Y1676043*
X1988894*
X1988954Y1675983*
X2118657*
X2128141Y1666499*
Y1647531*
X1871046Y1749106D02*
X1930046D01*
G54D28*
X2111428Y1553562D03*
X1961428Y1573562D03*
X1973306Y1629061D03*
X2116428Y1633562D03*
G74*
X0Y0D02*
M02*
