*
*
G04 PADS VX.2.11 Build Number: 20124196 generated Gerber (RS-274-X) file*
G04 PC Version=2.1*
*
%IN "test6.pcb"*%
*
%MOIN*%
*
%FSLAX35Y35*%
*
*
*
*
G04 PC Standard Apertures*
*
*
G04 Thermal Relief Aperture macro.*
%AMTER*
1,1,$1,0,0*
1,0,$1-$2,0,0*
21,0,$3,$4,0,0,45*
21,0,$3,$4,0,0,135*
%
*
*
G04 Annular Aperture macro.*
%AMANN*
1,1,$1,0,0*
1,0,$2,0,0*
%
*
*
G04 Odd Aperture macro.*
%AMODD*
1,1,$1,0,0*
1,0,$1-0.005,0,0*
%
*
*
G04 PC Custom Aperture Macros*
*
*
*
*
*
*
G04 PC Aperture Table*
*
%ADD010C,0.001*%
%ADD011R,0.063X0.024*%
%ADD012R,0.12X0.095*%
%ADD013R,0.06X0.06*%
%ADD014ANN,0.07087X0.03937*%
%ADD015C,0.01*%
%ADD016C,0.03*%
%ADD017C,0.055*%
*
*
*
*
G04 PC Circuitry*
G04 Layer Name test6.pcb - circuitry*
%LPD*%
*
*
G04 PC Custom Flashes*
G04 Layer Name test6.pcb - flashes*
%LPD*%
*
*
G04 PC Circuitry*
G04 Layer Name test6.pcb - circuitry*
%LPD*%
*
G54D10*
G54D11*
G01X2050630Y1992520D03*
Y1997520D03*
Y2002520D03*
Y2007520D03*
X2029370D03*
Y2002520D03*
Y1997520D03*
Y1992520D03*
X2050630Y1942520D03*
Y1947520D03*
Y1952520D03*
Y1957520D03*
X2029370D03*
Y1952520D03*
Y1947520D03*
Y1942520D03*
X1980630Y1992520D03*
Y1997520D03*
Y2002520D03*
Y2007520D03*
X1959370D03*
Y2002520D03*
Y1997520D03*
Y1992520D03*
X1980630Y1942520D03*
Y1947520D03*
Y1952520D03*
Y1957520D03*
X1959370D03*
Y1952520D03*
Y1947520D03*
Y1942520D03*
G54D12*
X2106470Y1914937D03*
X2076970D03*
X1899893Y2050133D03*
X1870393D03*
G54D13*
X1873250Y2010000D03*
X1886750D03*
X1913250D03*
X1926750D03*
X2093250D03*
X2106750D03*
X1913343Y1988721D03*
X1926843D03*
G54D14*
X2104882Y1974724D03*
Y1984961D03*
G54D15*
X1869737Y1928200D02*
Y1921638D01*
Y1928200D02*
X1871328D01*
X1872009Y1927888*
X1872464Y1927263*
X1872691Y1926638*
X1872918Y1925700*
Y1924138*
X1872691Y1923200*
X1872464Y1922575*
X1872009Y1921950*
X1871328Y1921638*
X1869737*
X1874964Y1924138D02*
X1877691D01*
Y1924763*
X1877464Y1925388*
X1877237Y1925700*
X1876782Y1926013*
X1876100*
X1875646Y1925700*
X1875191Y1925075*
X1874964Y1924138*
Y1923513*
X1875191Y1922575*
X1875646Y1921950*
X1876100Y1921638*
X1876782*
X1877237Y1921950*
X1877691Y1922575*
X1882237Y1925075D02*
X1882009Y1925700D01*
X1881328Y1926013*
X1880646*
X1879964Y1925700*
X1879737Y1925075*
X1879964Y1924450*
X1880418Y1924138*
X1881555Y1923825*
X1882009Y1923513*
X1882237Y1922888*
Y1922575*
X1882009Y1921950*
X1881328Y1921638*
X1880646*
X1879964Y1921950*
X1879737Y1922575*
X1884282Y1928200D02*
X1884509Y1927888D01*
X1884737Y1928200*
X1884509Y1928513*
X1884282Y1928200*
X1884509Y1926013D02*
Y1921638D01*
X1889509Y1926013D02*
Y1921013D01*
X1889282Y1920075*
X1889055Y1919763*
X1888600Y1919450*
X1887918*
X1887464Y1919763*
X1889509Y1925075D02*
X1889055Y1925700D01*
X1888600Y1926013*
X1887918*
X1887464Y1925700*
X1887009Y1925075*
X1886782Y1924138*
Y1923513*
X1887009Y1922575*
X1887464Y1921950*
X1887918Y1921638*
X1888600*
X1889055Y1921950*
X1889509Y1922575*
X1891555Y1926013D02*
Y1921638D01*
Y1924763D02*
X1892237Y1925700D01*
X1892691Y1926013*
X1893373*
X1893828Y1925700*
X1894055Y1924763*
Y1921638*
X1896100Y1924138D02*
X1898828D01*
Y1924763*
X1898600Y1925388*
X1898373Y1925700*
X1897918Y1926013*
X1897237*
X1896782Y1925700*
X1896328Y1925075*
X1896100Y1924138*
Y1923513*
X1896328Y1922575*
X1896782Y1921950*
X1897237Y1921638*
X1897918*
X1898373Y1921950*
X1898828Y1922575*
X1903600Y1928200D02*
Y1921638D01*
Y1925075D02*
X1903146Y1925700D01*
X1902691Y1926013*
X1902009*
X1901555Y1925700*
X1901100Y1925075*
X1900873Y1924138*
Y1923513*
X1901100Y1922575*
X1901555Y1921950*
X1902009Y1921638*
X1902691*
X1903146Y1921950*
X1903600Y1922575*
X1910873Y1928200D02*
Y1921638D01*
Y1925075D02*
X1911328Y1925700D01*
X1911782Y1926013*
X1912464*
X1912918Y1925700*
X1913373Y1925075*
X1913600Y1924138*
Y1923513*
X1913373Y1922575*
X1912918Y1921950*
X1912464Y1921638*
X1911782*
X1911328Y1921950*
X1910873Y1922575*
X1915873Y1926013D02*
X1917237Y1921638D01*
X1918600Y1926013D02*
X1917237Y1921638D01*
X1916782Y1920388*
X1916328Y1919763*
X1915873Y1919450*
X1915646*
X1920873Y1926013D02*
X1920646Y1925700D01*
X1920873Y1925388*
X1921100Y1925700*
X1920873Y1926013*
Y1922263D02*
X1920646Y1921950D01*
X1920873Y1921638*
X1921100Y1921950*
X1920873Y1922263*
X1870478Y1913540D02*
X1868660Y1906977D01*
X1870478Y1913540D02*
X1872296Y1906977D01*
X1869342Y1909165D02*
X1871614D01*
X1874342Y1913540D02*
Y1906977D01*
X1879114Y1913540D02*
Y1906977D01*
Y1910415D02*
X1878660Y1911040D01*
X1878205Y1911352*
X1877523*
X1877069Y1911040*
X1876614Y1910415*
X1876387Y1909477*
Y1908852*
X1876614Y1907915*
X1877069Y1907290*
X1877523Y1906977*
X1878205*
X1878660Y1907290*
X1879114Y1907915*
X1881160Y1911352D02*
Y1908227D01*
X1881387Y1907290*
X1881842Y1906977*
X1882523*
X1882978Y1907290*
X1883660Y1908227*
Y1911352D02*
Y1906977D01*
X1885705Y1913540D02*
Y1906977D01*
X1890478Y1911352D02*
Y1906977D01*
Y1910415D02*
X1890023Y1911040D01*
X1889569Y1911352*
X1888887*
X1888432Y1911040*
X1887978Y1910415*
X1887751Y1909477*
Y1908852*
X1887978Y1907915*
X1888432Y1907290*
X1888887Y1906977*
X1889569*
X1890023Y1907290*
X1890478Y1907915*
X1892523Y1913540D02*
X1892751Y1913227D01*
X1892978Y1913540*
X1892751Y1913852*
X1892523Y1913540*
X1892751Y1911352D02*
Y1906977D01*
X1895023Y1911352D02*
Y1906977D01*
Y1910102D02*
X1895705Y1911040D01*
X1896160Y1911352*
X1896842*
X1897296Y1911040*
X1897523Y1910102*
Y1906977*
Y1910102D02*
X1898205Y1911040D01*
X1898660Y1911352*
X1899342*
X1899796Y1911040*
X1900023Y1910102*
Y1906977*
X1902069Y1913540D02*
X1902296Y1913227D01*
X1902523Y1913540*
X1902296Y1913852*
X1902069Y1913540*
X1902296Y1911352D02*
Y1906977D01*
X1911614Y1913540D02*
X1909796Y1906977D01*
X1911614Y1913540D02*
X1913432Y1906977D01*
X1910478Y1909165D02*
X1912751D01*
X1915478Y1913540D02*
Y1906977D01*
X1917523Y1913540D02*
X1917751Y1913227D01*
X1917978Y1913540*
X1917751Y1913852*
X1917523Y1913540*
X1917751Y1911352D02*
Y1906977D01*
X1976776Y1926210D02*
G75*
G03X1977276Y1925710I500J-0D01*
G01X2065093*
G03X2065446Y1925856I-0J500*
G01X2095837Y1956247*
G03X2095983Y1956600I-354J353*
G01Y1997843*
X2096483Y1998343D02*
G03X2095983Y1997843I0J-500D01*
G01X2096483Y1998343D02*
X2122022D01*
G03X2122522Y1998843I0J500*
G01Y2033982*
G03X2122022Y2034482I-500J-0*
G01X2081790*
G03X2081290Y2033982I-0J-500*
G01Y1976480*
X2081143Y1976127D02*
G03X2081290Y1976480I-353J353D01*
G01X2081143Y1976127D02*
X2056705Y1951688D01*
G03X2056558Y1951335I353J-353*
G01Y1943615*
X2056419Y1943269D02*
G03X2056558Y1943615I-361J346D01*
G01X2056419Y1943269D02*
G03X2056280Y1942923I361J-346D01*
G01Y1941320*
X2053780Y1938820D02*
G03X2056280Y1941320I-0J2500D01*
G01X2053780Y1938820D02*
X2047480D01*
X2045260Y1940171D02*
G03X2047480Y1938820I2220J1149D01*
G01X2045260Y1940171D02*
G03X2044316Y1939941I-444J-230D01*
G01Y1937699*
X2043816Y1937199D02*
G03X2044316Y1937699I-0J500D01*
G01X2043816Y1937199D02*
X2015715D01*
X2015362Y1937345D02*
G03X2015715Y1937199I353J354D01*
G01X2015362Y1937345D02*
X1999304Y1953403D01*
G03X1998950Y1953550I-354J-353*
G01X1986780*
G03X1986280Y1953050I-0J-500*
G01Y1951320*
X1986033Y1950236D02*
G03X1986280Y1951320I-2253J1084D01*
G01X1986033Y1950236D02*
G03Y1949803I451J-216D01*
G01X1986280Y1948720D02*
G03X1986033Y1949803I-2500J-0D01*
G01X1986280Y1948720D02*
Y1946320D01*
X1986033Y1945236D02*
G03X1986280Y1946320I-2253J1084D01*
G01X1986033Y1945236D02*
G03Y1944803I451J-216D01*
G01X1986280Y1943720D02*
G03X1986033Y1944803I-2500J-0D01*
G01X1986280Y1943720D02*
Y1941320D01*
X1983780Y1938820D02*
G03X1986280Y1941320I-0J2500D01*
G01X1983780Y1938820D02*
X1977480D01*
X1977310Y1938825D02*
G03X1977480Y1938820I170J2495D01*
G01X1977310Y1938825D02*
G03X1976776Y1938327I-34J-498D01*
G01Y1926210*
X2019831Y1952010D02*
G03X2020331Y1951510I500J-0D01*
G01X2023220*
G03X2023720Y1952010I0J500*
G01Y1953720*
X2023967Y1954803D02*
G03X2023720Y1953720I2253J-1083D01*
G01X2023967Y1954803D02*
G03Y1955236I-451J217D01*
G01X2023720Y1956320D02*
G03X2023967Y1955236I2500J-0D01*
G01X2023720Y1956320D02*
Y1958720D01*
X2026220Y1961220D02*
G03X2023720Y1958720I0J-2500D01*
G01X2026220Y1961220D02*
X2032520D01*
X2034937Y1959357D02*
G03X2032520Y1961220I-2417J-637D01*
G01X2034937Y1959357D02*
G03X2035921Y1959485I484J128D01*
G01Y1990554*
G03X2034937Y1990682I-500J0*
G01X2032520Y1988820D02*
G03X2034937Y1990682I0J2500D01*
G01X2032520Y1988820D02*
X2026220D01*
X2023720Y1991320D02*
G03X2026220Y1988820I2500J-0D01*
G01X2023720Y1991320D02*
Y1993720D01*
X2023967Y1994803D02*
G03X2023720Y1993720I2253J-1083D01*
G01X2023967Y1994803D02*
G03Y1995236I-451J217D01*
G01X2023720Y1996320D02*
G03X2023967Y1995236I2500J-0D01*
G01X2023720Y1996320D02*
Y1997829D01*
G03X2023220Y1998329I-500J0*
G01X2020331*
G03X2019831Y1997829I-0J-500*
G01Y1952010*
X2011039Y1946987D02*
G03X2011185Y1946633I500J-0D01*
G01X2016310Y1941509*
G03X2016664Y1941362I354J353*
G01X2023220*
G03X2023720Y1941862I0J500*
G01Y1943720*
X2023967Y1944803D02*
G03X2023720Y1943720I2253J-1083D01*
G01X2023967Y1944803D02*
G03Y1945236I-451J217D01*
G01X2023720Y1946320D02*
G03X2023967Y1945236I2500J-0D01*
G01X2023720Y1946320D02*
Y1947873D01*
G03X2023220Y1948373I-500J0*
G01X2016701*
X2016201Y1948873D02*
G03X2016701Y1948373I500J0D01*
G01X2016201Y1948873D02*
Y2001787D01*
X2016701Y2002287D02*
G03X2016201Y2001787I0J-500D01*
G01X2016701Y2002287D02*
X2023220D01*
G03X2023720Y2002787I0J500*
G01Y2003720*
X2023967Y2004803D02*
G03X2023720Y2003720I2253J-1083D01*
G01X2023967Y2004803D02*
G03Y2005236I-451J217D01*
G01X2023720Y2006320D02*
G03X2023967Y2005236I2500J-0D01*
G01X2023720Y2006320D02*
Y2008720D01*
X2023955Y2009778D02*
G03X2023720Y2008720I2265J-1058D01*
G01X2023955Y2009778D02*
G03X2023502Y2010490I-453J212D01*
G01X2011539*
G03X2011039Y2009990I0J-500*
G01Y1946987*
X1951963Y1952010D02*
G03X1952463Y1951510I500J-0D01*
G01X1953220*
G03X1953720Y1952010I0J500*
G01Y1953720*
X1953967Y1954803D02*
G03X1953720Y1953720I2253J-1083D01*
G01X1953967Y1954803D02*
G03Y1955236I-451J217D01*
G01X1953720Y1956320D02*
G03X1953967Y1955236I2500J-0D01*
G01X1953720Y1956320D02*
Y1958720D01*
X1956220Y1961220D02*
G03X1953720Y1958720I0J-2500D01*
G01X1956220Y1961220D02*
X1962520D01*
X1965020Y1958720D02*
G03X1962520Y1961220I-2500J-0D01*
G01X1965020Y1958720D02*
Y1956320D01*
X1964773Y1955236D02*
G03X1965020Y1956320I-2253J1084D01*
G01X1964773Y1955236D02*
G03Y1954803I451J-216D01*
G01X1965020Y1953720D02*
G03X1964773Y1954803I-2500J-0D01*
G01X1965020Y1953720D02*
Y1952010D01*
G03X1965520Y1951510I500J-0*
G01X1966238*
G03X1966738Y1952010I0J500*
G01Y1997829*
G03X1966238Y1998329I-500J0*
G01X1965520*
G03X1965020Y1997829I0J-500*
G01Y1996320*
X1964773Y1995236D02*
G03X1965020Y1996320I-2253J1084D01*
G01X1964773Y1995236D02*
G03Y1994803I451J-216D01*
G01X1965020Y1993720D02*
G03X1964773Y1994803I-2500J-0D01*
G01X1965020Y1993720D02*
Y1991320D01*
X1962520Y1988820D02*
G03X1965020Y1991320I0J2500D01*
G01X1962520Y1988820D02*
X1956220D01*
X1953720Y1991320D02*
G03X1956220Y1988820I2500J-0D01*
G01X1953720Y1991320D02*
Y1993720D01*
X1953967Y1994803D02*
G03X1953720Y1993720I2253J-1083D01*
G01X1953967Y1994803D02*
G03Y1995236I-451J217D01*
G01X1953720Y1996320D02*
G03X1953967Y1995236I2500J-0D01*
G01X1953720Y1996320D02*
Y1997994D01*
G03X1953220Y1998494I-500J-0*
G01X1952463*
G03X1951963Y1997994I-0J-500*
G01Y1952010*
X1937502Y1937713D02*
G03X1938002Y1937213I500J-0D01*
G01X1966074*
G03X1966574Y1937713I0J500*
G01Y1946887*
G03X1966074Y1947387I-500J0*
G01X1965520*
G03X1965020Y1946887I0J-500*
G01Y1946320*
X1964773Y1945236D02*
G03X1965020Y1946320I-2253J1084D01*
G01X1964773Y1945236D02*
G03Y1944803I451J-216D01*
G01X1965020Y1943720D02*
G03X1964773Y1944803I-2500J-0D01*
G01X1965020Y1943720D02*
Y1941320D01*
X1962520Y1938820D02*
G03X1965020Y1941320I0J2500D01*
G01X1962520Y1938820D02*
X1956220D01*
X1953720Y1941320D02*
G03X1956220Y1938820I2500J-0D01*
G01X1953720Y1941320D02*
Y1943720D01*
X1953967Y1944803D02*
G03X1953720Y1943720I2253J-1083D01*
G01X1953967Y1944803D02*
G03Y1945236I-451J217D01*
G01X1953720Y1946320D02*
G03X1953967Y1945236I2500J-0D01*
G01X1953720Y1946320D02*
Y1946887D01*
G03X1953220Y1947387I-500J0*
G01X1946533*
X1946033Y1947887D02*
G03X1946533Y1947387I500J0D01*
G01X1946033Y1947887D02*
Y2000637D01*
X1946533Y2001137D02*
G03X1946033Y2000637I-0J-500D01*
G01X1946533Y2001137D02*
X1950423D01*
G03X1950643Y2001188I0J500*
G01X1951963Y2001494D02*
G03X1950643Y2001188I-0J-3000D01*
G01X1951963Y2001494D02*
X1953220D01*
G03X1953720Y2001994I0J500*
G01Y2003720*
X1953967Y2004803D02*
G03X1953720Y2003720I2253J-1083D01*
G01X1953967Y2004803D02*
G03Y2005236I-451J217D01*
G01X1953720Y2006320D02*
G03X1953967Y2005236I2500J-0D01*
G01X1953720Y2006320D02*
Y2008720D01*
X1954024Y2009915D02*
G03X1953720Y2008720I2196J-1195D01*
G01X1954024Y2009915D02*
G03X1953585Y2010654I-439J239D01*
G01X1938002*
G03X1937502Y2010154I-0J-500*
G01Y1937713*
X1921891Y1994346D02*
G03X1922633Y1993908I500J-0D01*
G01X1923843Y1994221D02*
G03X1922633Y1993908I0J-2500D01*
G01X1923843Y1994221D02*
X1929843D01*
X1931963Y1993047D02*
G03X1929843Y1994221I-2120J-1326D01*
G01X1931963Y1993047D02*
G03X1932887Y1993312I424J265D01*
G01Y2005569*
G03X1931947Y2005807I-500J-0*
G01X1929750Y2004500D02*
G03X1931947Y2005807I0J2500D01*
G01X1929750Y2004500D02*
X1923750D01*
X1922617Y2004771D02*
G03X1923750Y2004500I1133J2229D01*
G01X1922617Y2004771D02*
G03X1921891Y2004326I-226J-445D01*
G01Y1994346*
Y2015674D02*
G03X1922617Y2015229I500J0D01*
G01X1923750Y2015500D02*
G03X1922617Y2015229I0J-2500D01*
G01X1923750Y2015500D02*
X1929750D01*
X1932131Y2013763D02*
G03X1929750Y2015500I-2381J-763D01*
G01X1932131Y2013763D02*
G03X1932997Y2013603I476J153D01*
G01X1933033Y2013644D02*
G03X1932997Y2013603I354J-354D01*
G01X1933033Y2013644D02*
X1935252Y2015862D01*
X1935605Y2016009D02*
G03X1935252Y2015862I0J-500D01*
G01X1935605Y2016009D02*
X1985479D01*
X1985979Y2015509D02*
G03X1985479Y2016009I-500J-0D01*
G01X1985979Y2015509D02*
Y2010029D01*
G03X1986029Y2009811I500J0*
G01X1986280Y2008720D02*
G03X1986029Y2009811I-2500J-0D01*
G01X1986280Y2008720D02*
Y2006320D01*
X1986033Y2005236D02*
G03X1986280Y2006320I-2253J1084D01*
G01X1986033Y2005236D02*
G03Y2004803I451J-216D01*
G01X1986280Y2003720D02*
G03X1986033Y2004803I-2500J-0D01*
G01X1986280Y2003720D02*
Y2002020D01*
G03X1986780Y2001520I500J-0*
G01X1993081*
X1994313Y2001325D02*
G03X1993081Y2001520I-1232J-3805D01*
G01X1994313Y2001325D02*
G03X1994467Y2001301I154J476D01*
G01X1999775*
X2000129Y2001155D02*
G03X1999775Y2001301I-354J-354D01*
G01X2000129Y2001155D02*
X2001690Y1999594D01*
X2001837Y1999240D02*
G03X2001690Y1999594I-500J0D01*
G01X2001837Y1999240D02*
Y1990777D01*
X2001690Y1990424D02*
G03X2001837Y1990777I-353J353D01*
G01X2001690Y1990424D02*
X1998773Y1987507D01*
X1998420Y1987360D02*
G03X1998773Y1987507I-0J500D01*
G01X1998420Y1987360D02*
X1990573D01*
X1990220Y1987507D02*
G03X1990573Y1987360I353J353D01*
G01X1990220Y1987507D02*
X1986985Y1990741D01*
G03X1986156Y1990543I-354J-353*
G01X1983780Y1988820D02*
G03X1986156Y1990543I-0J2500D01*
G01X1983780Y1988820D02*
X1977480D01*
X1974980Y1991320D02*
G03X1977480Y1988820I2500J-0D01*
G01X1974980Y1991320D02*
Y1992427D01*
G03X1974480Y1992927I-500J-0*
G01X1973990*
G03X1973490Y1992427I-0J-500*
G01Y1978631*
G03X1973990Y1978131I500J-0*
G01X2000840*
G03X2001194Y1978277I0J500*
G01X2007345Y1984429*
G03X2007492Y1984782I-353J353*
G01Y2015098*
X2007992Y2015598D02*
G03X2007492Y2015098I-0J-500D01*
G01X2007992Y2015598D02*
X2060906D01*
X2061259Y2015451D02*
G03X2060906Y2015598I-353J-353D01*
G01X2061259Y2015451D02*
X2063396Y2013315D01*
X2063542Y2012961D02*
G03X2063396Y2013315I-500J0D01*
G01X2063542Y2012961D02*
Y2008032D01*
X2063396Y2007678D02*
G03X2063542Y2008032I-354J354D01*
G01X2063396Y2007678D02*
X2061588Y2005870D01*
X2061234Y2005724D02*
G03X2061588Y2005870I0J500D01*
G01X2061234Y2005724D02*
X2057305D01*
G03X2056805Y2005224I-0J-500*
G01Y2002020*
G03X2057305Y2001520I500J-0*
G01X2062576*
X2063807Y2001325D02*
G03X2062576Y2001520I-1231J-3805D01*
G01X2063807Y2001325D02*
G03X2063961Y2001301I154J476D01*
G01X2071752*
X2072105Y2001155D02*
G03X2071752Y2001301I-353J-354D01*
G01X2072105Y2001155D02*
X2073173Y2000087D01*
X2073320Y1999733D02*
G03X2073173Y2000087I-500J0D01*
G01X2073320Y1999733D02*
Y1986669D01*
X2072820Y1986169D02*
G03X2073320Y1986669I-0J500D01*
G01X2072820Y1986169D02*
X2044980D01*
G03X2044480Y1985669I-0J-500*
G01Y1975180*
G03X2044980Y1974680I500J-0*
G01X2071830*
G03X2072184Y1974826I0J500*
G01X2076692Y1979335*
G03X2076839Y1979688I-353J353*
G01Y2033160*
G03X2076339Y2033660I-500J-0*
G01X1925749*
G03X1925395Y2033513I-0J-500*
G01X1922037Y2030155*
G03X1921891Y2029802I354J-353*
G01Y2015674*
X1860596Y1983725D02*
G03X1861096Y1983225I500J-0D01*
G01X1908104*
G03X1908477Y1984058I-0J500*
G01X1907843Y1985721D02*
G03X1908477Y1984058I2500J-0D01*
G01X1907843Y1985721D02*
Y1991721D01*
X1910343Y1994221D02*
G03X1907843Y1991721I0J-2500D01*
G01X1910343Y1994221D02*
X1914968D01*
G03X1915468Y1994721I-0J500*
G01Y2004000*
G03X1914968Y2004500I-500J0*
G01X1910250*
X1907750Y2007000D02*
G03X1910250Y2004500I2500J0D01*
G01X1907750Y2007000D02*
Y2013000D01*
X1910250Y2015500D02*
G03X1907750Y2013000I0J-2500D01*
G01X1910250Y2015500D02*
X1914968D01*
G03X1915468Y2016000I-0J500*
G01Y2033817*
G03X1914968Y2034317I-500J0*
G01X1861096*
G03X1860596Y2033817I-0J-500*
G01Y1983725*
X1855915Y1897065D02*
G03X1856415Y1896565I500J-0D01*
G01X2137953*
G03X2138453Y1897065I-0J500*
G01Y2071792*
G03X2137953Y2072292I-500J0*
G01X1856415*
G03X1855915Y2071792I-0J-500*
G01Y1897065*
X2101250Y2007000D02*
Y2013000D01*
X2103750Y2015500D02*
G03X2101250Y2013000I0J-2500D01*
G01X2103750Y2015500D02*
X2109750D01*
X2112250Y2013000D02*
G03X2109750Y2015500I-2500J0D01*
G01X2112250Y2013000D02*
Y2007000D01*
X2109750Y2004500D02*
G03X2112250Y2007000I0J2500D01*
G01X2109750Y2004500D02*
X2103750D01*
X2101250Y2007000D02*
G03X2103750Y2004500I2500J0D01*
G01X2087750Y2007000D02*
Y2013000D01*
X2090250Y2015500D02*
G03X2087750Y2013000I0J-2500D01*
G01X2090250Y2015500D02*
X2096250D01*
X2098750Y2013000D02*
G03X2096250Y2015500I-2500J0D01*
G01X2098750Y2013000D02*
Y2007000D01*
X2096250Y2004500D02*
G03X2098750Y2007000I0J2500D01*
G01X2096250Y2004500D02*
X2090250D01*
X2087750Y2007000D02*
G03X2090250Y2004500I2500J0D01*
G01X1881250Y2007000D02*
Y2013000D01*
X1883750Y2015500D02*
G03X1881250Y2013000I0J-2500D01*
G01X1883750Y2015500D02*
X1889750D01*
X1892250Y2013000D02*
G03X1889750Y2015500I-2500J0D01*
G01X1892250Y2013000D02*
Y2007000D01*
X1889750Y2004500D02*
G03X1892250Y2007000I0J2500D01*
G01X1889750Y2004500D02*
X1883750D01*
X1881250Y2007000D02*
G03X1883750Y2004500I2500J0D01*
G01X1867750Y2007000D02*
Y2013000D01*
X1870250Y2015500D02*
G03X1867750Y2013000I0J-2500D01*
G01X1870250Y2015500D02*
X1876250D01*
X1878750Y2013000D02*
G03X1876250Y2015500I-2500J0D01*
G01X1878750Y2013000D02*
Y2007000D01*
X1876250Y2004500D02*
G03X1878750Y2007000I0J2500D01*
G01X1876250Y2004500D02*
X1870250D01*
X1867750Y2007000D02*
G03X1870250Y2004500I2500J0D01*
G01X2097970Y1910187D02*
Y1919687D01*
X2100470Y1922187D02*
G03X2097970Y1919687I0J-2500D01*
G01X2100470Y1922187D02*
X2112470D01*
X2114970Y1919687D02*
G03X2112470Y1922187I-2500J-0D01*
G01X2114970Y1919687D02*
Y1910187D01*
X2112470Y1907687D02*
G03X2114970Y1910187I0J2500D01*
G01X2112470Y1907687D02*
X2100470D01*
X2097970Y1910187D02*
G03X2100470Y1907687I2500J-0D01*
G01X2068470Y1910187D02*
Y1919687D01*
X2070970Y1922187D02*
G03X2068470Y1919687I0J-2500D01*
G01X2070970Y1922187D02*
X2082970D01*
X2085470Y1919687D02*
G03X2082970Y1922187I-2500J-0D01*
G01X2085470Y1919687D02*
Y1910187D01*
X2082970Y1907687D02*
G03X2085470Y1910187I0J2500D01*
G01X2082970Y1907687D02*
X2070970D01*
X2068470Y1910187D02*
G03X2070970Y1907687I2500J-0D01*
G01X1891393Y2045383D02*
Y2054883D01*
X1893893Y2057383D02*
G03X1891393Y2054883I0J-2500D01*
G01X1893893Y2057383D02*
X1905893D01*
X1908393Y2054883D02*
G03X1905893Y2057383I-2500J-0D01*
G01X1908393Y2054883D02*
Y2045383D01*
X1905893Y2042883D02*
G03X1908393Y2045383I0J2500D01*
G01X1905893Y2042883D02*
X1893893D01*
X1891393Y2045383D02*
G03X1893893Y2042883I2500J-0D01*
G01X1865660Y1904290D02*
Y1915290D01*
X1866758Y1917360D02*
G03X1865660Y1915290I1402J-2070D01*
G01X1866758Y1917360D02*
G03X1866977Y1917773I-281J413D01*
X1866937Y1917970I-500J0*
G01X1866737Y1918950D02*
G03X1866937Y1917970I2500J0D01*
G01X1866737Y1918950D02*
Y1929950D01*
X1869237Y1932450D02*
G03X1866737Y1929950I-0J-2500D01*
G01X1869237Y1932450D02*
X1922509D01*
X1925009Y1929950D02*
G03X1922509Y1932450I-2500J0D01*
G01X1925009Y1929950D02*
Y1918950D01*
X1922509Y1916450D02*
G03X1925009Y1918950I0J2500D01*
G01X1922509Y1916450D02*
X1922313D01*
G03X1921813Y1915950I0J-500*
X1921826Y1915840I500J0*
G01X1921887Y1915290D02*
G03X1921826Y1915840I-2500J-0D01*
G01X1921887Y1915290D02*
Y1904290D01*
X1919387Y1901790D02*
G03X1921887Y1904290I-0J2500D01*
G01X1919387Y1901790D02*
X1868160D01*
X1865660Y1904290D02*
G03X1868160Y1901790I2500J-0D01*
G01X1861893Y2045383D02*
Y2054883D01*
X1864393Y2057383D02*
G03X1861893Y2054883I0J-2500D01*
G01X1864393Y2057383D02*
X1876393D01*
X1878893Y2054883D02*
G03X1876393Y2057383I-2500J-0D01*
G01X1878893Y2054883D02*
Y2045383D01*
X1876393Y2042883D02*
G03X1878893Y2045383I0J2500D01*
G01X1876393Y2042883D02*
X1864393D01*
X1861893Y2045383D02*
G03X1864393Y2042883I2500J-0D01*
G01X1857596Y1983225D02*
Y2034317D01*
X1860596Y2037317D02*
G03X1857596Y2034317I-0J-3000D01*
G01X1860596Y2037317D02*
X1915268D01*
X1917389Y2036439D02*
G03X1915268Y2037317I-2121J-2122D01*
G01X1917389Y2036439D02*
X1917589Y2036238D01*
X1918468Y2034117D02*
G03X1917589Y2036238I-3000J0D01*
G01X1918468Y2034117D02*
Y2031934D01*
G03X1919385Y2031659I500J0*
G01X1919769Y2032130D02*
G03X1919385Y2031659I2122J-2121D01*
G01X1919769Y2032130D02*
X1923420Y2035781D01*
X1925542Y2036660D02*
G03X1923420Y2035781I-0J-3000D01*
G01X1925542Y2036660D02*
X2076839D01*
X2078331Y2036263D02*
G03X2076839Y2036660I-1492J-2603D01*
G01X2078331Y2036263D02*
G03X2078967Y2036380I248J433D01*
G01X2081290Y2037482D02*
G03X2078967Y2036380I-0J-3000D01*
G01X2081290Y2037482D02*
X2122522D01*
X2125522Y2034482D02*
G03X2122522Y2037482I-3000J-0D01*
G01X2125522Y2034482D02*
Y1998343D01*
X2122522Y1995343D02*
G03X2125522Y1998343I0J3000D01*
G01X2122522Y1995343D02*
X2099483D01*
G03X2098983Y1994843I0J-500*
G01Y1988658*
G03X2099896Y1988375I500J-0*
G01X2110925Y1984961D02*
G03X2099896Y1988375I-6043J-0D01*
G01X2108647Y1980234D02*
G03X2110925Y1984961I-3765J4727D01*
G01X2108647Y1980234D02*
G03X2108459Y1979843I312J-391D01*
X2108647Y1979451I500J-0*
G01X2110925Y1974724D02*
G03X2108647Y1979451I-6043J0D01*
G01X2099896Y1971310D02*
G03X2110925Y1974724I4986J3414D01*
G01X2099896Y1971310D02*
G03X2098983Y1971027I-413J-283D01*
G01Y1956393*
X2098104Y1954272D02*
G03X2098983Y1956393I-2121J2121D01*
G01X2098104Y1954272D02*
X2067421Y1923589D01*
X2065300Y1922710D02*
G03X2067421Y1923589I-0J3000D01*
G01X2065300Y1922710D02*
X1976776D01*
X1973776Y1925710D02*
G03X1976776Y1922710I3000J-0D01*
G01X1973776Y1925710D02*
Y1943115D01*
X1973780Y1943269D02*
G03X1973776Y1943115I2997J-154D01*
G01X1973780Y1943269D02*
G03X1973781Y1943295I-499J26D01*
G01X1973781D02*
G03X1973453Y1943764I-500J-0D01*
G01X1972001Y1944691D02*
G03X1973453Y1943764I2829J2829D01*
G01X1972001Y1944691D02*
X1970428Y1946265D01*
G03X1969574Y1945911I-354J-354*
G01Y1937213*
X1966574Y1934213D02*
G03X1969574Y1937213I0J3000D01*
G01X1966574Y1934213D02*
X1937502D01*
X1934502Y1937213D02*
G03X1937502Y1934213I3000J-0D01*
G01X1934502Y1937213D02*
Y1975306D01*
G03X1933843Y1975780I-500J0*
G01X1932887Y1975624D02*
G03X1933843Y1975780I-0J3000D01*
G01X1932887Y1975624D02*
X1921891D01*
X1918891Y1978624D02*
G03X1921891Y1975624I3000J-0D01*
G01X1918891Y1978624D02*
Y1981300D01*
G03X1917973Y1981575I-500J-0*
G01X1915468Y1980225D02*
G03X1917973Y1981575I-0J3000D01*
G01X1915468Y1980225D02*
X1860596D01*
X1857596Y1983225D02*
G03X1860596Y1980225I3000J0D01*
G01X2081290Y2033709D02*
X2122522D01*
X2081290Y2032809D02*
X2122522D01*
X2081290Y2031909D02*
X2122522D01*
X2081290Y2031009D02*
X2122522D01*
X2081290Y2030109D02*
X2122522D01*
X2081290Y2029209D02*
X2122522D01*
X2081290Y2028309D02*
X2122522D01*
X2081290Y2027409D02*
X2122522D01*
X2081290Y2026509D02*
X2122522D01*
X2081290Y2025609D02*
X2122522D01*
X2081290Y2024709D02*
X2122522D01*
X2081290Y2023809D02*
X2122522D01*
X2081290Y2022909D02*
X2122522D01*
X2081290Y2022009D02*
X2122522D01*
X2081290Y2021109D02*
X2122522D01*
X2081290Y2020209D02*
X2122522D01*
X2081290Y2019309D02*
X2122522D01*
X2081290Y2018409D02*
X2122522D01*
X2081290Y2017509D02*
X2122522D01*
X2081290Y2016609D02*
X2122522D01*
X2081290Y2015709D02*
X2122522D01*
X2111476Y2014809D02*
X2122522D01*
X2112079Y2013909D02*
X2122522D01*
X2112250Y2013009D02*
X2122522D01*
X2112250Y2012109D02*
X2122522D01*
X2112250Y2011209D02*
X2122522D01*
X2112250Y2010309D02*
X2122522D01*
X2112250Y2009409D02*
X2122522D01*
X2112250Y2008509D02*
X2122522D01*
X2112250Y2007609D02*
X2122522D01*
X2112233Y2006709D02*
X2122522D01*
X2111948Y2005809D02*
X2122522D01*
X2111120Y2004909D02*
X2122522D01*
X2081290Y2004009D02*
X2122522D01*
X2081290Y2003109D02*
X2122522D01*
X2081290Y2002209D02*
X2122522D01*
X2081290Y2001309D02*
X2122522D01*
X2081290Y2000409D02*
X2122522D01*
X2081290Y1999509D02*
X2122522D01*
X2081290Y1998609D02*
X2122464D01*
X2097620Y2004909D02*
X2102380D01*
X2097976Y2014809D02*
X2102024D01*
X2098448Y2005809D02*
X2101552D01*
X2098579Y2013909D02*
X2101421D01*
X2098733Y2006709D02*
X2101267D01*
X2098750Y2013009D02*
X2101250D01*
X2098750Y2012109D02*
X2101250D01*
X2098750Y2011209D02*
X2101250D01*
X2098750Y2010309D02*
X2101250D01*
X2098750Y2009409D02*
X2101250D01*
X2098750Y2008509D02*
X2101250D01*
X2098750Y2007609D02*
X2101250D01*
X2081290Y1997709D02*
X2095983D01*
X2081290Y1996809D02*
X2095983D01*
X2081290Y1995909D02*
X2095983D01*
X2081290Y1995009D02*
X2095983D01*
X2081290Y1994109D02*
X2095983D01*
X2081290Y1993209D02*
X2095983D01*
X2081290Y1992309D02*
X2095983D01*
X2081290Y1991409D02*
X2095983D01*
X2081290Y1990509D02*
X2095983D01*
X2081290Y1989609D02*
X2095983D01*
X2081290Y1988709D02*
X2095983D01*
X2081290Y1987809D02*
X2095983D01*
X2081290Y1986909D02*
X2095983D01*
X2081290Y1986009D02*
X2095983D01*
X2081290Y1985109D02*
X2095983D01*
X2081290Y1984209D02*
X2095983D01*
X2081290Y1983309D02*
X2095983D01*
X2081290Y1982409D02*
X2095983D01*
X2081290Y1981509D02*
X2095983D01*
X2081290Y1980609D02*
X2095983D01*
X2081290Y1979709D02*
X2095983D01*
X2081290Y1978809D02*
X2095983D01*
X2081290Y1977909D02*
X2095983D01*
X2081290Y1977009D02*
X2095983D01*
X2081125Y1976109D02*
X2095983D01*
X2080225Y1975209D02*
X2095983D01*
X2079325Y1974309D02*
X2095983D01*
X2078425Y1973409D02*
X2095983D01*
X2077525Y1972509D02*
X2095983D01*
X2076625Y1971609D02*
X2095983D01*
X2075725Y1970709D02*
X2095983D01*
X2074825Y1969809D02*
X2095983D01*
X2073925Y1968909D02*
X2095983D01*
X2073025Y1968009D02*
X2095983D01*
X2072125Y1967109D02*
X2095983D01*
X2071225Y1966209D02*
X2095983D01*
X2070325Y1965309D02*
X2095983D01*
X2069425Y1964409D02*
X2095983D01*
X2068525Y1963509D02*
X2095983D01*
X2067625Y1962609D02*
X2095983D01*
X2066725Y1961709D02*
X2095983D01*
X2065825Y1960809D02*
X2095983D01*
X2064925Y1959909D02*
X2095983D01*
X2064025Y1959009D02*
X2095983D01*
X2063125Y1958109D02*
X2095983D01*
X2062225Y1957209D02*
X2095983D01*
X2061325Y1956309D02*
X2095889D01*
X2060425Y1955409D02*
X2094999D01*
X2059525Y1954509D02*
X2094099D01*
X2058625Y1953609D02*
X2093199D01*
X2057725Y1952709D02*
X2092299D01*
X2056825Y1951809D02*
X2091399D01*
X2056558Y1950909D02*
X2090499D01*
X2056558Y1950009D02*
X2089599D01*
X2081290Y2004909D02*
X2088880D01*
X2056558Y1949109D02*
X2088699D01*
X2081290Y2014809D02*
X2088524D01*
X2081290Y2005809D02*
X2088052D01*
X2081290Y2013909D02*
X2087921D01*
X2056558Y1948209D02*
X2087799D01*
X2081290Y2006709D02*
X2087767D01*
X2081290Y2013009D02*
X2087750D01*
X2081290Y2012109D02*
X2087750D01*
X2081290Y2011209D02*
X2087750D01*
X2081290Y2010309D02*
X2087750D01*
X2081290Y2009409D02*
X2087750D01*
X2081290Y2008509D02*
X2087750D01*
X2081290Y2007609D02*
X2087750D01*
X2056558Y1947309D02*
X2086899D01*
X2056558Y1946409D02*
X2085999D01*
X2056558Y1945509D02*
X2085099D01*
X2056558Y1944609D02*
X2084199D01*
X2056558Y1943709D02*
X2083299D01*
X2056280Y1942809D02*
X2082399D01*
X2056280Y1941909D02*
X2081499D01*
X2056260Y1941009D02*
X2080599D01*
X2055967Y1940109D02*
X2079699D01*
X2055119Y1939209D02*
X2078799D01*
X2044316Y1938309D02*
X2077899D01*
X2044223Y1937409D02*
X2076999D01*
X1976776Y1936509D02*
X2076099D01*
X1976776Y1935609D02*
X2075199D01*
X1976776Y1934709D02*
X2074299D01*
X1976776Y1933809D02*
X2073399D01*
X1976776Y1932909D02*
X2072499D01*
X1976776Y1932009D02*
X2071599D01*
X1976776Y1931109D02*
X2070699D01*
X1976776Y1930209D02*
X2069799D01*
X1976776Y1929309D02*
X2068899D01*
X1976776Y1928409D02*
X2067999D01*
X1976776Y1927509D02*
X2067099D01*
X1976776Y1926609D02*
X2066199D01*
X2044316Y1939209D02*
X2046141D01*
X2044345Y1940109D02*
X2045293D01*
X1976776Y1937409D02*
X2015299D01*
X1976776Y1938309D02*
X2014399D01*
X1985119Y1939209D02*
X2013499D01*
X1985967Y1940109D02*
X2012599D01*
X1986260Y1941009D02*
X2011699D01*
X1986280Y1941909D02*
X2010799D01*
X1986280Y1942809D02*
X2009899D01*
X1986280Y1943709D02*
X2008999D01*
X1986117Y1944609D02*
X2008099D01*
X1986145Y1945509D02*
X2007199D01*
X1986280Y1946409D02*
X2006299D01*
X1986280Y1947309D02*
X2005399D01*
X1986280Y1948209D02*
X2004499D01*
X1986249Y1949109D02*
X2003599D01*
X1985984Y1950009D02*
X2002699D01*
X1986246Y1950909D02*
X2001799D01*
X1986280Y1951809D02*
X2000899D01*
X1986280Y1952709D02*
X1999999D01*
X2034759Y1990208D02*
X2035921D01*
X2034005Y1989308D02*
X2035921D01*
X2019831Y1988408D02*
X2035921D01*
X2019831Y1987508D02*
X2035921D01*
X2019831Y1986608D02*
X2035921D01*
X2019831Y1985708D02*
X2035921D01*
X2019831Y1984808D02*
X2035921D01*
X2019831Y1983908D02*
X2035921D01*
X2019831Y1983008D02*
X2035921D01*
X2019831Y1982108D02*
X2035921D01*
X2019831Y1981208D02*
X2035921D01*
X2019831Y1980308D02*
X2035921D01*
X2019831Y1979408D02*
X2035921D01*
X2019831Y1978508D02*
X2035921D01*
X2019831Y1977608D02*
X2035921D01*
X2019831Y1976708D02*
X2035921D01*
X2019831Y1975808D02*
X2035921D01*
X2019831Y1974908D02*
X2035921D01*
X2019831Y1974008D02*
X2035921D01*
X2019831Y1973108D02*
X2035921D01*
X2019831Y1972208D02*
X2035921D01*
X2019831Y1971308D02*
X2035921D01*
X2019831Y1970408D02*
X2035921D01*
X2019831Y1969508D02*
X2035921D01*
X2019831Y1968608D02*
X2035921D01*
X2019831Y1967708D02*
X2035921D01*
X2019831Y1966808D02*
X2035921D01*
X2019831Y1965908D02*
X2035921D01*
X2019831Y1965008D02*
X2035921D01*
X2019831Y1964108D02*
X2035921D01*
X2019831Y1963208D02*
X2035921D01*
X2019831Y1962308D02*
X2035921D01*
X2019831Y1961408D02*
X2035921D01*
X2034267Y1960508D02*
X2035921D01*
X2034857Y1959608D02*
X2035921D01*
X2019831Y1989308D02*
X2024736D01*
X2019831Y1960508D02*
X2024473D01*
X2019831Y1955108D02*
X2024008D01*
X2019831Y1990208D02*
X2023981D01*
X2019831Y1994708D02*
X2023924D01*
X2019831Y1959608D02*
X2023883D01*
X2019831Y1995608D02*
X2023823D01*
X2019831Y1954208D02*
X2023768D01*
X2019831Y1956008D02*
X2023740D01*
X2019831Y1991108D02*
X2023729D01*
X2019831Y1993808D02*
X2023722D01*
X2019831Y1997408D02*
X2023720D01*
X2019831Y1996508D02*
X2023720D01*
X2019831Y1992908D02*
X2023720D01*
X2019831Y1992008D02*
X2023720D01*
X2019831Y1958708D02*
X2023720D01*
X2019831Y1957808D02*
X2023720D01*
X2019831Y1956908D02*
X2023720D01*
X2019831Y1953308D02*
X2023720D01*
X2019831Y1952408D02*
X2023720D01*
X2020187Y1998308D02*
X2023363D01*
X2012858Y1944961D02*
X2024013D01*
X2011039Y2005261D02*
X2023955D01*
X2011039Y2009761D02*
X2023947D01*
X2011039Y2004361D02*
X2023804D01*
X2011958Y1945861D02*
X2023763D01*
X2013758Y1944061D02*
X2023743D01*
X2011039Y2006161D02*
X2023725D01*
X2011039Y2008861D02*
X2023724D01*
X2011039Y2007961D02*
X2023720D01*
X2011039Y2007061D02*
X2023720D01*
X2011039Y2003461D02*
X2023720D01*
X2011039Y1947661D02*
X2023720D01*
X2011093Y1946761D02*
X2023720D01*
X2014658Y1943161D02*
X2023720D01*
X2015558Y1942261D02*
X2023720D01*
X2011039Y2002561D02*
X2023666D01*
X2011039Y1948561D02*
X2016311D01*
X2011039Y2001661D02*
X2016201D01*
X2011039Y2000761D02*
X2016201D01*
X2011039Y1999861D02*
X2016201D01*
X2011039Y1998961D02*
X2016201D01*
X2011039Y1998061D02*
X2016201D01*
X2011039Y1997161D02*
X2016201D01*
X2011039Y1996261D02*
X2016201D01*
X2011039Y1995361D02*
X2016201D01*
X2011039Y1994461D02*
X2016201D01*
X2011039Y1993561D02*
X2016201D01*
X2011039Y1992661D02*
X2016201D01*
X2011039Y1991761D02*
X2016201D01*
X2011039Y1990861D02*
X2016201D01*
X2011039Y1989961D02*
X2016201D01*
X2011039Y1989061D02*
X2016201D01*
X2011039Y1988161D02*
X2016201D01*
X2011039Y1987261D02*
X2016201D01*
X2011039Y1986361D02*
X2016201D01*
X2011039Y1985461D02*
X2016201D01*
X2011039Y1984561D02*
X2016201D01*
X2011039Y1983661D02*
X2016201D01*
X2011039Y1982761D02*
X2016201D01*
X2011039Y1981861D02*
X2016201D01*
X2011039Y1980961D02*
X2016201D01*
X2011039Y1980061D02*
X2016201D01*
X2011039Y1979161D02*
X2016201D01*
X2011039Y1978261D02*
X2016201D01*
X2011039Y1977361D02*
X2016201D01*
X2011039Y1976461D02*
X2016201D01*
X2011039Y1975561D02*
X2016201D01*
X2011039Y1974661D02*
X2016201D01*
X2011039Y1973761D02*
X2016201D01*
X2011039Y1972861D02*
X2016201D01*
X2011039Y1971961D02*
X2016201D01*
X2011039Y1971061D02*
X2016201D01*
X2011039Y1970161D02*
X2016201D01*
X2011039Y1969261D02*
X2016201D01*
X2011039Y1968361D02*
X2016201D01*
X2011039Y1967461D02*
X2016201D01*
X2011039Y1966561D02*
X2016201D01*
X2011039Y1965661D02*
X2016201D01*
X2011039Y1964761D02*
X2016201D01*
X2011039Y1963861D02*
X2016201D01*
X2011039Y1962961D02*
X2016201D01*
X2011039Y1962061D02*
X2016201D01*
X2011039Y1961161D02*
X2016201D01*
X2011039Y1960261D02*
X2016201D01*
X2011039Y1959361D02*
X2016201D01*
X2011039Y1958461D02*
X2016201D01*
X2011039Y1957561D02*
X2016201D01*
X2011039Y1956661D02*
X2016201D01*
X2011039Y1955761D02*
X2016201D01*
X2011039Y1954861D02*
X2016201D01*
X2011039Y1953961D02*
X2016201D01*
X2011039Y1953061D02*
X2016201D01*
X2011039Y1952161D02*
X2016201D01*
X2011039Y1951261D02*
X2016201D01*
X2011039Y1950361D02*
X2016201D01*
X2011039Y1949461D02*
X2016201D01*
X1965020Y1997408D02*
X1966738D01*
X1965020Y1996508D02*
X1966738D01*
X1964917Y1995608D02*
X1966738D01*
X1964816Y1994708D02*
X1966738D01*
X1965019Y1993808D02*
X1966738D01*
X1965020Y1992908D02*
X1966738D01*
X1965020Y1992008D02*
X1966738D01*
X1965011Y1991108D02*
X1966738D01*
X1964759Y1990208D02*
X1966738D01*
X1964005Y1989308D02*
X1966738D01*
X1951963Y1988408D02*
X1966738D01*
X1951963Y1987508D02*
X1966738D01*
X1951963Y1986608D02*
X1966738D01*
X1951963Y1985708D02*
X1966738D01*
X1951963Y1984808D02*
X1966738D01*
X1951963Y1983908D02*
X1966738D01*
X1951963Y1983008D02*
X1966738D01*
X1951963Y1982108D02*
X1966738D01*
X1951963Y1981208D02*
X1966738D01*
X1951963Y1980308D02*
X1966738D01*
X1951963Y1979408D02*
X1966738D01*
X1951963Y1978508D02*
X1966738D01*
X1951963Y1977608D02*
X1966738D01*
X1951963Y1976708D02*
X1966738D01*
X1951963Y1975808D02*
X1966738D01*
X1951963Y1974908D02*
X1966738D01*
X1951963Y1974008D02*
X1966738D01*
X1951963Y1973108D02*
X1966738D01*
X1951963Y1972208D02*
X1966738D01*
X1951963Y1971308D02*
X1966738D01*
X1951963Y1970408D02*
X1966738D01*
X1951963Y1969508D02*
X1966738D01*
X1951963Y1968608D02*
X1966738D01*
X1951963Y1967708D02*
X1966738D01*
X1951963Y1966808D02*
X1966738D01*
X1951963Y1965908D02*
X1966738D01*
X1951963Y1965008D02*
X1966738D01*
X1951963Y1964108D02*
X1966738D01*
X1951963Y1963208D02*
X1966738D01*
X1951963Y1962308D02*
X1966738D01*
X1951963Y1961408D02*
X1966738D01*
X1964267Y1960508D02*
X1966738D01*
X1964857Y1959608D02*
X1966738D01*
X1965020Y1958708D02*
X1966738D01*
X1965020Y1957808D02*
X1966738D01*
X1965020Y1956908D02*
X1966738D01*
X1965001Y1956008D02*
X1966738D01*
X1964732Y1955108D02*
X1966738D01*
X1964972Y1954208D02*
X1966738D01*
X1965020Y1953308D02*
X1966738D01*
X1965020Y1952408D02*
X1966738D01*
X1965377Y1998308D02*
X1966382D01*
X1951963Y1989308D02*
X1954736D01*
X1951963Y1960508D02*
X1954473D01*
X1951963Y1955108D02*
X1954008D01*
X1951963Y1990208D02*
X1953981D01*
X1951963Y1994708D02*
X1953924D01*
X1951963Y1959608D02*
X1953883D01*
X1951963Y1995608D02*
X1953823D01*
X1951963Y1954208D02*
X1953768D01*
X1951963Y1956008D02*
X1953740D01*
X1951963Y1991108D02*
X1953729D01*
X1951963Y1993808D02*
X1953722D01*
X1951963Y1997408D02*
X1953720D01*
X1951963Y1996508D02*
X1953720D01*
X1951963Y1992908D02*
X1953720D01*
X1951963Y1992008D02*
X1953720D01*
X1951963Y1958708D02*
X1953720D01*
X1951963Y1957808D02*
X1953720D01*
X1951963Y1956908D02*
X1953720D01*
X1951963Y1953308D02*
X1953720D01*
X1951963Y1952408D02*
X1953720D01*
X1952074Y1998308D02*
X1953609D01*
X1965018Y1946212D02*
X1966574D01*
X1964808Y1945312D02*
X1966574D01*
X1964922Y1944412D02*
X1966574D01*
X1965020Y1943512D02*
X1966574D01*
X1965020Y1942612D02*
X1966574D01*
X1965020Y1941712D02*
X1966574D01*
X1964968Y1940812D02*
X1966574D01*
X1964586Y1939912D02*
X1966574D01*
X1963481Y1939012D02*
X1966574D01*
X1937502Y1938112D02*
X1966574D01*
X1965073Y1947112D02*
X1966521D01*
X1937502Y1939012D02*
X1955260D01*
X1937502Y1939912D02*
X1954154D01*
X1937502Y2010112D02*
X1954083D01*
X1937502Y1945312D02*
X1953932D01*
X1937502Y2004712D02*
X1953925D01*
X1937502Y2005612D02*
X1953822D01*
X1937502Y1944412D02*
X1953818D01*
X1937502Y1940812D02*
X1953772D01*
X1937502Y2009212D02*
X1953769D01*
X1937502Y1946212D02*
X1953722D01*
X1937502Y2003812D02*
X1953722D01*
X1937502Y2008312D02*
X1953720D01*
X1937502Y2007412D02*
X1953720D01*
X1937502Y2006512D02*
X1953720D01*
X1937502Y2002912D02*
X1953720D01*
X1937502Y2002012D02*
X1953720D01*
X1937502Y1943512D02*
X1953720D01*
X1937502Y1942612D02*
X1953720D01*
X1937502Y1941712D02*
X1953720D01*
X1937502Y1947112D02*
X1953667D01*
X1937502Y2001112D02*
X1946376D01*
X1937502Y2000212D02*
X1946033D01*
X1937502Y1999312D02*
X1946033D01*
X1937502Y1998412D02*
X1946033D01*
X1937502Y1997512D02*
X1946033D01*
X1937502Y1996612D02*
X1946033D01*
X1937502Y1995712D02*
X1946033D01*
X1937502Y1994812D02*
X1946033D01*
X1937502Y1993912D02*
X1946033D01*
X1937502Y1993012D02*
X1946033D01*
X1937502Y1992112D02*
X1946033D01*
X1937502Y1991212D02*
X1946033D01*
X1937502Y1990312D02*
X1946033D01*
X1937502Y1989412D02*
X1946033D01*
X1937502Y1988512D02*
X1946033D01*
X1937502Y1987612D02*
X1946033D01*
X1937502Y1986712D02*
X1946033D01*
X1937502Y1985812D02*
X1946033D01*
X1937502Y1984912D02*
X1946033D01*
X1937502Y1984012D02*
X1946033D01*
X1937502Y1983112D02*
X1946033D01*
X1937502Y1982212D02*
X1946033D01*
X1937502Y1981312D02*
X1946033D01*
X1937502Y1980412D02*
X1946033D01*
X1937502Y1979512D02*
X1946033D01*
X1937502Y1978612D02*
X1946033D01*
X1937502Y1977712D02*
X1946033D01*
X1937502Y1976812D02*
X1946033D01*
X1937502Y1975912D02*
X1946033D01*
X1937502Y1975012D02*
X1946033D01*
X1937502Y1974112D02*
X1946033D01*
X1937502Y1973212D02*
X1946033D01*
X1937502Y1972312D02*
X1946033D01*
X1937502Y1971412D02*
X1946033D01*
X1937502Y1970512D02*
X1946033D01*
X1937502Y1969612D02*
X1946033D01*
X1937502Y1968712D02*
X1946033D01*
X1937502Y1967812D02*
X1946033D01*
X1937502Y1966912D02*
X1946033D01*
X1937502Y1966012D02*
X1946033D01*
X1937502Y1965112D02*
X1946033D01*
X1937502Y1964212D02*
X1946033D01*
X1937502Y1963312D02*
X1946033D01*
X1937502Y1962412D02*
X1946033D01*
X1937502Y1961512D02*
X1946033D01*
X1937502Y1960612D02*
X1946033D01*
X1937502Y1959712D02*
X1946033D01*
X1937502Y1958812D02*
X1946033D01*
X1937502Y1957912D02*
X1946033D01*
X1937502Y1957012D02*
X1946033D01*
X1937502Y1956112D02*
X1946033D01*
X1937502Y1955212D02*
X1946033D01*
X1937502Y1954312D02*
X1946033D01*
X1937502Y1953412D02*
X1946033D01*
X1937502Y1952512D02*
X1946033D01*
X1937502Y1951612D02*
X1946033D01*
X1937502Y1950712D02*
X1946033D01*
X1937502Y1949812D02*
X1946033D01*
X1937502Y1948912D02*
X1946033D01*
X1937502Y1948012D02*
X1946033D01*
X1931563Y2005279D02*
X1932887D01*
X1921893Y2004379D02*
X1932887D01*
X1921891Y2003479D02*
X1932887D01*
X1921891Y2002579D02*
X1932887D01*
X1921891Y2001679D02*
X1932887D01*
X1921891Y2000779D02*
X1932887D01*
X1921891Y1999879D02*
X1932887D01*
X1921891Y1998979D02*
X1932887D01*
X1921891Y1998079D02*
X1932887D01*
X1921891Y1997179D02*
X1932887D01*
X1921891Y1996279D02*
X1932887D01*
X1921891Y1995379D02*
X1932887D01*
X1921891Y1994479D02*
X1932887D01*
X1931516Y1993579D02*
X1932887D01*
X1924160Y2032279D02*
X2076839D01*
X1923260Y2031379D02*
X2076839D01*
X1922360Y2030479D02*
X2076839D01*
X1921891Y2029579D02*
X2076839D01*
X1921891Y2028679D02*
X2076839D01*
X1921891Y2027779D02*
X2076839D01*
X1921891Y2026879D02*
X2076839D01*
X1921891Y2025979D02*
X2076839D01*
X1921891Y2025079D02*
X2076839D01*
X1921891Y2024179D02*
X2076839D01*
X1921891Y2023279D02*
X2076839D01*
X1921891Y2022379D02*
X2076839D01*
X1921891Y2021479D02*
X2076839D01*
X1921891Y2020579D02*
X2076839D01*
X1921891Y2019679D02*
X2076839D01*
X1921891Y2018779D02*
X2076839D01*
X1921891Y2017879D02*
X2076839D01*
X1921891Y2016979D02*
X2076839D01*
X1921891Y2016079D02*
X2076839D01*
X2061532Y2015179D02*
X2076839D01*
X2062432Y2014279D02*
X2076839D01*
X2063332Y2013379D02*
X2076839D01*
X2063542Y2012479D02*
X2076839D01*
X2063542Y2011579D02*
X2076839D01*
X2063542Y2010679D02*
X2076839D01*
X2063542Y2009779D02*
X2076839D01*
X2063542Y2008879D02*
X2076839D01*
X2063539Y2007979D02*
X2076839D01*
X2062796Y2007079D02*
X2076839D01*
X2061896Y2006179D02*
X2076839D01*
X2056808Y2005279D02*
X2076839D01*
X2056805Y2004379D02*
X2076839D01*
X2056805Y2003479D02*
X2076839D01*
X2056805Y2002579D02*
X2076839D01*
X2056939Y2001679D02*
X2076839D01*
X2072481Y2000779D02*
X2076839D01*
X2073298Y1999879D02*
X2076839D01*
X2073320Y1998979D02*
X2076839D01*
X2073320Y1998079D02*
X2076839D01*
X2073320Y1997179D02*
X2076839D01*
X2073320Y1996279D02*
X2076839D01*
X2073320Y1995379D02*
X2076839D01*
X2073320Y1994479D02*
X2076839D01*
X2073320Y1993579D02*
X2076839D01*
X2073320Y1992679D02*
X2076839D01*
X2073320Y1991779D02*
X2076839D01*
X2073320Y1990879D02*
X2076839D01*
X2073320Y1989979D02*
X2076839D01*
X2073320Y1989079D02*
X2076839D01*
X2073320Y1988179D02*
X2076839D01*
X2073320Y1987279D02*
X2076839D01*
X2073227Y1986379D02*
X2076839D01*
X2044480Y1985479D02*
X2076839D01*
X2044480Y1984579D02*
X2076839D01*
X2044480Y1983679D02*
X2076839D01*
X2044480Y1982779D02*
X2076839D01*
X2044480Y1981879D02*
X2076839D01*
X2044480Y1980979D02*
X2076839D01*
X2044480Y1980079D02*
X2076839D01*
X1925060Y2033179D02*
X2076838D01*
X2044480Y1979179D02*
X2076536D01*
X2044480Y1978279D02*
X2075636D01*
X2044480Y1977379D02*
X2074736D01*
X2044480Y1976479D02*
X2073836D01*
X2044480Y1975579D02*
X2072936D01*
X1985979Y2015179D02*
X2007499D01*
X1985979Y2014279D02*
X2007492D01*
X1985979Y2013379D02*
X2007492D01*
X1985979Y2012479D02*
X2007492D01*
X1985979Y2011579D02*
X2007492D01*
X1985979Y2010679D02*
X2007492D01*
X1986045Y2009779D02*
X2007492D01*
X1986275Y2008879D02*
X2007492D01*
X1986280Y2007979D02*
X2007492D01*
X1986280Y2007079D02*
X2007492D01*
X1986276Y2006179D02*
X2007492D01*
X1986053Y2005279D02*
X2007492D01*
X1986192Y2004379D02*
X2007492D01*
X1986280Y2003479D02*
X2007492D01*
X1986280Y2002579D02*
X2007492D01*
X1986414Y2001679D02*
X2007492D01*
X2000505Y2000779D02*
X2007492D01*
X2001405Y1999879D02*
X2007492D01*
X2001837Y1998979D02*
X2007492D01*
X2001837Y1998079D02*
X2007492D01*
X2001837Y1997179D02*
X2007492D01*
X2001837Y1996279D02*
X2007492D01*
X2001837Y1995379D02*
X2007492D01*
X2001837Y1994479D02*
X2007492D01*
X2001837Y1993579D02*
X2007492D01*
X2001837Y1992679D02*
X2007492D01*
X2001837Y1991779D02*
X2007492D01*
X2001837Y1990879D02*
X2007492D01*
X2001245Y1989979D02*
X2007492D01*
X2000345Y1989079D02*
X2007492D01*
X1999445Y1988179D02*
X2007492D01*
X1973490Y1987279D02*
X2007492D01*
X1973490Y1986379D02*
X2007492D01*
X1973490Y1985479D02*
X2007492D01*
X1973490Y1984579D02*
X2007448D01*
X1973490Y1983679D02*
X2006595D01*
X1973490Y1982779D02*
X2005695D01*
X1973490Y1981879D02*
X2004795D01*
X1973490Y1980979D02*
X2003895D01*
X1973490Y1980079D02*
X2002995D01*
X1973490Y1979179D02*
X2002095D01*
X1973635Y1978279D02*
X2001195D01*
X1973490Y1988179D02*
X1989548D01*
X1984888Y1989079D02*
X1988648D01*
X1985890Y1989979D02*
X1987748D01*
X1986537Y1990879D02*
X1986726D01*
X1973490Y1989079D02*
X1976372D01*
X1973490Y1989979D02*
X1975370D01*
X1973490Y1990879D02*
X1975019D01*
X1973490Y1991779D02*
X1974980D01*
X1973558Y1992679D02*
X1974912D01*
X1930976Y2015179D02*
X1934568D01*
X1931898Y2014279D02*
X1933668D01*
X1922326Y2015179D02*
X1922455D01*
X1860596Y2033624D02*
X1915468D01*
X1860596Y2032724D02*
X1915468D01*
X1860596Y2031824D02*
X1915468D01*
X1860596Y2030924D02*
X1915468D01*
X1860596Y2030024D02*
X1915468D01*
X1860596Y2029124D02*
X1915468D01*
X1860596Y2028224D02*
X1915468D01*
X1860596Y2027324D02*
X1915468D01*
X1860596Y2026424D02*
X1915468D01*
X1860596Y2025524D02*
X1915468D01*
X1860596Y2024624D02*
X1915468D01*
X1860596Y2023724D02*
X1915468D01*
X1860596Y2022824D02*
X1915468D01*
X1860596Y2021924D02*
X1915468D01*
X1860596Y2021024D02*
X1915468D01*
X1860596Y2020124D02*
X1915468D01*
X1860596Y2019224D02*
X1915468D01*
X1860596Y2018324D02*
X1915468D01*
X1860596Y2017424D02*
X1915468D01*
X1860596Y2016524D02*
X1915468D01*
X1860596Y2003924D02*
X1915468D01*
X1860596Y2003024D02*
X1915468D01*
X1860596Y2002124D02*
X1915468D01*
X1860596Y2001224D02*
X1915468D01*
X1860596Y2000324D02*
X1915468D01*
X1860596Y1999424D02*
X1915468D01*
X1860596Y1998524D02*
X1915468D01*
X1860596Y1997624D02*
X1915468D01*
X1860596Y1996724D02*
X1915468D01*
X1860596Y1995824D02*
X1915468D01*
X1860596Y1994924D02*
X1915468D01*
X1860596Y2015624D02*
X1915297D01*
X1860596Y1994024D02*
X1909370D01*
X1890980Y2004824D02*
X1909020D01*
X1891561Y2014724D02*
X1908439D01*
X1860596Y1984124D02*
X1908420D01*
X1860596Y1993124D02*
X1908274D01*
X1891900Y2005724D02*
X1908100D01*
X1860596Y1985024D02*
X1907943D01*
X1860596Y1992224D02*
X1907894D01*
X1892110Y2013824D02*
X1907890D01*
X1860596Y1991324D02*
X1907843D01*
X1860596Y1990424D02*
X1907843D01*
X1860596Y1989524D02*
X1907843D01*
X1860596Y1988624D02*
X1907843D01*
X1860596Y1987724D02*
X1907843D01*
X1860596Y1986824D02*
X1907843D01*
X1860596Y1985924D02*
X1907843D01*
X1892222Y2006624D02*
X1907778D01*
X1892250Y2012924D02*
X1907750D01*
X1892250Y2012024D02*
X1907750D01*
X1892250Y2011124D02*
X1907750D01*
X1892250Y2010224D02*
X1907750D01*
X1892250Y2009324D02*
X1907750D01*
X1892250Y2008424D02*
X1907750D01*
X1892250Y2007524D02*
X1907750D01*
X1877480Y2004824D02*
X1882520D01*
X1878061Y2014724D02*
X1881939D01*
X1878400Y2005724D02*
X1881600D01*
X1878610Y2013824D02*
X1881390D01*
X1878722Y2006624D02*
X1881278D01*
X1878750Y2012924D02*
X1881250D01*
X1878750Y2012024D02*
X1881250D01*
X1878750Y2011124D02*
X1881250D01*
X1878750Y2010224D02*
X1881250D01*
X1878750Y2009324D02*
X1881250D01*
X1878750Y2008424D02*
X1881250D01*
X1878750Y2007524D02*
X1881250D01*
X1860596Y2004824D02*
X1869020D01*
X1860596Y2014724D02*
X1868439D01*
X1860596Y2005724D02*
X1868100D01*
X1860596Y2013824D02*
X1867890D01*
X1860596Y2006624D02*
X1867778D01*
X1860596Y2012924D02*
X1867750D01*
X1860596Y2012024D02*
X1867750D01*
X1860596Y2011124D02*
X1867750D01*
X1860596Y2010224D02*
X1867750D01*
X1860596Y2009324D02*
X1867750D01*
X1860596Y2008424D02*
X1867750D01*
X1860596Y2007524D02*
X1867750D01*
X1855915Y2071163D02*
X2138453D01*
X1855915Y2070263D02*
X2138453D01*
X1855915Y2069363D02*
X2138453D01*
X1855915Y2068463D02*
X2138453D01*
X1855915Y2067563D02*
X2138453D01*
X1855915Y2066663D02*
X2138453D01*
X1855915Y2065763D02*
X2138453D01*
X1855915Y2064863D02*
X2138453D01*
X1855915Y2063963D02*
X2138453D01*
X1855915Y2063063D02*
X2138453D01*
X1855915Y2062163D02*
X2138453D01*
X1855915Y2061263D02*
X2138453D01*
X1855915Y2060363D02*
X2138453D01*
X1855915Y2059463D02*
X2138453D01*
X1855915Y2058563D02*
X2138453D01*
X1855915Y2057663D02*
X2138453D01*
X1907541Y2056763D02*
X2138453D01*
X1908193Y2055863D02*
X2138453D01*
X1908392Y2054963D02*
X2138453D01*
X1908393Y2054063D02*
X2138453D01*
X1908393Y2053163D02*
X2138453D01*
X1908393Y2052263D02*
X2138453D01*
X1908393Y2051363D02*
X2138453D01*
X1908393Y2050463D02*
X2138453D01*
X1908393Y2049563D02*
X2138453D01*
X1908393Y2048663D02*
X2138453D01*
X1908393Y2047763D02*
X2138453D01*
X1908393Y2046863D02*
X2138453D01*
X1908393Y2045963D02*
X2138453D01*
X1908373Y2045063D02*
X2138453D01*
X1908076Y2044163D02*
X2138453D01*
X1907220Y2043263D02*
X2138453D01*
X1855915Y2042363D02*
X2138453D01*
X1855915Y2041463D02*
X2138453D01*
X1855915Y2040563D02*
X2138453D01*
X1855915Y2039663D02*
X2138453D01*
X1855915Y2038763D02*
X2138453D01*
X1855915Y2037863D02*
X2138453D01*
X2124208Y2036963D02*
X2138453D01*
X2125071Y2036063D02*
X2138453D01*
X2125444Y2035163D02*
X2138453D01*
X2125522Y2034263D02*
X2138453D01*
X2125522Y2033363D02*
X2138453D01*
X2125522Y2032463D02*
X2138453D01*
X2125522Y2031563D02*
X2138453D01*
X2125522Y2030663D02*
X2138453D01*
X2125522Y2029763D02*
X2138453D01*
X2125522Y2028863D02*
X2138453D01*
X2125522Y2027963D02*
X2138453D01*
X2125522Y2027063D02*
X2138453D01*
X2125522Y2026163D02*
X2138453D01*
X2125522Y2025263D02*
X2138453D01*
X2125522Y2024363D02*
X2138453D01*
X2125522Y2023463D02*
X2138453D01*
X2125522Y2022563D02*
X2138453D01*
X2125522Y2021663D02*
X2138453D01*
X2125522Y2020763D02*
X2138453D01*
X2125522Y2019863D02*
X2138453D01*
X2125522Y2018963D02*
X2138453D01*
X2125522Y2018063D02*
X2138453D01*
X2125522Y2017163D02*
X2138453D01*
X2125522Y2016263D02*
X2138453D01*
X2125522Y2015363D02*
X2138453D01*
X2125522Y2014463D02*
X2138453D01*
X2125522Y2013563D02*
X2138453D01*
X2125522Y2012663D02*
X2138453D01*
X2125522Y2011763D02*
X2138453D01*
X2125522Y2010863D02*
X2138453D01*
X2125522Y2009963D02*
X2138453D01*
X2125522Y2009063D02*
X2138453D01*
X2125522Y2008163D02*
X2138453D01*
X2125522Y2007263D02*
X2138453D01*
X2125522Y2006363D02*
X2138453D01*
X2125522Y2005463D02*
X2138453D01*
X2125522Y2004563D02*
X2138453D01*
X2125522Y2003663D02*
X2138453D01*
X2125522Y2002763D02*
X2138453D01*
X2125522Y2001863D02*
X2138453D01*
X2125522Y2000963D02*
X2138453D01*
X2125522Y2000063D02*
X2138453D01*
X2125522Y1999163D02*
X2138453D01*
X2125521Y1998263D02*
X2138453D01*
X2125358Y1997363D02*
X2138453D01*
X2124860Y1996463D02*
X2138453D01*
X2123650Y1995563D02*
X2138453D01*
X2098983Y1994663D02*
X2138453D01*
X2098983Y1993763D02*
X2138453D01*
X2098983Y1992863D02*
X2138453D01*
X2098983Y1991963D02*
X2138453D01*
X2098983Y1991063D02*
X2138453D01*
X2107957Y1990163D02*
X2138453D01*
X2109126Y1989263D02*
X2138453D01*
X2109876Y1988363D02*
X2138453D01*
X2110383Y1987463D02*
X2138453D01*
X2110709Y1986563D02*
X2138453D01*
X2110884Y1985663D02*
X2138453D01*
X2110922Y1984763D02*
X2138453D01*
X2110825Y1983863D02*
X2138453D01*
X2110586Y1982963D02*
X2138453D01*
X2110185Y1982063D02*
X2138453D01*
X2109583Y1981163D02*
X2138453D01*
X2108684Y1980263D02*
X2138453D01*
X2108755Y1979363D02*
X2138453D01*
X2109630Y1978463D02*
X2138453D01*
X2110217Y1977563D02*
X2138453D01*
X2110606Y1976663D02*
X2138453D01*
X2110835Y1975763D02*
X2138453D01*
X2110924Y1974863D02*
X2138453D01*
X2110877Y1973963D02*
X2138453D01*
X2110692Y1973063D02*
X2138453D01*
X2110356Y1972163D02*
X2138453D01*
X2109836Y1971263D02*
X2138453D01*
X2109065Y1970363D02*
X2138453D01*
X2107855Y1969463D02*
X2138453D01*
X2098983Y1968563D02*
X2138453D01*
X2098983Y1967663D02*
X2138453D01*
X2098983Y1966763D02*
X2138453D01*
X2098983Y1965863D02*
X2138453D01*
X2098983Y1964963D02*
X2138453D01*
X2098983Y1964063D02*
X2138453D01*
X2098983Y1963163D02*
X2138453D01*
X2098983Y1962263D02*
X2138453D01*
X2098983Y1961363D02*
X2138453D01*
X2098983Y1960463D02*
X2138453D01*
X2098983Y1959563D02*
X2138453D01*
X2098983Y1958663D02*
X2138453D01*
X2098983Y1957763D02*
X2138453D01*
X2098983Y1956863D02*
X2138453D01*
X2098952Y1955963D02*
X2138453D01*
X2098672Y1955063D02*
X2138453D01*
X2097996Y1954163D02*
X2138453D01*
X2097096Y1953263D02*
X2138453D01*
X2096196Y1952363D02*
X2138453D01*
X2095296Y1951463D02*
X2138453D01*
X2094396Y1950563D02*
X2138453D01*
X2093496Y1949663D02*
X2138453D01*
X2092596Y1948763D02*
X2138453D01*
X2091696Y1947863D02*
X2138453D01*
X2090796Y1946963D02*
X2138453D01*
X2089896Y1946063D02*
X2138453D01*
X2088996Y1945163D02*
X2138453D01*
X2088096Y1944263D02*
X2138453D01*
X2087196Y1943363D02*
X2138453D01*
X2086296Y1942463D02*
X2138453D01*
X2085396Y1941563D02*
X2138453D01*
X2084496Y1940663D02*
X2138453D01*
X2083596Y1939763D02*
X2138453D01*
X2082696Y1938863D02*
X2138453D01*
X2081796Y1937963D02*
X2138453D01*
X2080896Y1937063D02*
X2138453D01*
X2079996Y1936163D02*
X2138453D01*
X2079096Y1935263D02*
X2138453D01*
X2078196Y1934363D02*
X2138453D01*
X2077296Y1933463D02*
X2138453D01*
X2076396Y1932563D02*
X2138453D01*
X2075496Y1931663D02*
X2138453D01*
X2074596Y1930763D02*
X2138453D01*
X2073696Y1929863D02*
X2138453D01*
X2072796Y1928963D02*
X2138453D01*
X2071896Y1928063D02*
X2138453D01*
X2070996Y1927163D02*
X2138453D01*
X2070096Y1926263D02*
X2138453D01*
X2069196Y1925363D02*
X2138453D01*
X2068296Y1924463D02*
X2138453D01*
X2067396Y1923563D02*
X2138453D01*
X1925009Y1922663D02*
X2138453D01*
X2113862Y1921763D02*
X2138453D01*
X2114676Y1920863D02*
X2138453D01*
X2114955Y1919963D02*
X2138453D01*
X2114970Y1919063D02*
X2138453D01*
X2114970Y1918163D02*
X2138453D01*
X2114970Y1917263D02*
X2138453D01*
X2114970Y1916363D02*
X2138453D01*
X2114970Y1915463D02*
X2138453D01*
X2114970Y1914563D02*
X2138453D01*
X2114970Y1913663D02*
X2138453D01*
X2114970Y1912763D02*
X2138453D01*
X2114970Y1911863D02*
X2138453D01*
X2114970Y1910963D02*
X2138453D01*
X2114967Y1910063D02*
X2138453D01*
X2114751Y1909163D02*
X2138453D01*
X2114067Y1908263D02*
X2138453D01*
X1921887Y1907363D02*
X2138453D01*
X1921887Y1906463D02*
X2138453D01*
X1921887Y1905563D02*
X2138453D01*
X1921887Y1904663D02*
X2138453D01*
X1921831Y1903763D02*
X2138453D01*
X1921440Y1902863D02*
X2138453D01*
X1920302Y1901963D02*
X2138453D01*
X1855915Y1901063D02*
X2138453D01*
X1855915Y1900163D02*
X2138453D01*
X1855915Y1899263D02*
X2138453D01*
X1855915Y1898363D02*
X2138453D01*
X1855915Y1897463D02*
X2138453D01*
X1855995Y2072063D02*
X2138373D01*
X2098983Y1969463D02*
X2101908D01*
X2098983Y1990163D02*
X2101807D01*
X2098983Y1970363D02*
X2100698D01*
X2098983Y1989263D02*
X2100638D01*
X2099042Y1971263D02*
X2099928D01*
X2099079Y1988363D02*
X2099887D01*
X2084362Y1921763D02*
X2099078D01*
X2084567Y1908263D02*
X2098873D01*
X2085176Y1920863D02*
X2098264D01*
X2085251Y1909163D02*
X2098189D01*
X2085455Y1919963D02*
X2097985D01*
X2085467Y1910063D02*
X2097973D01*
X2085470Y1919063D02*
X2097970D01*
X2085470Y1918163D02*
X2097970D01*
X2085470Y1917263D02*
X2097970D01*
X2085470Y1916363D02*
X2097970D01*
X2085470Y1915463D02*
X2097970D01*
X2085470Y1914563D02*
X2097970D01*
X2085470Y1913663D02*
X2097970D01*
X2085470Y1912763D02*
X2097970D01*
X2085470Y1911863D02*
X2097970D01*
X2085470Y1910963D02*
X2097970D01*
X1916681Y2036963D02*
X2079604D01*
X1925009Y1921763D02*
X2069578D01*
X1921887Y1908263D02*
X2069373D01*
X1925009Y1920863D02*
X2068764D01*
X1921887Y1909163D02*
X2068689D01*
X1925009Y1919963D02*
X2068485D01*
X1921887Y1910063D02*
X2068473D01*
X1925009Y1919063D02*
X2068470D01*
X1924882Y1918163D02*
X2068470D01*
X1924354Y1917263D02*
X2068470D01*
X1922031Y1916363D02*
X2068470D01*
X1921881Y1915463D02*
X2068470D01*
X1921887Y1914563D02*
X2068470D01*
X1921887Y1913663D02*
X2068470D01*
X1921887Y1912763D02*
X2068470D01*
X1921887Y1911863D02*
X2068470D01*
X1921887Y1910963D02*
X2068470D01*
X1925009Y1923563D02*
X1974681D01*
X1925009Y1924463D02*
X1974048D01*
X1925009Y1925363D02*
X1973797D01*
X1969574Y1942463D02*
X1973776D01*
X1969574Y1941563D02*
X1973776D01*
X1969574Y1940663D02*
X1973776D01*
X1969574Y1939763D02*
X1973776D01*
X1969574Y1938863D02*
X1973776D01*
X1969574Y1937963D02*
X1973776D01*
X1969570Y1937063D02*
X1973776D01*
X1969384Y1936163D02*
X1973776D01*
X1968854Y1935263D02*
X1973776D01*
X1967512Y1934363D02*
X1973776D01*
X1855915Y1933463D02*
X1973776D01*
X1855915Y1932563D02*
X1973776D01*
X1924330Y1931663D02*
X1973776D01*
X1924874Y1930763D02*
X1973776D01*
X1925009Y1929863D02*
X1973776D01*
X1925009Y1928963D02*
X1973776D01*
X1925009Y1928063D02*
X1973776D01*
X1925009Y1927163D02*
X1973776D01*
X1925009Y1926263D02*
X1973776D01*
X1969574Y1943363D02*
X1973776D01*
X1969574Y1944263D02*
X1972507D01*
X1969574Y1945163D02*
X1971529D01*
X1969598Y1946063D02*
X1970629D01*
X1855915Y1934363D02*
X1936564D01*
X1855915Y1935263D02*
X1935222D01*
X1855915Y1936163D02*
X1934692D01*
X1855915Y1937063D02*
X1934506D01*
X1855915Y1974863D02*
X1934502D01*
X1855915Y1973963D02*
X1934502D01*
X1855915Y1973063D02*
X1934502D01*
X1855915Y1972163D02*
X1934502D01*
X1855915Y1971263D02*
X1934502D01*
X1855915Y1970363D02*
X1934502D01*
X1855915Y1969463D02*
X1934502D01*
X1855915Y1968563D02*
X1934502D01*
X1855915Y1967663D02*
X1934502D01*
X1855915Y1966763D02*
X1934502D01*
X1855915Y1965863D02*
X1934502D01*
X1855915Y1964963D02*
X1934502D01*
X1855915Y1964063D02*
X1934502D01*
X1855915Y1963163D02*
X1934502D01*
X1855915Y1962263D02*
X1934502D01*
X1855915Y1961363D02*
X1934502D01*
X1855915Y1960463D02*
X1934502D01*
X1855915Y1959563D02*
X1934502D01*
X1855915Y1958663D02*
X1934502D01*
X1855915Y1957763D02*
X1934502D01*
X1855915Y1956863D02*
X1934502D01*
X1855915Y1955963D02*
X1934502D01*
X1855915Y1955063D02*
X1934502D01*
X1855915Y1954163D02*
X1934502D01*
X1855915Y1953263D02*
X1934502D01*
X1855915Y1952363D02*
X1934502D01*
X1855915Y1951463D02*
X1934502D01*
X1855915Y1950563D02*
X1934502D01*
X1855915Y1949663D02*
X1934502D01*
X1855915Y1948763D02*
X1934502D01*
X1855915Y1947863D02*
X1934502D01*
X1855915Y1946963D02*
X1934502D01*
X1855915Y1946063D02*
X1934502D01*
X1855915Y1945163D02*
X1934502D01*
X1855915Y1944263D02*
X1934502D01*
X1855915Y1943363D02*
X1934502D01*
X1855915Y1942463D02*
X1934502D01*
X1855915Y1941563D02*
X1934502D01*
X1855915Y1940663D02*
X1934502D01*
X1855915Y1939763D02*
X1934502D01*
X1855915Y1938863D02*
X1934502D01*
X1855915Y1937963D02*
X1934502D01*
X1933791Y1975763D02*
X1934205D01*
X1917751Y2036063D02*
X1923746D01*
X1918279Y2035163D02*
X1922802D01*
X1918464Y2034263D02*
X1921902D01*
X1918468Y2033363D02*
X1921002D01*
X1855915Y1975763D02*
X1920987D01*
X1918468Y2032463D02*
X1920102D01*
X1855915Y1976663D02*
X1919620D01*
X1918633Y2031563D02*
X1919303D01*
X1855915Y1977563D02*
X1919084D01*
X1855915Y1978463D02*
X1918895D01*
X1917647Y1981163D02*
X1918891D01*
X1915945Y1980263D02*
X1918891D01*
X1855915Y1979363D02*
X1918891D01*
X1877720Y2043263D02*
X1892567D01*
X1878041Y2056763D02*
X1892246D01*
X1878576Y2044163D02*
X1891711D01*
X1878693Y2055863D02*
X1891594D01*
X1878873Y2045063D02*
X1891414D01*
X1878892Y2054963D02*
X1891395D01*
X1878893Y2054063D02*
X1891393D01*
X1878893Y2053163D02*
X1891393D01*
X1878893Y2052263D02*
X1891393D01*
X1878893Y2051363D02*
X1891393D01*
X1878893Y2050463D02*
X1891393D01*
X1878893Y2049563D02*
X1891393D01*
X1878893Y2048663D02*
X1891393D01*
X1878893Y2047763D02*
X1891393D01*
X1878893Y2046863D02*
X1891393D01*
X1878893Y2045963D02*
X1891393D01*
X1855915Y1931663D02*
X1867416D01*
X1855915Y1901963D02*
X1867245D01*
X1855915Y1930763D02*
X1866872D01*
X1855915Y1918163D02*
X1866864D01*
X1855915Y1929863D02*
X1866737D01*
X1855915Y1928963D02*
X1866737D01*
X1855915Y1928063D02*
X1866737D01*
X1855915Y1927163D02*
X1866737D01*
X1855915Y1926263D02*
X1866737D01*
X1855915Y1925363D02*
X1866737D01*
X1855915Y1924463D02*
X1866737D01*
X1855915Y1923563D02*
X1866737D01*
X1855915Y1922663D02*
X1866737D01*
X1855915Y1921763D02*
X1866737D01*
X1855915Y1920863D02*
X1866737D01*
X1855915Y1919963D02*
X1866737D01*
X1855915Y1919063D02*
X1866737D01*
X1855915Y1917263D02*
X1866625D01*
X1855915Y1902863D02*
X1866107D01*
X1855915Y1916363D02*
X1865902D01*
X1855915Y1903763D02*
X1865716D01*
X1855915Y1915463D02*
X1865666D01*
X1855915Y1914563D02*
X1865660D01*
X1855915Y1913663D02*
X1865660D01*
X1855915Y1912763D02*
X1865660D01*
X1855915Y1911863D02*
X1865660D01*
X1855915Y1910963D02*
X1865660D01*
X1855915Y1910063D02*
X1865660D01*
X1855915Y1909163D02*
X1865660D01*
X1855915Y1908263D02*
X1865660D01*
X1855915Y1907363D02*
X1865660D01*
X1855915Y1906463D02*
X1865660D01*
X1855915Y1905563D02*
X1865660D01*
X1855915Y1904663D02*
X1865660D01*
X1855915Y2043263D02*
X1863067D01*
X1855915Y2056763D02*
X1862746D01*
X1855915Y2044163D02*
X1862211D01*
X1855915Y2055863D02*
X1862094D01*
X1855915Y2045063D02*
X1861914D01*
X1855915Y2054963D02*
X1861895D01*
X1855915Y2054063D02*
X1861893D01*
X1855915Y2053163D02*
X1861893D01*
X1855915Y2052263D02*
X1861893D01*
X1855915Y2051363D02*
X1861893D01*
X1855915Y2050463D02*
X1861893D01*
X1855915Y2049563D02*
X1861893D01*
X1855915Y2048663D02*
X1861893D01*
X1855915Y2047763D02*
X1861893D01*
X1855915Y2046863D02*
X1861893D01*
X1855915Y2045963D02*
X1861893D01*
X1855915Y1980263D02*
X1860118D01*
X1855915Y2036963D02*
X1859182D01*
X1855915Y1981163D02*
X1858417D01*
X1855915Y2036063D02*
X1858156D01*
X1855915Y1982063D02*
X1857830D01*
X1855915Y2035163D02*
X1857718D01*
X1855915Y1982963D02*
X1857607D01*
X1855915Y2034263D02*
X1857596D01*
X1855915Y2033363D02*
X1857596D01*
X1855915Y2032463D02*
X1857596D01*
X1855915Y2031563D02*
X1857596D01*
X1855915Y2030663D02*
X1857596D01*
X1855915Y2029763D02*
X1857596D01*
X1855915Y2028863D02*
X1857596D01*
X1855915Y2027963D02*
X1857596D01*
X1855915Y2027063D02*
X1857596D01*
X1855915Y2026163D02*
X1857596D01*
X1855915Y2025263D02*
X1857596D01*
X1855915Y2024363D02*
X1857596D01*
X1855915Y2023463D02*
X1857596D01*
X1855915Y2022563D02*
X1857596D01*
X1855915Y2021663D02*
X1857596D01*
X1855915Y2020763D02*
X1857596D01*
X1855915Y2019863D02*
X1857596D01*
X1855915Y2018963D02*
X1857596D01*
X1855915Y2018063D02*
X1857596D01*
X1855915Y2017163D02*
X1857596D01*
X1855915Y2016263D02*
X1857596D01*
X1855915Y2015363D02*
X1857596D01*
X1855915Y2014463D02*
X1857596D01*
X1855915Y2013563D02*
X1857596D01*
X1855915Y2012663D02*
X1857596D01*
X1855915Y2011763D02*
X1857596D01*
X1855915Y2010863D02*
X1857596D01*
X1855915Y2009963D02*
X1857596D01*
X1855915Y2009063D02*
X1857596D01*
X1855915Y2008163D02*
X1857596D01*
X1855915Y2007263D02*
X1857596D01*
X1855915Y2006363D02*
X1857596D01*
X1855915Y2005463D02*
X1857596D01*
X1855915Y2004563D02*
X1857596D01*
X1855915Y2003663D02*
X1857596D01*
X1855915Y2002763D02*
X1857596D01*
X1855915Y2001863D02*
X1857596D01*
X1855915Y2000963D02*
X1857596D01*
X1855915Y2000063D02*
X1857596D01*
X1855915Y1999163D02*
X1857596D01*
X1855915Y1998263D02*
X1857596D01*
X1855915Y1997363D02*
X1857596D01*
X1855915Y1996463D02*
X1857596D01*
X1855915Y1995563D02*
X1857596D01*
X1855915Y1994663D02*
X1857596D01*
X1855915Y1993763D02*
X1857596D01*
X1855915Y1992863D02*
X1857596D01*
X1855915Y1991963D02*
X1857596D01*
X1855915Y1991063D02*
X1857596D01*
X1855915Y1990163D02*
X1857596D01*
X1855915Y1989263D02*
X1857596D01*
X1855915Y1988363D02*
X1857596D01*
X1855915Y1987463D02*
X1857596D01*
X1855915Y1986563D02*
X1857596D01*
X1855915Y1985663D02*
X1857596D01*
X1855915Y1984763D02*
X1857596D01*
X1855915Y1983863D02*
X1857596D01*
X1850763Y2076666D02*
X2144088D01*
Y1888518*
X1850763*
Y2076666*
G54D16*
X1972577Y1949772D02*
X1974830Y1947520D01*
X1980630*
X1972577Y1949772D02*
Y1956044D01*
X1974420Y1957887*
X1980262*
X1980630Y1957520*
X1952525Y1943900D02*
Y1946038D01*
X1954007Y1947520*
X1959370*
X1952525Y1943900D02*
Y1943051D01*
X1954298Y1941278*
X1958129*
X1959370Y1942520*
X1939335Y1946664D02*
Y1997141D01*
X1947322Y2005128*
X1953158*
X1939335Y1946664D02*
X1942100Y1943900D01*
X1952525*
X1953205Y1954150D02*
X1954835Y1952520D01*
X1959370*
X1953205Y1954150D02*
Y1957224D01*
X1954248Y1958267*
X1958623*
X1959370Y1957520*
X1994693Y1931574D02*
X2062781D01*
X2072332Y1941125*
X2023230Y1953479D02*
X2024190Y1952520D01*
X2029370*
X2023230Y1953479D02*
Y1956476D01*
X2024274Y1957520*
X2029370*
X2043122Y1955405D02*
Y1949772D01*
X2045375Y1947520*
X2050630*
X2043122Y1955405D02*
X2045594Y1957876D01*
X2050486*
X2050630Y1957520*
X2025137Y1945420D02*
Y1947520D01*
X2029370*
X2025137Y1945420D02*
Y1942520D01*
X2029370*
X1980630Y1957520D02*
X1990610Y1967500D01*
X1992500*
X1980630Y1952520D02*
X1991314D01*
X1994693Y1949141*
Y1931574*
X1980630Y1942520D02*
Y1938024D01*
X1987080Y1931574*
X1994693*
X2050630Y1957520D02*
Y1958130D01*
X2060000Y1967500*
X2050630Y1952520D02*
X2060938D01*
X2071313Y1942144*
X2050630Y1942520D02*
X2070938D01*
X2071313Y1942144*
X2072332Y1941125D02*
X2078549Y1947341D01*
X2086125Y1954918*
Y2002875*
X2093250Y2010000*
X2071313Y1942144D02*
X2072332Y1941125D01*
X2076970Y1914937D02*
X2106470D01*
X2132180*
Y2038948*
X1870393Y2050133D02*
X1899893D01*
X1899893D02*
X2120996D01*
X2132180Y2038948*
X1913250Y2010000D02*
X1886750D01*
X1873250*
X1972782Y1999463D02*
Y2005877D01*
X1975546Y2008641*
X1980630*
Y2007520*
X1972782Y1999463D02*
X1974727Y1997518D01*
X1980007*
X1980630Y1997520*
X1953857Y1992179D02*
Y1997520D01*
X1959370*
X1953857Y1992179D02*
X1959370D01*
Y1957520*
X1953158Y2005128D02*
Y2007520D01*
X1959370*
X1953158Y2005128D02*
Y2002520D01*
X1959370*
Y1992520D02*
Y1992179D01*
X1926750Y2010000D02*
X1935872Y2019122D01*
X1988140*
X1926750Y2010000D02*
Y1988814D01*
X1926843Y1988721*
X1913250Y2010000D02*
Y1988814D01*
X1913343Y1988721*
X1995850Y2011412D02*
X2005034Y2002228D01*
X2042815Y2008890D02*
Y1999798D01*
X2045107Y1997506*
X2049700*
X2050630Y1997520*
X2042815Y2008890D02*
X2044775Y2010850D01*
X2049220*
X2050593Y2009477*
Y2007557*
X2050630Y2007520*
X1995850Y2011412D02*
X1988140Y2019122D01*
X2062781*
X2067286Y2014617*
Y2011948*
X2022709Y1992854D02*
Y1995498D01*
X2024730Y1997520*
X2029370*
X2022709Y1992854D02*
X2024209Y1991355D01*
X2028205*
X2029370Y1992520*
X2020916Y2005306D02*
X2022789Y2007178D01*
X2029029*
X2029370Y2007520*
X2020916Y2005306D02*
X2023702Y2002520D01*
X2029370*
X2012974Y2002222D02*
Y1948550D01*
X2016104Y1945420*
X2025137*
X2012974Y2002222D02*
X2015843Y2005092D01*
X2020702*
X2020916Y2005306*
X1980630Y2002520D02*
X1986957D01*
X1995850Y2011412*
X1980630Y1997520D02*
X1993081D01*
X1995000Y1995601*
Y1995000*
X1980630Y1992520D02*
X1988949Y1984201D01*
X1999812*
X2005034Y1989423*
Y2002228*
X2029370Y1992520D02*
Y1957520D01*
X2050630Y2002520D02*
X2065125D01*
X2067286Y2004680*
Y2011948*
X2050630Y1997520D02*
X2062576D01*
X2065000Y1995096*
Y1995000*
X2066698Y1993302*
X2067500Y1992500*
X2050630Y1992520D02*
Y1983792D01*
X2054214Y1980208*
X2054214D02*
X2073634D01*
X2076091Y1982665*
Y2009491*
X2067286Y2011948D02*
X2073634D01*
X2076091Y2009491*
X2093250Y2010000D02*
X2106750D01*
G54D17*
X1992500Y1967500D03*
X2060000D03*
X1995000Y1995000D03*
X2067500Y1992500D03*
G74*
X0Y0D02*
M02*
