*
*
G04 PADS VX.2.11 Build Number: 20124196 generated Gerber (RS-274-X) file*
G04 PC Version=2.1*
*
%IN "test6.pcb"*%
*
%MOIN*%
*
%FSLAX35Y35*%
*
*
*
*
G04 PC Standard Apertures*
*
*
G04 Thermal Relief Aperture macro.*
%AMTER*
1,1,$1,0,0*
1,0,$1-$2,0,0*
21,0,$3,$4,0,0,45*
21,0,$3,$4,0,0,135*
%
*
*
G04 Annular Aperture macro.*
%AMANN*
1,1,$1,0,0*
1,0,$2,0,0*
%
*
*
G04 Odd Aperture macro.*
%AMODD*
1,1,$1,0,0*
1,0,$1-0.005,0,0*
%
*
*
G04 PC Custom Aperture Macros*
*
*
*
*
*
*
G04 PC Aperture Table*
*
%ADD010C,0.001*%
%ADD014ANN,0.07087X0.03937*%
%ADD015C,0.01*%
%ADD016C,0.03*%
%ADD017C,0.055*%
%ADD018C,0.015*%
*
*
*
*
G04 PC Circuitry*
G04 Layer Name test6.pcb - circuitry*
%LPD*%
*
*
G04 PC Custom Flashes*
G04 Layer Name test6.pcb - flashes*
%LPD*%
*
*
G04 PC Circuitry*
G04 Layer Name test6.pcb - circuitry*
%LPD*%
*
G54D10*
G54D14*
G01X2104882Y1974724D03*
Y1984961D03*
G54D15*
X2072750Y1992500D02*
G75*
G03X2072750I-5250J0D01*
G01X2000250Y1995000D02*
G03X2000250I-5250J0D01*
G01X2065250Y1967500D02*
G03X2065250I-5250J0D01*
G01X1997750D02*
G03X1997750I-5250J0D01*
G01X1933506Y1984542D02*
G03X1934006Y1984042I500J-0D01*
G01X2098352*
G03X2098851Y1984574I0J500*
G01X2098839Y1984961D02*
G03X2098851Y1984574I6043J-0D01*
G01X2098839Y1984961D02*
X2098839D01*
X2110925D02*
G03X2098839I-6043J-0D01*
G01X2110925D02*
X2110925D01*
X2110913Y1984574D02*
G03X2110925Y1984961I-6031J387D01*
G01X2110913Y1984574D02*
G03X2111412Y1984042I499J-32D01*
G01X2120984*
G03X2121484Y1984542I0J500*
G01Y2024939*
G03X2120984Y2025439I-500J-0*
G01X1934006*
G03X1933506Y2024939I-0J-500*
G01Y1984542*
X1933013Y1929163D02*
G03X1933513Y1928663I500J-0D01*
G01X2122320*
G03X2122820Y1929163I-0J500*
G01Y1975278*
G03X2122320Y1975778I-500J0*
G01X2111402*
G03X2110904Y1975236I-0J-500*
G01X2110925Y1974724D02*
G03X2110904Y1975236I-6043J0D01*
G01X2110925Y1974724D02*
X2110925D01*
X2098839D02*
G03X2110925I6043J0D01*
G01X2098839D02*
X2098839D01*
X2098860Y1975236D02*
G03X2098839Y1974724I6022J-512D01*
G01X2098860Y1975236D02*
G03X2098362Y1975778I-498J42D01*
G01X1933513*
G03X1933013Y1975278I-0J-500*
G01Y1929163*
X1853593Y1893453D02*
G03X1854093Y1892953I500J-0D01*
G01X2140533*
G03X2141033Y1893453I-0J500*
G01Y2073598*
G03X2140533Y2074098I-500J-0*
G01X1854093*
G03X1853593Y2073598I-0J-500*
G01Y1893453*
X2072750Y1992500D02*
G03X2072750I-5250J0D01*
G01X2000250Y1995000D02*
G03X2000250I-5250J0D01*
G01X2065250Y1967500D02*
G03X2065250I-5250J0D01*
G01X1997750D02*
G03X1997750I-5250J0D01*
G01X1930013Y1928663D02*
Y1975778D01*
X1933013Y1978778D02*
G03X1930013Y1975778I-0J-3000D01*
G01X1933013Y1978778D02*
X2100183D01*
G03X2100542Y1978930I0J500*
G01X2101117Y1979451D02*
G03X2100542Y1978930I3765J-4727D01*
G01X2101117Y1979451D02*
G03X2101305Y1979843I-312J392D01*
X2101117Y1980234I-500J-0*
G01X2100495Y1980804D02*
G03X2101117Y1980234I4387J4157D01*
G01X2100495Y1980804D02*
G03X2100132Y1980961I-363J-343D01*
G01X2004724*
X2003968Y1981033D02*
G03X2004724Y1980961I756J3928D01*
G01X2003968Y1981033D02*
G03X2003874Y1981042I-94J-491D01*
G01X1933506*
X1930506Y1984042D02*
G03X1933506Y1981042I3000J-0D01*
G01X1930506Y1984042D02*
Y2025439D01*
X1933506Y2028439D02*
G03X1930506Y2025439I-0J-3000D01*
G01X1933506Y2028439D02*
X2121484D01*
X2124484Y2025439D02*
G03X2121484Y2028439I-3000J-0D01*
G01X2124484Y2025439D02*
Y1984042D01*
X2121484Y1981042D02*
G03X2124484Y1984042I-0J3000D01*
G01X2121484Y1981042D02*
X2109708D01*
G03X2109339Y1980879I-0J-500*
G01X2108647Y1980234D02*
G03X2109339Y1980879I-3765J4727D01*
G01X2108647Y1980234D02*
G03X2108459Y1979843I312J-391D01*
X2108647Y1979451I500J-0*
G01X2109221Y1978930D02*
G03X2108647Y1979451I-4339J-4206D01*
G01X2109221Y1978930D02*
G03X2109581Y1978778I360J348D01*
G01X2109581D02*
X2122820D01*
X2125820Y1975778D02*
G03X2122820Y1978778I-3000J0D01*
G01X2125820Y1975778D02*
Y1928663D01*
X2122820Y1925663D02*
G03X2125820Y1928663I-0J3000D01*
G01X2122820Y1925663D02*
X1933013D01*
X1930013Y1928663D02*
G03X1933013Y1925663I3000J-0D01*
G01X1933506Y2024540D02*
X2121484D01*
X1933506Y2023640D02*
X2121484D01*
X1933506Y2022740D02*
X2121484D01*
X1933506Y2021840D02*
X2121484D01*
X1933506Y2020940D02*
X2121484D01*
X1933506Y2020040D02*
X2121484D01*
X1933506Y2019140D02*
X2121484D01*
X1933506Y2018240D02*
X2121484D01*
X1933506Y2017340D02*
X2121484D01*
X1933506Y2016440D02*
X2121484D01*
X1933506Y2015540D02*
X2121484D01*
X1933506Y2014640D02*
X2121484D01*
X1933506Y2013740D02*
X2121484D01*
X1933506Y2012840D02*
X2121484D01*
X1933506Y2011940D02*
X2121484D01*
X1933506Y2011040D02*
X2121484D01*
X1933506Y2010140D02*
X2121484D01*
X1933506Y2009240D02*
X2121484D01*
X1933506Y2008340D02*
X2121484D01*
X1933506Y2007440D02*
X2121484D01*
X1933506Y2006540D02*
X2121484D01*
X1933506Y2005640D02*
X2121484D01*
X1933506Y2004740D02*
X2121484D01*
X1933506Y2003840D02*
X2121484D01*
X1933506Y2002940D02*
X2121484D01*
X1933506Y2002040D02*
X2121484D01*
X1933506Y2001140D02*
X2121484D01*
X1995317Y2000240D02*
X2121484D01*
X1997954Y1999340D02*
X2121484D01*
X1998966Y1998440D02*
X2121484D01*
X2068969Y1997540D02*
X2121484D01*
X2070728Y1996640D02*
X2121484D01*
X2071631Y1995740D02*
X2121484D01*
X2072199Y1994840D02*
X2121484D01*
X2072549Y1993940D02*
X2121484D01*
X2072722Y1993040D02*
X2121484D01*
X2072738Y1992140D02*
X2121484D01*
X2072597Y1991240D02*
X2121484D01*
X2107635Y1990340D02*
X2121484D01*
X2108938Y1989440D02*
X2121484D01*
X2109751Y1988540D02*
X2121484D01*
X2110299Y1987640D02*
X2121484D01*
X2110657Y1986740D02*
X2121484D01*
X2110861Y1985840D02*
X2121484D01*
X2110925Y1984940D02*
X2121484D01*
X2072285Y1990340D02*
X2102129D01*
X2071766Y1989440D02*
X2100826D01*
X2070947Y1988540D02*
X2100013D01*
X2069487Y1987640D02*
X2099465D01*
X1933506Y1986740D02*
X2099107D01*
X1933506Y1985840D02*
X2098903D01*
X1933506Y1984940D02*
X2098839D01*
X1999594Y1997540D02*
X2066031D01*
X1933506Y1987640D02*
X2065513D01*
X1999987Y1996640D02*
X2064272D01*
X1933506Y1988540D02*
X2064053D01*
X2000198Y1995740D02*
X2063369D01*
X1933506Y1989440D02*
X2063234D01*
X2000248Y1994840D02*
X2062801D01*
X1997419Y1990340D02*
X2062715D01*
X2000142Y1993940D02*
X2062451D01*
X1998664Y1991240D02*
X2062403D01*
X1999871Y1993040D02*
X2062278D01*
X1999403Y1992140D02*
X2062262D01*
X1933506Y2000240D02*
X1994683D01*
X1933506Y1990340D02*
X1992581D01*
X1933506Y1999340D02*
X1992046D01*
X1933506Y1991240D02*
X1991336D01*
X1933506Y1998440D02*
X1991034D01*
X1933506Y1992140D02*
X1990597D01*
X1933506Y1997540D02*
X1990406D01*
X1933506Y1993040D02*
X1990129D01*
X1933506Y1996640D02*
X1990013D01*
X1933506Y1993940D02*
X1989858D01*
X1933506Y1995740D02*
X1989802D01*
X1933506Y1994840D02*
X1989752D01*
X2110923Y1974562D02*
X2122820D01*
X2110831Y1973662D02*
X2122820D01*
X2110598Y1972762D02*
X2122820D01*
X2110204Y1971862D02*
X2122820D01*
X2109611Y1970962D02*
X2122820D01*
X2108726Y1970062D02*
X2122820D01*
X2107243Y1969162D02*
X2122820D01*
X2065194Y1968262D02*
X2122820D01*
X2065248Y1967362D02*
X2122820D01*
X2065146Y1966462D02*
X2122820D01*
X2064879Y1965562D02*
X2122820D01*
X2064417Y1964662D02*
X2122820D01*
X2063686Y1963762D02*
X2122820D01*
X2062459Y1962862D02*
X2122820D01*
X1933013Y1961962D02*
X2122820D01*
X1933013Y1961062D02*
X2122820D01*
X1933013Y1960162D02*
X2122820D01*
X1933013Y1959262D02*
X2122820D01*
X1933013Y1958362D02*
X2122820D01*
X1933013Y1957462D02*
X2122820D01*
X1933013Y1956562D02*
X2122820D01*
X1933013Y1955662D02*
X2122820D01*
X1933013Y1954762D02*
X2122820D01*
X1933013Y1953862D02*
X2122820D01*
X1933013Y1952962D02*
X2122820D01*
X1933013Y1952062D02*
X2122820D01*
X1933013Y1951162D02*
X2122820D01*
X1933013Y1950262D02*
X2122820D01*
X1933013Y1949362D02*
X2122820D01*
X1933013Y1948462D02*
X2122820D01*
X1933013Y1947562D02*
X2122820D01*
X1933013Y1946662D02*
X2122820D01*
X1933013Y1945762D02*
X2122820D01*
X1933013Y1944862D02*
X2122820D01*
X1933013Y1943962D02*
X2122820D01*
X1933013Y1943062D02*
X2122820D01*
X1933013Y1942162D02*
X2122820D01*
X1933013Y1941262D02*
X2122820D01*
X1933013Y1940362D02*
X2122820D01*
X1933013Y1939462D02*
X2122820D01*
X1933013Y1938562D02*
X2122820D01*
X1933013Y1937662D02*
X2122820D01*
X1933013Y1936762D02*
X2122820D01*
X1933013Y1935862D02*
X2122820D01*
X1933013Y1934962D02*
X2122820D01*
X1933013Y1934062D02*
X2122820D01*
X1933013Y1933162D02*
X2122820D01*
X1933013Y1932262D02*
X2122820D01*
X1933013Y1931362D02*
X2122820D01*
X1933013Y1930462D02*
X2122820D01*
X1933013Y1929562D02*
X2122820D01*
X2110937Y1975462D02*
X2122785D01*
X2064980Y1969162D02*
X2102520D01*
X2064583Y1970062D02*
X2101037D01*
X2063947Y1970962D02*
X2100153D01*
X2062922Y1971862D02*
X2099560D01*
X1933013Y1972762D02*
X2099166D01*
X1933013Y1973662D02*
X2098933D01*
X1933013Y1974562D02*
X2098841D01*
X1933048Y1975462D02*
X2098827D01*
X1994959Y1962862D02*
X2057541D01*
X1995422Y1971862D02*
X2057078D01*
X1996186Y1963762D02*
X2056314D01*
X1996447Y1970962D02*
X2056053D01*
X1996917Y1964662D02*
X2055583D01*
X1997083Y1970062D02*
X2055417D01*
X1997379Y1965562D02*
X2055121D01*
X1997480Y1969162D02*
X2055020D01*
X1997646Y1966462D02*
X2054854D01*
X1997694Y1968262D02*
X2054806D01*
X1997748Y1967362D02*
X2054752D01*
X1933013Y1962862D02*
X1990041D01*
X1933013Y1971862D02*
X1989578D01*
X1933013Y1963762D02*
X1988814D01*
X1933013Y1970962D02*
X1988553D01*
X1933013Y1964662D02*
X1988083D01*
X1933013Y1970062D02*
X1987917D01*
X1933013Y1965562D02*
X1987621D01*
X1933013Y1969162D02*
X1987520D01*
X1933013Y1966462D02*
X1987354D01*
X1933013Y1968262D02*
X1987306D01*
X1933013Y1967362D02*
X1987252D01*
X1853593Y2072951D02*
X2141033D01*
X1853593Y2072051D02*
X2141033D01*
X1853593Y2071151D02*
X2141033D01*
X1853593Y2070251D02*
X2141033D01*
X1853593Y2069351D02*
X2141033D01*
X1853593Y2068451D02*
X2141033D01*
X1853593Y2067551D02*
X2141033D01*
X1853593Y2066651D02*
X2141033D01*
X1853593Y2065751D02*
X2141033D01*
X1853593Y2064851D02*
X2141033D01*
X1853593Y2063951D02*
X2141033D01*
X1853593Y2063051D02*
X2141033D01*
X1853593Y2062151D02*
X2141033D01*
X1853593Y2061251D02*
X2141033D01*
X1853593Y2060351D02*
X2141033D01*
X1853593Y2059451D02*
X2141033D01*
X1853593Y2058551D02*
X2141033D01*
X1853593Y2057651D02*
X2141033D01*
X1853593Y2056751D02*
X2141033D01*
X1853593Y2055851D02*
X2141033D01*
X1853593Y2054951D02*
X2141033D01*
X1853593Y2054051D02*
X2141033D01*
X1853593Y2053151D02*
X2141033D01*
X1853593Y2052251D02*
X2141033D01*
X1853593Y2051351D02*
X2141033D01*
X1853593Y2050451D02*
X2141033D01*
X1853593Y2049551D02*
X2141033D01*
X1853593Y2048651D02*
X2141033D01*
X1853593Y2047751D02*
X2141033D01*
X1853593Y2046851D02*
X2141033D01*
X1853593Y2045951D02*
X2141033D01*
X1853593Y2045051D02*
X2141033D01*
X1853593Y2044151D02*
X2141033D01*
X1853593Y2043251D02*
X2141033D01*
X1853593Y2042351D02*
X2141033D01*
X1853593Y2041451D02*
X2141033D01*
X1853593Y2040551D02*
X2141033D01*
X1853593Y2039651D02*
X2141033D01*
X1853593Y2038751D02*
X2141033D01*
X1853593Y2037851D02*
X2141033D01*
X1853593Y2036951D02*
X2141033D01*
X1853593Y2036051D02*
X2141033D01*
X1853593Y2035151D02*
X2141033D01*
X1853593Y2034251D02*
X2141033D01*
X1853593Y2033351D02*
X2141033D01*
X1853593Y2032451D02*
X2141033D01*
X1853593Y2031551D02*
X2141033D01*
X1853593Y2030651D02*
X2141033D01*
X1853593Y2029751D02*
X2141033D01*
X1853593Y2028851D02*
X2141033D01*
X2123123Y2027951D02*
X2141033D01*
X2124014Y2027051D02*
X2141033D01*
X2124398Y2026151D02*
X2141033D01*
X2124484Y2025251D02*
X2141033D01*
X2124484Y2024351D02*
X2141033D01*
X2124484Y2023451D02*
X2141033D01*
X2124484Y2022551D02*
X2141033D01*
X2124484Y2021651D02*
X2141033D01*
X2124484Y2020751D02*
X2141033D01*
X2124484Y2019851D02*
X2141033D01*
X2124484Y2018951D02*
X2141033D01*
X2124484Y2018051D02*
X2141033D01*
X2124484Y2017151D02*
X2141033D01*
X2124484Y2016251D02*
X2141033D01*
X2124484Y2015351D02*
X2141033D01*
X2124484Y2014451D02*
X2141033D01*
X2124484Y2013551D02*
X2141033D01*
X2124484Y2012651D02*
X2141033D01*
X2124484Y2011751D02*
X2141033D01*
X2124484Y2010851D02*
X2141033D01*
X2124484Y2009951D02*
X2141033D01*
X2124484Y2009051D02*
X2141033D01*
X2124484Y2008151D02*
X2141033D01*
X2124484Y2007251D02*
X2141033D01*
X2124484Y2006351D02*
X2141033D01*
X2124484Y2005451D02*
X2141033D01*
X2124484Y2004551D02*
X2141033D01*
X2124484Y2003651D02*
X2141033D01*
X2124484Y2002751D02*
X2141033D01*
X2124484Y2001851D02*
X2141033D01*
X2124484Y2000951D02*
X2141033D01*
X2124484Y2000051D02*
X2141033D01*
X2124484Y1999151D02*
X2141033D01*
X2124484Y1998251D02*
X2141033D01*
X2124484Y1997351D02*
X2141033D01*
X2124484Y1996451D02*
X2141033D01*
X2124484Y1995551D02*
X2141033D01*
X2124484Y1994651D02*
X2141033D01*
X2124484Y1993751D02*
X2141033D01*
X2124484Y1992851D02*
X2141033D01*
X2124484Y1991951D02*
X2141033D01*
X2124484Y1991051D02*
X2141033D01*
X2124484Y1990151D02*
X2141033D01*
X2124484Y1989251D02*
X2141033D01*
X2124484Y1988351D02*
X2141033D01*
X2124484Y1987451D02*
X2141033D01*
X2124484Y1986551D02*
X2141033D01*
X2124484Y1985651D02*
X2141033D01*
X2124484Y1984751D02*
X2141033D01*
X2124478Y1983851D02*
X2141033D01*
X2124279Y1982951D02*
X2141033D01*
X2123729Y1982051D02*
X2141033D01*
X2122287Y1981151D02*
X2141033D01*
X2108669Y1980251D02*
X2141033D01*
X2108770Y1979351D02*
X2141033D01*
X2124182Y1978451D02*
X2141033D01*
X2125240Y1977551D02*
X2141033D01*
X2125690Y1976651D02*
X2141033D01*
X2125820Y1975751D02*
X2141033D01*
X2125820Y1974851D02*
X2141033D01*
X2125820Y1973951D02*
X2141033D01*
X2125820Y1973051D02*
X2141033D01*
X2125820Y1972151D02*
X2141033D01*
X2125820Y1971251D02*
X2141033D01*
X2125820Y1970351D02*
X2141033D01*
X2125820Y1969451D02*
X2141033D01*
X2125820Y1968551D02*
X2141033D01*
X2125820Y1967651D02*
X2141033D01*
X2125820Y1966751D02*
X2141033D01*
X2125820Y1965851D02*
X2141033D01*
X2125820Y1964951D02*
X2141033D01*
X2125820Y1964051D02*
X2141033D01*
X2125820Y1963151D02*
X2141033D01*
X2125820Y1962251D02*
X2141033D01*
X2125820Y1961351D02*
X2141033D01*
X2125820Y1960451D02*
X2141033D01*
X2125820Y1959551D02*
X2141033D01*
X2125820Y1958651D02*
X2141033D01*
X2125820Y1957751D02*
X2141033D01*
X2125820Y1956851D02*
X2141033D01*
X2125820Y1955951D02*
X2141033D01*
X2125820Y1955051D02*
X2141033D01*
X2125820Y1954151D02*
X2141033D01*
X2125820Y1953251D02*
X2141033D01*
X2125820Y1952351D02*
X2141033D01*
X2125820Y1951451D02*
X2141033D01*
X2125820Y1950551D02*
X2141033D01*
X2125820Y1949651D02*
X2141033D01*
X2125820Y1948751D02*
X2141033D01*
X2125820Y1947851D02*
X2141033D01*
X2125820Y1946951D02*
X2141033D01*
X2125820Y1946051D02*
X2141033D01*
X2125820Y1945151D02*
X2141033D01*
X2125820Y1944251D02*
X2141033D01*
X2125820Y1943351D02*
X2141033D01*
X2125820Y1942451D02*
X2141033D01*
X2125820Y1941551D02*
X2141033D01*
X2125820Y1940651D02*
X2141033D01*
X2125820Y1939751D02*
X2141033D01*
X2125820Y1938851D02*
X2141033D01*
X2125820Y1937951D02*
X2141033D01*
X2125820Y1937051D02*
X2141033D01*
X2125820Y1936151D02*
X2141033D01*
X2125820Y1935251D02*
X2141033D01*
X2125820Y1934351D02*
X2141033D01*
X2125820Y1933451D02*
X2141033D01*
X2125820Y1932551D02*
X2141033D01*
X2125820Y1931651D02*
X2141033D01*
X2125820Y1930751D02*
X2141033D01*
X2125820Y1929851D02*
X2141033D01*
X2125820Y1928951D02*
X2141033D01*
X2125757Y1928051D02*
X2141033D01*
X2125411Y1927151D02*
X2141033D01*
X2124604Y1926251D02*
X2141033D01*
X1853593Y1925351D02*
X2141033D01*
X1853593Y1924451D02*
X2141033D01*
X1853593Y1923551D02*
X2141033D01*
X1853593Y1922651D02*
X2141033D01*
X1853593Y1921751D02*
X2141033D01*
X1853593Y1920851D02*
X2141033D01*
X1853593Y1919951D02*
X2141033D01*
X1853593Y1919051D02*
X2141033D01*
X1853593Y1918151D02*
X2141033D01*
X1853593Y1917251D02*
X2141033D01*
X1853593Y1916351D02*
X2141033D01*
X1853593Y1915451D02*
X2141033D01*
X1853593Y1914551D02*
X2141033D01*
X1853593Y1913651D02*
X2141033D01*
X1853593Y1912751D02*
X2141033D01*
X1853593Y1911851D02*
X2141033D01*
X1853593Y1910951D02*
X2141033D01*
X1853593Y1910051D02*
X2141033D01*
X1853593Y1909151D02*
X2141033D01*
X1853593Y1908251D02*
X2141033D01*
X1853593Y1907351D02*
X2141033D01*
X1853593Y1906451D02*
X2141033D01*
X1853593Y1905551D02*
X2141033D01*
X1853593Y1904651D02*
X2141033D01*
X1853593Y1903751D02*
X2141033D01*
X1853593Y1902851D02*
X2141033D01*
X1853593Y1901951D02*
X2141033D01*
X1853593Y1901051D02*
X2141033D01*
X1853593Y1900151D02*
X2141033D01*
X1853593Y1899251D02*
X2141033D01*
X1853593Y1898351D02*
X2141033D01*
X1853593Y1897451D02*
X2141033D01*
X1853593Y1896551D02*
X2141033D01*
X1853593Y1895651D02*
X2141033D01*
X1853593Y1894751D02*
X2141033D01*
X1853593Y1893851D02*
X2141033D01*
X1853662Y2073851D02*
X2140964D01*
X1853593Y1980251D02*
X2101095D01*
X1853593Y1979351D02*
X2100994D01*
X1853593Y1981151D02*
X1932702D01*
X1853593Y2027951D02*
X1931867D01*
X1853593Y1978451D02*
X1931651D01*
X1853593Y1982051D02*
X1931261D01*
X1853593Y1926251D02*
X1931228D01*
X1853593Y2027051D02*
X1930976D01*
X1853593Y1982951D02*
X1930711D01*
X1853593Y1977551D02*
X1930593D01*
X1853593Y2026151D02*
X1930592D01*
X1853593Y1983851D02*
X1930512D01*
X1853593Y2025251D02*
X1930506D01*
X1853593Y2024351D02*
X1930506D01*
X1853593Y2023451D02*
X1930506D01*
X1853593Y2022551D02*
X1930506D01*
X1853593Y2021651D02*
X1930506D01*
X1853593Y2020751D02*
X1930506D01*
X1853593Y2019851D02*
X1930506D01*
X1853593Y2018951D02*
X1930506D01*
X1853593Y2018051D02*
X1930506D01*
X1853593Y2017151D02*
X1930506D01*
X1853593Y2016251D02*
X1930506D01*
X1853593Y2015351D02*
X1930506D01*
X1853593Y2014451D02*
X1930506D01*
X1853593Y2013551D02*
X1930506D01*
X1853593Y2012651D02*
X1930506D01*
X1853593Y2011751D02*
X1930506D01*
X1853593Y2010851D02*
X1930506D01*
X1853593Y2009951D02*
X1930506D01*
X1853593Y2009051D02*
X1930506D01*
X1853593Y2008151D02*
X1930506D01*
X1853593Y2007251D02*
X1930506D01*
X1853593Y2006351D02*
X1930506D01*
X1853593Y2005451D02*
X1930506D01*
X1853593Y2004551D02*
X1930506D01*
X1853593Y2003651D02*
X1930506D01*
X1853593Y2002751D02*
X1930506D01*
X1853593Y2001851D02*
X1930506D01*
X1853593Y2000951D02*
X1930506D01*
X1853593Y2000051D02*
X1930506D01*
X1853593Y1999151D02*
X1930506D01*
X1853593Y1998251D02*
X1930506D01*
X1853593Y1997351D02*
X1930506D01*
X1853593Y1996451D02*
X1930506D01*
X1853593Y1995551D02*
X1930506D01*
X1853593Y1994651D02*
X1930506D01*
X1853593Y1993751D02*
X1930506D01*
X1853593Y1992851D02*
X1930506D01*
X1853593Y1991951D02*
X1930506D01*
X1853593Y1991051D02*
X1930506D01*
X1853593Y1990151D02*
X1930506D01*
X1853593Y1989251D02*
X1930506D01*
X1853593Y1988351D02*
X1930506D01*
X1853593Y1987451D02*
X1930506D01*
X1853593Y1986551D02*
X1930506D01*
X1853593Y1985651D02*
X1930506D01*
X1853593Y1984751D02*
X1930506D01*
X1853593Y1927151D02*
X1930422D01*
X1853593Y1976651D02*
X1930143D01*
X1853593Y1928051D02*
X1930076D01*
X1853593Y1975751D02*
X1930013D01*
X1853593Y1974851D02*
X1930013D01*
X1853593Y1973951D02*
X1930013D01*
X1853593Y1973051D02*
X1930013D01*
X1853593Y1972151D02*
X1930013D01*
X1853593Y1971251D02*
X1930013D01*
X1853593Y1970351D02*
X1930013D01*
X1853593Y1969451D02*
X1930013D01*
X1853593Y1968551D02*
X1930013D01*
X1853593Y1967651D02*
X1930013D01*
X1853593Y1966751D02*
X1930013D01*
X1853593Y1965851D02*
X1930013D01*
X1853593Y1964951D02*
X1930013D01*
X1853593Y1964051D02*
X1930013D01*
X1853593Y1963151D02*
X1930013D01*
X1853593Y1962251D02*
X1930013D01*
X1853593Y1961351D02*
X1930013D01*
X1853593Y1960451D02*
X1930013D01*
X1853593Y1959551D02*
X1930013D01*
X1853593Y1958651D02*
X1930013D01*
X1853593Y1957751D02*
X1930013D01*
X1853593Y1956851D02*
X1930013D01*
X1853593Y1955951D02*
X1930013D01*
X1853593Y1955051D02*
X1930013D01*
X1853593Y1954151D02*
X1930013D01*
X1853593Y1953251D02*
X1930013D01*
X1853593Y1952351D02*
X1930013D01*
X1853593Y1951451D02*
X1930013D01*
X1853593Y1950551D02*
X1930013D01*
X1853593Y1949651D02*
X1930013D01*
X1853593Y1948751D02*
X1930013D01*
X1853593Y1947851D02*
X1930013D01*
X1853593Y1946951D02*
X1930013D01*
X1853593Y1946051D02*
X1930013D01*
X1853593Y1945151D02*
X1930013D01*
X1853593Y1944251D02*
X1930013D01*
X1853593Y1943351D02*
X1930013D01*
X1853593Y1942451D02*
X1930013D01*
X1853593Y1941551D02*
X1930013D01*
X1853593Y1940651D02*
X1930013D01*
X1853593Y1939751D02*
X1930013D01*
X1853593Y1938851D02*
X1930013D01*
X1853593Y1937951D02*
X1930013D01*
X1853593Y1937051D02*
X1930013D01*
X1853593Y1936151D02*
X1930013D01*
X1853593Y1935251D02*
X1930013D01*
X1853593Y1934351D02*
X1930013D01*
X1853593Y1933451D02*
X1930013D01*
X1853593Y1932551D02*
X1930013D01*
X1853593Y1931651D02*
X1930013D01*
X1853593Y1930751D02*
X1930013D01*
X1853593Y1929851D02*
X1930013D01*
X1853593Y1928951D02*
X1930013D01*
X1850763Y2076666D02*
X2144088D01*
Y1888518*
X1850763*
Y2076666*
G54D16*
X1992500Y1967500D02*
X1999724Y1974724D01*
X2067491*
X2101413*
X2060000Y1967500D02*
X2067224Y1974724D01*
X2067491*
X2067500Y1984961D02*
X2004724D01*
X1995000Y1994685*
Y1995000*
X2067500Y1992500D02*
Y1984961D01*
X2101413*
G54D17*
X1992500Y1967500D03*
X2060000D03*
X1995000Y1995000D03*
X2067500Y1992500D03*
G54D18*
X2071212Y1996212D02*
X2069445Y1994445D01*
X2071212Y1988788D02*
X2069445Y1990555D01*
X2063788Y1996212D02*
X2065555Y1994445D01*
X2063788Y1988788D02*
X2065555Y1990555D01*
X1998712Y1998712D02*
X1996945Y1996945D01*
X1998712Y1991288D02*
X1996945Y1993055D01*
X1991288Y1998712D02*
X1993055Y1996945D01*
X1991288Y1991288D02*
X1993055Y1993055D01*
X2063712Y1971212D02*
X2061945Y1969445D01*
X2063712Y1963788D02*
X2061945Y1965555D01*
X2056288Y1971212D02*
X2058055Y1969445D01*
X2056288Y1963788D02*
X2058055Y1965555D01*
X1996212Y1971212D02*
X1994445Y1969445D01*
X1996212Y1963788D02*
X1994445Y1965555D01*
X1988788Y1971212D02*
X1990555Y1969445D01*
X1988788Y1963788D02*
X1990555Y1965555D01*
G74*
X0Y0D02*
M02*
