*
*
G04 PADS VX.2.11 Build Number: 20124196 generated Gerber (RS-274-X) file*
G04 PC Version=2.1*
*
%IN "test6.pcb"*%
*
%MOIN*%
*
%FSLAX35Y35*%
*
*
*
*
G04 PC Standard Apertures*
*
*
G04 Thermal Relief Aperture macro.*
%AMTER*
1,1,$1,0,0*
1,0,$1-$2,0,0*
21,0,$3,$4,0,0,45*
21,0,$3,$4,0,0,135*
%
*
*
G04 Annular Aperture macro.*
%AMANN*
1,1,$1,0,0*
1,0,$2,0,0*
%
*
*
G04 Odd Aperture macro.*
%AMODD*
1,1,$1,0,0*
1,0,$1-0.005,0,0*
%
*
*
G04 PC Custom Aperture Macros*
*
*
*
*
*
*
G04 PC Aperture Table*
*
%ADD010C,0.001*%
%ADD014ANN,0.07087X0.03937*%
%ADD015C,0.01*%
%ADD016C,0.03*%
%ADD017C,0.055*%
%ADD018C,0.015*%
*
*
*
*
G04 PC Circuitry*
G04 Layer Name test6.pcb - circuitry*
%LPD*%
*
*
G04 PC Custom Flashes*
G04 Layer Name test6.pcb - flashes*
%LPD*%
*
*
G04 PC Circuitry*
G04 Layer Name test6.pcb - circuitry*
%LPD*%
*
G54D10*
G54D14*
G01X2104882Y1974724D03*
Y1984961D03*
G54D15*
X2065250Y1967500D02*
G75*
G03X2065250I-5250J0D01*
G01X1997750D02*
G03X1997750I-5250J0D01*
G01X2072750Y1992500D02*
G03X2072750I-5250J0D01*
G01X2000250Y1995000D02*
G03X2000250I-5250J0D01*
G01X1858386Y1924508D02*
G03X1858886Y1924008I500J-0D01*
G01X2127374*
G03X2127874Y1924508I0J500*
G01Y1975097*
G03X2127374Y1975597I-500J-0*
G01X2111415*
G03X2110915Y1975068I-0J-500*
G01X2110925Y1974724D02*
G03X2110915Y1975068I-6043J0D01*
G01X2098839Y1974724D02*
G03X2110925I6043J0D01*
G01X2098848Y1975068D02*
G03X2098839Y1974724I6034J-344D01*
G01X2098848Y1975068D02*
G03X2098349Y1975597I-499J29D01*
G01X1858886*
G03X1858386Y1975097I0J-500*
G01Y1924508*
X1859434Y1984849D02*
G03X1859934Y1984349I500J0D01*
G01X2098340*
G03X2098840Y1984849I-0J500*
X2098839Y1984858I-500J-0*
G01X2110924D02*
G03X2098839I-6042J103D01*
G01X2110924D02*
G03Y1984849I500J-9D01*
X2111424Y1984349I500J0*
G01X2126746*
G03X2127246Y1984849I-0J500*
G01Y2038371*
G03X2126746Y2038871I-500J0*
G01X1859934*
G03X1859434Y2038371I-0J-500*
G01Y1984849*
X2065250Y1967500D02*
G03X2065250I-5250J0D01*
G01X1997750D02*
G03X1997750I-5250J0D01*
G01X2072750Y1992500D02*
G03X2072750I-5250J0D01*
G01X2000250Y1995000D02*
G03X2000250I-5250J0D01*
G01X2110917Y1974406D02*
X2127874D01*
X2110801Y1973506D02*
X2127874D01*
X2110542Y1972606D02*
X2127874D01*
X2110118Y1971706D02*
X2127874D01*
X2109483Y1970806D02*
X2127874D01*
X2108530Y1969906D02*
X2127874D01*
X2106838Y1969006D02*
X2127874D01*
X2065215Y1968106D02*
X2127874D01*
X2065242Y1967206D02*
X2127874D01*
X2065113Y1966306D02*
X2127874D01*
X2064815Y1965406D02*
X2127874D01*
X2064313Y1964506D02*
X2127874D01*
X2063522Y1963606D02*
X2127874D01*
X2062141Y1962706D02*
X2127874D01*
X1858386Y1961806D02*
X2127874D01*
X1858386Y1960906D02*
X2127874D01*
X1858386Y1960006D02*
X2127874D01*
X1858386Y1959106D02*
X2127874D01*
X1858386Y1958206D02*
X2127874D01*
X1858386Y1957306D02*
X2127874D01*
X1858386Y1956406D02*
X2127874D01*
X1858386Y1955506D02*
X2127874D01*
X1858386Y1954606D02*
X2127874D01*
X1858386Y1953706D02*
X2127874D01*
X1858386Y1952806D02*
X2127874D01*
X1858386Y1951906D02*
X2127874D01*
X1858386Y1951006D02*
X2127874D01*
X1858386Y1950106D02*
X2127874D01*
X1858386Y1949206D02*
X2127874D01*
X1858386Y1948306D02*
X2127874D01*
X1858386Y1947406D02*
X2127874D01*
X1858386Y1946506D02*
X2127874D01*
X1858386Y1945606D02*
X2127874D01*
X1858386Y1944706D02*
X2127874D01*
X1858386Y1943806D02*
X2127874D01*
X1858386Y1942906D02*
X2127874D01*
X1858386Y1942006D02*
X2127874D01*
X1858386Y1941106D02*
X2127874D01*
X1858386Y1940206D02*
X2127874D01*
X1858386Y1939306D02*
X2127874D01*
X1858386Y1938406D02*
X2127874D01*
X1858386Y1937506D02*
X2127874D01*
X1858386Y1936606D02*
X2127874D01*
X1858386Y1935706D02*
X2127874D01*
X1858386Y1934806D02*
X2127874D01*
X1858386Y1933906D02*
X2127874D01*
X1858386Y1933006D02*
X2127874D01*
X1858386Y1932106D02*
X2127874D01*
X1858386Y1931206D02*
X2127874D01*
X1858386Y1930306D02*
X2127874D01*
X1858386Y1929406D02*
X2127874D01*
X1858386Y1928506D02*
X2127874D01*
X1858386Y1927606D02*
X2127874D01*
X1858386Y1926706D02*
X2127874D01*
X1858386Y1925806D02*
X2127874D01*
X1858386Y1924906D02*
X2127874D01*
X2110961Y1975306D02*
X2127828D01*
X2065029Y1969006D02*
X2102926D01*
X2064666Y1969906D02*
X2101234D01*
X2064078Y1970806D02*
X2100281D01*
X2063141Y1971706D02*
X2099646D01*
X2061219Y1972606D02*
X2099222D01*
X1858386Y1973506D02*
X2098963D01*
X1858386Y1974406D02*
X2098847D01*
X1858432Y1975306D02*
X2098803D01*
X1993719Y1972606D02*
X2058781D01*
X1994641Y1962706D02*
X2057859D01*
X1995641Y1971706D02*
X2056859D01*
X1996022Y1963606D02*
X2056478D01*
X1996578Y1970806D02*
X2055922D01*
X1996813Y1964506D02*
X2055687D01*
X1997166Y1969906D02*
X2055334D01*
X1997315Y1965406D02*
X2055185D01*
X1997529Y1969006D02*
X2054971D01*
X1997613Y1966306D02*
X2054887D01*
X1997715Y1968106D02*
X2054785D01*
X1997742Y1967206D02*
X2054758D01*
X1858386Y1972606D02*
X1991281D01*
X1858386Y1962706D02*
X1990359D01*
X1858386Y1971706D02*
X1989359D01*
X1858386Y1963606D02*
X1988978D01*
X1858386Y1970806D02*
X1988422D01*
X1858386Y1964506D02*
X1988187D01*
X1858386Y1969906D02*
X1987834D01*
X1858386Y1965406D02*
X1987685D01*
X1858386Y1969006D02*
X1987471D01*
X1858386Y1966306D02*
X1987387D01*
X1858386Y1968106D02*
X1987285D01*
X1858386Y1967206D02*
X1987258D01*
X1859434Y2038348D02*
X2127246D01*
X1859434Y2037448D02*
X2127246D01*
X1859434Y2036548D02*
X2127246D01*
X1859434Y2035648D02*
X2127246D01*
X1859434Y2034748D02*
X2127246D01*
X1859434Y2033848D02*
X2127246D01*
X1859434Y2032948D02*
X2127246D01*
X1859434Y2032048D02*
X2127246D01*
X1859434Y2031148D02*
X2127246D01*
X1859434Y2030248D02*
X2127246D01*
X1859434Y2029348D02*
X2127246D01*
X1859434Y2028448D02*
X2127246D01*
X1859434Y2027548D02*
X2127246D01*
X1859434Y2026648D02*
X2127246D01*
X1859434Y2025748D02*
X2127246D01*
X1859434Y2024848D02*
X2127246D01*
X1859434Y2023948D02*
X2127246D01*
X1859434Y2023048D02*
X2127246D01*
X1859434Y2022148D02*
X2127246D01*
X1859434Y2021248D02*
X2127246D01*
X1859434Y2020348D02*
X2127246D01*
X1859434Y2019448D02*
X2127246D01*
X1859434Y2018548D02*
X2127246D01*
X1859434Y2017648D02*
X2127246D01*
X1859434Y2016748D02*
X2127246D01*
X1859434Y2015848D02*
X2127246D01*
X1859434Y2014948D02*
X2127246D01*
X1859434Y2014048D02*
X2127246D01*
X1859434Y2013148D02*
X2127246D01*
X1859434Y2012248D02*
X2127246D01*
X1859434Y2011348D02*
X2127246D01*
X1859434Y2010448D02*
X2127246D01*
X1859434Y2009548D02*
X2127246D01*
X1859434Y2008648D02*
X2127246D01*
X1859434Y2007748D02*
X2127246D01*
X1859434Y2006848D02*
X2127246D01*
X1859434Y2005948D02*
X2127246D01*
X1859434Y2005048D02*
X2127246D01*
X1859434Y2004148D02*
X2127246D01*
X1859434Y2003248D02*
X2127246D01*
X1859434Y2002348D02*
X2127246D01*
X1859434Y2001448D02*
X2127246D01*
X1859434Y2000548D02*
X2127246D01*
X1997442Y1999648D02*
X2127246D01*
X1998677Y1998748D02*
X2127246D01*
X1999411Y1997848D02*
X2127246D01*
X2070289Y1996948D02*
X2127246D01*
X2071370Y1996048D02*
X2127246D01*
X2072033Y1995148D02*
X2127246D01*
X2072451Y1994248D02*
X2127246D01*
X2072681Y1993348D02*
X2127246D01*
X2072750Y1992448D02*
X2127246D01*
X2072663Y1991548D02*
X2127246D01*
X2106926Y1990648D02*
X2127246D01*
X2108570Y1989748D02*
X2127246D01*
X2109509Y1988848D02*
X2127246D01*
X2110135Y1987948D02*
X2127246D01*
X2110553Y1987048D02*
X2127246D01*
X2110807Y1986148D02*
X2127246D01*
X2110918Y1985248D02*
X2127246D01*
X2072412Y1990648D02*
X2102838D01*
X2071971Y1989748D02*
X2101193D01*
X2071271Y1988848D02*
X2100255D01*
X2070115Y1987948D02*
X2099628D01*
X1859434Y1987048D02*
X2099210D01*
X1859434Y1986148D02*
X2098956D01*
X1859434Y1985248D02*
X2098845D01*
X1859434Y1987948D02*
X2064885D01*
X1999875Y1996948D02*
X2064711D01*
X1859434Y1988848D02*
X2063729D01*
X2000144Y1996048D02*
X2063630D01*
X1859434Y1989748D02*
X2063029D01*
X2000248Y1995148D02*
X2062967D01*
X1997936Y1990648D02*
X2062588D01*
X2000196Y1994248D02*
X2062549D01*
X1998955Y1991548D02*
X2062337D01*
X1999983Y1993348D02*
X2062319D01*
X1999588Y1992448D02*
X2062250D01*
X1859434Y1999648D02*
X1992558D01*
X1859434Y1990648D02*
X1992064D01*
X1859434Y1998748D02*
X1991323D01*
X1859434Y1991548D02*
X1991045D01*
X1859434Y1997848D02*
X1990589D01*
X1859434Y1992448D02*
X1990412D01*
X1859434Y1996948D02*
X1990125D01*
X1859434Y1993348D02*
X1990017D01*
X1859434Y1996048D02*
X1989856D01*
X1859434Y1994248D02*
X1989804D01*
X1859434Y1995148D02*
X1989752D01*
X1848960Y2079080D02*
X2145667D01*
Y1886648*
X1848960*
Y2079080*
G54D16*
X1992500Y1967500D02*
X1999724Y1974724D01*
X2067491*
X2101413*
X2060000Y1967500D02*
X2067224Y1974724D01*
X2067491*
X2067500Y1984961D02*
X2004724D01*
X1995000Y1994685*
Y1995000*
X2067500Y1992500D02*
Y1984961D01*
X2101413*
G54D17*
X1992500Y1967500D03*
X2060000D03*
X1995000Y1995000D03*
X2067500Y1992500D03*
G54D18*
X2063712Y1971212D02*
X2061945Y1969445D01*
X2063712Y1963788D02*
X2061945Y1965555D01*
X2056288Y1971212D02*
X2058055Y1969445D01*
X2056288Y1963788D02*
X2058055Y1965555D01*
X1996212Y1971212D02*
X1994445Y1969445D01*
X1996212Y1963788D02*
X1994445Y1965555D01*
X1988788Y1971212D02*
X1990555Y1969445D01*
X1988788Y1963788D02*
X1990555Y1965555D01*
X2071212Y1996212D02*
X2069445Y1994445D01*
X2071212Y1988788D02*
X2069445Y1990555D01*
X2063788Y1996212D02*
X2065555Y1994445D01*
X2063788Y1988788D02*
X2065555Y1990555D01*
X1998712Y1998712D02*
X1996945Y1996945D01*
X1998712Y1991288D02*
X1996945Y1993055D01*
X1991288Y1998712D02*
X1993055Y1996945D01*
X1991288Y1991288D02*
X1993055Y1993055D01*
G74*
X0Y0D02*
M02*
