*
*
G04 PADS VX.2.11 Build Number: 20124196 generated Gerber (RS-274-X) file*
G04 PC Version=2.1*
*
%IN "test6.pcb"*%
*
%MOIN*%
*
%FSLAX35Y35*%
*
*
*
*
G04 PC Standard Apertures*
*
*
G04 Thermal Relief Aperture macro.*
%AMTER*
1,1,$1,0,0*
1,0,$1-$2,0,0*
21,0,$3,$4,0,0,45*
21,0,$3,$4,0,0,135*
%
*
*
G04 Annular Aperture macro.*
%AMANN*
1,1,$1,0,0*
1,0,$2,0,0*
%
*
*
G04 Odd Aperture macro.*
%AMODD*
1,1,$1,0,0*
1,0,$1-0.005,0,0*
%
*
*
G04 PC Custom Aperture Macros*
*
*
*
*
*
*
G04 PC Aperture Table*
*
%ADD010C,0.001*%
%ADD015C,0.01*%
*
*
*
*
G04 PC Circuitry*
G04 Layer Name test6.pcb - circuitry*
%LPD*%
*
*
G04 PC Custom Flashes*
G04 Layer Name test6.pcb - flashes*
%LPD*%
*
*
G04 PC Circuitry*
G04 Layer Name test6.pcb - circuitry*
%LPD*%
*
G54D10*
G54D15*
G01X1869737Y1928200D02*
Y1921638D01*
Y1928200D02*
X1871328D01*
X1872009Y1927888*
X1872464Y1927263*
X1872691Y1926638*
X1872918Y1925700*
Y1924138*
X1872691Y1923200*
X1872464Y1922575*
X1872009Y1921950*
X1871328Y1921638*
X1869737*
X1874964Y1924138D02*
X1877691D01*
Y1924763*
X1877464Y1925388*
X1877237Y1925700*
X1876782Y1926013*
X1876100*
X1875646Y1925700*
X1875191Y1925075*
X1874964Y1924138*
Y1923513*
X1875191Y1922575*
X1875646Y1921950*
X1876100Y1921638*
X1876782*
X1877237Y1921950*
X1877691Y1922575*
X1882237Y1925075D02*
X1882009Y1925700D01*
X1881328Y1926013*
X1880646*
X1879964Y1925700*
X1879737Y1925075*
X1879964Y1924450*
X1880418Y1924138*
X1881555Y1923825*
X1882009Y1923513*
X1882237Y1922888*
Y1922575*
X1882009Y1921950*
X1881328Y1921638*
X1880646*
X1879964Y1921950*
X1879737Y1922575*
X1884282Y1928200D02*
X1884509Y1927888D01*
X1884737Y1928200*
X1884509Y1928513*
X1884282Y1928200*
X1884509Y1926013D02*
Y1921638D01*
X1889509Y1926013D02*
Y1921013D01*
X1889282Y1920075*
X1889055Y1919763*
X1888600Y1919450*
X1887918*
X1887464Y1919763*
X1889509Y1925075D02*
X1889055Y1925700D01*
X1888600Y1926013*
X1887918*
X1887464Y1925700*
X1887009Y1925075*
X1886782Y1924138*
Y1923513*
X1887009Y1922575*
X1887464Y1921950*
X1887918Y1921638*
X1888600*
X1889055Y1921950*
X1889509Y1922575*
X1891555Y1926013D02*
Y1921638D01*
Y1924763D02*
X1892237Y1925700D01*
X1892691Y1926013*
X1893373*
X1893828Y1925700*
X1894055Y1924763*
Y1921638*
X1896100Y1924138D02*
X1898828D01*
Y1924763*
X1898600Y1925388*
X1898373Y1925700*
X1897918Y1926013*
X1897237*
X1896782Y1925700*
X1896328Y1925075*
X1896100Y1924138*
Y1923513*
X1896328Y1922575*
X1896782Y1921950*
X1897237Y1921638*
X1897918*
X1898373Y1921950*
X1898828Y1922575*
X1903600Y1928200D02*
Y1921638D01*
Y1925075D02*
X1903146Y1925700D01*
X1902691Y1926013*
X1902009*
X1901555Y1925700*
X1901100Y1925075*
X1900873Y1924138*
Y1923513*
X1901100Y1922575*
X1901555Y1921950*
X1902009Y1921638*
X1902691*
X1903146Y1921950*
X1903600Y1922575*
X1910873Y1928200D02*
Y1921638D01*
Y1925075D02*
X1911328Y1925700D01*
X1911782Y1926013*
X1912464*
X1912918Y1925700*
X1913373Y1925075*
X1913600Y1924138*
Y1923513*
X1913373Y1922575*
X1912918Y1921950*
X1912464Y1921638*
X1911782*
X1911328Y1921950*
X1910873Y1922575*
X1915873Y1926013D02*
X1917237Y1921638D01*
X1918600Y1926013D02*
X1917237Y1921638D01*
X1916782Y1920388*
X1916328Y1919763*
X1915873Y1919450*
X1915646*
X1920873Y1926013D02*
X1920646Y1925700D01*
X1920873Y1925388*
X1921100Y1925700*
X1920873Y1926013*
Y1922263D02*
X1920646Y1921950D01*
X1920873Y1921638*
X1921100Y1921950*
X1920873Y1922263*
X1870478Y1913540D02*
X1868660Y1906977D01*
X1870478Y1913540D02*
X1872296Y1906977D01*
X1869342Y1909165D02*
X1871614D01*
X1874342Y1913540D02*
Y1906977D01*
X1879114Y1913540D02*
Y1906977D01*
Y1910415D02*
X1878660Y1911040D01*
X1878205Y1911352*
X1877523*
X1877069Y1911040*
X1876614Y1910415*
X1876387Y1909477*
Y1908852*
X1876614Y1907915*
X1877069Y1907290*
X1877523Y1906977*
X1878205*
X1878660Y1907290*
X1879114Y1907915*
X1881160Y1911352D02*
Y1908227D01*
X1881387Y1907290*
X1881842Y1906977*
X1882523*
X1882978Y1907290*
X1883660Y1908227*
Y1911352D02*
Y1906977D01*
X1885705Y1913540D02*
Y1906977D01*
X1890478Y1911352D02*
Y1906977D01*
Y1910415D02*
X1890023Y1911040D01*
X1889569Y1911352*
X1888887*
X1888432Y1911040*
X1887978Y1910415*
X1887751Y1909477*
Y1908852*
X1887978Y1907915*
X1888432Y1907290*
X1888887Y1906977*
X1889569*
X1890023Y1907290*
X1890478Y1907915*
X1892523Y1913540D02*
X1892751Y1913227D01*
X1892978Y1913540*
X1892751Y1913852*
X1892523Y1913540*
X1892751Y1911352D02*
Y1906977D01*
X1895023Y1911352D02*
Y1906977D01*
Y1910102D02*
X1895705Y1911040D01*
X1896160Y1911352*
X1896842*
X1897296Y1911040*
X1897523Y1910102*
Y1906977*
Y1910102D02*
X1898205Y1911040D01*
X1898660Y1911352*
X1899342*
X1899796Y1911040*
X1900023Y1910102*
Y1906977*
X1902069Y1913540D02*
X1902296Y1913227D01*
X1902523Y1913540*
X1902296Y1913852*
X1902069Y1913540*
X1902296Y1911352D02*
Y1906977D01*
X1911614Y1913540D02*
X1909796Y1906977D01*
X1911614Y1913540D02*
X1913432Y1906977D01*
X1910478Y1909165D02*
X1912751D01*
X1915478Y1913540D02*
Y1906977D01*
X1917523Y1913540D02*
X1917751Y1913227D01*
X1917978Y1913540*
X1917751Y1913852*
X1917523Y1913540*
X1917751Y1911352D02*
Y1906977D01*
X2100882Y1970724D02*
X2108882Y1978724D01*
X2100882D02*
X2108882Y1970724D01*
X2100882Y1980961D02*
X2108882Y1988961D01*
X2100882D02*
X2108882Y1980961D01*
X1988500Y1967500D02*
X1996500D01*
X1992500Y1963500D02*
Y1971500D01*
X2056000Y1967500D02*
X2064000D01*
X2060000Y1963500D02*
Y1971500D01*
X1991000Y1995000D02*
X1999000D01*
X1995000Y1991000D02*
Y1999000D01*
X2063500Y1992500D02*
X2071500D01*
X2067500Y1988500D02*
Y1996500D01*
X1848960Y2079080D02*
X2145667D01*
Y1886648*
X1848960*
Y2079080*
X2185537Y1958148D02*
X2443537D01*
X2185537Y1934148D02*
X2443537D01*
X2185537Y1910148D02*
X2443537D01*
X2185537Y1886148D02*
X2443537D01*
X2185537Y1958148D02*
Y1886148D01*
X2269537Y1958148D02*
Y1886148D01*
X2305537Y1958148D02*
Y1886148D01*
X2341537Y1958148D02*
Y1886148D01*
X2395537Y1958148D02*
Y1886148D01*
X2443537Y1958148D02*
Y1886148D01*
X2221037Y1946898D02*
X2220491Y1947648D01*
X2219673Y1948023*
X2218582*
X2217764Y1947648*
X2217219Y1946898*
Y1946148*
X2217491Y1945398*
X2217764Y1945023*
X2218310Y1944648*
X2219946Y1943898*
X2220491Y1943523*
X2220764Y1943148*
X2221037Y1942398*
Y1941273*
X2220491Y1940523*
X2219673Y1940148*
X2218582*
X2217764Y1940523*
X2217219Y1941273*
X2223491Y1948023D02*
Y1940148D01*
X2229764Y1948023D02*
X2225946Y1940148D01*
Y1948023D02*
X2229764D01*
X2225946Y1940148D02*
X2229764D01*
X2232219Y1948023D02*
Y1940148D01*
Y1948023D02*
X2235764D01*
X2232219Y1944273D02*
X2234400D01*
X2232219Y1940148D02*
X2235764D01*
X2279400Y1948023D02*
X2278855Y1947648D01*
X2278310Y1946898*
X2278037Y1946148*
X2277764Y1945023*
Y1943148*
X2278037Y1942023*
X2278310Y1941273*
X2278855Y1940523*
X2279400Y1940148*
X2280491*
X2281037Y1940523*
X2281582Y1941273*
X2281855Y1942023*
X2282128Y1943148*
Y1945023*
X2281855Y1946148*
X2281582Y1946898*
X2281037Y1947648*
X2280491Y1948023*
X2279400*
X2280219Y1941648D02*
X2281855Y1939398D01*
X2286491Y1948023D02*
Y1940148D01*
X2284582Y1948023D02*
X2288400D01*
X2290855D02*
X2293037Y1944273D01*
Y1940148*
X2295219Y1948023D02*
X2293037Y1944273D01*
X2317582Y1946898D02*
X2317037Y1947648D01*
X2316219Y1948023*
X2315128*
X2314310Y1947648*
X2313764Y1946898*
Y1946148*
X2314037Y1945398*
X2314310Y1945023*
X2314855Y1944648*
X2316491Y1943898*
X2317037Y1943523*
X2317310Y1943148*
X2317582Y1942398*
Y1941273*
X2317037Y1940523*
X2316219Y1940148*
X2315128*
X2314310Y1940523*
X2313764Y1941273*
X2320037Y1948023D02*
X2322219Y1944273D01*
Y1940148*
X2324400Y1948023D02*
X2322219Y1944273D01*
X2326855Y1948023D02*
Y1940148D01*
Y1948023D02*
X2329037Y1940148D01*
X2331219Y1948023D02*
X2329037Y1940148D01*
X2331219Y1948023D02*
Y1940148D01*
X2353037Y1948023D02*
Y1940148D01*
Y1948023D02*
X2355491D01*
X2356310Y1947648*
X2356582Y1947273*
X2356855Y1946523*
Y1945398*
X2356582Y1944648*
X2356310Y1944273*
X2355491Y1943898*
X2353037*
X2359310Y1948023D02*
Y1940148D01*
X2362582*
X2367219Y1948023D02*
X2365037Y1940148D01*
X2367219Y1948023D02*
X2369400Y1940148D01*
X2365855Y1942773D02*
X2368582D01*
X2373764Y1948023D02*
Y1940148D01*
X2371855Y1948023D02*
X2375673D01*
X2378128D02*
Y1940148D01*
Y1948023D02*
X2381673D01*
X2378128Y1944273D02*
X2380310D01*
X2378128Y1940148D02*
X2381673D01*
X2384128Y1948023D02*
Y1940148D01*
Y1948023D02*
X2386037D01*
X2386855Y1947648*
X2387400Y1946898*
X2387673Y1946148*
X2387946Y1945023*
Y1943148*
X2387673Y1942023*
X2387400Y1941273*
X2386855Y1940523*
X2386037Y1940148*
X2384128*
X2412219Y1948023D02*
Y1940148D01*
X2410310Y1948023D02*
X2414128D01*
X2418219D02*
X2417673Y1947648D01*
X2417128Y1946898*
X2416855Y1946148*
X2416582Y1945023*
Y1943148*
X2416855Y1942023*
X2417128Y1941273*
X2417673Y1940523*
X2418219Y1940148*
X2419310*
X2419855Y1940523*
X2420400Y1941273*
X2420673Y1942023*
X2420946Y1943148*
Y1945023*
X2420673Y1946148*
X2420400Y1946898*
X2419855Y1947648*
X2419310Y1948023*
X2418219*
X2423400D02*
Y1940148D01*
X2426673*
X2192082Y1924023D02*
X2195082D01*
X2193446Y1921023*
X2194264*
X2194810Y1920648*
X2195082Y1920273*
X2195355Y1919148*
Y1918398*
X2195082Y1917273*
X2194537Y1916523*
X2193719Y1916148*
X2192900*
X2192082Y1916523*
X2191810Y1916898*
X2191537Y1917648*
X2201628Y1924023D02*
X2198900Y1916148D01*
X2197810Y1924023D02*
X2201628D01*
X2287173D02*
X2284446Y1918773D01*
X2288537*
X2287173Y1924023D02*
Y1916148D01*
X2317537Y1922148D02*
X2329537D01*
X2323537Y1916148D02*
Y1928148D01*
X2350173Y1924023D02*
X2352355Y1920273D01*
Y1916148*
X2354537Y1924023D02*
X2352355Y1920273D01*
X2356991Y1924023D02*
Y1916148D01*
Y1924023D02*
X2360537D01*
X2356991Y1920273D02*
X2359173D01*
X2356991Y1916148D02*
X2360537D01*
X2366810Y1922898D02*
X2366264Y1923648D01*
X2365446Y1924023*
X2364355*
X2363537Y1923648*
X2362991Y1922898*
Y1922148*
X2363264Y1921398*
X2363537Y1921023*
X2364082Y1920648*
X2365719Y1919898*
X2366264Y1919523*
X2366537Y1919148*
X2366810Y1918398*
Y1917273*
X2366264Y1916523*
X2365446Y1916148*
X2364355*
X2363537Y1916523*
X2362991Y1917273*
X2403355Y1922898D02*
Y1916148D01*
X2400900Y1919523D02*
X2405810D01*
X2413173Y1925523D02*
X2408264Y1913523D01*
X2415628Y1919523D02*
X2420537D01*
X2424628Y1924023D02*
X2423810Y1923648D01*
X2423264Y1922523*
X2422991Y1920648*
Y1919523*
X2423264Y1917648*
X2423810Y1916523*
X2424628Y1916148*
X2425173*
X2425991Y1916523*
X2426537Y1917648*
X2426810Y1919523*
Y1920648*
X2426537Y1922523*
X2425991Y1923648*
X2425173Y1924023*
X2424628*
X2429537Y1916898D02*
X2429264Y1916523D01*
X2429537Y1916148*
X2429810Y1916523*
X2429537Y1916898*
X2433900Y1924023D02*
X2433082Y1923648D01*
X2432537Y1922523*
X2432264Y1920648*
Y1919523*
X2432537Y1917648*
X2433082Y1916523*
X2433900Y1916148*
X2434446*
X2435264Y1916523*
X2435810Y1917648*
X2436082Y1919523*
Y1920648*
X2435810Y1922523*
X2435264Y1923648*
X2434446Y1924023*
X2433900*
X2192082Y1900023D02*
X2195082D01*
X2193446Y1897023*
X2194264*
X2194810Y1896648*
X2195082Y1896273*
X2195355Y1895148*
Y1894398*
X2195082Y1893273*
X2194537Y1892523*
X2193719Y1892148*
X2192900*
X2192082Y1892523*
X2191810Y1892898*
X2191537Y1893648*
X2201355Y1897398D02*
X2201082Y1896273D01*
X2200537Y1895523*
X2199719Y1895148*
X2199446*
X2198628Y1895523*
X2198082Y1896273*
X2197810Y1897398*
Y1897773*
X2198082Y1898898*
X2198628Y1899648*
X2199446Y1900023*
X2199719*
X2200537Y1899648*
X2201082Y1898898*
X2201355Y1897398*
Y1895523*
X2201082Y1893648*
X2200537Y1892523*
X2199719Y1892148*
X2199173*
X2198355Y1892523*
X2198082Y1893273*
X2204082Y1892898D02*
X2203810Y1892523D01*
X2204082Y1892148*
X2204355Y1892523*
X2204082Y1892898*
X2207355Y1900023D02*
X2210355D01*
X2208719Y1897023*
X2209537*
X2210082Y1896648*
X2210355Y1896273*
X2210628Y1895148*
Y1894398*
X2210355Y1893273*
X2209810Y1892523*
X2208991Y1892148*
X2208173*
X2207355Y1892523*
X2207082Y1892898*
X2206810Y1893648*
X2216900Y1900023D02*
X2214173Y1892148D01*
X2213082Y1900023D02*
X2216900D01*
X2284855Y1898148D02*
Y1898523D01*
X2285128Y1899273*
X2285400Y1899648*
X2285946Y1900023*
X2287037*
X2287582Y1899648*
X2287855Y1899273*
X2288128Y1898523*
Y1897773*
X2287855Y1897023*
X2287310Y1895898*
X2284582Y1892148*
X2288400*
X2317537D02*
X2329537Y1904148D01*
X2317537D02*
X2329537Y1892148D01*
X2350173Y1900023D02*
X2352355Y1896273D01*
Y1892148*
X2354537Y1900023D02*
X2352355Y1896273D01*
X2356991Y1900023D02*
Y1892148D01*
Y1900023D02*
X2360537D01*
X2356991Y1896273D02*
X2359173D01*
X2356991Y1892148D02*
X2360537D01*
X2366810Y1898898D02*
X2366264Y1899648D01*
X2365446Y1900023*
X2364355*
X2363537Y1899648*
X2362991Y1898898*
Y1898148*
X2363264Y1897398*
X2363537Y1897023*
X2364082Y1896648*
X2365719Y1895898*
X2366264Y1895523*
X2366537Y1895148*
X2366810Y1894398*
Y1893273*
X2366264Y1892523*
X2365446Y1892148*
X2364355*
X2363537Y1892523*
X2362991Y1893273*
X2403355Y1898898D02*
Y1892148D01*
X2400900Y1895523D02*
X2405810D01*
X2413173Y1901523D02*
X2408264Y1889523D01*
X2415628Y1895523D02*
X2420537D01*
X2424628Y1900023D02*
X2423810Y1899648D01*
X2423264Y1898523*
X2422991Y1896648*
Y1895523*
X2423264Y1893648*
X2423810Y1892523*
X2424628Y1892148*
X2425173*
X2425991Y1892523*
X2426537Y1893648*
X2426810Y1895523*
Y1896648*
X2426537Y1898523*
X2425991Y1899648*
X2425173Y1900023*
X2424628*
X2429537Y1892898D02*
X2429264Y1892523D01*
X2429537Y1892148*
X2429810Y1892523*
X2429537Y1892898*
X2433900Y1900023D02*
X2433082Y1899648D01*
X2432537Y1898523*
X2432264Y1896648*
Y1895523*
X2432537Y1893648*
X2433082Y1892523*
X2433900Y1892148*
X2434446*
X2435264Y1892523*
X2435810Y1893648*
X2436082Y1895523*
Y1896648*
X2435810Y1898523*
X2435264Y1899648*
X2434446Y1900023*
X2433900*
X0Y0D02*
M02*
