*
*
G04 PADS VX.2.11 Build Number: 20124196 generated Gerber (RS-274-X) file*
G04 PC Version=2.1*
*
%IN "test6.pcb"*%
*
%MOIN*%
*
%FSLAX35Y35*%
*
*
*
*
G04 PC Standard Apertures*
*
*
G04 Thermal Relief Aperture macro.*
%AMTER*
1,1,$1,0,0*
1,0,$1-$2,0,0*
21,0,$3,$4,0,0,45*
21,0,$3,$4,0,0,135*
%
*
*
G04 Annular Aperture macro.*
%AMANN*
1,1,$1,0,0*
1,0,$2,0,0*
%
*
*
G04 Odd Aperture macro.*
%AMODD*
1,1,$1,0,0*
1,0,$1-0.005,0,0*
%
*
*
G04 PC Custom Aperture Macros*
*
*
*
*
*
*
G04 PC Aperture Table*
*
%ADD010C,0.001*%
%ADD015C,0.01*%
%ADD024C,0.006*%
%ADD025C,0.005*%
*
*
*
*
G04 PC Circuitry*
G04 Layer Name test6.pcb - circuitry*
%LPD*%
*
*
G04 PC Custom Flashes*
G04 Layer Name test6.pcb - flashes*
%LPD*%
*
*
G04 PC Circuitry*
G04 Layer Name test6.pcb - circuitry*
%LPD*%
*
G54D10*
G54D15*
G01X2082970Y1923387D02*
X2067220D01*
Y1906487*
X2082970*
X2100470Y1923387D02*
X2112970D01*
X2116220Y1920187*
Y1909687*
X2112970Y1906487*
X2100470*
X1876250Y2015000D02*
X1868200D01*
Y2005000*
X1876250*
X1883750Y2015000D02*
X1891800D01*
Y2005000*
X1883750*
X1916250Y2015000D02*
X1908200D01*
Y2005000*
X1916250*
X1923750Y2015000D02*
X1931800D01*
Y2005000*
X1923750*
X2096250Y2015000D02*
X2088200D01*
Y2005000*
X2096250*
X2103750Y2015000D02*
X2111800D01*
Y2005000*
X2103750*
X1876393Y2058583D02*
X1860643D01*
X1860643D02*
Y2041683D01*
X1860643D02*
X1876393D01*
X1893893Y2058583D02*
X1906393D01*
X1906393D02*
X1909643Y2055383D01*
X1909643D02*
Y2044883D01*
X1909643D02*
X1906393Y2041683D01*
X1906393D02*
X1893893D01*
X1916343Y1993721D02*
X1908293D01*
Y1983721*
X1916343*
X1923843Y1993721D02*
X1931893D01*
Y1983721*
X1923843*
X2087893Y1940399D02*
Y1935399D01*
X2087665Y1934462*
X2087438Y1934149*
X2086984Y1933837*
X2086529*
X2086075Y1934149*
X2085847Y1934462*
X2085620Y1935399*
Y1936024*
X2089938Y1939149D02*
X2090393Y1939462D01*
X2091075Y1940399*
Y1933837*
X1875273Y2031563D02*
Y2026563D01*
X1875273D02*
X1875045Y2025625D01*
X1874818Y2025313*
X1874818D02*
X1874364Y2025000D01*
X1873909*
X1873455Y2025313*
X1873455D02*
X1873227Y2025625D01*
X1873000Y2026563*
X1873000D02*
Y2027188D01*
X1877773Y2031563D02*
X1880273D01*
X1880273D02*
X1878909Y2029063D01*
X1878909D02*
X1879591D01*
X1879591D02*
X1880045Y2028750D01*
X1880273Y2028438*
X1880273D02*
X1880500Y2027500D01*
Y2026875*
X1880273Y2025938*
X1880273D02*
X1879818Y2025313D01*
X1879818D02*
X1879136Y2025000D01*
X1878455*
X1877773Y2025313*
X1877773D02*
X1877545Y2025625D01*
X1877318Y2026250*
X1913000Y2031563D02*
Y2025000D01*
Y2031563D02*
X1915045D01*
X1915045D02*
X1915727Y2031250D01*
X1915955Y2030938*
X1915955D02*
X1916182Y2030313D01*
X1916182D02*
Y2029688D01*
X1916182D02*
X1915955Y2029063D01*
X1915955D02*
X1915727Y2028750D01*
X1915045Y2028438*
X1915045D02*
X1913000D01*
X1914591D02*
X1916182Y2025000D01*
X1918455Y2030000D02*
Y2030313D01*
X1918455D02*
X1918682Y2030938D01*
X1918682D02*
X1918909Y2031250D01*
X1919364Y2031563*
X1919364D02*
X1920273D01*
X1920273D02*
X1920727Y2031250D01*
X1920955Y2030938*
X1920955D02*
X1921182Y2030313D01*
X1921182D02*
Y2029688D01*
X1921182D02*
X1920955Y2029063D01*
X1920955D02*
X1920500Y2028125D01*
X1918227Y2025000*
X1921409*
X2095273Y2031563D02*
Y2026563D01*
X2095273D02*
X2095045Y2025625D01*
X2094818Y2025313*
X2094818D02*
X2094364Y2025000D01*
X2093909*
X2093455Y2025313*
X2093455D02*
X2093227Y2025625D01*
X2093000Y2026563*
X2093000D02*
Y2027188D01*
X2100273Y2031563D02*
X2098000D01*
X2098000D02*
X2097773Y2028750D01*
X2098000Y2029063*
X2098000D02*
X2098682Y2029375D01*
X2099364*
X2100045Y2029063*
X2100045D02*
X2100500Y2028438D01*
X2100500D02*
X2100727Y2027500D01*
X2100500Y2026875*
X2100273Y2025938*
X2100273D02*
X2099818Y2025313D01*
X2099818D02*
X2099136Y2025000D01*
X2098455*
X2097773Y2025313*
X2097773D02*
X2097545Y2025625D01*
X2097318Y2026250*
X1881316Y2075595D02*
Y2070595D01*
X1881089Y2069658*
X1880862Y2069345*
X1880407Y2069033*
X1879953*
X1879498Y2069345*
X1879271Y2069658*
X1879043Y2070595*
X1879043D02*
Y2071220D01*
X1886089Y2074658D02*
X1885862Y2075283D01*
X1885180Y2075595*
X1884725*
X1884043Y2075283*
X1884043D02*
X1883589Y2074345D01*
X1883362Y2072783*
Y2071220*
X1883589Y2069970*
X1884043Y2069345*
X1884043D02*
X1884725Y2069033D01*
X1884953*
X1885634Y2069345*
X1886089Y2069970*
X1886316Y2070908*
Y2071220*
X1886089Y2072158*
X1885634Y2072783*
X1884953Y2073095*
X1884725*
X1884043Y2072783*
X1884043D02*
X1883589Y2072158D01*
X1883362Y2071220*
X1848960Y2079080D02*
X2145667D01*
Y1886648*
X1848960*
Y2079080*
G54D24*
X2055748Y2011811D02*
Y1988189D01*
X2024646*
Y2011811*
X2055748*
X2059136Y1992520D02*
G75*
G03X2059136I-1419J0D01*
G01X2055748Y1961811D02*
Y1938189D01*
X2024646*
Y1961811*
X2055748*
X2059136Y1942520D02*
G03X2059136I-1419J0D01*
G01X1985748Y2011811D02*
Y1988189D01*
X1954646*
Y2011811*
X1985748*
X1989136Y1992520D02*
G03X1989136I-1419J0D01*
G01X1985748Y1961811D02*
Y1938189D01*
X1954646*
Y1961811*
X1985748*
X1989136Y1942520D02*
G03X1989136I-1419J0D01*
G54D25*
G01X2111136Y1973281D02*
Y1970781D01*
X2111023Y1970313*
X2111023D02*
X2110909Y1970156D01*
X2110682Y1970000*
X2110455*
X2110227Y1970156*
X2110114Y1970313*
X2110114D02*
X2110000Y1970781D01*
Y1971094*
X2113295Y1973281D02*
X2112159Y1971094D01*
X2113864*
X2113295Y1973281D02*
Y1970000D01*
X1921230Y1992002D02*
Y1989502D01*
X1921116Y1989033*
X1921002Y1988877*
X1920775Y1988721*
X1920548*
X1920321Y1988877*
X1920207Y1989033*
X1920093Y1989502*
Y1989815*
X1922366Y1991221D02*
Y1991377D01*
X1922480Y1991690*
X1922593Y1991846*
X1922821Y1992002*
X1923275*
X1923502Y1991846*
X1923616Y1991690*
X1923730Y1991377*
Y1991065*
X1923616Y1990752*
X1923389Y1990283*
X1922252Y1988721*
X1923843*
G74*
X0Y0D02*
M02*
