*
*
G04 PADS VX.2.11 Build Number: 20124196 generated Gerber (RS-274-X) file*
G04 PC Version=2.1*
*
%IN "test6.pcb"*%
*
%MOIN*%
*
%FSLAX35Y35*%
*
*
*
*
G04 PC Standard Apertures*
*
*
G04 Thermal Relief Aperture macro.*
%AMTER*
1,1,$1,0,0*
1,0,$1-$2,0,0*
21,0,$3,$4,0,0,45*
21,0,$3,$4,0,0,135*
%
*
*
G04 Annular Aperture macro.*
%AMANN*
1,1,$1,0,0*
1,0,$2,0,0*
%
*
*
G04 Odd Aperture macro.*
%AMODD*
1,1,$1,0,0*
1,0,$1-0.005,0,0*
%
*
*
G04 PC Custom Aperture Macros*
*
*
*
*
*
*
G04 PC Aperture Table*
*
%ADD010C,0.001*%
%ADD011R,0.063X0.024*%
%ADD012R,0.12X0.095*%
%ADD013R,0.06X0.06*%
%ADD014ANN,0.07087X0.03937*%
%ADD015C,0.01*%
%ADD016C,0.03*%
%ADD017C,0.055*%
*
*
*
*
G04 PC Circuitry*
G04 Layer Name test6.pcb - circuitry*
%LPD*%
*
*
G04 PC Custom Flashes*
G04 Layer Name test6.pcb - flashes*
%LPD*%
*
*
G04 PC Circuitry*
G04 Layer Name test6.pcb - circuitry*
%LPD*%
*
G54D10*
G54D11*
G01X2050630Y1992520D03*
Y1997520D03*
Y2002520D03*
Y2007520D03*
X2029370D03*
Y2002520D03*
Y1997520D03*
Y1992520D03*
X2050630Y1942520D03*
Y1947520D03*
Y1952520D03*
Y1957520D03*
X2029370D03*
Y1952520D03*
Y1947520D03*
Y1942520D03*
X1980630Y1992520D03*
Y1997520D03*
Y2002520D03*
Y2007520D03*
X1959370D03*
Y2002520D03*
Y1997520D03*
Y1992520D03*
X1980630Y1942520D03*
Y1947520D03*
Y1952520D03*
Y1957520D03*
X1959370D03*
Y1952520D03*
Y1947520D03*
Y1942520D03*
G54D12*
X2106470Y1914937D03*
X2076970D03*
X1899893Y2050133D03*
X1870393D03*
G54D13*
X1873250Y2010000D03*
X1886750D03*
X1913250D03*
X1926750D03*
X2093250D03*
X2106750D03*
X1913343Y1988721D03*
X1926843D03*
G54D14*
X2104882Y1974724D03*
Y1984961D03*
G54D15*
X1869737Y1928200D02*
Y1921638D01*
Y1928200D02*
X1871328D01*
X1872009Y1927888*
X1872464Y1927263*
X1872691Y1926638*
X1872918Y1925700*
Y1924138*
X1872691Y1923200*
X1872464Y1922575*
X1872009Y1921950*
X1871328Y1921638*
X1869737*
X1874964Y1924138D02*
X1877691D01*
Y1924763*
X1877464Y1925388*
X1877237Y1925700*
X1876782Y1926013*
X1876100*
X1875646Y1925700*
X1875191Y1925075*
X1874964Y1924138*
Y1923513*
X1875191Y1922575*
X1875646Y1921950*
X1876100Y1921638*
X1876782*
X1877237Y1921950*
X1877691Y1922575*
X1882237Y1925075D02*
X1882009Y1925700D01*
X1881328Y1926013*
X1880646*
X1879964Y1925700*
X1879737Y1925075*
X1879964Y1924450*
X1880418Y1924138*
X1881555Y1923825*
X1882009Y1923513*
X1882237Y1922888*
Y1922575*
X1882009Y1921950*
X1881328Y1921638*
X1880646*
X1879964Y1921950*
X1879737Y1922575*
X1884282Y1928200D02*
X1884509Y1927888D01*
X1884737Y1928200*
X1884509Y1928513*
X1884282Y1928200*
X1884509Y1926013D02*
Y1921638D01*
X1889509Y1926013D02*
Y1921013D01*
X1889282Y1920075*
X1889055Y1919763*
X1888600Y1919450*
X1887918*
X1887464Y1919763*
X1889509Y1925075D02*
X1889055Y1925700D01*
X1888600Y1926013*
X1887918*
X1887464Y1925700*
X1887009Y1925075*
X1886782Y1924138*
Y1923513*
X1887009Y1922575*
X1887464Y1921950*
X1887918Y1921638*
X1888600*
X1889055Y1921950*
X1889509Y1922575*
X1891555Y1926013D02*
Y1921638D01*
Y1924763D02*
X1892237Y1925700D01*
X1892691Y1926013*
X1893373*
X1893828Y1925700*
X1894055Y1924763*
Y1921638*
X1896100Y1924138D02*
X1898828D01*
Y1924763*
X1898600Y1925388*
X1898373Y1925700*
X1897918Y1926013*
X1897237*
X1896782Y1925700*
X1896328Y1925075*
X1896100Y1924138*
Y1923513*
X1896328Y1922575*
X1896782Y1921950*
X1897237Y1921638*
X1897918*
X1898373Y1921950*
X1898828Y1922575*
X1903600Y1928200D02*
Y1921638D01*
Y1925075D02*
X1903146Y1925700D01*
X1902691Y1926013*
X1902009*
X1901555Y1925700*
X1901100Y1925075*
X1900873Y1924138*
Y1923513*
X1901100Y1922575*
X1901555Y1921950*
X1902009Y1921638*
X1902691*
X1903146Y1921950*
X1903600Y1922575*
X1910873Y1928200D02*
Y1921638D01*
Y1925075D02*
X1911328Y1925700D01*
X1911782Y1926013*
X1912464*
X1912918Y1925700*
X1913373Y1925075*
X1913600Y1924138*
Y1923513*
X1913373Y1922575*
X1912918Y1921950*
X1912464Y1921638*
X1911782*
X1911328Y1921950*
X1910873Y1922575*
X1915873Y1926013D02*
X1917237Y1921638D01*
X1918600Y1926013D02*
X1917237Y1921638D01*
X1916782Y1920388*
X1916328Y1919763*
X1915873Y1919450*
X1915646*
X1920873Y1926013D02*
X1920646Y1925700D01*
X1920873Y1925388*
X1921100Y1925700*
X1920873Y1926013*
Y1922263D02*
X1920646Y1921950D01*
X1920873Y1921638*
X1921100Y1921950*
X1920873Y1922263*
X1870478Y1913540D02*
X1868660Y1906977D01*
X1870478Y1913540D02*
X1872296Y1906977D01*
X1869342Y1909165D02*
X1871614D01*
X1874342Y1913540D02*
Y1906977D01*
X1879114Y1913540D02*
Y1906977D01*
Y1910415D02*
X1878660Y1911040D01*
X1878205Y1911352*
X1877523*
X1877069Y1911040*
X1876614Y1910415*
X1876387Y1909477*
Y1908852*
X1876614Y1907915*
X1877069Y1907290*
X1877523Y1906977*
X1878205*
X1878660Y1907290*
X1879114Y1907915*
X1881160Y1911352D02*
Y1908227D01*
X1881387Y1907290*
X1881842Y1906977*
X1882523*
X1882978Y1907290*
X1883660Y1908227*
Y1911352D02*
Y1906977D01*
X1885705Y1913540D02*
Y1906977D01*
X1890478Y1911352D02*
Y1906977D01*
Y1910415D02*
X1890023Y1911040D01*
X1889569Y1911352*
X1888887*
X1888432Y1911040*
X1887978Y1910415*
X1887751Y1909477*
Y1908852*
X1887978Y1907915*
X1888432Y1907290*
X1888887Y1906977*
X1889569*
X1890023Y1907290*
X1890478Y1907915*
X1892523Y1913540D02*
X1892751Y1913227D01*
X1892978Y1913540*
X1892751Y1913852*
X1892523Y1913540*
X1892751Y1911352D02*
Y1906977D01*
X1895023Y1911352D02*
Y1906977D01*
Y1910102D02*
X1895705Y1911040D01*
X1896160Y1911352*
X1896842*
X1897296Y1911040*
X1897523Y1910102*
Y1906977*
Y1910102D02*
X1898205Y1911040D01*
X1898660Y1911352*
X1899342*
X1899796Y1911040*
X1900023Y1910102*
Y1906977*
X1902069Y1913540D02*
X1902296Y1913227D01*
X1902523Y1913540*
X1902296Y1913852*
X1902069Y1913540*
X1902296Y1911352D02*
Y1906977D01*
X1911614Y1913540D02*
X1909796Y1906977D01*
X1911614Y1913540D02*
X1913432Y1906977D01*
X1910478Y1909165D02*
X1912751D01*
X1915478Y1913540D02*
Y1906977D01*
X1917523Y1913540D02*
X1917751Y1913227D01*
X1917978Y1913540*
X1917751Y1913852*
X1917523Y1913540*
X1917751Y1911352D02*
Y1906977D01*
X2031750Y1998217D02*
X2022848D01*
X2021740Y1997108*
Y1953017*
X2022615Y1952142*
X2035220*
Y1998083*
X2031750*
Y1998217*
X2022672Y1998041D02*
X2035220D01*
X2021772Y1997141D02*
X2035220D01*
X2021740Y1996241D02*
X2035220D01*
X2021740Y1995341D02*
X2035220D01*
X2021740Y1994441D02*
X2035220D01*
X2021740Y1993541D02*
X2035220D01*
X2021740Y1992641D02*
X2035220D01*
X2021740Y1991741D02*
X2035220D01*
X2021740Y1990841D02*
X2035220D01*
X2021740Y1989941D02*
X2035220D01*
X2021740Y1989041D02*
X2035220D01*
X2021740Y1988141D02*
X2035220D01*
X2021740Y1987241D02*
X2035220D01*
X2021740Y1986341D02*
X2035220D01*
X2021740Y1985441D02*
X2035220D01*
X2021740Y1984541D02*
X2035220D01*
X2021740Y1983641D02*
X2035220D01*
X2021740Y1982741D02*
X2035220D01*
X2021740Y1981841D02*
X2035220D01*
X2021740Y1980941D02*
X2035220D01*
X2021740Y1980041D02*
X2035220D01*
X2021740Y1979141D02*
X2035220D01*
X2021740Y1978241D02*
X2035220D01*
X2021740Y1977341D02*
X2035220D01*
X2021740Y1976441D02*
X2035220D01*
X2021740Y1975541D02*
X2035220D01*
X2021740Y1974641D02*
X2035220D01*
X2021740Y1973741D02*
X2035220D01*
X2021740Y1972841D02*
X2035220D01*
X2021740Y1971941D02*
X2035220D01*
X2021740Y1971041D02*
X2035220D01*
X2021740Y1970141D02*
X2035220D01*
X2021740Y1969241D02*
X2035220D01*
X2021740Y1968341D02*
X2035220D01*
X2021740Y1967441D02*
X2035220D01*
X2021740Y1966541D02*
X2035220D01*
X2021740Y1965641D02*
X2035220D01*
X2021740Y1964741D02*
X2035220D01*
X2021740Y1963841D02*
X2035220D01*
X2021740Y1962941D02*
X2035220D01*
X2021740Y1962041D02*
X2035220D01*
X2021740Y1961141D02*
X2035220D01*
X2021740Y1960241D02*
X2035220D01*
X2021740Y1959341D02*
X2035220D01*
X2021740Y1958441D02*
X2035220D01*
X2021740Y1957541D02*
X2035220D01*
X2021740Y1956641D02*
X2035220D01*
X2021740Y1955741D02*
X2035220D01*
X2021740Y1954841D02*
X2035220D01*
X2021740Y1953941D02*
X2035220D01*
X2021740Y1953041D02*
X2035220D01*
X1924326Y1994721D02*
G75*
G03X1924826Y1994221I500J-0D01*
G01X1929843*
X1929918Y1994220D02*
G03X1929843Y1994221I-75J-2499D01*
G01X1929918Y1994220D02*
G03X1930433Y1994720I15J500D01*
G01Y2004006*
G03X1929902Y2004505I-500J-0*
G01X1929750Y2004500D02*
G03X1929902Y2004505I0J2500D01*
G01X1929750Y2004500D02*
X1924826D01*
G03X1924326Y2004000I-0J-500*
G01Y1994721*
X2022872Y1954663D02*
G03X2023847Y1954506I500J0D01*
G01X2023967Y1954803D02*
G03X2023847Y1954506I2253J-1083D01*
G01X2023967Y1954803D02*
G03Y1955236I-451J217D01*
G01X2023847Y1955533D02*
G03X2023967Y1955236I2373J787D01*
G01X2023847Y1955533D02*
G03X2022872Y1955376I-475J-157D01*
G01Y1954663*
X1862116Y1959474D02*
G03X1862616Y1958974I500J0D01*
G01X1915914*
G03X1916414Y1959474I-0J500*
G01Y1982721*
G03X1915914Y1983221I-500J-0*
G01X1910343*
X1907843Y1985721D02*
G03X1910343Y1983221I2500J-0D01*
G01X1907843Y1985721D02*
Y1991721D01*
X1910343Y1994221D02*
G03X1907843Y1991721I0J-2500D01*
G01X1910343Y1994221D02*
X1915914D01*
G03X1916414Y1994721I-0J500*
G01Y2004000*
G03X1915914Y2004500I-500J0*
G01X1910250*
X1907750Y2007000D02*
G03X1910250Y2004500I2500J0D01*
G01X1907750Y2007000D02*
Y2013000D01*
X1910250Y2015500D02*
G03X1907750Y2013000I0J-2500D01*
G01X1910250Y2015500D02*
X1915914D01*
G03X1916414Y2016000I-0J500*
G01Y2021131*
G03X1915914Y2021631I-500J0*
G01X1862616*
G03X1862116Y2021131I0J-500*
G01Y1959474*
X1935418Y1935684D02*
G03X1935918Y1935184I500J-0D01*
G01X1965264*
G03X1965764Y1935684I-0J500*
G01Y1940106*
G03X1964806Y1940308I-500J0*
G01X1962520Y1938820D02*
G03X1964806Y1940308I0J2500D01*
G01X1962520Y1938820D02*
X1956220D01*
X1953720Y1941320D02*
G03X1956220Y1938820I2500J-0D01*
G01X1953720Y1941320D02*
Y1943720D01*
X1953967Y1944803D02*
G03X1953720Y1943720I2253J-1083D01*
G01X1953967Y1944803D02*
G03Y1945236I-451J217D01*
G01X1953720Y1946320D02*
G03X1953967Y1945236I2500J-0D01*
G01X1953720Y1946320D02*
Y1947990D01*
G03X1953220Y1948490I-500J0*
G01X1945688*
X1945188Y1948990D02*
G03X1945688Y1948490I500J0D01*
G01X1945188Y1948990D02*
Y2002037D01*
X1945688Y2002537D02*
G03X1945188Y2002037I-0J-500D01*
G01X1945688Y2002537D02*
X1953220D01*
G03X1953720Y2003037I0J500*
G01Y2003720*
X1953967Y2004803D02*
G03X1953720Y2003720I2253J-1083D01*
G01X1953967Y2004803D02*
G03Y2005236I-451J217D01*
G01X1953720Y2006320D02*
G03X1953967Y2005236I2500J-0D01*
G01X1953720Y2006320D02*
Y2008271D01*
G03X1953220Y2008771I-500J0*
G01X1935918*
G03X1935418Y2008271I-0J-500*
G01Y1935684*
X1951653Y1952080D02*
G03X1952153Y1951580I500J-0D01*
G01X1953220*
G03X1953720Y1952080I0J500*
G01Y1953720*
X1953967Y1954803D02*
G03X1953720Y1953720I2253J-1083D01*
G01X1953967Y1954803D02*
G03Y1955236I-451J217D01*
G01X1953720Y1956320D02*
G03X1953967Y1955236I2500J-0D01*
G01X1953720Y1956320D02*
Y1958720D01*
X1956220Y1961220D02*
G03X1953720Y1958720I0J-2500D01*
G01X1956220Y1961220D02*
X1962520D01*
X1965020Y1958720D02*
G03X1962520Y1961220I-2500J-0D01*
G01X1965020Y1958720D02*
Y1956320D01*
X1964773Y1955236D02*
G03X1965020Y1956320I-2253J1084D01*
G01X1964773Y1955236D02*
G03Y1954803I451J-216D01*
G01X1965020Y1953720D02*
G03X1964773Y1954803I-2500J-0D01*
G01X1965020Y1953720D02*
Y1952080D01*
G03X1965520Y1951580I500J-0*
G01X1965585*
G03X1966085Y1952080I0J500*
G01Y1997728*
G03X1965764Y1998195I-500J-0*
G01X1965731Y1998208D02*
G03X1965764Y1998195I211J454D01*
G01X1965731Y1998208D02*
G03X1965020Y1997755I-211J-453D01*
G01Y1996320*
X1964773Y1995236D02*
G03X1965020Y1996320I-2253J1084D01*
G01X1964773Y1995236D02*
G03Y1994803I451J-216D01*
G01X1965020Y1993720D02*
G03X1964773Y1994803I-2500J-0D01*
G01X1965020Y1993720D02*
Y1991320D01*
X1962520Y1988820D02*
G03X1965020Y1991320I0J2500D01*
G01X1962520Y1988820D02*
X1956220D01*
X1953720Y1991320D02*
G03X1956220Y1988820I2500J-0D01*
G01X1953720Y1991320D02*
Y1993720D01*
X1953967Y1994803D02*
G03X1953720Y1993720I2253J-1083D01*
G01X1953967Y1994803D02*
G03Y1995236I-451J217D01*
G01X1953720Y1996320D02*
G03X1953967Y1995236I2500J-0D01*
G01X1953720Y1996320D02*
Y1997822D01*
G03X1953220Y1998322I-500J0*
G01X1952153*
G03X1951653Y1997822I0J-500*
G01Y1952080*
X1977373Y1928611D02*
G03X1977873Y1928111I500J-0D01*
G01X2062138*
G03X2062492Y1928257I0J500*
G01X2096226Y1961991*
G03X2096372Y1962345I-354J354*
G01Y1994321*
X2096519Y1994675D02*
G03X2096372Y1994321I353J-354D01*
G01X2096519Y1994675D02*
X2099372Y1997528D01*
X2099726Y1997675D02*
G03X2099372Y1997528I-0J-500D01*
G01X2099726Y1997675D02*
X2123119D01*
G03X2123619Y1998175I0J500*
G01Y2018077*
G03X2123119Y2018577I-500J-0*
G01X2112798*
G03X2112430Y2018416I-0J-500*
G01X2112063Y2018255D02*
G03X2112430Y2018416I0J500D01*
G01X2112063Y2018255D02*
X2085793D01*
G03X2085439Y2018109I-0J-500*
G01X2083614Y2016283*
G03X2083468Y2015930I354J-353*
G01Y1977121*
X2083321Y1976768D02*
G03X2083468Y1977121I-353J353D01*
G01X2083321Y1976768D02*
X2061057Y1954504D01*
X2060704Y1954358D02*
G03X2061057Y1954504I-0J500D01*
G01X2060704Y1954358D02*
X2057444D01*
G03X2056944Y1953858I-0J-500*
G01Y1943525*
X2056612Y1943054D02*
G03X2056944Y1943525I-168J471D01*
G01X2056612Y1943054D02*
G03X2056280Y1942583I168J-471D01*
G01Y1941320*
X2053780Y1938820D02*
G03X2056280Y1941320I-0J2500D01*
G01X2053780Y1938820D02*
X2047480D01*
X2044980Y1941320D02*
G03X2047480Y1938820I2500J-0D01*
G01X2044980Y1941320D02*
Y1942525D01*
G03X2044480Y1943025I-500J-0*
G01X2043459*
G03X2042959Y1942525I-0J-500*
G01Y1937256*
X2042459Y1936756D02*
G03X2042959Y1937256I-0J500D01*
G01X2042459Y1936756D02*
X2010791D01*
X2010438Y1936902D02*
G03X2010791Y1936756I353J354D01*
G01X2010438Y1936902D02*
X1992887Y1954452D01*
G03X1992534Y1954599I-353J-353*
G01X1986875*
G03X1986375Y1954099I0J-500*
G01Y1944007*
X1986327Y1943794D02*
G03X1986375Y1944007I-452J213D01*
G01X1986328Y1943794D02*
G03X1986280Y1943581I452J-213D01*
G01Y1941320*
X1983780Y1938820D02*
G03X1986280Y1941320I-0J2500D01*
G01X1983780Y1938820D02*
X1977873D01*
G03X1977373Y1938320I0J-500*
G01Y1928611*
X2011700Y1944032D02*
G03X2011847Y1943678I500J-0D01*
G01X2014074Y1941451*
G03X2014428Y1941305I354J354*
G01X2023220*
G03X2023720Y1941805I0J500*
G01Y1943720*
X2023967Y1944803D02*
G03X2023720Y1943720I2253J-1083D01*
G01X2023967Y1944803D02*
G03Y1945236I-451J217D01*
G01X2023720Y1946320D02*
G03X2023967Y1945236I2500J-0D01*
G01X2023720Y1946320D02*
Y1947842D01*
G03X2023220Y1948342I-500J0*
G01X2017389*
X2016889Y1948842D02*
G03X2017389Y1948342I500J0D01*
G01X2016889Y1948842D02*
Y2001246D01*
X2017389Y2001746D02*
G03X2016889Y2001246I0J-500D01*
G01X2017389Y2001746D02*
X2023220D01*
G03X2023720Y2002246I0J500*
G01Y2003720*
X2023967Y2004803D02*
G03X2023720Y2003720I2253J-1083D01*
G01X2023967Y2004803D02*
G03Y2005236I-451J217D01*
G01X2023720Y2006320D02*
G03X2023967Y2005236I2500J-0D01*
G01X2023720Y2006320D02*
Y2008726D01*
G03X2023220Y2009226I-500J-0*
G01X2018165*
G03X2017811Y2009079I-0J-500*
G01X2011847Y2003115*
G03X2011700Y2002761I353J-354*
G01Y1944032*
X1921719Y1994243D02*
G03X1922489Y1993823I500J-0D01*
G01X1923843Y1994221D02*
G03X1922489Y1993823I0J-2500D01*
G01X1923843Y1994221D02*
X1929843D01*
X1930886Y1993993D02*
G03X1929843Y1994221I-1043J-2272D01*
G01X1930886Y1993993D02*
G03X1931595Y1994447I209J454D01*
G01Y2004318*
G03X1930871Y2004765I-500J0*
G01X1929750Y2004500D02*
G03X1930871Y2004765I-0J2500D01*
G01X1929750Y2004500D02*
X1923750D01*
X1922474Y2004850D02*
G03X1923750Y2004500I1276J2150D01*
G01X1922474Y2004850D02*
G03X1921719Y2004420I-255J-430D01*
G01Y1994243*
Y2015580D02*
G03X1922474Y2015150I500J-0D01*
G01X1923750Y2015500D02*
G03X1922474Y2015150I0J-2500D01*
G01X1923750Y2015500D02*
X1929750D01*
X1932004Y2014081D02*
G03X1929750Y2015500I-2254J-1081D01*
G01X1932004Y2014081D02*
G03X1932775Y2013914I451J217D01*
G01X1933096Y2014030D02*
G03X1932775Y2013914I-0J-500D01*
G01X1933096Y2014030D02*
X1986076D01*
X1986576Y2013530D02*
G03X1986076Y2014030I-500J-0D01*
G01X1986576Y2013530D02*
Y2002586D01*
G03X1987076Y2002086I500J0*
G01X2000956*
X2001309Y2001940D02*
G03X2000956Y2002086I-353J-354D01*
G01X2001309Y2001940D02*
X2003911Y1999337D01*
X2004058Y1998984D02*
G03X2003911Y1999337I-500J-0D01*
G01X2004058Y1998984D02*
Y1989509D01*
X2003911Y1989155D02*
G03X2004058Y1989509I-353J354D01*
G01X2003911Y1989155D02*
X2002443Y1987687D01*
X2001736D02*
G03X2002443I354J354D01*
G01X2001736D02*
X2001629Y1987795D01*
G03X2001275Y1987941I-354J-354*
G01X1993682*
X1993329Y1988088D02*
G03X1993682Y1987941I353J353D01*
G01X1993329Y1988088D02*
X1990552Y1990864D01*
G03X1990199Y1991010I-353J-354*
G01X1986669*
G03X1986187Y1990645I-0J-500*
G01X1983780Y1988820D02*
G03X1986187Y1990645I-0J2500D01*
G01X1983780Y1988820D02*
X1977480D01*
X1977025Y1988862D02*
G03X1977480Y1988820I455J2458D01*
G01X1977025Y1988862D02*
G03X1976434Y1988370I-91J-492D01*
G01Y1981434*
G03X1976934Y1980934I500J0*
G01X2005679*
G03X2006033Y1981080I0J500*
G01X2007182Y1982230*
G03X2007328Y1982583I-354J353*
G01Y2007258*
X2007475Y2007611D02*
G03X2007328Y2007258I353J-353D01*
G01X2007475Y2007611D02*
X2014414Y2014551D01*
X2014768Y2014697D02*
G03X2014414Y2014551I-0J-500D01*
G01X2014768Y2014697D02*
X2043614D01*
G03X2043743Y2014714I-0J500*
G01X2044775Y2014850D02*
G03X2043743Y2014714I0J-4000D01*
G01X2044775Y2014850D02*
X2049220D01*
X2050253Y2014714D02*
G03X2049220Y2014850I-1033J-3864D01*
G01X2050253Y2014714D02*
G03X2050382Y2014697I129J483D01*
G01X2058540*
X2059040Y2014197D02*
G03X2058540Y2014697I-500J0D01*
G01X2059040Y2014197D02*
Y2004589D01*
X2058540Y2004089D02*
G03X2059040Y2004589I-0J500D01*
G01X2058540Y2004089D02*
X2056871D01*
G03X2056371Y2003589I-0J-500*
G01Y2002020*
G03X2056871Y2001520I500J-0*
G01X2062576*
X2064521Y2001015D02*
G03X2062576Y2001520I-1945J-3495D01*
G01X2064521Y2001015D02*
G03X2064765Y2000952I244J437D01*
G01X2072385*
X2072885Y2000452D02*
G03X2072385Y2000952I-500J-0D01*
G01X2072885Y2000452D02*
Y1988608D01*
X2072739Y1988254D02*
G03X2072885Y1988608I-354J354D01*
G01X2072739Y1988254D02*
X2070904Y1986419D01*
X2070550Y1986273D02*
G03X2070904Y1986419I0J500D01*
G01X2070550Y1986273D02*
X2060208D01*
X2059854Y1986419D02*
G03X2060208Y1986273I354J354D01*
G01X2059854Y1986419D02*
X2056475Y1989798D01*
G03X2055732Y1989757I-353J-353*
G01X2053780Y1988820D02*
G03X2055732Y1989757I-0J2500D01*
G01X2053780Y1988820D02*
X2047480D01*
X2046965Y1988873D02*
G03X2047480Y1988820I515J2447D01*
G01X2046965Y1988873D02*
G03X2046362Y1988384I-103J-489D01*
G01Y1977430*
X2046362D02*
G03X2046862Y1976930I500J0D01*
G01X2046862D02*
X2076275D01*
X2076275D02*
G03X2076628Y1977077I-0J500D01*
G01X2077644Y1978093*
G03X2077790Y1978446I-354J353*
G01Y2042023*
G03X2077290Y2042523I-500J-0*
G01X1922219*
G03X1921719Y2042023I-0J-500*
G01Y2015580*
X1853407Y1894227D02*
G03X1853907Y1893727I500J-0D01*
G01X2140719*
G03X2141219Y1894227I0J500*
G01Y2073474*
G03X2140719Y2073974I-500J0*
G01X1853907*
G03X1853407Y2073474I0J-500*
G01Y1894227*
X1881250Y2007000D02*
Y2013000D01*
X1883750Y2015500D02*
G03X1881250Y2013000I0J-2500D01*
G01X1883750Y2015500D02*
X1889750D01*
X1892250Y2013000D02*
G03X1889750Y2015500I-2500J0D01*
G01X1892250Y2013000D02*
Y2007000D01*
X1889750Y2004500D02*
G03X1892250Y2007000I0J2500D01*
G01X1889750Y2004500D02*
X1883750D01*
X1881250Y2007000D02*
G03X1883750Y2004500I2500J0D01*
G01X1867750Y2007000D02*
Y2013000D01*
X1870250Y2015500D02*
G03X1867750Y2013000I0J-2500D01*
G01X1870250Y2015500D02*
X1876250D01*
X1878750Y2013000D02*
G03X1876250Y2015500I-2500J0D01*
G01X1878750Y2013000D02*
Y2007000D01*
X1876250Y2004500D02*
G03X1878750Y2007000I0J2500D01*
G01X1876250Y2004500D02*
X1870250D01*
X1867750Y2007000D02*
G03X1870250Y2004500I2500J0D01*
G01X2101250Y2007000D02*
Y2013000D01*
X2103750Y2015500D02*
G03X2101250Y2013000I0J-2500D01*
G01X2103750Y2015500D02*
X2109750D01*
X2112250Y2013000D02*
G03X2109750Y2015500I-2500J0D01*
G01X2112250Y2013000D02*
Y2007000D01*
X2109750Y2004500D02*
G03X2112250Y2007000I0J2500D01*
G01X2109750Y2004500D02*
X2103750D01*
X2101250Y2007000D02*
G03X2103750Y2004500I2500J0D01*
G01X2087750Y2007000D02*
Y2013000D01*
X2090250Y2015500D02*
G03X2087750Y2013000I0J-2500D01*
G01X2090250Y2015500D02*
X2096250D01*
X2098750Y2013000D02*
G03X2096250Y2015500I-2500J0D01*
G01X2098750Y2013000D02*
Y2007000D01*
X2096250Y2004500D02*
G03X2098750Y2007000I0J2500D01*
G01X2096250Y2004500D02*
X2090250D01*
X2087750Y2007000D02*
G03X2090250Y2004500I2500J0D01*
G01X2097970Y1910187D02*
Y1919687D01*
X2100470Y1922187D02*
G03X2097970Y1919687I0J-2500D01*
G01X2100470Y1922187D02*
X2112470D01*
X2114970Y1919687D02*
G03X2112470Y1922187I-2500J-0D01*
G01X2114970Y1919687D02*
Y1910187D01*
X2112470Y1907687D02*
G03X2114970Y1910187I0J2500D01*
G01X2112470Y1907687D02*
X2100470D01*
X2097970Y1910187D02*
G03X2100470Y1907687I2500J-0D01*
G01X2068470Y1910187D02*
Y1919687D01*
X2070970Y1922187D02*
G03X2068470Y1919687I0J-2500D01*
G01X2070970Y1922187D02*
X2082970D01*
X2085470Y1919687D02*
G03X2082970Y1922187I-2500J-0D01*
G01X2085470Y1919687D02*
Y1910187D01*
X2082970Y1907687D02*
G03X2085470Y1910187I0J2500D01*
G01X2082970Y1907687D02*
X2070970D01*
X2068470Y1910187D02*
G03X2070970Y1907687I2500J-0D01*
G01X1891393Y2045383D02*
Y2054883D01*
X1893893Y2057383D02*
G03X1891393Y2054883I0J-2500D01*
G01X1893893Y2057383D02*
X1905893D01*
X1908393Y2054883D02*
G03X1905893Y2057383I-2500J-0D01*
G01X1908393Y2054883D02*
Y2045383D01*
X1905893Y2042883D02*
G03X1908393Y2045383I0J2500D01*
G01X1905893Y2042883D02*
X1893893D01*
X1891393Y2045383D02*
G03X1893893Y2042883I2500J-0D01*
G01X1865660Y1904290D02*
Y1915290D01*
X1866758Y1917360D02*
G03X1865660Y1915290I1402J-2070D01*
G01X1866758Y1917360D02*
G03X1866977Y1917773I-281J413D01*
X1866937Y1917970I-500J0*
G01X1866737Y1918950D02*
G03X1866937Y1917970I2500J0D01*
G01X1866737Y1918950D02*
Y1929950D01*
X1869237Y1932450D02*
G03X1866737Y1929950I-0J-2500D01*
G01X1869237Y1932450D02*
X1922509D01*
X1925009Y1929950D02*
G03X1922509Y1932450I-2500J0D01*
G01X1925009Y1929950D02*
Y1918950D01*
X1922509Y1916450D02*
G03X1925009Y1918950I0J2500D01*
G01X1922509Y1916450D02*
X1922313D01*
G03X1921813Y1915950I0J-500*
X1921826Y1915840I500J0*
G01X1921887Y1915290D02*
G03X1921826Y1915840I-2500J-0D01*
G01X1921887Y1915290D02*
Y1904290D01*
X1919387Y1901790D02*
G03X1921887Y1904290I-0J2500D01*
G01X1919387Y1901790D02*
X1868160D01*
X1865660Y1904290D02*
G03X1868160Y1901790I2500J-0D01*
G01X1861893Y2045383D02*
Y2054883D01*
X1864393Y2057383D02*
G03X1861893Y2054883I0J-2500D01*
G01X1864393Y2057383D02*
X1876393D01*
X1878893Y2054883D02*
G03X1876393Y2057383I-2500J-0D01*
G01X1878893Y2054883D02*
Y2045383D01*
X1876393Y2042883D02*
G03X1878893Y2045383I0J2500D01*
G01X1876393Y2042883D02*
X1864393D01*
X1861893Y2045383D02*
G03X1864393Y2042883I2500J-0D01*
G01X1859116Y1958974D02*
Y2021631D01*
X1862116Y2024631D02*
G03X1859116Y2021631I0J-3000D01*
G01X1862116Y2024631D02*
X1916414D01*
X1917961Y2024201D02*
G03X1916414Y2024631I-1547J-2570D01*
G01X1917961Y2024201D02*
G03X1918719Y2024630I258J429D01*
G01Y2042523*
X1921719Y2045523D02*
G03X1918719Y2042523I-0J-3000D01*
G01X1921719Y2045523D02*
X2077790D01*
X2080790Y2042523D02*
G03X2077790Y2045523I-3000J-0D01*
G01X2080790Y2042523D02*
Y2018910D01*
G03X2081644Y2018556I500J-0*
G01X2083465Y2020377*
X2085586Y2021255D02*
G03X2083465Y2020377I-0J-3000D01*
G01X2085586Y2021255D02*
X2111065D01*
G03X2111274Y2021301I-0J500*
G01X2112530Y2021577D02*
G03X2111274Y2021301I0J-3000D01*
G01X2112530Y2021577D02*
X2123619D01*
X2126619Y2018577D02*
G03X2123619Y2021577I-3000J-0D01*
G01X2126619Y2018577D02*
Y1997675D01*
X2123619Y1994675D02*
G03X2126619Y1997675I0J3000D01*
G01X2123619Y1994675D02*
X2100968D01*
G03X2100615Y1994528I0J-500*
G01X2099519Y1993432*
G03X2099372Y1993079I353J-353*
G01Y1989170*
G03X2100255Y1988848I500J0*
G01X2110925Y1984961D02*
G03X2100255Y1988848I-6043J-0D01*
G01X2108647Y1980234D02*
G03X2110925Y1984961I-3765J4727D01*
G01X2108647Y1980234D02*
G03X2108459Y1979843I312J-391D01*
X2108647Y1979451I500J-0*
G01X2110925Y1974724D02*
G03X2108647Y1979451I-6043J0D01*
G01X2100255Y1970837D02*
G03X2110925Y1974724I4627J3887D01*
G01X2100255Y1970837D02*
G03X2099372Y1970515I-383J-322D01*
G01Y1962138*
X2098494Y1960016D02*
G03X2099372Y1962138I-2122J2122D01*
G01X2098494Y1960016D02*
X2064467Y1925989D01*
X2062345Y1925111D02*
G03X2064467Y1925989I0J3000D01*
G01X2062345Y1925111D02*
X1977373D01*
X1974373Y1928111D02*
G03X1977373Y1925111I3000J-0D01*
G01X1974373Y1928111D02*
Y1943123D01*
G03X1973979Y1943611I-500J-0*
G01X1972001Y1944691D02*
G03X1973979Y1943611I2829J2829D01*
G01X1972001Y1944691D02*
X1969749Y1946944D01*
X1969632Y1947066D02*
G03X1969749Y1946944I2945J2706D01*
G01X1969632Y1947066D02*
G03X1968764Y1946727I-368J-339D01*
G01Y1935184*
X1965764Y1932184D02*
G03X1968764Y1935184I-0J3000D01*
G01X1965764Y1932184D02*
X1935418D01*
X1932418Y1935184D02*
G03X1935418Y1932184I3000J-0D01*
G01X1932418Y1935184D02*
Y1955563D01*
G03X1931872Y1956061I-500J-0*
G01X1931595Y1956048D02*
G03X1931872Y1956061I-0J3000D01*
G01X1931595Y1956048D02*
X1921719D01*
X1919472Y1957060D02*
G03X1921719Y1956048I2247J1988D01*
G01X1919472Y1957060D02*
G03X1918714Y1957049I-374J-332D01*
G01X1916414Y1955974D02*
G03X1918714Y1957049I-0J3000D01*
G01X1916414Y1955974D02*
X1862116D01*
X1859116Y1958974D02*
G03X1862116Y1955974I3000J0D01*
G01Y2021073D02*
X1916414D01*
X1862116Y2020173D02*
X1916414D01*
X1862116Y2019273D02*
X1916414D01*
X1862116Y2018373D02*
X1916414D01*
X1862116Y2017473D02*
X1916414D01*
X1862116Y2016573D02*
X1916414D01*
X1862116Y2003973D02*
X1916414D01*
X1862116Y2003073D02*
X1916414D01*
X1862116Y2002173D02*
X1916414D01*
X1862116Y2001273D02*
X1916414D01*
X1862116Y2000373D02*
X1916414D01*
X1862116Y1999473D02*
X1916414D01*
X1862116Y1998573D02*
X1916414D01*
X1862116Y1997673D02*
X1916414D01*
X1862116Y1996773D02*
X1916414D01*
X1862116Y1995873D02*
X1916414D01*
X1862116Y1994973D02*
X1916414D01*
X1862116Y1982373D02*
X1916414D01*
X1862116Y1981473D02*
X1916414D01*
X1862116Y1980573D02*
X1916414D01*
X1862116Y1979673D02*
X1916414D01*
X1862116Y1978773D02*
X1916414D01*
X1862116Y1977873D02*
X1916414D01*
X1862116Y1976973D02*
X1916414D01*
X1862116Y1976073D02*
X1916414D01*
X1862116Y1975173D02*
X1916414D01*
X1862116Y1974273D02*
X1916414D01*
X1862116Y1973373D02*
X1916414D01*
X1862116Y1972473D02*
X1916414D01*
X1862116Y1971573D02*
X1916414D01*
X1862116Y1970673D02*
X1916414D01*
X1862116Y1969773D02*
X1916414D01*
X1862116Y1968873D02*
X1916414D01*
X1862116Y1967973D02*
X1916414D01*
X1862116Y1967073D02*
X1916414D01*
X1862116Y1966173D02*
X1916414D01*
X1862116Y1965273D02*
X1916414D01*
X1862116Y1964373D02*
X1916414D01*
X1862116Y1963473D02*
X1916414D01*
X1862116Y1962573D02*
X1916414D01*
X1862116Y1961673D02*
X1916414D01*
X1862116Y1960773D02*
X1916414D01*
X1862116Y1959873D02*
X1916414D01*
X1862116Y2015673D02*
X1916292D01*
X1862116Y1983273D02*
X1909835D01*
X1862116Y1994073D02*
X1909496D01*
X1891064Y2004873D02*
X1908936D01*
X1891512Y2014773D02*
X1908488D01*
X1862116Y1984173D02*
X1908380D01*
X1862116Y1993173D02*
X1908308D01*
X1891928Y2005773D02*
X1908072D01*
X1862116Y1985073D02*
X1907929D01*
X1892093Y2013873D02*
X1907907D01*
X1862116Y1992273D02*
X1907905D01*
X1862116Y1991373D02*
X1907843D01*
X1862116Y1990473D02*
X1907843D01*
X1862116Y1989573D02*
X1907843D01*
X1862116Y1988673D02*
X1907843D01*
X1862116Y1987773D02*
X1907843D01*
X1862116Y1986873D02*
X1907843D01*
X1862116Y1985973D02*
X1907843D01*
X1892229Y2006673D02*
X1907771D01*
X1892250Y2012973D02*
X1907750D01*
X1892250Y2012073D02*
X1907750D01*
X1892250Y2011173D02*
X1907750D01*
X1892250Y2010273D02*
X1907750D01*
X1892250Y2009373D02*
X1907750D01*
X1892250Y2008473D02*
X1907750D01*
X1892250Y2007573D02*
X1907750D01*
X1877564Y2004873D02*
X1882436D01*
X1878012Y2014773D02*
X1881988D01*
X1878428Y2005773D02*
X1881572D01*
X1878593Y2013873D02*
X1881407D01*
X1878729Y2006673D02*
X1881271D01*
X1878750Y2012973D02*
X1881250D01*
X1878750Y2012073D02*
X1881250D01*
X1878750Y2011173D02*
X1881250D01*
X1878750Y2010273D02*
X1881250D01*
X1878750Y2009373D02*
X1881250D01*
X1878750Y2008473D02*
X1881250D01*
X1878750Y2007573D02*
X1881250D01*
X1862116Y2004873D02*
X1868936D01*
X1862116Y2014773D02*
X1868488D01*
X1862116Y2005773D02*
X1868072D01*
X1862116Y2013873D02*
X1867907D01*
X1862116Y2006673D02*
X1867771D01*
X1862116Y2012973D02*
X1867750D01*
X1862116Y2012073D02*
X1867750D01*
X1862116Y2011173D02*
X1867750D01*
X1862116Y2010273D02*
X1867750D01*
X1862116Y2009373D02*
X1867750D01*
X1862116Y2008473D02*
X1867750D01*
X1862116Y2007573D02*
X1867750D01*
X1964409Y1939682D02*
X1965764D01*
X1935418Y1938782D02*
X1965764D01*
X1935418Y1937882D02*
X1965764D01*
X1935418Y1936982D02*
X1965764D01*
X1935418Y1936082D02*
X1965764D01*
X1965111Y1940582D02*
X1965417D01*
X1935418Y1939682D02*
X1954331D01*
X1935418Y1945082D02*
X1954012D01*
X1935418Y2005382D02*
X1953903D01*
X1935418Y2004482D02*
X1953839D01*
X1935418Y1940582D02*
X1953831D01*
X1935418Y1944182D02*
X1953763D01*
X1935418Y1945982D02*
X1953743D01*
X1935418Y2006282D02*
X1953720D01*
X1935418Y2008082D02*
X1953720D01*
X1935418Y2007182D02*
X1953720D01*
X1935418Y2003582D02*
X1953720D01*
X1935418Y1947782D02*
X1953720D01*
X1935418Y1946882D02*
X1953720D01*
X1935418Y1943282D02*
X1953720D01*
X1935418Y1942382D02*
X1953720D01*
X1935418Y1941482D02*
X1953720D01*
X1935418Y2002682D02*
X1953572D01*
X1935418Y1948682D02*
X1945294D01*
X1935418Y2001782D02*
X1945188D01*
X1935418Y2000882D02*
X1945188D01*
X1935418Y1999982D02*
X1945188D01*
X1935418Y1999082D02*
X1945188D01*
X1935418Y1998182D02*
X1945188D01*
X1935418Y1997282D02*
X1945188D01*
X1935418Y1996382D02*
X1945188D01*
X1935418Y1995482D02*
X1945188D01*
X1935418Y1994582D02*
X1945188D01*
X1935418Y1993682D02*
X1945188D01*
X1935418Y1992782D02*
X1945188D01*
X1935418Y1991882D02*
X1945188D01*
X1935418Y1990982D02*
X1945188D01*
X1935418Y1990082D02*
X1945188D01*
X1935418Y1989182D02*
X1945188D01*
X1935418Y1988282D02*
X1945188D01*
X1935418Y1987382D02*
X1945188D01*
X1935418Y1986482D02*
X1945188D01*
X1935418Y1985582D02*
X1945188D01*
X1935418Y1984682D02*
X1945188D01*
X1935418Y1983782D02*
X1945188D01*
X1935418Y1982882D02*
X1945188D01*
X1935418Y1981982D02*
X1945188D01*
X1935418Y1981082D02*
X1945188D01*
X1935418Y1980182D02*
X1945188D01*
X1935418Y1979282D02*
X1945188D01*
X1935418Y1978382D02*
X1945188D01*
X1935418Y1977482D02*
X1945188D01*
X1935418Y1976582D02*
X1945188D01*
X1935418Y1975682D02*
X1945188D01*
X1935418Y1974782D02*
X1945188D01*
X1935418Y1973882D02*
X1945188D01*
X1935418Y1972982D02*
X1945188D01*
X1935418Y1972082D02*
X1945188D01*
X1935418Y1971182D02*
X1945188D01*
X1935418Y1970282D02*
X1945188D01*
X1935418Y1969382D02*
X1945188D01*
X1935418Y1968482D02*
X1945188D01*
X1935418Y1967582D02*
X1945188D01*
X1935418Y1966682D02*
X1945188D01*
X1935418Y1965782D02*
X1945188D01*
X1935418Y1964882D02*
X1945188D01*
X1935418Y1963982D02*
X1945188D01*
X1935418Y1963082D02*
X1945188D01*
X1935418Y1962182D02*
X1945188D01*
X1935418Y1961282D02*
X1945188D01*
X1935418Y1960382D02*
X1945188D01*
X1935418Y1959482D02*
X1945188D01*
X1935418Y1958582D02*
X1945188D01*
X1935418Y1957682D02*
X1945188D01*
X1935418Y1956782D02*
X1945188D01*
X1935418Y1955882D02*
X1945188D01*
X1935418Y1954982D02*
X1945188D01*
X1935418Y1954082D02*
X1945188D01*
X1935418Y1953182D02*
X1945188D01*
X1935418Y1952282D02*
X1945188D01*
X1935418Y1951382D02*
X1945188D01*
X1935418Y1950482D02*
X1945188D01*
X1935418Y1949582D02*
X1945188D01*
X1965020Y1997479D02*
X1966085D01*
X1965020Y1996579D02*
X1966085D01*
X1964936Y1995679D02*
X1966085D01*
X1964785Y1994779D02*
X1966085D01*
X1965015Y1993879D02*
X1966085D01*
X1965020Y1992979D02*
X1966085D01*
X1965020Y1992079D02*
X1966085D01*
X1965016Y1991179D02*
X1966085D01*
X1964793Y1990279D02*
X1966085D01*
X1964096Y1989379D02*
X1966085D01*
X1951653Y1988479D02*
X1966085D01*
X1951653Y1987579D02*
X1966085D01*
X1951653Y1986679D02*
X1966085D01*
X1951653Y1985779D02*
X1966085D01*
X1951653Y1984879D02*
X1966085D01*
X1951653Y1983979D02*
X1966085D01*
X1951653Y1983079D02*
X1966085D01*
X1951653Y1982179D02*
X1966085D01*
X1951653Y1981279D02*
X1966085D01*
X1951653Y1980379D02*
X1966085D01*
X1951653Y1979479D02*
X1966085D01*
X1951653Y1978579D02*
X1966085D01*
X1951653Y1977679D02*
X1966085D01*
X1951653Y1976779D02*
X1966085D01*
X1951653Y1975879D02*
X1966085D01*
X1951653Y1974979D02*
X1966085D01*
X1951653Y1974079D02*
X1966085D01*
X1951653Y1973179D02*
X1966085D01*
X1951653Y1972279D02*
X1966085D01*
X1951653Y1971379D02*
X1966085D01*
X1951653Y1970479D02*
X1966085D01*
X1951653Y1969579D02*
X1966085D01*
X1951653Y1968679D02*
X1966085D01*
X1951653Y1967779D02*
X1966085D01*
X1951653Y1966879D02*
X1966085D01*
X1951653Y1965979D02*
X1966085D01*
X1951653Y1965079D02*
X1966085D01*
X1951653Y1964179D02*
X1966085D01*
X1951653Y1963279D02*
X1966085D01*
X1951653Y1962379D02*
X1966085D01*
X1951653Y1961479D02*
X1966085D01*
X1964192Y1960579D02*
X1966085D01*
X1964829Y1959679D02*
X1966085D01*
X1965019Y1958779D02*
X1966085D01*
X1965020Y1957879D02*
X1966085D01*
X1965020Y1956979D02*
X1966085D01*
X1965008Y1956079D02*
X1966085D01*
X1964750Y1955179D02*
X1966085D01*
X1964957Y1954279D02*
X1966085D01*
X1965020Y1953379D02*
X1966085D01*
X1965020Y1952479D02*
X1966085D01*
X1951653Y1989379D02*
X1954645D01*
X1951653Y1960579D02*
X1954548D01*
X1951653Y1955179D02*
X1953990D01*
X1951653Y1994779D02*
X1953955D01*
X1951653Y1990279D02*
X1953947D01*
X1951653Y1959679D02*
X1953911D01*
X1951653Y1995679D02*
X1953804D01*
X1951653Y1954279D02*
X1953783D01*
X1951653Y1956079D02*
X1953732D01*
X1951653Y1993879D02*
X1953725D01*
X1951653Y1991179D02*
X1953724D01*
X1951653Y1958779D02*
X1953721D01*
X1951653Y1997479D02*
X1953720D01*
X1951653Y1996579D02*
X1953720D01*
X1951653Y1992979D02*
X1953720D01*
X1951653Y1992079D02*
X1953720D01*
X1951653Y1957879D02*
X1953720D01*
X1951653Y1956979D02*
X1953720D01*
X1951653Y1953379D02*
X1953720D01*
X1951653Y1952479D02*
X1953720D01*
X2084540Y2017209D02*
X2123619D01*
X2083640Y2016309D02*
X2123619D01*
X2110417Y2015409D02*
X2123619D01*
X2111743Y2014509D02*
X2123619D01*
X2112175Y2013609D02*
X2123619D01*
X2112250Y2012709D02*
X2123619D01*
X2112250Y2011809D02*
X2123619D01*
X2112250Y2010909D02*
X2123619D01*
X2112250Y2010009D02*
X2123619D01*
X2112250Y2009109D02*
X2123619D01*
X2112250Y2008209D02*
X2123619D01*
X2112250Y2007309D02*
X2123619D01*
X2112179Y2006409D02*
X2123619D01*
X2111757Y2005509D02*
X2123619D01*
X2110481Y2004609D02*
X2123619D01*
X2083468Y2003709D02*
X2123619D01*
X2083468Y2002809D02*
X2123619D01*
X2083468Y2001909D02*
X2123619D01*
X2083468Y2001009D02*
X2123619D01*
X2083468Y2000109D02*
X2123619D01*
X2083468Y1999209D02*
X2123619D01*
X2083468Y1998309D02*
X2123619D01*
X2085440Y2018109D02*
X2123618D01*
X2096917Y2015409D02*
X2103083D01*
X2096981Y2004609D02*
X2103019D01*
X2098243Y2014509D02*
X2101757D01*
X2098257Y2005509D02*
X2101743D01*
X2098675Y2013609D02*
X2101325D01*
X2098679Y2006409D02*
X2101321D01*
X2098750Y2012709D02*
X2101250D01*
X2098750Y2011809D02*
X2101250D01*
X2098750Y2010909D02*
X2101250D01*
X2098750Y2010009D02*
X2101250D01*
X2098750Y2009109D02*
X2101250D01*
X2098750Y2008209D02*
X2101250D01*
X2098750Y2007309D02*
X2101250D01*
X2083468Y1997409D02*
X2099253D01*
X2083468Y1996509D02*
X2098353D01*
X2083468Y1995609D02*
X2097453D01*
X2083468Y1994709D02*
X2096553D01*
X2083468Y1993809D02*
X2096372D01*
X2083468Y1992909D02*
X2096372D01*
X2083468Y1992009D02*
X2096372D01*
X2083468Y1991109D02*
X2096372D01*
X2083468Y1990209D02*
X2096372D01*
X2083468Y1989309D02*
X2096372D01*
X2083468Y1988409D02*
X2096372D01*
X2083468Y1987509D02*
X2096372D01*
X2083468Y1986609D02*
X2096372D01*
X2083468Y1985709D02*
X2096372D01*
X2083468Y1984809D02*
X2096372D01*
X2083468Y1983909D02*
X2096372D01*
X2083468Y1983009D02*
X2096372D01*
X2083468Y1982109D02*
X2096372D01*
X2083468Y1981209D02*
X2096372D01*
X2083468Y1980309D02*
X2096372D01*
X2083468Y1979409D02*
X2096372D01*
X2083468Y1978509D02*
X2096372D01*
X2083468Y1977609D02*
X2096372D01*
X2083263Y1976709D02*
X2096372D01*
X2082363Y1975809D02*
X2096372D01*
X2081463Y1974909D02*
X2096372D01*
X2080563Y1974009D02*
X2096372D01*
X2079663Y1973109D02*
X2096372D01*
X2078763Y1972209D02*
X2096372D01*
X2077863Y1971309D02*
X2096372D01*
X2076963Y1970409D02*
X2096372D01*
X2076063Y1969509D02*
X2096372D01*
X2075163Y1968609D02*
X2096372D01*
X2074263Y1967709D02*
X2096372D01*
X2073363Y1966809D02*
X2096372D01*
X2072463Y1965909D02*
X2096372D01*
X2071563Y1965009D02*
X2096372D01*
X2070663Y1964109D02*
X2096372D01*
X2069763Y1963209D02*
X2096372D01*
X2068863Y1962309D02*
X2096371D01*
X2067963Y1961409D02*
X2095644D01*
X2067063Y1960509D02*
X2094744D01*
X2066163Y1959609D02*
X2093844D01*
X2065263Y1958709D02*
X2092944D01*
X2064363Y1957809D02*
X2092044D01*
X2063463Y1956909D02*
X2091144D01*
X2062563Y1956009D02*
X2090244D01*
X2083468Y2015409D02*
X2089583D01*
X2083468Y2004609D02*
X2089519D01*
X2061663Y1955109D02*
X2089344D01*
X2057089Y1954209D02*
X2088444D01*
X2083468Y2014509D02*
X2088257D01*
X2083468Y2005509D02*
X2088243D01*
X2083468Y2013609D02*
X2087825D01*
X2083468Y2006409D02*
X2087821D01*
X2083468Y2012709D02*
X2087750D01*
X2083468Y2011809D02*
X2087750D01*
X2083468Y2010909D02*
X2087750D01*
X2083468Y2010009D02*
X2087750D01*
X2083468Y2009109D02*
X2087750D01*
X2083468Y2008209D02*
X2087750D01*
X2083468Y2007309D02*
X2087750D01*
X2056944Y1953309D02*
X2087544D01*
X2056944Y1952409D02*
X2086644D01*
X2056944Y1951509D02*
X2085744D01*
X2056944Y1950609D02*
X2084844D01*
X2056944Y1949709D02*
X2083944D01*
X2056944Y1948809D02*
X2083044D01*
X2056944Y1947909D02*
X2082144D01*
X2056944Y1947009D02*
X2081244D01*
X2056944Y1946109D02*
X2080344D01*
X2056944Y1945209D02*
X2079444D01*
X2056944Y1944309D02*
X2078544D01*
X2056930Y1943409D02*
X2077644D01*
X2056280Y1942509D02*
X2076744D01*
X2056280Y1941609D02*
X2075844D01*
X2056204Y1940709D02*
X2074944D01*
X2055772Y1939809D02*
X2074044D01*
X2054443Y1938909D02*
X2073144D01*
X2042959Y1938009D02*
X2072244D01*
X2042937Y1937109D02*
X2071344D01*
X1977373Y1936209D02*
X2070444D01*
X1977373Y1935309D02*
X2069544D01*
X1977373Y1934409D02*
X2068644D01*
X1977373Y1933509D02*
X2067744D01*
X1977373Y1932609D02*
X2066844D01*
X1977373Y1931709D02*
X2065944D01*
X1977373Y1930809D02*
X2065044D01*
X1977373Y1929909D02*
X2064144D01*
X1977373Y1929009D02*
X2063244D01*
X2042959Y1938909D02*
X2046817D01*
X2042959Y1939809D02*
X2045488D01*
X2042959Y1940709D02*
X2045056D01*
X2042959Y1942509D02*
X2044980D01*
X2042959Y1941609D02*
X2044980D01*
X1977373Y1937109D02*
X2010230D01*
X1977373Y1938009D02*
X2009330D01*
X1984443Y1938909D02*
X2008430D01*
X1985772Y1939809D02*
X2007530D01*
X1986204Y1940709D02*
X2006630D01*
X1986280Y1941609D02*
X2005730D01*
X1986280Y1942509D02*
X2004830D01*
X1986280Y1943409D02*
X2003930D01*
X1986375Y1944309D02*
X2003030D01*
X1986375Y1945209D02*
X2002130D01*
X1986375Y1946109D02*
X2001230D01*
X1986375Y1947009D02*
X2000330D01*
X1986375Y1947909D02*
X1999430D01*
X1986375Y1948809D02*
X1998530D01*
X1986375Y1949709D02*
X1997630D01*
X1986375Y1950609D02*
X1996730D01*
X1986375Y1951509D02*
X1995830D01*
X1986375Y1952409D02*
X1994930D01*
X1986375Y1953309D02*
X1994030D01*
X1986387Y1954209D02*
X1993130D01*
X2011700Y1944903D02*
X2024003D01*
X2013935Y2005203D02*
X2023981D01*
X2013035Y2004303D02*
X2023789D01*
X2011700Y1945803D02*
X2023774D01*
X2011701Y1944003D02*
X2023736D01*
X2014835Y2006103D02*
X2023729D01*
X2016635Y2007903D02*
X2023720D01*
X2015735Y2007003D02*
X2023720D01*
X2012135Y2003403D02*
X2023720D01*
X2011700Y2002503D02*
X2023720D01*
X2011700Y1947603D02*
X2023720D01*
X2011700Y1946703D02*
X2023720D01*
X2012422Y1943103D02*
X2023720D01*
X2013322Y1942203D02*
X2023720D01*
X2017535Y2008803D02*
X2023714D01*
X2011700Y2001603D02*
X2017039D01*
X2011700Y1948503D02*
X2017021D01*
X2011700Y2000703D02*
X2016889D01*
X2011700Y1999803D02*
X2016889D01*
X2011700Y1998903D02*
X2016889D01*
X2011700Y1998003D02*
X2016889D01*
X2011700Y1997103D02*
X2016889D01*
X2011700Y1996203D02*
X2016889D01*
X2011700Y1995303D02*
X2016889D01*
X2011700Y1994403D02*
X2016889D01*
X2011700Y1993503D02*
X2016889D01*
X2011700Y1992603D02*
X2016889D01*
X2011700Y1991703D02*
X2016889D01*
X2011700Y1990803D02*
X2016889D01*
X2011700Y1989903D02*
X2016889D01*
X2011700Y1989003D02*
X2016889D01*
X2011700Y1988103D02*
X2016889D01*
X2011700Y1987203D02*
X2016889D01*
X2011700Y1986303D02*
X2016889D01*
X2011700Y1985403D02*
X2016889D01*
X2011700Y1984503D02*
X2016889D01*
X2011700Y1983603D02*
X2016889D01*
X2011700Y1982703D02*
X2016889D01*
X2011700Y1981803D02*
X2016889D01*
X2011700Y1980903D02*
X2016889D01*
X2011700Y1980003D02*
X2016889D01*
X2011700Y1979103D02*
X2016889D01*
X2011700Y1978203D02*
X2016889D01*
X2011700Y1977303D02*
X2016889D01*
X2011700Y1976403D02*
X2016889D01*
X2011700Y1975503D02*
X2016889D01*
X2011700Y1974603D02*
X2016889D01*
X2011700Y1973703D02*
X2016889D01*
X2011700Y1972803D02*
X2016889D01*
X2011700Y1971903D02*
X2016889D01*
X2011700Y1971003D02*
X2016889D01*
X2011700Y1970103D02*
X2016889D01*
X2011700Y1969203D02*
X2016889D01*
X2011700Y1968303D02*
X2016889D01*
X2011700Y1967403D02*
X2016889D01*
X2011700Y1966503D02*
X2016889D01*
X2011700Y1965603D02*
X2016889D01*
X2011700Y1964703D02*
X2016889D01*
X2011700Y1963803D02*
X2016889D01*
X2011700Y1962903D02*
X2016889D01*
X2011700Y1962003D02*
X2016889D01*
X2011700Y1961103D02*
X2016889D01*
X2011700Y1960203D02*
X2016889D01*
X2011700Y1959303D02*
X2016889D01*
X2011700Y1958403D02*
X2016889D01*
X2011700Y1957503D02*
X2016889D01*
X2011700Y1956603D02*
X2016889D01*
X2011700Y1955703D02*
X2016889D01*
X2011700Y1954803D02*
X2016889D01*
X2011700Y1953903D02*
X2016889D01*
X2011700Y1953003D02*
X2016889D01*
X2011700Y1952103D02*
X2016889D01*
X2011700Y1951203D02*
X2016889D01*
X2011700Y1950303D02*
X2016889D01*
X2011700Y1949403D02*
X2016889D01*
X1921719Y2004047D02*
X1931595D01*
X1921719Y2003147D02*
X1931595D01*
X1921719Y2002247D02*
X1931595D01*
X1921719Y2001347D02*
X1931595D01*
X1921719Y2000447D02*
X1931595D01*
X1921719Y1999547D02*
X1931595D01*
X1921719Y1998647D02*
X1931595D01*
X1921719Y1997747D02*
X1931595D01*
X1921719Y1996847D02*
X1931595D01*
X1921719Y1995947D02*
X1931595D01*
X1921719Y1995047D02*
X1931595D01*
X1930448Y1994147D02*
X1931494D01*
X1921728D02*
X1923239D01*
X1921719Y2041847D02*
X2077790D01*
X1921719Y2040947D02*
X2077790D01*
X1921719Y2040047D02*
X2077790D01*
X1921719Y2039147D02*
X2077790D01*
X1921719Y2038247D02*
X2077790D01*
X1921719Y2037347D02*
X2077790D01*
X1921719Y2036447D02*
X2077790D01*
X1921719Y2035547D02*
X2077790D01*
X1921719Y2034647D02*
X2077790D01*
X1921719Y2033747D02*
X2077790D01*
X1921719Y2032847D02*
X2077790D01*
X1921719Y2031947D02*
X2077790D01*
X1921719Y2031047D02*
X2077790D01*
X1921719Y2030147D02*
X2077790D01*
X1921719Y2029247D02*
X2077790D01*
X1921719Y2028347D02*
X2077790D01*
X1921719Y2027447D02*
X2077790D01*
X1921719Y2026547D02*
X2077790D01*
X1921719Y2025647D02*
X2077790D01*
X1921719Y2024747D02*
X2077790D01*
X1921719Y2023847D02*
X2077790D01*
X1921719Y2022947D02*
X2077790D01*
X1921719Y2022047D02*
X2077790D01*
X1921719Y2021147D02*
X2077790D01*
X1921719Y2020247D02*
X2077790D01*
X1921719Y2019347D02*
X2077790D01*
X1921719Y2018447D02*
X2077790D01*
X1921719Y2017547D02*
X2077790D01*
X1921719Y2016647D02*
X2077790D01*
X1921719Y2015747D02*
X2077790D01*
X2049372Y2014847D02*
X2077790D01*
X2059040Y2013947D02*
X2077790D01*
X2059040Y2013047D02*
X2077790D01*
X2059040Y2012147D02*
X2077790D01*
X2059040Y2011247D02*
X2077790D01*
X2059040Y2010347D02*
X2077790D01*
X2059040Y2009447D02*
X2077790D01*
X2059040Y2008547D02*
X2077790D01*
X2059040Y2007647D02*
X2077790D01*
X2059040Y2006747D02*
X2077790D01*
X2059040Y2005847D02*
X2077790D01*
X2059040Y2004947D02*
X2077790D01*
X2056670Y2004047D02*
X2077790D01*
X2056371Y2003147D02*
X2077790D01*
X2056371Y2002247D02*
X2077790D01*
X2063739Y2001347D02*
X2077790D01*
X2072885Y2000447D02*
X2077790D01*
X2072885Y1999547D02*
X2077790D01*
X2072885Y1998647D02*
X2077790D01*
X2072885Y1997747D02*
X2077790D01*
X2072885Y1996847D02*
X2077790D01*
X2072885Y1995947D02*
X2077790D01*
X2072885Y1995047D02*
X2077790D01*
X2072885Y1994147D02*
X2077790D01*
X2072885Y1993247D02*
X2077790D01*
X2072885Y1992347D02*
X2077790D01*
X2072885Y1991447D02*
X2077790D01*
X2072885Y1990547D02*
X2077790D01*
X2072885Y1989647D02*
X2077790D01*
X2072885Y1988747D02*
X2077790D01*
X2072331Y1987847D02*
X2077790D01*
X2071431Y1986947D02*
X2077790D01*
X2046362Y1986047D02*
X2077790D01*
X2046362Y1985147D02*
X2077790D01*
X2046362Y1984247D02*
X2077790D01*
X2046362Y1983347D02*
X2077790D01*
X2046362Y1982447D02*
X2077790D01*
X2046362Y1981547D02*
X2077790D01*
X2046362Y1980647D02*
X2077790D01*
X2046362Y1979747D02*
X2077790D01*
X2046362Y1978847D02*
X2077790D01*
X2046362Y1977947D02*
X2077498D01*
X2046541Y1977047D02*
X2076595D01*
X2046362Y1986947D02*
X2059327D01*
X2046362Y1987847D02*
X2058427D01*
X2046518Y1988747D02*
X2057527D01*
X2055638Y1989647D02*
X2056627D01*
X1931435Y2014847D02*
X2044623D01*
X1986352Y2013947D02*
X2013810D01*
X1986576Y2013047D02*
X2012910D01*
X1986576Y2012147D02*
X2012010D01*
X1986576Y2011247D02*
X2011110D01*
X1986576Y2010347D02*
X2010210D01*
X1986576Y2009447D02*
X2009310D01*
X1986576Y2008547D02*
X2008410D01*
X1986576Y2007647D02*
X2007510D01*
X1986576Y2006747D02*
X2007328D01*
X1986576Y2005847D02*
X2007328D01*
X1986576Y2004947D02*
X2007328D01*
X1986576Y2004047D02*
X2007328D01*
X1986576Y2003147D02*
X2007328D01*
X1986709Y2002247D02*
X2007328D01*
X2001902Y2001347D02*
X2007328D01*
X2002802Y2000447D02*
X2007328D01*
X2003702Y1999547D02*
X2007328D01*
X2004058Y1998647D02*
X2007328D01*
X2004058Y1997747D02*
X2007328D01*
X2004058Y1996847D02*
X2007328D01*
X2004058Y1995947D02*
X2007328D01*
X2004058Y1995047D02*
X2007328D01*
X2004058Y1994147D02*
X2007328D01*
X2004058Y1993247D02*
X2007328D01*
X2004058Y1992347D02*
X2007328D01*
X2004058Y1991447D02*
X2007328D01*
X2004058Y1990547D02*
X2007328D01*
X2004058Y1989647D02*
X2007328D01*
X2003503Y1988747D02*
X2007328D01*
X2002603Y1987847D02*
X2007328D01*
X1976434Y1986947D02*
X2007328D01*
X1976434Y1986047D02*
X2007328D01*
X1976434Y1985147D02*
X2007328D01*
X1976434Y1984247D02*
X2007328D01*
X1976434Y1983347D02*
X2007328D01*
X1976434Y1982447D02*
X2007309D01*
X1976434Y1981547D02*
X2006499D01*
X1976434Y1987847D02*
X2001568D01*
X1976605Y1988747D02*
X1992670D01*
X1985638Y1989647D02*
X1991770D01*
X1986157Y1990547D02*
X1990870D01*
X1932099Y2013947D02*
X1932820D01*
X1853407Y2072825D02*
X2141219D01*
X1853407Y2071925D02*
X2141219D01*
X1853407Y2071025D02*
X2141219D01*
X1853407Y2070125D02*
X2141219D01*
X1853407Y2069225D02*
X2141219D01*
X1853407Y2068325D02*
X2141219D01*
X1853407Y2067425D02*
X2141219D01*
X1853407Y2066525D02*
X2141219D01*
X1853407Y2065625D02*
X2141219D01*
X1853407Y2064725D02*
X2141219D01*
X1853407Y2063825D02*
X2141219D01*
X1853407Y2062925D02*
X2141219D01*
X1853407Y2062025D02*
X2141219D01*
X1853407Y2061125D02*
X2141219D01*
X1853407Y2060225D02*
X2141219D01*
X1853407Y2059325D02*
X2141219D01*
X1853407Y2058425D02*
X2141219D01*
X1853407Y2057525D02*
X2141219D01*
X1907686Y2056625D02*
X2141219D01*
X1908247Y2055725D02*
X2141219D01*
X1908393Y2054825D02*
X2141219D01*
X1908393Y2053925D02*
X2141219D01*
X1908393Y2053025D02*
X2141219D01*
X1908393Y2052125D02*
X2141219D01*
X1908393Y2051225D02*
X2141219D01*
X1908393Y2050325D02*
X2141219D01*
X1908393Y2049425D02*
X2141219D01*
X1908393Y2048525D02*
X2141219D01*
X1908393Y2047625D02*
X2141219D01*
X1908393Y2046725D02*
X2141219D01*
X1908393Y2045825D02*
X2141219D01*
X2079587Y2044925D02*
X2141219D01*
X2080387Y2044025D02*
X2141219D01*
X2080729Y2043125D02*
X2141219D01*
X2080790Y2042225D02*
X2141219D01*
X2080790Y2041325D02*
X2141219D01*
X2080790Y2040425D02*
X2141219D01*
X2080790Y2039525D02*
X2141219D01*
X2080790Y2038625D02*
X2141219D01*
X2080790Y2037725D02*
X2141219D01*
X2080790Y2036825D02*
X2141219D01*
X2080790Y2035925D02*
X2141219D01*
X2080790Y2035025D02*
X2141219D01*
X2080790Y2034125D02*
X2141219D01*
X2080790Y2033225D02*
X2141219D01*
X2080790Y2032325D02*
X2141219D01*
X2080790Y2031425D02*
X2141219D01*
X2080790Y2030525D02*
X2141219D01*
X2080790Y2029625D02*
X2141219D01*
X2080790Y2028725D02*
X2141219D01*
X2080790Y2027825D02*
X2141219D01*
X2080790Y2026925D02*
X2141219D01*
X2080790Y2026025D02*
X2141219D01*
X2080790Y2025125D02*
X2141219D01*
X2080790Y2024225D02*
X2141219D01*
X2080790Y2023325D02*
X2141219D01*
X2080790Y2022425D02*
X2141219D01*
X2124173Y2021525D02*
X2141219D01*
X2125811Y2020625D02*
X2141219D01*
X2126391Y2019725D02*
X2141219D01*
X2126609Y2018825D02*
X2141219D01*
X2126619Y2017925D02*
X2141219D01*
X2126619Y2017025D02*
X2141219D01*
X2126619Y2016125D02*
X2141219D01*
X2126619Y2015225D02*
X2141219D01*
X2126619Y2014325D02*
X2141219D01*
X2126619Y2013425D02*
X2141219D01*
X2126619Y2012525D02*
X2141219D01*
X2126619Y2011625D02*
X2141219D01*
X2126619Y2010725D02*
X2141219D01*
X2126619Y2009825D02*
X2141219D01*
X2126619Y2008925D02*
X2141219D01*
X2126619Y2008025D02*
X2141219D01*
X2126619Y2007125D02*
X2141219D01*
X2126619Y2006225D02*
X2141219D01*
X2126619Y2005325D02*
X2141219D01*
X2126619Y2004425D02*
X2141219D01*
X2126619Y2003525D02*
X2141219D01*
X2126619Y2002625D02*
X2141219D01*
X2126619Y2001725D02*
X2141219D01*
X2126619Y2000825D02*
X2141219D01*
X2126619Y1999925D02*
X2141219D01*
X2126619Y1999025D02*
X2141219D01*
X2126619Y1998125D02*
X2141219D01*
X2126585Y1997225D02*
X2141219D01*
X2126299Y1996325D02*
X2141219D01*
X2125604Y1995425D02*
X2141219D01*
X2100612Y1994525D02*
X2141219D01*
X2099712Y1993625D02*
X2141219D01*
X2099372Y1992725D02*
X2141219D01*
X2099372Y1991825D02*
X2141219D01*
X2105854Y1990925D02*
X2141219D01*
X2108179Y1990025D02*
X2141219D01*
X2109261Y1989125D02*
X2141219D01*
X2109968Y1988225D02*
X2141219D01*
X2110443Y1987325D02*
X2141219D01*
X2110745Y1986425D02*
X2141219D01*
X2110899Y1985525D02*
X2141219D01*
X2110916Y1984625D02*
X2141219D01*
X2110798Y1983725D02*
X2141219D01*
X2110535Y1982825D02*
X2141219D01*
X2110108Y1981925D02*
X2141219D01*
X2109468Y1981025D02*
X2141219D01*
X2108546Y1980125D02*
X2141219D01*
X2108915Y1979225D02*
X2141219D01*
X2109735Y1978325D02*
X2141219D01*
X2110288Y1977425D02*
X2141219D01*
X2110651Y1976525D02*
X2141219D01*
X2110858Y1975625D02*
X2141219D01*
X2110925Y1974725D02*
X2141219D01*
X2110858Y1973825D02*
X2141219D01*
X2110651Y1972925D02*
X2141219D01*
X2110289Y1972025D02*
X2141219D01*
X2109737Y1971125D02*
X2141219D01*
X2108917Y1970225D02*
X2141219D01*
X2107597Y1969325D02*
X2141219D01*
X2099372Y1968425D02*
X2141219D01*
X2099372Y1967525D02*
X2141219D01*
X2099372Y1966625D02*
X2141219D01*
X2099372Y1965725D02*
X2141219D01*
X2099372Y1964825D02*
X2141219D01*
X2099372Y1963925D02*
X2141219D01*
X2099372Y1963025D02*
X2141219D01*
X2099372Y1962125D02*
X2141219D01*
X2099230Y1961225D02*
X2141219D01*
X2098763Y1960325D02*
X2141219D01*
X2097903Y1959425D02*
X2141219D01*
X2097003Y1958525D02*
X2141219D01*
X2096103Y1957625D02*
X2141219D01*
X2095203Y1956725D02*
X2141219D01*
X2094303Y1955825D02*
X2141219D01*
X2093403Y1954925D02*
X2141219D01*
X2092503Y1954025D02*
X2141219D01*
X2091603Y1953125D02*
X2141219D01*
X2090703Y1952225D02*
X2141219D01*
X2089803Y1951325D02*
X2141219D01*
X2088903Y1950425D02*
X2141219D01*
X2088003Y1949525D02*
X2141219D01*
X2087103Y1948625D02*
X2141219D01*
X2086203Y1947725D02*
X2141219D01*
X2085303Y1946825D02*
X2141219D01*
X2084403Y1945925D02*
X2141219D01*
X2083503Y1945025D02*
X2141219D01*
X2082603Y1944125D02*
X2141219D01*
X2081703Y1943225D02*
X2141219D01*
X2080803Y1942325D02*
X2141219D01*
X2079903Y1941425D02*
X2141219D01*
X2079003Y1940525D02*
X2141219D01*
X2078103Y1939625D02*
X2141219D01*
X2077203Y1938725D02*
X2141219D01*
X2076303Y1937825D02*
X2141219D01*
X2075403Y1936925D02*
X2141219D01*
X2074503Y1936025D02*
X2141219D01*
X2073603Y1935125D02*
X2141219D01*
X2072703Y1934225D02*
X2141219D01*
X2071803Y1933325D02*
X2141219D01*
X2070903Y1932425D02*
X2141219D01*
X2070003Y1931525D02*
X2141219D01*
X2069103Y1930625D02*
X2141219D01*
X2068203Y1929725D02*
X2141219D01*
X2067303Y1928825D02*
X2141219D01*
X2066403Y1927925D02*
X2141219D01*
X2065503Y1927025D02*
X2141219D01*
X2064603Y1926125D02*
X2141219D01*
X2063167Y1925225D02*
X2141219D01*
X1925009Y1924325D02*
X2141219D01*
X1925009Y1923425D02*
X2141219D01*
X1925009Y1922525D02*
X2141219D01*
X2114049Y1921625D02*
X2141219D01*
X2114744Y1920725D02*
X2141219D01*
X2114966Y1919825D02*
X2141219D01*
X2114970Y1918925D02*
X2141219D01*
X2114970Y1918025D02*
X2141219D01*
X2114970Y1917125D02*
X2141219D01*
X2114970Y1916225D02*
X2141219D01*
X2114970Y1915325D02*
X2141219D01*
X2114970Y1914425D02*
X2141219D01*
X2114970Y1913525D02*
X2141219D01*
X2114970Y1912625D02*
X2141219D01*
X2114970Y1911725D02*
X2141219D01*
X2114970Y1910825D02*
X2141219D01*
X2114956Y1909925D02*
X2141219D01*
X2114684Y1909025D02*
X2141219D01*
X2113884Y1908125D02*
X2141219D01*
X1921887Y1907225D02*
X2141219D01*
X1921887Y1906325D02*
X2141219D01*
X1921887Y1905425D02*
X2141219D01*
X1921887Y1904525D02*
X2141219D01*
X1921797Y1903625D02*
X2141219D01*
X1921337Y1902725D02*
X2141219D01*
X1919807Y1901825D02*
X2141219D01*
X1853407Y1900925D02*
X2141219D01*
X1853407Y1900025D02*
X2141219D01*
X1853407Y1899125D02*
X2141219D01*
X1853407Y1898225D02*
X2141219D01*
X1853407Y1897325D02*
X2141219D01*
X1853407Y1896425D02*
X2141219D01*
X1853407Y1895525D02*
X2141219D01*
X1853407Y1894625D02*
X2141219D01*
X1853474Y2073725D02*
X2141152D01*
X2080790Y2021525D02*
X2111976D01*
X2099372Y1990925D02*
X2103910D01*
X2099372Y1969325D02*
X2102167D01*
X2099372Y1990025D02*
X2101585D01*
X2099372Y1970225D02*
X2100847D01*
X2099374Y1989125D02*
X2100503D01*
X2084384Y1908125D02*
X2099056D01*
X2084549Y1921625D02*
X2098891D01*
X2085184Y1909025D02*
X2098256D01*
X2085244Y1920725D02*
X2098196D01*
X2085456Y1909925D02*
X2097984D01*
X2085466Y1919825D02*
X2097974D01*
X2085470Y1918925D02*
X2097970D01*
X2085470Y1918025D02*
X2097970D01*
X2085470Y1917125D02*
X2097970D01*
X2085470Y1916225D02*
X2097970D01*
X2085470Y1915325D02*
X2097970D01*
X2085470Y1914425D02*
X2097970D01*
X2085470Y1913525D02*
X2097970D01*
X2085470Y1912625D02*
X2097970D01*
X2085470Y1911725D02*
X2097970D01*
X2085470Y1910825D02*
X2097970D01*
X2080790Y2020625D02*
X2083746D01*
X2080790Y2019725D02*
X2082813D01*
X2080798Y2018825D02*
X2081913D01*
X1921887Y1908125D02*
X2069556D01*
X1925009Y1921625D02*
X2069391D01*
X1921887Y1909025D02*
X2068756D01*
X1925009Y1920725D02*
X2068696D01*
X1921887Y1909925D02*
X2068484D01*
X1925009Y1919825D02*
X2068474D01*
X1925009Y1918925D02*
X2068470D01*
X1924832Y1918025D02*
X2068470D01*
X1924218Y1917125D02*
X2068470D01*
X1921896Y1916225D02*
X2068470D01*
X1921887Y1915325D02*
X2068470D01*
X1921887Y1914425D02*
X2068470D01*
X1921887Y1913525D02*
X2068470D01*
X1921887Y1912625D02*
X2068470D01*
X1921887Y1911725D02*
X2068470D01*
X1921887Y1910825D02*
X2068470D01*
X1925009Y1925225D02*
X1976552D01*
X1925009Y1926125D02*
X1975124D01*
X1925009Y1927025D02*
X1974576D01*
X1925009Y1927925D02*
X1974379D01*
X1968764Y1942325D02*
X1974373D01*
X1968764Y1941425D02*
X1974373D01*
X1968764Y1940525D02*
X1974373D01*
X1968764Y1939625D02*
X1974373D01*
X1968764Y1938725D02*
X1974373D01*
X1968764Y1937825D02*
X1974373D01*
X1968764Y1936925D02*
X1974373D01*
X1968764Y1936025D02*
X1974373D01*
X1968763Y1935125D02*
X1974373D01*
X1968607Y1934225D02*
X1974373D01*
X1968119Y1933325D02*
X1974373D01*
X1966943Y1932425D02*
X1974373D01*
X1924451Y1931525D02*
X1974373D01*
X1924917Y1930625D02*
X1974373D01*
X1925009Y1929725D02*
X1974373D01*
X1925009Y1928825D02*
X1974373D01*
X1968764Y1943225D02*
X1974362D01*
X1968764Y1944125D02*
X1972714D01*
X1968764Y1945025D02*
X1971667D01*
X1968764Y1945925D02*
X1970767D01*
X1968773Y1946825D02*
X1969867D01*
X1922864Y1932425D02*
X1934238D01*
X1853407Y1933325D02*
X1933063D01*
X1853407Y1934225D02*
X1932575D01*
X1853407Y1935125D02*
X1932418D01*
X1853407Y1954925D02*
X1932418D01*
X1853407Y1954025D02*
X1932418D01*
X1853407Y1953125D02*
X1932418D01*
X1853407Y1952225D02*
X1932418D01*
X1853407Y1951325D02*
X1932418D01*
X1853407Y1950425D02*
X1932418D01*
X1853407Y1949525D02*
X1932418D01*
X1853407Y1948625D02*
X1932418D01*
X1853407Y1947725D02*
X1932418D01*
X1853407Y1946825D02*
X1932418D01*
X1853407Y1945925D02*
X1932418D01*
X1853407Y1945025D02*
X1932418D01*
X1853407Y1944125D02*
X1932418D01*
X1853407Y1943225D02*
X1932418D01*
X1853407Y1942325D02*
X1932418D01*
X1853407Y1941425D02*
X1932418D01*
X1853407Y1940525D02*
X1932418D01*
X1853407Y1939625D02*
X1932418D01*
X1853407Y1938725D02*
X1932418D01*
X1853407Y1937825D02*
X1932418D01*
X1853407Y1936925D02*
X1932418D01*
X1853407Y1936025D02*
X1932418D01*
X1853407Y1955825D02*
X1932343D01*
X1908351Y2044925D02*
X1919922D01*
X1918399Y1956725D02*
X1919820D01*
X1907993Y2044025D02*
X1919122D01*
X1906968Y2043125D02*
X1918780D01*
X1853407Y2042225D02*
X1918719D01*
X1853407Y2041325D02*
X1918719D01*
X1853407Y2040425D02*
X1918719D01*
X1853407Y2039525D02*
X1918719D01*
X1853407Y2038625D02*
X1918719D01*
X1853407Y2037725D02*
X1918719D01*
X1853407Y2036825D02*
X1918719D01*
X1853407Y2035925D02*
X1918719D01*
X1853407Y2035025D02*
X1918719D01*
X1853407Y2034125D02*
X1918719D01*
X1853407Y2033225D02*
X1918719D01*
X1853407Y2032325D02*
X1918719D01*
X1853407Y2031425D02*
X1918719D01*
X1853407Y2030525D02*
X1918719D01*
X1853407Y2029625D02*
X1918719D01*
X1853407Y2028725D02*
X1918719D01*
X1853407Y2027825D02*
X1918719D01*
X1853407Y2026925D02*
X1918719D01*
X1853407Y2026025D02*
X1918719D01*
X1853407Y2025125D02*
X1918719D01*
X1917920Y2024225D02*
X1918512D01*
X1877468Y2043125D02*
X1892819D01*
X1878186Y2056625D02*
X1892101D01*
X1878493Y2044025D02*
X1891794D01*
X1878747Y2055725D02*
X1891540D01*
X1878851Y2044925D02*
X1891436D01*
X1878893Y2054825D02*
X1891393D01*
X1878893Y2053925D02*
X1891393D01*
X1878893Y2053025D02*
X1891393D01*
X1878893Y2052125D02*
X1891393D01*
X1878893Y2051225D02*
X1891393D01*
X1878893Y2050325D02*
X1891393D01*
X1878893Y2049425D02*
X1891393D01*
X1878893Y2048525D02*
X1891393D01*
X1878893Y2047625D02*
X1891393D01*
X1878893Y2046725D02*
X1891393D01*
X1878893Y2045825D02*
X1891393D01*
X1853407Y1932425D02*
X1868882D01*
X1853407Y1901825D02*
X1867740D01*
X1853407Y1931525D02*
X1867295D01*
X1853407Y1918025D02*
X1866914D01*
X1853407Y1930625D02*
X1866829D01*
X1853407Y1918925D02*
X1866737D01*
X1853407Y1929725D02*
X1866737D01*
X1853407Y1928825D02*
X1866737D01*
X1853407Y1927925D02*
X1866737D01*
X1853407Y1927025D02*
X1866737D01*
X1853407Y1926125D02*
X1866737D01*
X1853407Y1925225D02*
X1866737D01*
X1853407Y1924325D02*
X1866737D01*
X1853407Y1923425D02*
X1866737D01*
X1853407Y1922525D02*
X1866737D01*
X1853407Y1921625D02*
X1866737D01*
X1853407Y1920725D02*
X1866737D01*
X1853407Y1919825D02*
X1866737D01*
X1853407Y1917125D02*
X1866462D01*
X1853407Y1902725D02*
X1866210D01*
X1853407Y1916225D02*
X1865841D01*
X1853407Y1903625D02*
X1865750D01*
X1853407Y1915325D02*
X1865660D01*
X1853407Y1914425D02*
X1865660D01*
X1853407Y1913525D02*
X1865660D01*
X1853407Y1912625D02*
X1865660D01*
X1853407Y1911725D02*
X1865660D01*
X1853407Y1910825D02*
X1865660D01*
X1853407Y1909925D02*
X1865660D01*
X1853407Y1909025D02*
X1865660D01*
X1853407Y1908125D02*
X1865660D01*
X1853407Y1907225D02*
X1865660D01*
X1853407Y1906325D02*
X1865660D01*
X1853407Y1905425D02*
X1865660D01*
X1853407Y1904525D02*
X1865660D01*
X1853407Y2043125D02*
X1863319D01*
X1853407Y2056625D02*
X1862601D01*
X1853407Y2044025D02*
X1862294D01*
X1853407Y2055725D02*
X1862040D01*
X1853407Y2044925D02*
X1861936D01*
X1853407Y2054825D02*
X1861893D01*
X1853407Y2053925D02*
X1861893D01*
X1853407Y2053025D02*
X1861893D01*
X1853407Y2052125D02*
X1861893D01*
X1853407Y2051225D02*
X1861893D01*
X1853407Y2050325D02*
X1861893D01*
X1853407Y2049425D02*
X1861893D01*
X1853407Y2048525D02*
X1861893D01*
X1853407Y2047625D02*
X1861893D01*
X1853407Y2046725D02*
X1861893D01*
X1853407Y2045825D02*
X1861893D01*
X1853407Y2024225D02*
X1860609D01*
X1853407Y1956725D02*
X1860131D01*
X1853407Y2023325D02*
X1859640D01*
X1853407Y1957625D02*
X1859437D01*
X1853407Y2022425D02*
X1859223D01*
X1853407Y1958525D02*
X1859150D01*
X1853407Y2021525D02*
X1859116D01*
X1853407Y2020625D02*
X1859116D01*
X1853407Y2019725D02*
X1859116D01*
X1853407Y2018825D02*
X1859116D01*
X1853407Y2017925D02*
X1859116D01*
X1853407Y2017025D02*
X1859116D01*
X1853407Y2016125D02*
X1859116D01*
X1853407Y2015225D02*
X1859116D01*
X1853407Y2014325D02*
X1859116D01*
X1853407Y2013425D02*
X1859116D01*
X1853407Y2012525D02*
X1859116D01*
X1853407Y2011625D02*
X1859116D01*
X1853407Y2010725D02*
X1859116D01*
X1853407Y2009825D02*
X1859116D01*
X1853407Y2008925D02*
X1859116D01*
X1853407Y2008025D02*
X1859116D01*
X1853407Y2007125D02*
X1859116D01*
X1853407Y2006225D02*
X1859116D01*
X1853407Y2005325D02*
X1859116D01*
X1853407Y2004425D02*
X1859116D01*
X1853407Y2003525D02*
X1859116D01*
X1853407Y2002625D02*
X1859116D01*
X1853407Y2001725D02*
X1859116D01*
X1853407Y2000825D02*
X1859116D01*
X1853407Y1999925D02*
X1859116D01*
X1853407Y1999025D02*
X1859116D01*
X1853407Y1998125D02*
X1859116D01*
X1853407Y1997225D02*
X1859116D01*
X1853407Y1996325D02*
X1859116D01*
X1853407Y1995425D02*
X1859116D01*
X1853407Y1994525D02*
X1859116D01*
X1853407Y1993625D02*
X1859116D01*
X1853407Y1992725D02*
X1859116D01*
X1853407Y1991825D02*
X1859116D01*
X1853407Y1990925D02*
X1859116D01*
X1853407Y1990025D02*
X1859116D01*
X1853407Y1989125D02*
X1859116D01*
X1853407Y1988225D02*
X1859116D01*
X1853407Y1987325D02*
X1859116D01*
X1853407Y1986425D02*
X1859116D01*
X1853407Y1985525D02*
X1859116D01*
X1853407Y1984625D02*
X1859116D01*
X1853407Y1983725D02*
X1859116D01*
X1853407Y1982825D02*
X1859116D01*
X1853407Y1981925D02*
X1859116D01*
X1853407Y1981025D02*
X1859116D01*
X1853407Y1980125D02*
X1859116D01*
X1853407Y1979225D02*
X1859116D01*
X1853407Y1978325D02*
X1859116D01*
X1853407Y1977425D02*
X1859116D01*
X1853407Y1976525D02*
X1859116D01*
X1853407Y1975625D02*
X1859116D01*
X1853407Y1974725D02*
X1859116D01*
X1853407Y1973825D02*
X1859116D01*
X1853407Y1972925D02*
X1859116D01*
X1853407Y1972025D02*
X1859116D01*
X1853407Y1971125D02*
X1859116D01*
X1853407Y1970225D02*
X1859116D01*
X1853407Y1969325D02*
X1859116D01*
X1853407Y1968425D02*
X1859116D01*
X1853407Y1967525D02*
X1859116D01*
X1853407Y1966625D02*
X1859116D01*
X1853407Y1965725D02*
X1859116D01*
X1853407Y1964825D02*
X1859116D01*
X1853407Y1963925D02*
X1859116D01*
X1853407Y1963025D02*
X1859116D01*
X1853407Y1962125D02*
X1859116D01*
X1853407Y1961225D02*
X1859116D01*
X1853407Y1960325D02*
X1859116D01*
X1853407Y1959425D02*
X1859116D01*
X1848960Y2079080D02*
X2145667D01*
Y1886648*
X1848960*
Y2079080*
G54D16*
X1972577Y1949772D02*
X1974830Y1947520D01*
X1980630*
X1972577Y1949772D02*
Y1956044D01*
X1974420Y1957887*
X1980262*
X1980630Y1957520*
X1953205Y1954150D02*
X1954835Y1952520D01*
X1959370*
X1953205Y1954150D02*
Y1957224D01*
X1954248Y1958267*
X1958623*
X1959370Y1957520*
X1952525Y1943900D02*
Y1946038D01*
X1954007Y1947520*
X1959370*
X1952525Y1943900D02*
Y1943051D01*
X1954298Y1941278*
X1958129*
X1959370Y1942520*
X1939335Y1946664D02*
Y1997141D01*
X1947322Y2005128*
X1953158*
X1939335Y1946664D02*
X1942100Y1943900D01*
X1952525*
X2023230Y1953479D02*
X2024190Y1952520D01*
X2029370*
X2023230Y1953479D02*
Y1956476D01*
X2024274Y1957520*
X2029370*
X2043122Y1955405D02*
Y1949772D01*
X2045375Y1947520*
X2050630*
X2043122Y1955405D02*
X2045594Y1957876D01*
X2050486*
X2050630Y1957520*
X1994693Y1931574D02*
X2062781D01*
X2072332Y1941125*
X2025137Y1945420D02*
Y1947520D01*
X2029370*
X2025137Y1945420D02*
Y1942520D01*
X2029370*
X2050630Y1957520D02*
Y1958130D01*
X2060000Y1967500*
X2050630Y1952520D02*
X2060938D01*
X2071313Y1942144*
X2050630Y1942520D02*
X2070938D01*
X2071313Y1942144*
X1980630Y1957520D02*
X1990610Y1967500D01*
X1992500*
X1980630Y1952520D02*
X1991314D01*
X1994693Y1949141*
Y1931574*
X1980630Y1942520D02*
Y1938024D01*
X1987080Y1931574*
X1994693*
X2076970Y1914937D02*
X2106470D01*
X2132180*
Y2038948*
X2071313Y1942144D02*
X2072332Y1941125D01*
X2078549Y1947341*
X2086125Y1954918*
Y2002875*
X2093250Y2010000*
X1870393Y2050133D02*
X1899893D01*
X1899893D02*
X2120996D01*
X2132180Y2038948*
X1913250Y2010000D02*
X1886750D01*
X1873250*
X1972782Y1999463D02*
Y2005877D01*
X1975546Y2008641*
X1980630*
Y2007520*
X1972782Y1999463D02*
X1974727Y1997518D01*
X1980007*
X1980630Y1997520*
X1953857Y1992179D02*
Y1997520D01*
X1959370*
X1953857Y1992179D02*
X1959370D01*
Y1957520*
X1953158Y2005128D02*
Y2007520D01*
X1959370*
X1953158Y2005128D02*
Y2002520D01*
X1959370*
X1926750Y2010000D02*
X1935872Y2019122D01*
X1988140*
X1926750Y2010000D02*
Y1988814D01*
X1926843Y1988721*
X1913250Y2010000D02*
Y1988814D01*
X1913343Y1988721*
X1959370Y1992520D02*
Y1992179D01*
X2042815Y2008890D02*
Y1999798D01*
X2045107Y1997506*
X2049700*
X2050630Y1997520*
X2042815Y2008890D02*
X2044775Y2010850D01*
X2049220*
X2050593Y2009477*
Y2007557*
X2050630Y2007520*
X2005034Y2002228D02*
X1995850Y2011412D01*
X1988140Y2019122*
X2062781*
X2067286Y2014617*
Y2011948*
X2012974Y2002222D02*
Y1948550D01*
X2016104Y1945420*
X2025137*
X2012974Y2002222D02*
X2015843Y2005092D01*
X2020702*
X2020916Y2005306*
X2022709Y1992854D02*
Y1995498D01*
X2024730Y1997520*
X2029370*
X2022709Y1992854D02*
X2024209Y1991355D01*
X2028205*
X2029370Y1992520*
X2020916Y2005306D02*
X2022789Y2007178D01*
X2029029*
X2029370Y2007520*
X2020916Y2005306D02*
X2023702Y2002520D01*
X2029370*
Y1992520D02*
Y1957520D01*
X2050630Y2002520D02*
X2065125D01*
X2067286Y2004680*
Y2011948*
X2050630Y1997520D02*
X2062576D01*
X2065000Y1995096*
Y1995000*
X2066698Y1993302*
X2067500Y1992500*
X2050630Y1992520D02*
Y1983792D01*
X2054214Y1980208*
X2054214D02*
X2073634D01*
X2076091Y1982665*
Y2009491*
X1980630Y2002520D02*
X1986957D01*
X1995850Y2011412*
X1980630Y1997520D02*
X1993081D01*
X1995000Y1995601*
Y1995000*
X1980630Y1992520D02*
X1988949Y1984201D01*
X1999812*
X2005034Y1989423*
Y2002228*
X2067286Y2011948D02*
X2073634D01*
X2076091Y2009491*
X2093250Y2010000D02*
X2106750D01*
G54D17*
X1992500Y1967500D03*
X2060000D03*
X1995000Y1995000D03*
X2067500Y1992500D03*
G74*
X0Y0D02*
M02*
